<svg width="30" height="30" viewBox="0 0 30 30" fill="none" xmlns="http://www.w3.org/2000/svg">
<g clip-path="url(#clip0)">
<path d="M28.7695 7.55681V22.4416C28.7695 23.1799 28.3446 23.8524 27.6775 24.17L15.8248 29.8128C15.5641 29.9372 15.2817 29.9992 15 29.9992C14.7183 29.9992 14.4365 29.9372 14.1759 29.8128L2.3226 24.17C1.65539 23.8524 1.23047 23.1799 1.23047 22.4416V7.55681C1.23047 7.17326 1.34484 6.80752 1.54928 6.4999C1.73713 6.21525 2.00227 5.98041 2.32295 5.82847L14.1759 0.185311C14.6972 -0.0629504 15.3029 -0.0629504 15.8248 0.185311L27.6778 5.82847C27.9984 5.98035 28.2629 6.21525 28.4508 6.4999C28.6552 6.80752 28.7695 7.1732 28.7695 7.55681Z" fill="#E53935"/>
<path d="M28.4507 6.4999C28.2629 6.21525 27.9984 5.98041 27.6777 5.82847L15.8248 0.185311C15.3028 -0.0629504 14.6972 -0.0629504 14.1758 0.185311L14.0944 0.2241L25.8659 5.82847C26.1865 5.98035 26.4511 6.21525 26.6389 6.4999C26.8433 6.80752 26.9577 7.1732 26.9577 7.55681V22.4416C26.9577 23.1799 26.5328 23.8524 25.8656 24.17L14.0944 29.774L14.1758 29.8128C14.4365 29.9372 14.7183 29.9992 15 29.9992C15.2817 29.9992 15.5641 29.9372 15.8248 29.8128L27.6775 24.17C28.3446 23.8524 28.7695 23.1799 28.7695 22.4416V7.55681C28.7695 7.1732 28.6552 6.80752 28.4507 6.4999Z" fill="#D32F2F"/>
<path d="M15 12.9046V30C14.7183 30 14.4365 29.9381 14.1759 29.8136L2.3226 24.1709C1.65539 23.8533 1.23047 23.1807 1.23047 22.4425V7.55765C1.23047 7.17409 1.34484 6.80835 1.54928 6.50073L15 12.9046Z" fill="#F44336"/>
<path d="M28.7695 7.55765V22.4429C28.7695 23.173 28.353 23.8399 27.6975 24.1616C27.6911 24.1648 27.6841 24.168 27.6777 24.1712L15.8248 29.8137C15.5641 29.9381 15.2817 30 15 30V12.9046L28.4507 6.50073C28.6552 6.80835 28.7695 7.17403 28.7695 7.55765Z" fill="#D32F2F"/>
<path d="M28.4507 6.50073L26.9276 7.22589C26.9467 7.33435 26.9577 7.44509 26.9577 7.55765V22.4429C26.9577 23.173 26.5412 23.8399 25.8857 24.1616C25.8793 24.1648 25.8722 24.168 25.8659 24.1712L15 29.3438V30C15.2817 30 15.5641 29.9381 15.8248 29.8136L27.6777 24.1711C27.6841 24.1679 27.6911 24.1647 27.6975 24.1615C28.353 23.8399 28.7695 23.173 28.7695 22.4428V7.55765C28.7695 7.17403 28.6552 6.80835 28.4507 6.50073Z" fill="#C62828"/>
<path d="M23.9781 18.1167C24.094 17.2593 23.6756 16.4949 23.0436 16.4095C22.4116 16.324 21.8053 16.9498 21.6893 17.8072C21.5734 18.6646 21.9918 19.429 22.6238 19.5144C23.2558 19.5999 23.8621 18.9741 23.9781 18.1167Z" fill="#F1F1F1"/>
<path d="M11.2608 16.9919C11.8947 16.957 12.3699 16.2281 12.3224 15.3638C12.2748 14.4994 11.7224 13.8271 11.0885 13.862C10.4546 13.8969 9.97938 14.6258 10.027 15.4901C10.0745 16.3545 10.627 17.0268 11.2608 16.9919Z" fill="#F1F1F1"/>
<path d="M4.68678 22.678C5.32064 22.6431 5.79591 21.9142 5.74832 21.0499C5.70074 20.1855 5.14832 19.5132 4.51446 19.5481C3.8806 19.5829 3.40534 20.3119 3.45292 21.1762C3.50051 22.0405 4.05293 22.7129 4.68678 22.678Z" fill="#F1F1F1"/>
<path d="M9.50923 7.25297C10.3736 7.20538 11.0459 6.65296 11.011 6.01911C10.9761 5.38525 10.2472 4.90999 9.38286 4.95757C8.51853 5.00516 7.84615 5.55757 7.88105 6.19143C7.91595 6.82528 8.64491 7.30055 9.50923 7.25297Z" fill="#F1F1F1"/>
<path d="M14.9355 4.56846C15.7998 4.52087 16.4722 3.96846 16.4373 3.3346C16.4024 2.70074 15.6734 2.22548 14.8091 2.27306C13.9448 2.32065 13.2724 2.87306 13.3073 3.50692C13.3422 4.14078 14.0712 4.61604 14.9355 4.56846Z" fill="#F1F1F1"/>
<path d="M20.6198 7.43897C21.4841 7.39139 22.1565 6.83897 22.1216 6.20511C22.0867 5.57126 21.3577 5.09599 20.4934 5.14358C19.6291 5.19116 18.9567 5.74358 18.9916 6.37744C19.0265 7.01129 19.7554 7.48656 20.6198 7.43897Z" fill="#F1F1F1"/>
<path d="M15.3212 9.93189C16.1855 9.88431 16.8579 9.33189 16.823 8.69803C16.7881 8.06418 16.0591 7.58891 15.1948 7.6365C14.3305 7.68408 13.6581 8.2365 13.693 8.87035C13.7279 9.50421 14.4569 9.97948 15.3212 9.93189Z" fill="#F1F1F1"/>
</g>
<defs>
<clipPath id="clip0">
<rect width="30" height="30" fill="white"/>
</clipPath>
</defs>
</svg>
