<svg width="27" height="28" viewBox="0 0 27 28" fill="none" xmlns="http://www.w3.org/2000/svg">
<g clip-path="url(#clip0)">
<path fill-rule="evenodd" clip-rule="evenodd" d="M25.8026 13.5058C25.8026 19.0532 20.1148 23.5504 13.0986 23.5504C6.08253 23.5504 0.394775 19.0532 0.394775 13.5058C0.394775 7.95817 6.08253 3.46094 13.0986 3.46094C20.1148 3.46094 25.8026 7.95817 25.8026 13.5058Z" fill="#E53935"/>
<path d="M0.912419 15.9934C0.912419 15.9934 -0.00725268 5.51856 12.479 5.21924L11.6079 4.09692L4.83251 5.85525L2.89662 7.5761L1.2028 10.0827L0.234802 13.0007L0.525178 14.946" fill="#F44336"/>
<path d="M4.3975 6.6531C2.16857 8.41603 0.78929 10.8501 0.78929 13.5429C0.78929 16.2351 2.16857 18.6695 4.3975 20.432C6.6275 22.1947 9.70077 23.2824 13.0984 23.2824C16.4961 23.2824 19.5696 22.1947 21.7994 20.432C24.0282 18.6695 25.4077 16.2351 25.4077 13.5429C25.4077 10.8501 24.0282 8.41603 21.7994 6.6531C19.5696 4.89084 16.4961 3.80321 13.0984 3.80299C9.70077 3.80321 6.6275 4.89084 4.3975 6.6531ZM3.8333 20.8585C1.46447 18.9858 0 16.3977 0 13.5429C0 10.6876 1.46447 8.09977 3.8333 6.22696C6.20158 4.35381 9.47984 3.19278 13.0984 3.19312C16.717 3.19278 19.9956 4.35381 22.3634 6.22696C24.7325 8.09977 26.1972 10.6878 26.1969 13.5429C26.1972 16.3977 24.7325 18.9858 22.3634 20.8585C19.9956 22.7315 16.717 23.8924 13.0984 23.8924C9.47984 23.8924 6.20158 22.7315 3.8333 20.8585Z" fill="#344A5E"/>
<path fill-rule="evenodd" clip-rule="evenodd" d="M18.4463 13.561L16.5104 13.7855L13.8969 14.01L12.203 14.0473L10.5576 14.01L9.29924 13.7106L8.1861 12.7754L7.31497 10.8675L7.1214 10.4559L5.9599 10.1567L5.28234 9.29621L4.7984 8.06167L5.33083 6.97673L6.58904 6.64003L7.60535 7.01421L8.08941 7.83721L8.67015 7.76236L8.86366 7.57538L8.67015 6.71489L8.62166 5.62995L8.91205 4.13357L8.90067 3.27881L9.7832 2.18827L11.3319 1.32778L14.0421 0.429932L17.0426 0.766626L19.656 2.22564L20.8659 3.72202L21.6402 4.80696L21.8338 7.50052L21.253 9.81998L20.1883 11.8775L19.172 12.9625" fill="#F0D6B7"/>
<path fill-rule="evenodd" clip-rule="evenodd" d="M16.8008 20.033L9.88003 20.2575V21.1554L10.4608 24.2979L10.1704 24.5598L5.3309 23.2878L4.99203 22.8389L4.50809 18.6116L3.39514 16.0676L3.15308 15.4691L7.02466 13.4115L8.23466 13.0374L9.29929 14.0474L10.2188 14.6835L11.2836 14.9453L11.7675 15.0576L12.3482 17.0029L12.7838 17.4144L13.897 17.115L13.1226 18.2748L17.333 19.8087L16.8008 20.033Z" fill="#335061"/>
<path fill-rule="evenodd" clip-rule="evenodd" d="M5.33083 6.97647L6.58903 6.63977L7.60535 7.01395L8.0894 7.83694L8.67015 7.76208L8.81536 7.31315L8.52497 6.45279L8.81536 4.39514L8.57329 3.27282L9.44439 2.4872L11.3319 1.32752L10.7995 0.766357L8.13772 1.77644L7.02459 2.44983L6.39547 3.49728L5.42752 4.50737L5.13715 5.70455L5.33083 6.97647Z" fill="#6D6B6D"/>
<path fill-rule="evenodd" clip-rule="evenodd" d="M7.31497 3.45988C7.31497 3.45988 8.04092 2.07573 10.9447 1.40233C13.8485 0.728949 11.0898 0.915927 11.0898 0.915927L7.94422 1.85126L6.73423 2.78649L6.20197 3.53474L7.31497 3.45988Z" fill="#DCD9D8"/>
<path fill-rule="evenodd" clip-rule="evenodd" d="M5.86315 6.71524C5.86315 6.71524 4.84683 4.09643 8.71853 3.72236L8.57335 3.27344L5.91164 3.75985L5.13721 5.70516L5.33089 6.97708L5.86315 6.71524Z" fill="#DCD9D8"/>
<path fill-rule="evenodd" clip-rule="evenodd" d="M7.41187 10.1941L8.04554 9.71948C8.04554 9.71948 8.33154 9.74516 8.37986 10.007C8.42819 10.269 8.57337 12.6258 10.6543 13.8979C10.8442 14.014 9.10577 13.7107 9.10577 13.7107L7.55705 11.8403" fill="#F7E4CD"/>
<path fill-rule="evenodd" clip-rule="evenodd" d="M16.317 9.483C16.317 9.483 16.4298 8.3495 16.8249 8.43667C17.22 8.52383 17.22 8.82908 17.22 8.82908C17.22 8.82908 16.2605 9.30864 16.317 9.483Z" fill="#F7E4CD"/>
<path d="M20.3335 5.33105C20.3335 5.33105 19.5359 5.46118 19.4624 6.00413C19.3889 6.5472 20.3335 6.11632 20.4787 6.07895" fill="#F7E4CD"/>
<path d="M14.4778 5.36841C14.4778 5.36841 13.413 5.48059 13.413 6.00402C13.413 6.52756 14.623 6.4902 14.9617 6.26585" fill="#F7E4CD"/>
<path fill-rule="evenodd" clip-rule="evenodd" d="M7.89577 7.79979C7.89577 7.79979 6.05665 6.93931 5.86314 7.76242C5.66957 8.58541 5.23389 9.18405 6.15351 10.0444L5.52438 9.89481L4.94363 8.73513L4.75012 7.61281L5.86314 6.71484L7.12145 6.7897L7.84739 7.23863L7.89577 7.79979Z" fill="#F7E4CD"/>
<path fill-rule="evenodd" clip-rule="evenodd" d="M8.76691 5.44307C8.76691 5.44307 9.58968 2.15098 13.7518 1.51497C17.1784 0.991403 18.9784 1.6272 19.656 2.22573C19.656 2.22573 16.6071 -0.579946 13.7033 0.280421C10.7995 1.1409 8.6702 2.71214 8.71852 3.72211C8.80095 5.4424 8.76691 5.44307 8.76691 5.44307Z" fill="#F7E4CD"/>
<path fill-rule="evenodd" clip-rule="evenodd" d="M19.9948 2.5998C19.9948 2.5998 18.5914 2.56244 18.5429 3.5347C18.5429 3.5347 18.5427 3.68424 18.6396 3.83377C18.6396 3.83377 19.7529 2.86152 20.4304 3.38505" fill="#F7E4CD"/>
<path fill-rule="evenodd" clip-rule="evenodd" d="M13.8493 3.93578C13.8493 3.93578 13.6077 2.44278 11.961 3.31077C10.8963 3.87192 10.9932 4.65755 11.1867 4.80716C11.3803 4.95687 11.3276 5.25821 11.4749 5.05137C11.6223 4.84452 11.5737 4.17114 12.1062 3.98416C12.6386 3.79707 13.5112 3.5881 13.8493 3.93578Z" fill="#F7E4CD"/>
<path fill-rule="evenodd" clip-rule="evenodd" d="M9.2993 14.0474L4.75015 15.6187C4.75015 15.6187 6.6376 21.4172 5.66959 23.213L4.99203 23.026L4.94366 20.8187L3.68551 16.6288L3.15308 15.469L7.8958 13L9.2993 14.0474Z" fill="#49728B"/>
<path fill-rule="evenodd" clip-rule="evenodd" d="M9.76701 17.2549L10.4124 17.8636V20.1083H9.63795C9.63795 20.1083 9.54126 18.537 9.54126 18.3499C9.54126 18.1629 9.63795 17.4894 9.63795 17.4894" fill="#49728B"/>
<path fill-rule="evenodd" clip-rule="evenodd" d="M9.78326 20.4446L7.60541 20.5193L8.23466 20.8559L9.78326 21.0428" fill="#49728B"/>
<path fill-rule="evenodd" clip-rule="evenodd" d="M17.2361 20.0708L19.0267 20.0334L19.4623 23.4753L17.6232 23.6622L17.2361 20.0708Z" fill="#335061"/>
<path fill-rule="evenodd" clip-rule="evenodd" d="M17.7202 20.0703L20.4304 19.9581C20.4304 19.9581 21.5435 17.7883 21.5435 17.676C21.5435 17.5638 22.5115 14.5336 22.5115 14.5336L20.3337 12.7753L19.8981 12.4761L18.7366 13.3739V16.8531L17.7202 20.0703Z" fill="#335061"/>
<path fill-rule="evenodd" clip-rule="evenodd" d="M18.9299 19.8086L17.2361 20.0703L17.478 21.1174C18.1071 21.3418 19.1719 20.7434 19.1719 20.7434" fill="#49728B"/>
<path fill-rule="evenodd" clip-rule="evenodd" d="M18.9785 13.2617L22.3661 15.2071L22.463 14.3092L19.8979 12.4761L18.9785 13.2617Z" fill="#49728B"/>
<path fill-rule="evenodd" clip-rule="evenodd" d="M11.4628 27.441L10.4608 24.2981L9.96249 21.979L9.88007 20.2577L14.415 20.0712L17.2364 20.0708L16.9798 23.9992L17.4154 27.0295L17.3671 27.5907L13.689 27.8151L11.4628 27.441Z" fill="#2F4352"/>
<path fill-rule="evenodd" clip-rule="evenodd" d="M16.6071 20.0332C16.6071 20.0332 16.3652 23.9239 17.0912 26.6922C17.0912 26.6922 15.6393 27.4031 13.5097 27.59L17.575 27.4778L18.059 27.2533L17.4783 21.1181L17.333 19.8086" fill="#DCD9D8"/>
<path fill-rule="evenodd" clip-rule="evenodd" d="M19.5451 23.176L21.4324 22.7645L25.0136 22.6149L25.5461 21.343L24.5781 19.1357L23.4651 19.0234L21.9164 19.3976L20.4306 19.9583L19.6418 19.8465L19.027 20.0332" fill="#2F4352"/>
<path fill-rule="evenodd" clip-rule="evenodd" d="M19.5108 22.4273C19.5108 22.4273 20.769 21.9785 20.9627 22.0158L20.4304 19.9582L21.0595 19.7712C21.0595 19.7712 21.495 21.7166 21.495 21.941C21.495 21.941 24.2052 22.0532 24.4472 22.0532C24.4472 22.0532 25.0279 21.1928 24.8827 20.2949L25.4151 21.4921L25.4635 22.1654L24.6892 23.0633L23.8181 23.2129L22.3662 23.1756L21.8823 22.6893L20.1884 22.8762L19.656 23.026" fill="#DCD9D8"/>
<path d="M17.609 19.7718L16.5443 17.6768L15.4311 16.4423C15.4311 16.4423 15.673 15.9185 16.0118 15.9185C16.3507 15.9185 17.125 15.9185 17.125 15.9185L18.1897 16.2178L18.093 17.6019L17.609 19.7718Z" fill="#2F4352"/>
<path fill-rule="evenodd" clip-rule="evenodd" d="M17.817 19.0606C17.817 19.0606 16.4618 17.0405 16.4618 16.7412C16.4618 16.7412 16.7038 16.2923 17.0426 16.4045C17.3814 16.5168 18.1074 16.816 18.1074 16.816V16.1052L16.4618 15.8433L15.3488 15.9555L17.2363 19.3973L17.6234 19.4348" fill="#DCD9D8"/>
<path d="M11.8984 14.1227L10.5576 14.0101L9.29926 13.7109V14.0474L9.91412 14.5713L11.8499 15.2444" fill="#2F4352"/>
<path fill-rule="evenodd" clip-rule="evenodd" d="M9.73503 14.2346C9.73503 14.2346 11.2354 14.7208 11.7194 14.6086L11.7675 15.0569L10.4126 14.833L9.58978 14.3842L9.73503 14.2346Z" fill="#DCD9D8"/>
<path fill-rule="evenodd" clip-rule="evenodd" d="M19.5397 16.0458C18.7185 16.0271 17.9766 15.9518 17.327 15.8101C17.3712 15.6043 17.2885 15.4023 17.3549 15.254C17.536 15.1532 17.8394 15.1548 18.1131 15.1311C17.8764 15.0413 17.5439 15.0056 17.2708 15.0576C17.2645 14.9147 17.1816 14.8262 17.1313 14.7144C17.593 14.587 18.6829 13.7519 19.296 14.0284C19.5882 14.16 19.7124 14.9113 19.7349 15.2766C19.7538 15.5796 19.6994 15.8853 19.5397 16.0458Z" fill="#E53935"/>
<path d="M19.5397 16.0458C18.7185 16.0271 17.9766 15.9518 17.327 15.8101C17.3712 15.6043 17.2885 15.4023 17.3549 15.254C17.536 15.1532 17.8394 15.1548 18.1131 15.1311C17.8764 15.0413 17.5439 15.0056 17.2708 15.0576C17.2645 14.9147 17.1816 14.8262 17.1313 14.7144C17.593 14.587 18.6829 13.7519 19.296 14.0284C19.5882 14.16 19.7124 14.9113 19.7349 15.2766C19.7538 15.5796 19.6994 15.8853 19.5397 16.0458Z" stroke="#110F2F" stroke-width="2.5"/>
<path fill-rule="evenodd" clip-rule="evenodd" d="M15.6128 15.0083C15.6107 15.0563 15.608 15.1047 15.6056 15.1532C15.3492 15.2834 14.9352 15.2818 14.6538 15.3912C15.0687 15.4052 15.3952 15.4825 15.6778 15.5913C15.6715 15.7124 15.6655 15.8332 15.6595 15.9542C15.1895 16.2029 14.7602 16.5732 14.2068 16.8064C13.9452 16.9167 13.027 17.2006 12.7486 17.1504C12.5911 17.1222 12.5769 16.9711 12.514 16.8287C12.3799 16.5237 12.0711 16.0383 12.0442 15.5793C12.0099 14.9995 11.9341 14.0278 12.7424 14.1473C13.3945 14.2434 14.1529 14.4757 14.6578 14.6889C14.9663 14.8193 15.1447 14.9805 15.6128 15.0083Z" fill="#110F2F"/>
<path d="M15.6128 15.0083C15.6107 15.0563 15.608 15.1047 15.6056 15.1532C15.3492 15.2834 14.9352 15.2818 14.6538 15.3912C15.0687 15.4052 15.3952 15.4825 15.6778 15.5913C15.6715 15.7124 15.6655 15.8332 15.6595 15.9542C15.1895 16.2029 14.7602 16.5732 14.2068 16.8064C13.9452 16.9167 13.027 17.2006 12.7486 17.1504C12.5911 17.1222 12.5769 16.9711 12.514 16.8287C12.3799 16.5237 12.0711 16.0383 12.0442 15.5793C12.0099 14.9995 11.9341 14.0278 12.7424 14.1473C13.3945 14.2434 14.1529 14.4757 14.6578 14.6889C14.9663 14.8193 15.1447 14.9805 15.6128 15.0083Z" stroke="#110F2F" stroke-width="2.5"/>
<path fill-rule="evenodd" clip-rule="evenodd" d="M16.0796 15.6994C16.0079 15.3837 15.925 15.2936 15.957 15.0182C17.0467 14.4569 17.2512 15.9824 16.0796 15.6994Z" fill="#110F2F"/>
<path d="M16.0796 15.6994C16.0079 15.3837 15.925 15.2936 15.957 15.0182C17.0467 14.4569 17.2512 15.9824 16.0796 15.6994Z" stroke="#110F2F" stroke-width="2.5"/>
<path fill-rule="evenodd" clip-rule="evenodd" d="M17.6574 15.9561C17.6574 15.9561 17.3185 15.5819 17.5605 15.4697C17.8026 15.3575 18.0447 15.4698 18.1898 15.2827C18.335 15.0956 18.1898 14.9834 18.2381 14.7589C18.2865 14.5344 18.5287 14.497 18.7706 14.4596C19.0124 14.4222 19.6902 14.3473 19.7869 14.5344L19.4965 13.861L18.9157 13.7114L17.0767 14.5344L16.9798 14.946V15.769" fill="#110F2F"/>
<path fill-rule="evenodd" clip-rule="evenodd" d="M12.5757 17.1906C12.5176 16.6068 12.4561 16.0237 12.3875 15.4404C12.2852 14.5696 12.6582 14.7215 13.6349 14.7215C13.784 14.7215 14.5532 14.859 14.6083 14.946C14.8723 15.3627 14.1669 15.2701 14.9124 15.5843C15.5416 15.8495 16.6531 15.4233 16.3989 14.8337C16.2566 14.7026 15.6576 14.7928 15.4429 14.7068C15.0648 14.5553 14.6867 14.4037 14.3086 14.2523C13.8275 14.0594 12.7158 13.7781 12.2029 14.0477C10.9035 14.7308 12.2849 16.4378 12.7485 17.1504" fill="#110F2F"/>
<path fill-rule="evenodd" clip-rule="evenodd" d="M13.8494 3.93541C12.5304 3.69804 11.8749 4.36192 11.4751 5.05048C11.118 4.98362 11.2601 4.60849 11.3503 4.41733C11.5864 3.91567 12.5379 3.24787 13.3153 3.33839C13.6499 3.37732 14.1027 3.61368 13.8494 3.93541Z" fill="#231F20"/>
<path fill-rule="evenodd" clip-rule="evenodd" d="M20.2762 5.09668C20.297 5.09735 20.318 5.09791 20.3388 5.09858C20.6368 5.57703 20.8949 6.08386 21.2709 6.50621C21.0189 6.95953 19.3634 7.36069 19.3889 6.54672C19.747 6.42578 20.3651 6.52203 20.6824 6.36756C20.4989 5.97841 20.2341 5.64714 20.2762 5.09668Z" fill="#231F20"/>
<path fill-rule="evenodd" clip-rule="evenodd" d="M14.5247 5.10962C14.8075 5.51039 14.8995 5.93149 15.3016 6.23441C15.4826 6.37076 15.8346 6.53697 15.6602 6.91621C15.6194 7.00566 15.3213 7.20509 15.1492 7.24426C14.5207 7.38769 13.0562 7.27389 13.5521 6.66818C14.0719 6.68692 14.7705 6.92912 15.1591 6.63743C14.8608 6.26874 14.3288 5.53935 14.5247 5.10962Z" fill="#231F20"/>
<path fill-rule="evenodd" clip-rule="evenodd" d="M20.0403 9.18294C19.094 9.65282 18.0388 10.1639 16.4882 10.0454C16.1568 9.82268 16.0306 9.32716 16.3524 8.9999C16.5199 9.22256 16.4147 9.63209 16.8816 9.69372C17.7615 9.81007 18.7855 9.27767 19.4184 9.09159C19.8108 8.58015 19.3845 8.39205 19.031 8.06287C18.3072 7.38848 17.3363 6.55258 17.3717 5.54295C17.6642 5.37898 17.6895 5.79322 17.7314 5.86864C18.1093 6.55236 19.0604 7.42675 19.7546 8.01193C19.9251 8.15604 20.2057 8.2943 20.2369 8.38958C20.3269 8.66668 20.0027 8.99867 20.0403 9.18294Z" fill="#231F20"/>
<path fill-rule="evenodd" clip-rule="evenodd" d="M7.56461 8.68744C7.26798 8.55664 7.19738 7.98049 6.84914 7.96411C6.35149 7.94078 6.44223 8.71157 6.44421 9.1623C6.10166 8.92202 6.04142 8.18219 6.29307 7.80224C6.00627 7.69342 5.8782 7.92227 5.71912 8.00293C5.92357 6.85533 7.89185 7.47064 7.56461 8.68744Z" fill="#231F20"/>
<path fill-rule="evenodd" clip-rule="evenodd" d="M20.6428 9.66064C20.2023 10.3085 19.5791 11.0219 18.2865 11.0427C18.2603 10.8335 18.2401 10.5151 18.288 10.3891C19.2761 10.3158 19.8862 9.9272 20.6428 9.66064Z" fill="#231F20"/>
<path fill-rule="evenodd" clip-rule="evenodd" d="M14.4501 10.0811C15.2746 10.416 16.7897 10.4521 17.9103 10.4267C17.9704 10.6164 17.9689 10.8507 17.9713 11.0821C16.5309 11.1376 14.8278 10.8622 14.4501 10.0811Z" fill="#231F20"/>
<path fill-rule="evenodd" clip-rule="evenodd" d="M14.2935 10.7058C14.8636 11.8117 16.8231 11.6844 18.4754 11.6539C18.4027 11.7975 18.245 11.9671 18.049 12.0285C17.5196 12.1949 16.0591 12.3213 15.324 12.0197C14.8578 11.8281 14.5583 11.3955 14.3028 11.1419C14.1795 11.0193 13.5653 10.7065 14.2935 10.7058Z" fill="#231F20"/>
<path fill-rule="evenodd" clip-rule="evenodd" d="M19.9714 16.8093C19.3024 17.695 18.6623 18.6048 17.8685 19.3861C18.2013 18.6297 18.3437 17.3638 18.394 16.3988C19.0902 16.1469 19.6863 16.4554 19.9714 16.8093Z" fill="#81B0C4"/>
<path fill-rule="evenodd" clip-rule="evenodd" d="M23.5715 19.9927C22.8225 20.1086 22.2961 20.671 21.5654 20.6349C21.9671 20.1975 22.6707 20.0131 23.5715 19.9927Z" fill="#231F20"/>
<path fill-rule="evenodd" clip-rule="evenodd" d="M23.902 20.8989C23.2915 20.9488 22.5743 21.0251 21.9551 20.9857C22.2483 20.6398 23.3777 20.7592 23.902 20.8989Z" fill="#231F20"/>
<path fill-rule="evenodd" clip-rule="evenodd" d="M24.1136 21.6802C23.4275 21.6916 22.5746 21.681 21.9224 21.6387C22.3082 21.3186 23.6687 21.52 24.1136 21.6802Z" fill="#231F20"/>
<path fill-rule="evenodd" clip-rule="evenodd" d="M18.6804 23.818C18.7788 24.4841 19.1204 25.159 19.0776 25.8886C18.6982 25.9874 18.4804 26.0739 17.972 26.0734C17.9362 25.4534 17.8288 24.5056 17.861 23.9147C18.1109 23.9275 18.4796 23.7766 18.6804 23.818Z" fill="#DCD9D8"/>
<path fill-rule="evenodd" clip-rule="evenodd" d="M17.5742 14.0007C17.2296 14.1745 16.9362 14.3914 16.6053 14.577C15.8715 14.6051 15.4711 14.5378 14.932 14.2121C14.9408 14.186 14.995 14.1977 14.997 14.1657C15.7825 14.4361 16.781 14.0554 17.5742 14.0007Z" fill="#F0D6B7"/>
<path fill-rule="evenodd" clip-rule="evenodd" d="M13.4507 18.1396C13.6666 17.4167 14.5122 17.0424 15.2801 16.6443C16.0727 17.4218 16.5547 18.4218 17.0855 19.3868C15.8314 19.0945 14.5499 18.6203 13.4507 18.1396Z" fill="#81B0C4"/>
<path fill-rule="evenodd" clip-rule="evenodd" d="M17.861 23.9139C17.8289 24.505 17.9363 25.4527 17.9721 26.0727C18.4804 26.0732 18.6983 25.9868 19.0777 25.8879C19.1206 25.1583 18.7789 24.4834 18.6804 23.8174C18.4796 23.7759 18.111 23.9267 17.861 23.9139ZM9.94619 20.5527C10.2814 22.9347 10.7669 24.9369 11.6573 27.0461C13.6334 27.5099 16.0158 27.5504 17.7626 27.1318C17.4419 25.9414 17.582 24.4921 17.3945 23.2217C17.2532 22.2668 17.3252 21.3061 17.1316 20.332C15.0151 19.9916 12.0234 20.2524 9.94619 20.5527ZM17.632 20.3469C17.6142 21.3699 17.6913 22.379 17.7923 23.4032C18.3005 23.3442 18.6454 23.3049 19.1175 23.2249C18.9641 22.2388 18.983 21.1292 18.6707 20.257C18.3098 20.2597 17.992 20.2537 17.632 20.3469ZM20.2099 20.182C19.9687 20.1392 19.6879 20.1803 19.4575 20.1838C19.5659 21.0177 19.8286 21.9379 19.9211 22.8132C20.2836 22.822 20.4773 22.6897 20.7755 22.6453C20.7915 21.8769 20.6887 20.8184 20.2099 20.182ZM24.1131 22.9388C24.8688 22.7969 25.344 22.0814 25.1326 21.3466C24.9908 20.8528 24.7382 19.923 24.4678 19.6071C24.268 19.3734 23.7263 19.0675 23.2938 19.2816C22.5902 19.6299 21.3508 19.7309 20.8377 20.1525C21.0949 20.8146 21.1748 21.7242 21.2809 22.5632C22.1599 22.6056 23.2414 22.3763 23.9724 22.6196C23.4621 22.7473 22.7999 22.7484 22.3589 22.9347C22.7193 23.0692 23.563 23.042 24.1131 22.9388ZM17.0856 19.3862C16.5548 18.4212 16.0728 17.4212 15.2802 16.6437C14.5123 17.0418 13.6667 17.4162 13.4508 18.139C14.55 18.6197 15.8314 19.094 17.0856 19.3862ZM18.394 16.398C18.3437 17.3631 18.2014 18.629 17.8685 19.3853C18.6623 18.604 19.3025 17.6943 19.9715 16.8085C19.6863 16.4547 19.0902 16.1462 18.394 16.398ZM16.9108 15.9906C16.6101 15.9656 16.3549 16.2579 15.9638 16.1314C15.8742 16.208 15.7929 16.2909 15.7015 16.3657C16.565 17.1702 16.9575 18.3116 17.6245 19.257C17.9824 18.3488 17.9412 17.3539 18.02 16.3626C17.5282 16.3868 17.2554 16.0189 16.9108 15.9906ZM15.957 15.0175C15.925 15.2931 16.0078 15.3832 16.0796 15.699C17.2512 15.9822 17.0466 14.456 15.957 15.0175ZM14.6577 14.6878C14.1528 14.4746 13.3945 14.2424 12.7423 14.1462C11.934 14.0267 12.0098 14.9985 12.0441 15.5783C12.071 16.0373 12.3798 16.5227 12.514 16.8276C12.5769 16.97 12.5911 17.1211 12.7486 17.1494C13.0269 17.1996 13.9451 16.9157 14.2067 16.8054C14.7601 16.5722 15.1895 16.2018 15.6594 15.9532C15.6655 15.8322 15.6714 15.7112 15.6777 15.5903C15.3952 15.4814 15.0686 15.4042 14.6538 15.3902C14.9352 15.2808 15.3491 15.2824 15.6055 15.1521C15.608 15.1036 15.6106 15.0553 15.6128 15.0073C15.1447 14.9794 14.9662 14.8183 14.6577 14.6878ZM9.8355 14.0108C9.41646 14.3396 11.0107 14.7878 11.5183 14.8119C11.5155 14.6039 11.6718 14.4077 11.6403 14.2585C11.0374 14.1766 10.2451 14.2306 9.8355 14.0108ZM14.9972 14.1652C14.9951 14.1972 14.941 14.1856 14.9321 14.2118C15.4712 14.5375 15.8717 14.6048 16.6055 14.5767C16.9363 14.3911 17.2298 14.1741 17.5743 14.0002C16.7811 14.0549 15.7826 14.4358 14.9972 14.1652ZM19.735 15.2757C19.7123 14.9104 19.5882 14.1591 19.2961 14.0276C18.6829 13.7509 17.593 14.5861 17.1313 14.7135C17.1816 14.8253 17.2644 14.9139 17.2708 15.0568C17.5439 15.0047 17.8764 15.0403 18.1131 15.1302C17.8394 15.154 17.5359 15.1524 17.3549 15.2531C17.2886 15.4014 17.3712 15.6034 17.327 15.8093C17.9766 15.9509 18.7185 16.0263 19.5397 16.045C19.6994 15.8845 19.7538 15.5787 19.735 15.2757ZM9.13008 14.3288C8.99856 14.2563 8.1084 13.361 7.98646 13.3982C6.37579 13.8892 4.86974 14.7383 3.52392 15.5413C4.80707 17.6696 5.32504 20.2772 5.41657 22.7905C6.88649 23.3219 8.17759 24.088 10.1722 24.1681C9.94138 22.9056 9.73068 21.7794 9.59969 20.5909C9.09849 20.4276 8.37948 20.5983 7.91047 20.5402C7.90649 20.1033 8.62677 20.3489 8.68676 20.0551C8.73197 19.8329 8.29045 19.8161 8.43422 19.4661C8.8009 19.5691 8.9934 19.7967 9.38444 19.8822C9.74179 19.2779 9.37945 18.2088 9.43099 17.7037C9.4407 17.6089 9.49224 17.1784 9.76699 17.2539C10.0102 17.3208 9.75308 18.3989 9.77977 18.8769C9.804 19.3173 9.71099 19.7434 9.94164 20.0198C11.8691 19.817 13.8277 19.686 15.9132 19.6417C15.4544 19.4895 14.9094 19.3455 14.3117 19.0852C13.9878 18.944 12.9667 18.6503 12.8732 18.4124C12.7241 18.0334 13.2645 17.8315 13.357 17.5067C12.3841 17.9168 12.1942 17.1135 11.9641 16.5443C11.7556 16.0289 11.6369 15.6438 11.5857 15.3465C10.7476 15.0376 9.85151 14.7249 9.13008 14.3288ZM18.8837 13.5065C20.2257 13.0035 20.4675 15.3865 19.9416 16.1541C20.0229 16.3831 20.3025 16.4708 20.4166 16.6766C19.6677 17.7136 18.8359 18.6815 18.0718 19.7064C18.6403 19.4329 19.4521 19.6574 20.121 19.4527C20.3655 19.3779 20.5425 18.9453 20.7276 18.5992C21.2368 17.6469 21.7714 16.4464 22.0092 15.5376C22.0629 15.3305 22.2092 14.8794 22.1764 14.6951C22.118 14.3652 21.5388 14.1205 21.2442 13.9164C20.7015 13.5396 20.3597 13.208 19.7936 12.8555C19.5641 13.1175 19.0715 13.2934 18.8837 13.5065ZM6.06102 4.30709C5.42156 4.85097 5.55541 5.87003 5.63283 6.59504C6.78866 6.03299 8.32278 6.63949 8.30831 7.59548C8.86014 7.58415 8.51446 7.06271 8.41465 6.72681C8.08844 5.62963 8.96418 4.43763 8.45436 3.43428C7.46441 3.4923 6.65112 3.80486 6.06102 4.30709ZM10.6364 1.15047C9.18879 1.46764 7.33351 2.28076 6.73864 3.28601C7.19927 3.23428 7.51903 3.05471 7.97342 3.03248C8.14515 3.02384 8.37013 3.08815 8.56751 3.05022C8.96085 2.9748 9.29274 2.2931 9.58945 2.03946C9.87873 1.79176 10.2264 1.68593 10.4643 1.46013C10.6171 1.40311 10.8432 1.40703 10.8518 1.2296C10.7856 1.17483 10.7158 1.13307 10.6364 1.15047ZM18.1722 1.44878C16.6696 0.793463 14.1263 0.300544 12.5281 0.916469C11.2383 1.41354 9.49504 2.23597 8.90065 3.27816C9.45593 4.28386 8.73622 5.2054 8.69028 6.22648C8.6659 6.76979 9.02123 7.24408 9.04844 7.83554C8.85848 8.07785 8.27797 8.1077 7.87615 8.0911C7.74089 7.56787 7.5041 6.97978 6.8071 6.92074C5.82084 6.83736 5.09971 7.46832 5.05491 8.12768C5.00189 8.90309 5.82537 10.1883 6.99255 10.099C7.44343 10.0646 7.55419 9.71515 8.04545 9.71879C8.31171 10.1295 7.63473 10.2584 7.56508 10.5521C7.54693 10.628 7.62123 10.9245 7.66444 11.0635C7.87644 11.7407 8.34903 12.6169 8.8142 13.1325C9.40456 13.7863 10.5646 13.8848 11.8124 13.9489C12.0353 13.5778 12.8564 13.6083 13.3913 13.7053C12.7501 13.509 12.1541 13.0332 11.6601 12.612C11.0927 12.1287 10.5179 11.6103 10.4889 10.9787C11.5612 12.1287 12.447 13.1328 14.3969 13.6387C15.8722 14.0212 17.5954 13.4634 18.7289 12.848C19.1994 12.5923 19.4802 12.1865 19.8145 11.8149C21.0656 10.4238 21.6494 8.43822 21.521 6.51368C21.4682 5.71998 21.4706 4.92897 21.126 4.39497C20.7659 3.83663 19.5481 3.33708 18.8352 3.84213C18.7031 3.29915 19.428 2.96335 20.2796 3.15874C19.6724 2.55303 19.0352 1.82521 18.1722 1.44878ZM20.9715 19.3572C22.1457 18.906 24.3394 18.1428 25.0756 19.3589C25.3472 19.8072 25.6659 20.565 25.8066 21.0277C26.0053 21.6805 25.5911 23.0527 24.723 23.2718C23.9563 23.4652 23.0617 23.4535 22.1381 23.31C22.0293 23.2401 21.9083 23.1182 21.8236 22.9912C21.1642 22.9715 20.5467 23.0185 20.0258 23.2281C20.0751 23.6051 19.7452 23.6656 19.436 23.7432C19.2068 24.4459 19.8947 25.3635 19.73 26.0042C19.6126 26.4607 18.8861 26.5313 18.3521 26.6167C18.3346 26.8704 18.3754 27.0821 18.4119 27.2967C18.2898 27.6445 17.7421 27.8424 17.2232 27.891C15.5159 28.0496 12.9237 28.121 11.2815 27.6645C10.8233 26.7956 10.4623 25.7389 10.0806 24.7467C8.47903 24.8789 7.18367 24.2125 5.96251 23.7759C5.53971 23.6243 4.95481 23.5409 4.79687 23.2807C4.64373 23.0289 4.7064 22.5461 4.66841 22.0902C4.57171 20.9256 4.48891 19.8023 4.09105 18.6097C3.91241 18.0747 3.60104 17.6025 3.38382 17.0869C3.18306 16.6091 2.83228 16.0184 2.7408 15.5419C2.60515 14.8356 3.46549 14.7963 4.01562 14.4903C4.86604 14.017 5.53358 13.7553 6.45461 13.3282C6.72741 13.2016 7.55006 12.8815 7.64363 12.734C7.82964 12.4417 7.32433 12.0294 7.18923 11.8002C6.97553 11.4379 6.86408 11.13 6.83346 10.7725C6.06085 10.678 5.47516 10.3226 5.12138 9.92179C4.53615 9.25853 4.13029 8.03138 4.63664 7.09795C4.67634 7.02445 4.87438 6.87989 4.90359 6.76699C4.96122 6.54466 4.79515 6.24904 4.78483 6.01256C4.73164 4.79935 5.05038 3.75402 6.10695 3.38815C6.53589 2.06729 8.07107 1.62813 9.51744 0.971691C10.0581 0.726352 10.6542 0.569563 11.2696 0.394482C13.4777 -0.233677 16.8654 -0.115386 18.698 0.955976C19.4751 1.41029 20.7172 2.36953 21.1614 3.06402C22.3349 4.89754 22.2515 7.9618 21.4307 10.1922C21.3204 10.4916 21.1605 10.9318 20.937 11.2915C20.7812 11.5426 20.297 12.0453 20.3558 12.267C20.4164 12.4963 21.4598 13.1087 21.6835 13.2755C22.0865 13.576 22.8518 13.9747 22.9139 14.3538C22.9805 14.7573 22.6839 15.3092 22.5336 15.6986C22.0313 16.9979 21.5411 18.1989 20.9715 19.3572Z" fill="#070613"/>
<path fill-rule="evenodd" clip-rule="evenodd" d="M13.1382 10.3637C13.2019 10.2983 13.5521 10.1987 14.0421 10.3811C14.0421 10.3811 13.4614 10.4559 13.5097 11.204L13.2677 11.1665C13.2677 11.1665 13.0176 10.4882 13.1382 10.3637Z" fill="#F7E4CD"/>
<path fill-rule="evenodd" clip-rule="evenodd" d="M17.3816 16.7973C17.3816 16.9108 17.2623 17.0029 17.1152 17.0029C16.9683 17.0029 16.8491 16.9108 16.8491 16.7973C16.8491 16.6838 16.9683 16.5916 17.1152 16.5916C17.2623 16.5916 17.3816 16.6838 17.3816 16.7973Z" fill="#1D1919"/>
<path fill-rule="evenodd" clip-rule="evenodd" d="M17.6477 17.7511C17.6477 17.8646 17.5286 17.9567 17.3815 17.9567C17.2346 17.9567 17.1153 17.8646 17.1153 17.7511C17.1153 17.6376 17.2346 17.5454 17.3815 17.5454C17.5286 17.5454 17.6477 17.6376 17.6477 17.7511Z" fill="#1D1919"/>
</g>
<defs>
<clipPath id="clip0">
<rect width="26.25" height="28" fill="white"/>
</clipPath>
</defs>
</svg>
