<svg width="25" height="25" viewBox="0 0 25 25" fill="none" xmlns="http://www.w3.org/2000/svg">
<g clip-path="url(#clip0)">
<path d="M24.8982 14.0922C25.2131 11.6399 24.7938 9.14942 23.6932 6.93558C22.5926 4.72172 20.8603 2.88394 18.7152 1.65466C16.5701 0.425381 14.1087 -0.140189 11.6422 0.0294748C9.17567 0.199139 6.81488 1.09642 4.85834 2.60783C2.9018 4.11926 1.4374 6.17693 0.650333 8.52067C-0.136733 10.8643 -0.211115 13.3888 0.436595 15.7748C1.08431 18.1608 2.42502 20.3011 4.28917 21.9251C6.15333 23.5491 8.45717 24.5838 10.9094 24.8984C14.1974 25.3203 17.5183 24.4188 20.1417 22.3922C22.765 20.3657 24.476 17.3801 24.8982 14.0922Z" fill="#FF6C37"/>
<path d="M17.045 10.5334L11.775 15.8034L10.2812 14.3109C15.47 9.1246 15.985 9.58085 17.045 10.5334Z" fill="white"/>
<path d="M11.775 15.9298C11.7584 15.9297 11.7421 15.9264 11.7268 15.9199C11.7116 15.9135 11.6978 15.904 11.6862 15.8923L10.1862 14.3923C10.163 14.3688 10.1499 14.3371 10.1499 14.3041C10.1499 14.2711 10.163 14.2395 10.1862 14.216C15.4612 8.94104 16.0162 9.43979 17.1225 10.4335C17.1352 10.4449 17.1453 10.4588 17.1524 10.4742C17.1595 10.4897 17.1633 10.5065 17.1637 10.5235C17.1643 10.5405 17.1614 10.5576 17.1552 10.5735C17.149 10.5895 17.1395 10.6039 17.1275 10.616L11.8625 15.8923C11.8394 15.9158 11.808 15.9293 11.775 15.9298ZM10.4587 14.3048L11.775 15.6248L16.8637 10.536C15.94 9.71979 15.3125 9.46604 10.4587 14.311V14.3048Z" fill="#FF6C37"/>
<path d="M13.285 17.3148L11.845 15.8748L17.1162 10.6035C18.535 12.0235 16.4312 14.3385 13.285 17.3148Z" fill="white"/>
<path d="M13.285 17.4397H13.2787C13.2471 17.4371 13.2174 17.4233 13.195 17.4009L11.7562 15.9634C11.7334 15.9394 11.7205 15.9077 11.72 15.8747C11.7199 15.8582 11.7231 15.8418 11.7292 15.8267C11.7355 15.8114 11.7446 15.7976 11.7562 15.7859L17.0275 10.5159C17.0509 10.4926 17.0826 10.4795 17.1156 10.4795C17.1486 10.4795 17.1803 10.4926 17.2037 10.5159C17.3616 10.6658 17.4865 10.8469 17.5706 11.0477C17.6547 11.2484 17.6962 11.4645 17.6925 11.6822C17.6725 13.0684 16.0937 14.8297 13.3712 17.4047C13.3481 17.427 13.3171 17.4395 13.285 17.4397ZM12.0225 15.8747C12.8287 16.6822 13.155 17.0072 13.2875 17.1397C15.3925 15.1397 17.4225 13.0909 17.4425 11.6797C17.451 11.3497 17.3329 11.0291 17.1125 10.7834L12.0225 15.8747Z" fill="#FF6C37"/>
<path d="M10.3175 14.3471L11.3813 15.4096C11.3878 15.4162 11.3923 15.4244 11.3945 15.4334C11.3968 15.4423 11.3965 15.4517 11.3938 15.4606C11.3911 15.4694 11.3861 15.4774 11.3793 15.4836C11.3724 15.4898 11.364 15.4941 11.355 15.4959L9.16127 15.9684C9.11768 15.978 9.0721 15.9732 9.03143 15.9547C8.99085 15.9362 8.95726 15.9051 8.93585 15.8659C8.91443 15.8267 8.90635 15.7816 8.91268 15.7375C8.9191 15.6933 8.9396 15.6524 8.97127 15.6209L10.25 14.3471C10.2593 14.339 10.2713 14.3345 10.2838 14.3345C10.2962 14.3345 10.3082 14.339 10.3175 14.3471Z" fill="white"/>
<path d="M9.11623 16.0985C9.05073 16.0983 8.98673 16.0787 8.93231 16.0421C8.87798 16.0055 8.83565 15.9537 8.81073 15.893C8.7859 15.8324 8.77956 15.7658 8.79248 15.7016C8.80548 15.6374 8.83723 15.5784 8.88373 15.5323L10.1562 14.2585C10.1895 14.2255 10.2344 14.207 10.2812 14.207C10.3281 14.207 10.373 14.2255 10.4062 14.2585L11.4687 15.3223C11.4914 15.3444 11.5076 15.3724 11.5155 15.4032C11.5235 15.4339 11.5229 15.4662 11.5139 15.4966C11.5049 15.527 11.4878 15.5544 11.4645 15.5759C11.4411 15.5974 11.4123 15.6121 11.3812 15.6185L9.18748 16.091C9.16406 16.0959 9.14015 16.0984 9.11623 16.0985ZM10.2812 14.4873L9.05998 15.7085C9.04698 15.7208 9.03848 15.7371 9.03598 15.7549C9.03348 15.7725 9.03715 15.7906 9.04623 15.806C9.05406 15.8219 9.06723 15.8347 9.0834 15.842C9.09956 15.8493 9.11781 15.8507 9.13498 15.846L11.1962 15.4023L10.2812 14.4873Z" fill="#FF6C37"/>
<path d="M19.84 7.60707C19.5679 7.34556 19.2279 7.16543 18.8587 7.08705C18.4895 7.00868 18.1057 7.03518 17.7508 7.16357C17.3959 7.29196 17.0839 7.5171 16.8503 7.81354C16.6167 8.10998 16.4706 8.46592 16.4288 8.841C16.3869 9.21608 16.4508 9.59542 16.6133 9.93617C16.7757 10.2768 17.0303 10.5653 17.3482 10.7688C17.666 10.9723 18.0345 11.0828 18.4119 11.0878C18.7894 11.0928 19.1606 10.9921 19.4838 10.7971L18.0663 9.38083L19.84 7.60707Z" fill="white"/>
<path d="M18.4375 11.2147C18.0859 11.2148 17.7396 11.1287 17.4291 10.9637C17.1185 10.7989 16.8532 10.5602 16.6563 10.2689C16.4595 9.97757 16.3372 9.64232 16.3 9.29266C16.2629 8.94299 16.3123 8.58957 16.4436 8.26343C16.5749 7.93726 16.7843 7.6483 17.0533 7.4219C17.3223 7.19551 17.6428 7.03859 17.9866 6.96492C18.3304 6.89126 18.6871 6.90309 19.0253 6.99939C19.3634 7.09569 19.6728 7.27351 19.9263 7.51724C19.9383 7.52871 19.9479 7.54247 19.9546 7.55771C19.9613 7.57295 19.9648 7.58936 19.965 7.60599C19.9653 7.62265 19.9622 7.63919 19.956 7.65465C19.9498 7.67011 19.9405 7.68416 19.9288 7.69599L18.25 9.38099L19.5788 10.7085C19.5921 10.722 19.6022 10.7383 19.6083 10.7563C19.6143 10.7743 19.6162 10.7934 19.6138 10.8122C19.6115 10.8312 19.6049 10.8494 19.5945 10.8655C19.5841 10.8815 19.5702 10.8949 19.5538 10.9047C19.217 11.1082 18.8309 11.2154 18.4375 11.2147ZM18.4375 7.17224C18.1522 7.17246 17.8706 7.23711 17.6138 7.36137C17.3568 7.48563 17.1314 7.66629 16.9541 7.88987C16.7768 8.11345 16.6523 8.37416 16.5899 8.65257C16.5275 8.93099 16.5288 9.2199 16.5936 9.49782C16.6584 9.77565 16.7851 10.0353 16.9643 10.2573C17.1435 10.4794 17.3705 10.6581 17.6284 10.7802C17.8863 10.9022 18.1685 10.9644 18.4538 10.9622C18.7392 10.9599 19.0203 10.8933 19.2763 10.7672L17.9788 9.46849C17.9552 9.4454 17.9418 9.41399 17.9413 9.38099C17.9413 9.36449 17.9447 9.34807 17.9511 9.33282C17.9576 9.31765 17.9669 9.30382 17.9788 9.29224L19.6588 7.61224C19.3163 7.32693 18.8845 7.17117 18.4388 7.17224H18.4375Z" fill="#FF6C37"/>
<path d="M19.875 7.63468L19.8437 7.60718L18.0662 9.38093L19.4837 10.7972C19.6259 10.7145 19.7573 10.6146 19.875 10.4997C20.0632 10.3116 20.2125 10.0883 20.3144 9.84251C20.4162 9.59668 20.4687 9.33326 20.4687 9.06718C20.4687 8.80109 20.4162 8.53768 20.3144 8.29184C20.2125 8.04605 20.0632 7.82274 19.875 7.63468Z" fill="white"/>
<path d="M19.4837 10.9222C19.4673 10.9223 19.451 10.9191 19.4357 10.9128C19.4206 10.9067 19.4066 10.8975 19.395 10.8859L17.9787 9.46842C17.9551 9.44534 17.9417 9.41384 17.9412 9.38092C17.9413 9.36434 17.9446 9.34801 17.9511 9.33276C17.9576 9.31751 17.9669 9.30376 17.9787 9.29217L19.75 7.5184C19.7734 7.49549 19.8048 7.48267 19.8375 7.48267C19.8702 7.48267 19.9016 7.49549 19.925 7.5184L19.9575 7.54715C20.1888 7.7774 20.3645 8.05743 20.4711 8.36592C20.5779 8.67434 20.6126 9.00309 20.573 9.32709C20.5333 9.65101 20.4202 9.96167 20.2423 10.2353C20.0643 10.5089 19.8263 10.7383 19.5462 10.9059C19.5272 10.9167 19.5056 10.9223 19.4837 10.9222ZM18.25 9.38092L19.5 10.6384C19.6006 10.5705 19.6947 10.4935 19.7812 10.4084C20.1271 10.0625 20.3261 9.59642 20.3368 9.10742C20.3476 8.61842 20.1691 8.14411 19.8387 7.7834L18.25 9.38092Z" fill="#FF6C37"/>
<path d="M17.2625 10.7496C17.118 10.6056 16.9223 10.5247 16.7182 10.5247C16.5141 10.5247 16.3184 10.6056 16.1738 10.7496L11.46 15.4646L12.25 16.2496L17.2325 11.8746C17.3115 11.8046 17.3754 11.7192 17.4199 11.6235C17.4645 11.5279 17.489 11.4241 17.4919 11.3186C17.4947 11.2131 17.4758 11.1082 17.4363 11.0102C17.3969 10.9124 17.3377 10.8237 17.2625 10.7496Z" fill="white"/>
<path d="M12.25 16.3747C12.2336 16.3748 12.2172 16.3716 12.202 16.3655C12.1868 16.3592 12.1729 16.35 12.1612 16.3385L11.375 15.5535C11.3633 15.5419 11.354 15.528 11.3477 15.5128C11.3413 15.4975 11.3381 15.4812 11.3381 15.4647C11.3381 15.4482 11.3413 15.4319 11.3477 15.4166C11.354 15.4014 11.3633 15.3876 11.375 15.376L16.085 10.6622C16.2532 10.4948 16.4808 10.4009 16.7182 10.4009C16.9554 10.4009 17.1831 10.4948 17.3512 10.6622C17.4377 10.7487 17.5055 10.852 17.5505 10.9656C17.5954 11.0794 17.6166 11.2011 17.6126 11.3233C17.6086 11.4455 17.5796 11.5656 17.5273 11.6761C17.4751 11.7867 17.4007 11.8853 17.3087 11.966L12.3262 16.341C12.3055 16.3606 12.2786 16.3725 12.25 16.3747ZM11.6425 15.466L12.255 16.0785L17.15 11.7797C17.2166 11.7231 17.2709 11.6536 17.3097 11.5755C17.3487 11.4972 17.3712 11.412 17.3762 11.3248C17.3811 11.2375 17.3682 11.1503 17.3384 11.0682C17.3086 10.9861 17.2624 10.911 17.2027 10.8472C17.143 10.7835 17.0709 10.7326 16.9909 10.6975C16.911 10.6625 16.8247 10.644 16.7373 10.6434C16.65 10.6427 16.5635 10.6597 16.4829 10.6935C16.4023 10.7272 16.3295 10.777 16.2687 10.8397L11.6425 15.466Z" fill="#FF6C37"/>
<path d="M7.84498 20.8221C7.82283 20.8336 7.80508 20.852 7.79447 20.8746C7.78385 20.8971 7.78095 20.9226 7.78623 20.9471L7.99748 21.8496C8.01621 21.905 8.01491 21.9651 7.99381 22.0197C7.97271 22.0743 7.93314 22.1197 7.882 22.1481C7.83085 22.1766 7.77137 22.1861 7.7139 22.1751C7.65643 22.1642 7.60462 22.1335 7.56748 22.0883L6.20123 20.7221L10.6875 16.2371L12.2312 16.2608L13.285 17.3133C13.0237 17.5321 11.5125 18.9833 7.84498 20.8221Z" fill="white"/>
<path d="M7.74998 22.2908C7.70015 22.2907 7.65084 22.2807 7.60491 22.2615C7.55898 22.2422 7.51736 22.2138 7.48248 22.1782L6.11249 20.8108C6.08939 20.7875 6.07637 20.7561 6.07624 20.7233C6.07614 20.7068 6.07929 20.6905 6.08551 20.6753C6.09174 20.6601 6.10089 20.6463 6.11249 20.6346L10.5987 16.1483C10.6106 16.1366 10.6246 16.1273 10.6401 16.1211C10.6556 16.1148 10.6721 16.1118 10.6887 16.1121L12.2337 16.1358C12.2661 16.1363 12.297 16.1493 12.32 16.1721L13.3725 17.2258C13.3849 17.2379 13.3946 17.2526 13.4011 17.2688C13.4076 17.2848 13.4106 17.3022 13.41 17.3196C13.4091 17.3368 13.4046 17.3538 13.3969 17.3693C13.3892 17.3848 13.3783 17.3985 13.365 17.4096L13.2762 17.4871C11.9537 18.6483 10.1512 19.8058 7.90999 20.9283L8.11998 21.8221C8.13991 21.9027 8.13243 21.9878 8.09871 22.0639C8.06499 22.1399 8.00696 22.2026 7.93373 22.2421C7.87754 22.2734 7.81435 22.2902 7.74998 22.2908ZM6.37499 20.7233L7.65623 21.9995C7.67281 22.0287 7.70029 22.0501 7.73264 22.059C7.76499 22.0679 7.79956 22.0636 7.82874 22.0471C7.8579 22.0305 7.8793 22.003 7.88821 21.9707C7.89712 21.9383 7.89281 21.9037 7.87624 21.8745L7.66499 20.9721C7.65288 20.9201 7.65863 20.8655 7.6813 20.8173C7.70399 20.7689 7.74227 20.7297 7.78999 20.7058C10.0075 19.5933 11.79 18.4483 13.1025 17.3021L12.18 16.3796L10.7387 16.3571L6.37499 20.7233Z" fill="#FF6C37"/>
<path d="M5.12501 21.7971L6.19876 20.7234L7.79501 22.3196L5.24501 22.1446C5.2068 22.1403 5.17061 22.1252 5.14061 22.1012C5.11061 22.0771 5.08804 22.0451 5.07549 22.0087C5.06294 21.9724 5.06093 21.9332 5.06969 21.8958C5.07846 21.8584 5.09763 21.8241 5.12501 21.7971Z" fill="white"/>
<path d="M7.79755 22.4447H7.79005L5.23879 22.2697C5.17677 22.2633 5.11782 22.2395 5.06877 22.201C5.01972 22.1625 4.98258 22.1109 4.96165 22.0522C4.94072 21.9934 4.93686 21.93 4.95051 21.8692C4.96416 21.8083 4.99477 21.7526 5.03879 21.7084L6.11254 20.6347C6.12416 20.6229 6.13799 20.6137 6.15322 20.6073C6.16845 20.6009 6.18479 20.5977 6.20129 20.5977C6.2178 20.5977 6.23413 20.6009 6.24936 20.6073C6.2646 20.6137 6.27842 20.6229 6.29004 20.6347L7.8863 22.2309C7.90466 22.2489 7.91704 22.2721 7.92174 22.2974C7.92644 22.3227 7.92322 22.3487 7.91255 22.3722C7.90241 22.3941 7.88616 22.4126 7.86576 22.4254C7.84535 22.4382 7.82166 22.445 7.79755 22.4447ZM6.20129 20.8997L5.21629 21.8847C5.2053 21.895 5.19755 21.9082 5.19399 21.9229C5.19044 21.9376 5.19124 21.9529 5.19629 21.9672C5.201 21.9815 5.20975 21.9942 5.2215 22.0037C5.23325 22.0133 5.2475 22.0192 5.26254 22.0209L7.4738 22.1722L6.20129 20.8997Z" fill="#FF6C37"/>
<path d="M10.2325 16.8158C10.2079 16.8157 10.1839 16.8083 10.1635 16.7947C10.1431 16.781 10.1272 16.7617 10.1177 16.739C10.1082 16.7163 10.1057 16.6913 10.1102 16.6672C10.1149 16.6431 10.1266 16.6208 10.1437 16.6033L11.3587 15.3883C11.3704 15.3766 11.3842 15.3672 11.3994 15.3609C11.4147 15.3546 11.431 15.3513 11.4475 15.3513C11.464 15.3513 11.4803 15.3546 11.4956 15.3609C11.5108 15.3672 11.5247 15.3766 11.5362 15.3883L12.3187 16.1721C12.3351 16.1879 12.3467 16.208 12.3524 16.23C12.3582 16.2521 12.3577 16.2752 12.3512 16.2971C12.3448 16.3185 12.3327 16.3378 12.3162 16.353C12.2997 16.3682 12.2794 16.3787 12.2575 16.3833L10.2575 16.8146C10.2492 16.8161 10.2408 16.8165 10.2325 16.8158ZM11.4475 15.6533L10.625 16.4796L11.9837 16.1858L11.4475 15.6533Z" fill="#FF6C37"/>
<path d="M12.2312 16.261L10.8562 16.556C10.8162 16.565 10.7743 16.5607 10.7369 16.5438C10.6996 16.5269 10.6687 16.4982 10.6491 16.4622C10.6294 16.4262 10.6221 16.3847 10.6281 16.3441C10.6342 16.3035 10.6532 16.266 10.6825 16.2373L11.4425 15.4773L12.2312 16.261Z" fill="white"/>
<path d="M10.82 16.6846C10.7578 16.6846 10.6971 16.6661 10.6455 16.6316C10.5938 16.597 10.5536 16.5479 10.5299 16.4905C10.5062 16.433 10.5001 16.3698 10.5123 16.3089C10.5246 16.248 10.5546 16.1921 10.5987 16.1483L11.3587 15.3883C11.3703 15.3766 11.3841 15.3672 11.3994 15.3609C11.4146 15.3546 11.431 15.3513 11.4475 15.3513C11.464 15.3513 11.4803 15.3546 11.4956 15.3609C11.5108 15.3672 11.5246 15.3766 11.5362 15.3883L12.3187 16.1721C12.335 16.1879 12.3466 16.208 12.3524 16.23C12.3581 16.2521 12.3577 16.2752 12.3512 16.2971C12.3448 16.3185 12.3326 16.3378 12.3161 16.353C12.2996 16.3682 12.2794 16.3787 12.2575 16.3833L10.8825 16.6796C10.8619 16.6833 10.8409 16.685 10.82 16.6846ZM11.445 15.6533L10.7725 16.3246C10.7624 16.3342 10.7558 16.347 10.7541 16.3609C10.7522 16.3747 10.7552 16.3888 10.7625 16.4008C10.7681 16.4139 10.7783 16.4245 10.7912 16.4305C10.8041 16.4365 10.8189 16.4375 10.8325 16.4333L11.9775 16.1833L11.445 15.6533Z" fill="#FF6C37"/>
<path d="M19.8838 8.83596C19.8773 8.8163 19.8668 8.79822 19.8528 8.78297C19.8388 8.76763 19.8218 8.75555 19.8028 8.74746C19.7837 8.73938 19.7632 8.73538 19.7424 8.73588C19.7218 8.73638 19.7014 8.7413 19.6828 8.7503C19.6642 8.7593 19.6477 8.77222 19.6344 8.78805C19.6212 8.80397 19.6115 8.82255 19.6061 8.84247C19.6006 8.86247 19.5994 8.8833 19.6027 8.90371C19.606 8.92421 19.6136 8.94372 19.625 8.96097C19.6622 9.03613 19.6769 9.12046 19.6673 9.20388C19.6578 9.28721 19.6244 9.36605 19.5713 9.43096C19.5468 9.46046 19.535 9.49847 19.5386 9.53672C19.5421 9.57488 19.5606 9.61013 19.59 9.63472C19.6198 9.65863 19.6578 9.67005 19.6959 9.6663C19.734 9.66255 19.7692 9.64405 19.7938 9.61471C19.8819 9.50721 19.9373 9.37663 19.9533 9.23855C19.9693 9.10046 19.9451 8.96063 19.8838 8.83596Z" fill="#FF6C37"/>
</g>
<defs>
<clipPath id="clip0">
<rect width="25" height="25" fill="white"/>
</clipPath>
</defs>
</svg>
