<svg width="25" height="25" viewBox="0 0 25 25" fill="none" xmlns="http://www.w3.org/2000/svg">
<g clip-path="url(#clip0)">
<path d="M5.65003 9.18995C5.64966 9.08603 5.66979 8.98312 5.70925 8.88703C5.74872 8.79095 5.80675 8.70353 5.88003 8.62995L12.28 2.18992C12.9366 1.53318 13.7161 1.01222 14.574 0.656784C15.4319 0.30135 16.3514 0.118408 17.28 0.118408C18.2087 0.118408 19.1282 0.30135 19.9861 0.656784C20.844 1.01222 21.6235 1.53318 22.28 2.18992L22.69 2.60992C23.595 3.50468 24.2389 4.62922 24.5526 5.86261C24.8662 7.09599 24.8377 8.39153 24.47 9.60995C24.4418 9.71037 24.3941 9.80428 24.3295 9.88628C24.265 9.96828 24.1849 10.0368 24.0939 10.0879C24.0029 10.1389 23.9027 10.1716 23.7992 10.1839C23.6955 10.1963 23.5905 10.1881 23.49 10.1599C23.3896 10.1317 23.2957 10.0839 23.2137 10.0194C23.1317 9.95487 23.0632 9.87487 23.0121 9.78387C22.961 9.69287 22.9283 9.59262 22.916 9.48903C22.9037 9.38545 22.9118 9.28037 22.94 9.17995C23.2272 8.23341 23.2525 7.22672 23.013 6.26702C22.7735 5.30731 22.2783 4.4305 21.58 3.72992L21.17 3.30992C20.1444 2.28585 18.7543 1.71067 17.305 1.71067C15.8557 1.71067 14.4656 2.28585 13.44 3.30992L7.00003 9.74995C6.88953 9.86095 6.74852 9.93662 6.59491 9.96737C6.4413 9.99812 6.28202 9.98245 6.13733 9.92237C5.99263 9.86237 5.86905 9.7607 5.78228 9.63028C5.6955 9.49987 5.64947 9.34653 5.65003 9.18995Z" fill="#05A2D8"/>
<path d="M-1.98302e-05 17.4299C-0.00232328 16.7533 0.0919606 16.0798 0.27998 15.4299C0.339654 15.2283 0.476955 15.0587 0.661678 14.9584C0.846398 14.8581 1.06341 14.8352 1.26498 14.8949C1.46655 14.9546 1.63615 15.0918 1.73648 15.2766C1.83681 15.4613 1.85966 15.6783 1.79998 15.8799C1.52104 16.8239 1.50201 17.8257 1.74489 18.7796C1.98777 19.7335 2.48356 20.6042 3.17998 21.2999L3.58998 21.7099C4.09714 22.2182 4.69957 22.6214 5.36278 22.8965C6.026 23.1717 6.73696 23.3132 7.45498 23.3132C8.173 23.3132 8.88399 23.1717 9.54716 22.8965C10.2104 22.6214 10.8128 22.2182 11.32 21.7099L17.76 15.2699C17.8334 15.1961 17.9207 15.1376 18.0167 15.0977C18.1128 15.0577 18.2159 15.0371 18.32 15.0371C18.4241 15.0371 18.5271 15.0577 18.6232 15.0977C18.7193 15.1376 18.8066 15.1961 18.88 15.2699C19.0296 15.4198 19.1136 15.6231 19.1136 15.8349C19.1136 16.0467 19.0296 16.2499 18.88 16.3999L12.45 22.8299C11.7941 23.4878 11.0148 24.0098 10.1568 24.366C9.29882 24.7222 8.37899 24.9056 7.44998 24.9056C6.52098 24.9056 5.60112 24.7222 4.74311 24.366C3.88511 24.0098 3.10585 23.4878 2.44998 22.8299L2.05998 22.4299C0.738786 21.1014 -0.00197851 19.3035 -1.98302e-05 17.4299Z" fill="#923B95"/>
<path d="M14.57 23.69C14.57 23.4796 14.6529 23.2776 14.8007 23.1278C14.9486 22.9781 15.1495 22.8927 15.36 22.89C15.4364 22.8805 15.5136 22.8805 15.59 22.89C16.534 23.1689 17.5358 23.188 18.4897 22.9451C19.4436 22.7022 20.3143 22.2064 21.01 21.51L21.42 21.1C21.9296 20.5925 22.3341 19.9894 22.6104 19.3253C22.8866 18.6613 23.0292 17.9493 23.03 17.23C23.0127 15.8032 22.4385 14.4395 21.43 13.43L14.98 6.97001C14.8565 6.81579 14.7945 6.62139 14.806 6.42421C14.8173 6.22703 14.9011 6.04101 15.0415 5.90198C15.1817 5.76294 15.3685 5.68071 15.5657 5.67111C15.763 5.66152 15.9569 5.72524 16.11 5.85001L22.54 12.29C23.1995 12.9443 23.7223 13.7234 24.0777 14.5819C24.4331 15.4403 24.614 16.3609 24.61 17.29C24.614 18.2191 24.4331 19.1397 24.0777 19.9982C23.7223 20.8566 23.1995 21.6357 22.54 22.29L22.13 22.7C21.231 23.5986 20.1063 24.2381 18.8745 24.5513C17.6425 24.8646 16.349 24.8399 15.13 24.48C14.9631 24.4277 14.818 24.322 14.7169 24.1793C14.6157 24.0367 14.5641 23.8648 14.57 23.69Z" fill="#F8A266"/>
<path d="M0.169983 7.75006C0.173809 6.82152 0.362335 5.90302 0.724583 5.04804C1.08683 4.19307 1.61556 3.41871 2.27998 2.77006L2.68998 2.35006C3.5858 1.4468 4.71083 0.804743 5.94417 0.492886C7.17749 0.18103 8.4725 0.211167 9.69 0.580059C9.89158 0.647689 10.058 0.79262 10.1527 0.982969C10.2474 1.17332 10.2626 1.39349 10.195 1.59506C10.1273 1.79662 9.98242 1.96307 9.79208 2.05777C9.60175 2.15248 9.38158 2.16769 9.18 2.10006C8.23598 1.82112 7.23419 1.80209 6.28028 2.04497C5.32636 2.28785 4.45565 2.78364 3.75998 3.48006L3.34998 3.89006C2.32592 4.91564 1.75073 6.30574 1.75073 7.75506C1.75073 9.20439 2.32592 10.5945 3.34998 11.6201L9.78 18.0601C9.85617 18.131 9.91758 18.2162 9.96083 18.3109C10.0041 18.4056 10.0283 18.5078 10.0319 18.6118C10.0357 18.7158 10.0188 18.8195 9.9825 18.917C9.94608 19.0145 9.89092 19.1039 9.82 19.1801C9.74908 19.2562 9.66383 19.3176 9.56917 19.3609C9.4745 19.4041 9.37225 19.4283 9.26825 19.432C9.16425 19.4357 9.06058 19.4189 8.96308 19.3826C8.8655 19.3462 8.77617 19.291 8.7 19.2201L2.27998 12.7401C1.61437 12.0902 1.08494 11.3142 0.722652 10.4575C0.360365 9.60064 0.172483 8.68031 0.169983 7.75006Z" fill="#EF516F"/>
<path d="M10.51 19.7499C10.2198 20.0369 9.82816 20.1979 9.41999 20.1979C9.01182 20.1979 8.62016 20.0369 8.33001 19.7499C8.07674 19.4538 7.94428 19.0733 7.95899 18.6839C7.97369 18.2946 8.13449 17.925 8.40932 17.6489C8.68424 17.3728 9.05299 17.2103 9.44232 17.1938C9.83157 17.1773 10.2127 17.308 10.51 17.5599C10.8001 17.8505 10.963 18.2443 10.963 18.6549C10.963 19.0655 10.8001 19.4593 10.51 19.7499Z" fill="#EF516F"/>
<path d="M16.28 7.19994C16.0633 7.41699 15.7872 7.5649 15.4864 7.62494C15.1857 7.68498 14.8739 7.65445 14.5905 7.53722C14.3071 7.41999 14.0648 7.22132 13.8944 6.96636C13.724 6.7114 13.633 6.41162 13.633 6.10494C13.633 5.79825 13.724 5.49846 13.8944 5.2435C14.0648 4.98854 14.3071 4.78988 14.5905 4.67264C14.8739 4.55541 15.1857 4.52489 15.4864 4.58493C15.7872 4.64496 16.0633 4.79287 16.28 5.00993C16.5677 5.3018 16.7289 5.69514 16.7289 6.10494C16.7289 6.51472 16.5677 6.90806 16.28 7.19994Z" fill="#F8A266"/>
<path d="M19.64 16.6599C19.3439 16.9131 18.9633 17.0455 18.574 17.0309C18.1846 17.0161 17.8151 16.8554 17.539 16.5805C17.2628 16.3056 17.1003 15.9368 17.0838 15.5475C17.0673 15.1583 17.1981 14.777 17.45 14.4799C17.5933 14.335 17.7638 14.22 17.9517 14.1415C18.1397 14.0631 18.3413 14.0227 18.545 14.0227C18.7487 14.0227 18.9503 14.0631 19.1383 14.1415C19.3263 14.22 19.4968 14.335 19.64 14.4799C19.927 14.77 20.088 15.1617 20.088 15.5699C20.088 15.978 19.927 16.3696 19.64 16.6599Z" fill="#923B95"/>
<path d="M7.51998 10.2799C7.30389 10.4984 7.02774 10.6477 6.72661 10.7089C6.42548 10.77 6.11296 10.7404 5.82875 10.6235C5.54453 10.5067 5.30146 10.308 5.13039 10.0528C4.95931 9.79754 4.86798 9.4972 4.86798 9.18987C4.86798 8.88262 4.95931 8.58229 5.13039 8.32699C5.30146 8.07174 5.54453 7.87308 5.82875 7.75626C6.11296 7.63944 6.42548 7.60974 6.72661 7.67094C7.02774 7.73212 7.30389 7.88143 7.51998 8.09989C7.807 8.39004 7.96798 8.78179 7.96798 9.18987C7.96798 9.59804 7.807 9.9897 7.51998 10.2799Z" fill="#05A2D8"/>
</g>
<defs>
<clipPath id="clip0">
<rect width="25" height="25" fill="white"/>
</clipPath>
</defs>
</svg>
