<svg width="30" height="30" viewBox="0 0 30 30" fill="none" xmlns="http://www.w3.org/2000/svg">
<path d="M27.1875 4.6875H12.1875V2.8125C12.1875 2.29453 11.768 1.875 11.25 1.875H0.9375C0.419531 1.875 0 2.29453 0 2.8125V27.1875C0 27.7055 0.419531 28.125 0.9375 28.125H11.25C11.768 28.125 12.1875 27.7055 12.1875 27.1875V26.25H24.375C24.893 26.25 25.3125 25.8305 25.3125 25.3125C25.3125 24.7945 24.893 24.375 24.375 24.375H21.3937L20.8312 21.5625H27.1875C28.7385 21.5625 30 20.301 30 18.75V7.5C30 5.94902 28.7385 4.6875 27.1875 4.6875ZM4.6875 22.0312C4.6875 21.2561 5.31855 20.625 6.09375 20.625C6.86895 20.625 7.5 21.2561 7.5 22.0312C7.5 22.8064 6.86895 23.4375 6.09375 23.4375C5.31855 23.4375 4.6875 22.8064 4.6875 22.0312ZM7.5 16.875H4.6875C4.16953 16.875 3.75 16.4555 3.75 15.9375C3.75 15.4195 4.16953 15 4.6875 15H7.5C8.01797 15 8.4375 15.4195 8.4375 15.9375C8.4375 16.4555 8.01797 16.875 7.5 16.875ZM1.875 13.125V11.25H10.3125V13.125H1.875ZM10.3125 6.5625V8.4375H1.875V6.5625H10.3125ZM12.1875 21.5625H14.7937L14.2313 24.375H12.1875V21.5625ZM12.1875 17.8125C12.1875 16.6797 12.1875 8.03455 12.1875 6.5625H27.1875C27.7043 6.5625 28.125 6.9832 28.125 7.5V17.8125H12.1875Z" fill="#070613"/>
</svg>
