<svg width="28" height="25" viewBox="0 0 28 25" fill="none" xmlns="http://www.w3.org/2000/svg">
<g clip-path="url(#clip0)">
<path d="M22.435 3.59375H19.5475V8.59376H22.435V3.59375Z" fill="#F05540"/>
<path d="M23.5375 1.04175H18.445V3.7501H23.5375V1.04175Z" fill="#F3705A"/>
<path d="M2.905 13.4896V25H23.485V13.4896C19.4425 9.4792 17.185 7.2396 13.195 3.28125C9.205 7.29165 6.94748 9.53125 2.905 13.4896Z" fill="#FFD15C"/>
<path d="M23.5375 13.4896C19.495 9.4792 17.2375 7.2396 13.2475 3.28125C11.2 5.2604 9.62498 6.8229 8.04998 8.3854C6.47498 9.9479 4.89998 11.5104 2.905 13.4895V15.8333C6.94748 11.8229 9.205 9.5833 13.195 5.62495C17.2375 9.63535 19.495 11.8749 23.485 15.8333V16.1458V13.4895H23.5375V13.4896Z" fill="#F7B64C"/>
<path d="M11.3575 25.0001H5.16252V18.9584C5.16252 17.2396 6.58002 15.8855 8.26001 15.8855C9.99251 15.8855 11.3575 17.2917 11.3575 18.9584V25.0001Z" fill="#415A6B"/>
<path d="M21.28 15.8855H13.195V22.9167H21.28V15.8855Z" fill="#344A5E"/>
<path d="M16.8175 16.7188H14.035V22.0833H16.8175V16.7188Z" fill="#8AD7F8"/>
<path d="M20.44 16.7188H17.6575V22.0833H20.44V16.7188Z" fill="#8AD7F8"/>
<path d="M25.4275 11.3542L14.455 0.46875C13.825 -0.15625 12.7225 -0.15625 12.0925 0.46875L1.1725 11.3542C0.542497 11.9792 0.542497 13.0729 1.1725 13.6979C1.8025 14.3229 2.905 14.3229 3.535 13.6979L13.3 4.0104L23.065 13.6979C23.695 14.3229 24.7975 14.3229 25.4275 13.6979C26.0575 13.0208 26.0575 11.9792 25.4275 11.3542Z" fill="#F3705A"/>
</g>
<defs>
<clipPath id="clip0">
<rect width="25.2" height="25" fill="white" transform="translate(0.699997)"/>
</clipPath>
</defs>
</svg>
