<svg width="300" height="404" viewBox="0 0 300 404" fill="none" xmlns="http://www.w3.org/2000/svg">
<path d="M116.232 133.676H59.2233L71.8415 100.061H128.85L116.232 133.676Z" fill="white" stroke="#AEE5F2" stroke-width="6" stroke-miterlimit="10"/>
<path d="M129.797 100.061L117.179 133.676H63.3243L75.9424 100.061H129.797Z" fill="white" stroke="#AEE5F2" stroke-width="6" stroke-miterlimit="10"/>
<path d="M172.058 8.34901H20.6812C18.6724 8.34901 17.044 9.99071 17.044 12.0158V99.6029C17.044 101.628 18.6724 103.27 20.6812 103.27H172.058C174.067 103.27 175.695 101.628 175.695 99.6029V12.0158C175.695 9.99071 174.067 8.34901 172.058 8.34901Z" fill="white" stroke="#AEE5F2" stroke-width="6" stroke-miterlimit="10"/>
<path d="M128.658 100.061L125.122 109.948L71.7974 114.083L77.0056 100.061H128.658Z" fill="#DCF5FF"/>
<path d="M175.856 8.34904H24.4792C22.4705 8.34904 20.842 9.99074 20.842 12.0159V99.603C20.842 101.628 22.4705 103.27 24.4792 103.27H175.856C177.865 103.27 179.493 101.628 179.493 99.603V12.0159C179.493 9.99074 177.865 8.34904 175.856 8.34904Z" fill="white" stroke="#AEE5F2" stroke-width="6" stroke-miterlimit="10"/>
<path d="M173.405 15.8067H28.7126V79.7646H173.405V15.8067Z" fill="#070613"/>
<path d="M173.405 15.8067H28.7126V79.7646H173.405V15.8067Z" stroke="#AEE5F2" stroke-width="3" stroke-miterlimit="10"/>
<path d="M40.2519 15.8067V79.7614" stroke="#AEE5F2" stroke-width="1.5" stroke-miterlimit="10"/>
<path d="M52.3748 15.8067V79.7614" stroke="#AEE5F2" stroke-width="1.5" stroke-miterlimit="10"/>
<path d="M64.5009 15.8067V79.7614" stroke="#AEE5F2" stroke-width="1.5" stroke-miterlimit="10"/>
<path d="M76.6238 15.8067V79.7614" stroke="#AEE5F2" stroke-width="1.5" stroke-miterlimit="10"/>
<path d="M88.7499 15.8067V79.7614" stroke="#AEE5F2" stroke-width="1.5" stroke-miterlimit="10"/>
<path d="M100.873 15.8067V79.7614" stroke="#AEE5F2" stroke-width="1.5" stroke-miterlimit="10"/>
<path d="M112.999 15.8067V79.7614" stroke="#AEE5F2" stroke-width="1.5" stroke-miterlimit="10"/>
<path d="M125.122 15.8067V79.7614" stroke="#AEE5F2" stroke-width="1.5" stroke-miterlimit="10"/>
<path d="M137.245 15.8067V79.7614" stroke="#AEE5F2" stroke-width="1.5" stroke-miterlimit="10"/>
<path d="M149.371 15.8067V79.7614" stroke="#AEE5F2" stroke-width="1.5" stroke-miterlimit="10"/>
<path d="M161.494 15.8067V79.7614" stroke="#AEE5F2" stroke-width="1.5" stroke-miterlimit="10"/>
<path d="M173.415 53.9347C168.292 53.9347 169.02 45.666 162.058 45.666C154.967 45.666 148.733 68.5065 139.459 68.5065C129.513 68.5065 125.494 47.7809 117.191 47.7809C105.974 47.7809 106.062 63.768 93.6047 63.768C81.1474 63.768 75.0623 33.9214 64.5829 33.9214C55.0562 33.9214 52.4001 61.5895 40.3497 61.5895C33.9429 61.5895 32.8451 54.1605 28.5107 54.1605" fill="#DCF5FF"/>
<path d="M28.8483 54.1795C64.5293 54.1795 65.9142 46.2067 81.1506 46.2067C94.57 46.2067 99.4469 60.8358 110.172 60.8358C122.399 60.8358 128.535 44.3526 136.819 44.3526C145.103 44.3526 149.238 61.192 156.216 61.192C163.194 61.192 165.585 53.9664 173.232 53.9664L28.8483 54.1795Z" fill="url(#paint0_linear)"/>
<path d="M28.4666 53.7947C70.6365 53.7947 70.258 42.0278 82.6364 42.0278C94.835 42.0278 100.829 64.2514 111.564 64.2514C123.791 64.2514 127.191 39.5059 136.828 39.5059C146.759 39.5059 150.32 64.6298 158.024 64.6298C164.964 64.6298 165.594 54.3385 173.241 54.3385" stroke="white" stroke-width="2" stroke-miterlimit="10"/>
<path d="M29.5234 85.1011H173.254" stroke="#3CBFD4" stroke-width="3" stroke-miterlimit="10" stroke-linecap="round"/>
<path d="M29.2111 83.9435H79.7216V86.2555H29.2111C28.9333 86.2555 28.6669 86.1442 28.4705 85.9462C28.2741 85.7482 28.1638 85.4797 28.1638 85.1997V84.9993C28.1638 84.7193 28.2741 84.4507 28.4705 84.2527C28.6669 84.0547 28.9333 83.9435 29.2111 83.9435Z" fill="url(#paint1_linear)"/>
<path d="M81.9613 87.1301C83.0101 87.1301 83.8603 86.2729 83.8603 85.2156C83.8603 84.1582 83.0101 83.3011 81.9613 83.3011C80.9125 83.3011 80.0623 84.1582 80.0623 85.2156C80.0623 86.2729 80.9125 87.1301 81.9613 87.1301Z" fill="white" stroke="url(#paint2_linear)" stroke-width="4" stroke-miterlimit="10"/>
<path d="M99.4185 90.8636H99.2766C98.8689 90.8636 98.5384 91.1968 98.5384 91.6078V96.0315C98.5384 96.4425 98.8689 96.7757 99.2766 96.7757H99.4185C99.8262 96.7757 100.157 96.4425 100.157 96.0315V91.6078C100.157 91.1968 99.8262 90.8636 99.4185 90.8636Z" fill="url(#paint3_linear)"/>
<path d="M102.545 90.8636H102.403C101.995 90.8636 101.665 91.1968 101.665 91.6078V96.0315C101.665 96.4425 101.995 96.7757 102.403 96.7757H102.545C102.952 96.7757 103.283 96.4425 103.283 96.0315V91.6078C103.283 91.1968 102.952 90.8636 102.545 90.8636Z" fill="url(#paint4_linear)"/>
<path d="M106.939 96.2065V91.4361C106.939 91.3395 106.964 91.2447 107.013 91.1615C107.061 91.0783 107.131 91.0098 107.215 90.9633C107.299 90.9168 107.394 90.8939 107.49 90.897C107.585 90.9002 107.678 90.9293 107.759 90.9813L111.504 93.3633C111.58 93.4121 111.643 93.4796 111.686 93.5593C111.73 93.6391 111.752 93.7287 111.752 93.8197C111.752 93.9107 111.73 94.0003 111.686 94.0801C111.643 94.1598 111.58 94.2273 111.504 94.2761L107.759 96.6612C107.678 96.7121 107.585 96.7404 107.49 96.743C107.395 96.7457 107.3 96.7227 107.217 96.6763C107.133 96.63 107.063 96.562 107.015 96.4794C106.966 96.3968 106.94 96.3026 106.939 96.2065Z" fill="url(#paint5_linear)"/>
<path d="M93.0589 92.5492V94.1394C93.0589 94.7736 92.809 95.3819 92.3641 95.8304C91.9193 96.2789 91.3159 96.5309 90.6867 96.5309H89.0716C88.3939 96.5309 87.744 96.2595 87.2648 95.7764C86.7856 95.2933 86.5164 94.6381 86.5164 93.9549V93.9549C86.5164 93.2714 86.7855 92.6159 87.2646 92.1323C87.7437 91.6487 88.3936 91.3766 89.0716 91.3757" stroke="url(#paint6_linear)" stroke-width="3" stroke-linecap="round" stroke-linejoin="round"/>
<path d="M91.283 93.1662L93.059 91.3757L94.835 93.1662" stroke="url(#paint7_linear)" stroke-width="3" stroke-linecap="round" stroke-linejoin="round"/>
<path d="M0 170.745H195.102V180.41H0.154573" stroke="url(#paint8_linear)" stroke-width="5" stroke-miterlimit="10"/>
<path d="M187.064 164.251V168.837H76.2137V164.251L21.5487 130.346H132.402L182.487 161.411L187.064 164.251Z" fill="white" stroke="#AEE5F2" stroke-width="6" stroke-linejoin="round"/>
<path d="M76.2137 164.251V168.837H21.5487V130.346L76.2137 164.251Z" fill="white" stroke="#AEE5F2" stroke-width="6" stroke-linejoin="round"/>
<path d="M63.2896 148.865L81.9266 160.422" stroke="#3CBFD4" stroke-width="4" stroke-linecap="round" stroke-linejoin="round"/>
<path d="M80.2894 157.865V158.736H77.6711V157.865L75.974 156.056L73.4819 153.4H76.1033L80.2894 157.865Z" fill="url(#paint9_linear)"/>
<path d="M80.2894 157.868V158.74H77.6711L75.974 157.687L73.4819 156.141V153.4L75.974 156.056L77.6711 157.865V157.868H80.2894Z" fill="#DC9600"/>
<path d="M60.441 144.301C60.441 144.801 59.3558 145.204 58.0183 145.204C56.6808 145.204 55.5956 144.801 55.5956 144.301L56.2265 139.639H59.788L60.441 144.301Z" fill="white" stroke="#3CBFD4" stroke-width="4" stroke-linejoin="round"/>
<path d="M58.0152 140.641C58.9995 140.641 59.7975 140.205 59.7975 139.668C59.7975 139.13 58.9995 138.695 58.0152 138.695C57.0308 138.695 56.2328 139.13 56.2328 139.668C56.2328 140.205 57.0308 140.641 58.0152 140.641Z" fill="url(#paint10_linear)" stroke="#3CBFD4" stroke-width="4" stroke-linejoin="round"/>
<path d="M51.9711 139.48C51.9711 139.979 50.8859 140.383 49.5484 140.383C48.2109 140.383 47.1257 139.979 47.1257 139.48L47.7566 134.818H51.3212L51.9711 139.48Z" fill="white" stroke="#3CBFD4" stroke-width="4" stroke-linejoin="round"/>
<path d="M49.5453 135.82C50.5296 135.82 51.3276 135.384 51.3276 134.846C51.3276 134.309 50.5296 133.873 49.5453 133.873C48.5609 133.873 47.7629 134.309 47.7629 134.846C47.7629 135.384 48.5609 135.82 49.5453 135.82Z" fill="url(#paint11_linear)" stroke="#3CBFD4" stroke-width="4" stroke-linejoin="round"/>
<path d="M44.1888 134.404C44.1888 134.904 43.1036 135.308 41.7661 135.308C40.4286 135.308 39.3434 134.904 39.3434 134.404L39.9743 129.742H43.5327L44.1888 134.404Z" fill="white" stroke="#3CBFD4" stroke-width="4" stroke-linejoin="round"/>
<path d="M41.763 130.744C42.7473 130.744 43.5453 130.308 43.5453 129.771C43.5453 129.233 42.7473 128.798 41.763 128.798C40.7786 128.798 39.9806 129.233 39.9806 129.771C39.9806 130.308 40.7786 130.744 41.763 130.744Z" fill="url(#paint12_linear)" stroke="#3CBFD4" stroke-width="4" stroke-linejoin="round"/>
<path d="M78.5228 144.301C78.5228 144.801 77.4408 145.204 76.1033 145.204C74.7658 145.204 73.6806 144.801 73.6806 144.301L74.3115 139.639H77.873L78.5228 144.301Z" fill="white" stroke="#3CBFD4" stroke-width="4" stroke-linejoin="round"/>
<path d="M76.1001 140.641C77.0845 140.641 77.8824 140.205 77.8824 139.668C77.8824 139.13 77.0845 138.695 76.1001 138.695C75.1158 138.695 74.3178 139.13 74.3178 139.668C74.3178 140.205 75.1158 140.641 76.1001 140.641Z" fill="url(#paint13_linear)" stroke="#3CBFD4" stroke-width="4" stroke-linejoin="round"/>
<path d="M70.056 139.48C70.056 139.979 68.9708 140.383 67.6333 140.383C66.2958 140.383 65.2106 139.979 65.2106 139.48L65.8415 134.818H69.3999L70.056 139.48Z" fill="white" stroke="#3CBFD4" stroke-width="4" stroke-linejoin="round"/>
<path d="M67.6302 135.82C68.6145 135.82 69.4125 135.384 69.4125 134.846C69.4125 134.309 68.6145 133.873 67.6302 133.873C66.6458 133.873 65.8479 134.309 65.8479 134.846C65.8479 135.384 66.6458 135.82 67.6302 135.82Z" fill="url(#paint14_linear)" stroke="#3CBFD4" stroke-width="4" stroke-linejoin="round"/>
<path d="M62.2706 134.404C62.2706 134.904 61.1886 135.308 59.848 135.308C58.5073 135.308 57.4253 134.904 57.4253 134.404L58.0562 129.742H61.6177L62.2706 134.404Z" fill="white" stroke="#3CBFD4" stroke-width="4" stroke-linejoin="round"/>
<path d="M59.848 130.744C60.8323 130.744 61.6303 130.308 61.6303 129.771C61.6303 129.233 60.8323 128.798 59.848 128.798C58.8636 128.798 58.0656 129.233 58.0656 129.771C58.0656 130.308 58.8636 130.744 59.848 130.744Z" fill="url(#paint15_linear)" stroke="#3CBFD4" stroke-width="4" stroke-linejoin="round"/>
<path d="M95.0053 144.301C95.0053 144.801 93.9202 145.204 92.5826 145.204C91.2451 145.204 90.1599 144.801 90.1599 144.301L90.7909 139.639H94.3523L95.0053 144.301Z" fill="white" stroke="#3CBFD4" stroke-width="4" stroke-linejoin="round"/>
<path d="M92.5826 140.641C93.567 140.641 94.3649 140.205 94.3649 139.668C94.3649 139.13 93.567 138.695 92.5826 138.695C91.5983 138.695 90.8003 139.13 90.8003 139.668C90.8003 140.205 91.5983 140.641 92.5826 140.641Z" fill="url(#paint16_linear)" stroke="#3CBFD4" stroke-width="4" stroke-linejoin="round"/>
<path d="M86.5353 139.48C86.5353 139.979 85.4502 140.383 84.1126 140.383C82.7751 140.383 81.6899 139.979 81.6899 139.48L82.3208 134.818H85.8823L86.5353 139.48Z" fill="white" stroke="#3CBFD4" stroke-width="4" stroke-linejoin="round"/>
<path d="M84.1127 135.82C85.097 135.82 85.895 135.384 85.895 134.846C85.895 134.309 85.097 133.873 84.1127 133.873C83.1283 133.873 82.3304 134.309 82.3304 134.846C82.3304 135.384 83.1283 135.82 84.1127 135.82Z" fill="url(#paint17_linear)" stroke="#3CBFD4" stroke-width="4" stroke-linejoin="round"/>
<path d="M78.7532 134.404C78.7532 134.904 77.668 135.308 76.3305 135.308C74.9929 135.308 73.9078 134.904 73.9078 134.404L74.5387 129.742H78.1002L78.7532 134.404Z" fill="white" stroke="#3CBFD4" stroke-width="4" stroke-linejoin="round"/>
<path d="M76.3304 130.744C77.3148 130.744 78.1128 130.308 78.1128 129.771C78.1128 129.233 77.3148 128.798 76.3304 128.798C75.3461 128.798 74.5481 129.233 74.5481 129.771C74.5481 130.308 75.3461 130.744 76.3304 130.744Z" fill="url(#paint18_linear)" stroke="#3CBFD4" stroke-width="4" stroke-linejoin="round"/>
<path d="M111.715 144.301C111.715 144.801 110.633 145.204 109.292 145.204C107.952 145.204 106.87 144.801 106.87 144.301L107.5 139.639H111.062L111.715 144.301Z" fill="white" stroke="#3CBFD4" stroke-width="4" stroke-linejoin="round"/>
<path d="M109.292 140.641C110.277 140.641 111.075 140.205 111.075 139.668C111.075 139.13 110.277 138.695 109.292 138.695C108.308 138.695 107.51 139.13 107.51 139.668C107.51 140.205 108.308 140.641 109.292 140.641Z" fill="url(#paint19_linear)" stroke="#3CBFD4" stroke-width="4" stroke-linejoin="round"/>
<path d="M103.245 139.48C103.245 139.979 102.163 140.383 100.825 140.383C99.4879 140.383 98.4027 139.979 98.4027 139.48L99.0336 134.818H102.595L103.245 139.48Z" fill="white" stroke="#3CBFD4" stroke-width="4" stroke-linejoin="round"/>
<path d="M100.822 135.82C101.807 135.82 102.605 135.384 102.605 134.846C102.605 134.309 101.807 133.873 100.822 133.873C99.8379 133.873 99.0399 134.309 99.0399 134.846C99.0399 135.384 99.8379 135.82 100.822 135.82Z" fill="url(#paint20_linear)" stroke="#3CBFD4" stroke-width="4" stroke-linejoin="round"/>
<path d="M95.4627 134.404C95.4627 134.904 94.3775 135.308 93.04 135.308C91.7025 135.308 90.6173 134.904 90.6173 134.404L91.2482 129.742H94.8097L95.4627 134.404Z" fill="white" stroke="#3CBFD4" stroke-width="4" stroke-linejoin="round"/>
<path d="M93.0401 130.744C94.0244 130.744 94.8224 130.308 94.8224 129.771C94.8224 129.233 94.0244 128.798 93.0401 128.798C92.0557 128.798 91.2578 129.233 91.2578 129.771C91.2578 130.308 92.0557 130.744 93.0401 130.744Z" fill="url(#paint21_linear)" stroke="#3CBFD4" stroke-width="4" stroke-linejoin="round"/>
<path d="M127.74 144.301C127.74 144.801 126.655 145.204 125.317 145.204C123.98 145.204 122.895 144.801 122.895 144.301L123.526 139.639H127.09L127.74 144.301Z" fill="white" stroke="#3CBFD4" stroke-width="4" stroke-linejoin="round"/>
<path d="M125.314 140.641C126.298 140.641 127.096 140.205 127.096 139.668C127.096 139.13 126.298 138.695 125.314 138.695C124.33 138.695 123.532 139.13 123.532 139.668C123.532 140.205 124.33 140.641 125.314 140.641Z" fill="url(#paint22_linear)" stroke="#3CBFD4" stroke-width="4" stroke-linejoin="round"/>
<path d="M119.27 139.48C119.27 139.979 118.185 140.383 116.847 140.383C115.51 140.383 114.425 139.979 114.425 139.48L115.056 134.818H118.617L119.27 139.48Z" fill="white" stroke="#3CBFD4" stroke-width="4" stroke-linejoin="round"/>
<path d="M116.847 135.82C117.832 135.82 118.63 135.384 118.63 134.846C118.63 134.309 117.832 133.873 116.847 133.873C115.863 133.873 115.065 134.309 115.065 134.846C115.065 135.384 115.863 135.82 116.847 135.82Z" fill="url(#paint23_linear)" stroke="#3CBFD4" stroke-width="4" stroke-linejoin="round"/>
<path d="M111.488 134.404C111.488 134.904 110.403 135.308 109.065 135.308C107.728 135.308 106.642 134.904 106.642 134.404L107.273 129.742H110.835L111.488 134.404Z" fill="white" stroke="#3CBFD4" stroke-width="4" stroke-linejoin="round"/>
<path d="M109.062 130.744C110.046 130.744 110.844 130.308 110.844 129.771C110.844 129.233 110.046 128.798 109.062 128.798C108.078 128.798 107.28 129.233 107.28 129.771C107.28 130.308 108.078 130.744 109.062 130.744Z" fill="url(#paint24_linear)" stroke="#3CBFD4" stroke-width="4" stroke-linejoin="round"/>
<path d="M143.828 144.301C143.828 144.801 142.743 145.204 141.405 145.204C140.068 145.204 138.983 144.801 138.983 144.301L139.614 139.639H143.178L143.828 144.301Z" fill="white" stroke="#3CBFD4" stroke-width="4" stroke-linejoin="round"/>
<path d="M141.402 140.641C142.387 140.641 143.185 140.205 143.185 139.668C143.185 139.13 142.387 138.695 141.402 138.695C140.418 138.695 139.62 139.13 139.62 139.668C139.62 140.205 140.418 140.641 141.402 140.641Z" fill="url(#paint25_linear)" stroke="#3CBFD4" stroke-width="4" stroke-linejoin="round"/>
<path d="M135.358 139.48C135.358 139.979 134.273 140.383 132.936 140.383C131.598 140.383 130.513 139.979 130.513 139.48L131.144 134.818H134.705L135.358 139.48Z" fill="white" stroke="#3CBFD4" stroke-width="4" stroke-linejoin="round"/>
<path d="M132.936 135.82C133.92 135.82 134.718 135.384 134.718 134.846C134.718 134.309 133.92 133.873 132.936 133.873C131.951 133.873 131.153 134.309 131.153 134.846C131.153 135.384 131.951 135.82 132.936 135.82Z" fill="url(#paint26_linear)" stroke="#3CBFD4" stroke-width="4" stroke-linejoin="round"/>
<path d="M127.576 134.404C127.576 134.904 126.491 135.308 125.153 135.308C123.816 135.308 122.731 134.904 122.731 134.404L123.361 129.742H126.923L127.576 134.404Z" fill="white" stroke="#3CBFD4" stroke-width="4" stroke-linejoin="round"/>
<path d="M125.15 130.744C126.134 130.744 126.932 130.308 126.932 129.771C126.932 129.233 126.134 128.798 125.15 128.798C124.166 128.798 123.368 129.233 123.368 129.771C123.368 130.308 124.166 130.744 125.15 130.744Z" fill="url(#paint27_linear)" stroke="#3CBFD4" stroke-width="4" stroke-linejoin="round"/>
<path d="M76.2169 164.505H187.064" stroke="#AEE5F2" stroke-width="6" stroke-linejoin="round"/>
<path d="M80.0023 148.865L98.6362 160.422" stroke="#3CBFD4" stroke-width="4" stroke-linecap="round" stroke-linejoin="round"/>
<path d="M87.9864 153.928L83.7972 149.46H86.4186L90.6047 153.928H87.9864Z" fill="url(#paint28_linear)"/>
<path d="M87.9833 153.928H90.6047V154.803H87.9833L86.2893 153.744L83.7941 152.198V149.46L87.9833 153.928Z" fill="#DC9600"/>
<path d="M96.4817 148.865L115.119 160.422" stroke="#3CBFD4" stroke-width="4" stroke-linecap="round" stroke-linejoin="round"/>
<path d="M110.863 157.865L106.674 153.397H109.295L113.482 157.865H110.863Z" fill="url(#paint29_linear)"/>
<path d="M110.863 157.865H113.485V158.736H110.863L109.169 157.681L106.674 156.135V153.397L110.863 157.865Z" fill="#DC9600"/>
<path d="M112.734 148.865L131.371 160.422" stroke="#3CBFD4" stroke-width="4" stroke-linecap="round" stroke-linejoin="round"/>
<path d="M127.112 157.865L122.926 153.397H125.544L129.734 157.865H127.112Z" fill="url(#paint30_linear)"/>
<path d="M127.112 157.865H129.734V158.736H127.112L125.418 157.681L122.923 156.135V153.397L127.112 157.865Z" fill="#DC9600"/>
<path d="M129.674 148.865L148.311 160.422" stroke="#3CBFD4" stroke-width="4" stroke-linecap="round" stroke-linejoin="round"/>
<path d="M144.055 157.865L139.866 153.397H142.487L146.674 157.865H144.055Z" fill="url(#paint31_linear)"/>
<path d="M144.055 157.865H146.677V158.736H144.055L142.361 157.681L139.866 156.135V153.397L144.055 157.865Z" fill="#DC9600"/>
<path d="M145.762 148.865L164.399 160.422" stroke="#3CBFD4" stroke-width="4" stroke-linecap="round" stroke-linejoin="round"/>
<path d="M160.143 157.865L155.954 153.397H158.576L162.762 157.865H160.143Z" fill="url(#paint32_linear)"/>
<path d="M160.143 157.865H162.765V158.736H160.143L158.449 157.681L155.954 156.135V153.397L160.143 157.865Z" fill="#DC9600"/>
<path d="M229.357 370.267C229.357 375.009 219.282 396.345 216.014 396.345H184.522C184.522 396.345 184.919 383.828 194.724 382.839C194.724 382.839 202.559 353.975 206.219 353.899C211.73 353.8 219.291 352.712 219.291 352.712C221.644 354.977 229.357 365.522 229.357 370.267Z" fill="#DAF3F9"/>
<path d="M183.531 398.902H216.023C219.291 398.902 229.367 375.009 229.367 370.28C226.49 368.235 216.645 366.387 213.156 372.98C208.708 381.395 204.298 394.367 202.569 396.161H183.531V398.902Z" fill="#AAD9F3"/>
<path d="M202.559 345.131L206.219 353.924C206.219 353.924 215.051 355.931 219.291 352.738V342.92C213.799 344.205 208.195 344.945 202.559 345.131Z" fill="#C36F0B"/>
<path d="M154.103 263.328C156.115 269.915 194.055 341.381 198.496 344.17C202.938 346.959 221.121 343.003 221.906 341.944C222.692 340.885 213.704 266.89 208.471 266.324C203.238 265.758 154.103 263.328 154.103 263.328Z" fill="#070613"/>
<path d="M261.723 273.454L282.227 399.233C282.262 399.446 282.371 399.64 282.535 399.781C282.698 399.921 282.905 399.998 283.12 399.999V399.999C283.246 399.999 283.371 399.972 283.487 399.92C283.602 399.869 283.706 399.793 283.79 399.699C283.875 399.605 283.94 399.494 283.98 399.373C284.02 399.252 284.034 399.124 284.022 398.998L271.893 271.715" stroke="#070613" stroke-width="6" stroke-miterlimit="10"/>
<path d="M195.484 273.254L174.979 399.233C174.945 399.447 174.836 399.641 174.673 399.781C174.509 399.922 174.301 399.999 174.087 399.999V399.999C173.96 400 173.835 399.973 173.72 399.921C173.604 399.87 173.501 399.794 173.416 399.7C173.331 399.606 173.267 399.494 173.228 399.373C173.188 399.252 173.175 399.124 173.188 398.998L185.326 271.517" stroke="#070613" stroke-width="6" stroke-miterlimit="10"/>
<path d="M284.131 260.736C284.131 261.875 282.238 262.963 278.831 263.917C269.998 266.432 250.992 268.169 228.989 268.169C207.286 268.169 188.51 266.48 179.513 264.018L179.147 263.917C175.75 262.963 173.848 261.875 173.848 260.736C173.855 260.509 173.926 260.288 174.053 260.1C176.485 256.3 200.153 253.314 228.989 253.314C259.443 253.301 284.131 256.631 284.131 260.736Z" fill="white" stroke="#3CBFD4" stroke-width="6" stroke-miterlimit="10"/>
<path d="M284.131 260.736V267.097C284.131 271.203 259.443 274.529 228.986 274.529C206.084 274.529 186.447 272.646 178.113 269.969C175.365 269.085 173.845 268.115 173.845 267.106V260.746C173.845 261.884 175.737 262.972 179.144 263.926L179.51 264.028C188.507 266.489 207.27 268.178 228.986 268.178C250.992 268.178 269.995 266.442 278.828 263.926C282.228 262.953 284.131 261.875 284.131 260.736Z" fill="white" stroke="#3CBFD4" stroke-width="6" stroke-miterlimit="10"/>
<path d="M170.661 352.738C173.184 354.099 185.377 361.006 185.377 366.584C185.377 372.163 173.635 380.364 169.56 384.286C165.484 388.207 161.598 399.191 157.162 399.751C152.727 400.311 127.589 399.751 127.589 399.751C127.589 399.751 125.399 390.967 136.387 387.453C149.525 383.252 153.942 362.234 153.942 362.234L170.661 352.738Z" fill="#DAF3F9"/>
<path d="M185.38 365.948C185.38 371.536 173.639 379.728 169.563 383.65C165.488 387.571 161.601 398.555 157.166 399.115C152.731 399.675 127.592 399.115 127.592 399.115" stroke="#AAD9F3" stroke-width="8" stroke-miterlimit="10" stroke-linecap="round"/>
<path d="M166.175 345.744C166.175 345.744 165.957 349.56 170.664 352.741C175.37 355.921 158.377 362.495 153.945 362.231L148.787 353.548C148.787 353.548 162.601 348.877 166.175 345.744Z" fill="#C36F0B"/>
<path d="M274.716 229.096C274.716 229.096 285.076 263.672 260.076 266.146C229.357 269.186 154.733 263.646 154.733 263.646C154.733 263.646 169.282 314.848 170.064 343.579C170.064 343.579 157.573 354.353 142.412 354.073C142.412 354.073 77.1475 263.557 97.7466 234.229C115.986 208.259 199.421 207.245 199.421 207.245C199.421 207.245 202.837 228.81 274.716 229.096Z" fill="#070613"/>
<path d="M295.426 158.135C288.842 184.14 282.256 203.667 287.335 226.934C287.335 226.934 266.445 238.805 224.064 226.651C205.452 221.308 191.572 205.915 191.572 205.915C191.572 205.915 206.357 192.387 205.241 181.17C204.272 171.419 200.058 153.941 197.591 138.237C188.869 133.552 178.165 126.384 170.714 116.611C170.714 116.611 171.623 110.098 187.364 90.1576C199.686 74.5522 225.849 73.4932 236.102 72.6154C251.243 69.5147 263.013 68.9168 270.19 69.044C276.738 69.1617 281.634 72.4787 285.71 77.6306C297.394 92.4856 305.52 118.268 295.426 158.135Z" fill="url(#paint33_linear)"/>
<path d="M211.843 144.705C201.616 157.537 188.377 170.494 177.774 170.029C144.26 168.557 117.62 157.07 107.851 151.384C104.283 151.199 92.6521 148.658 90.7783 148.286C88.7878 147.892 77.6397 145.033 77.9677 143.36C78.2958 141.687 80.6018 136.16 81.5197 134.773C82.4377 133.387 89.9234 128.693 95.1852 128.314C99.5542 127.996 106.699 134.115 108.999 136.201C116.977 135.68 167.109 131.094 167.109 131.094C167.109 131.094 169.43 126.679 173.459 119.963C186.954 135.136 207.679 143.198 211.843 144.705Z" fill="#C36F0B"/>
<path d="M90.7783 148.28C88.7878 147.885 78.1097 145.185 77.2643 143.707C75.5861 140.778 77.9394 136.891 79.4125 135.823C80.7627 134.84 89.9266 128.677 95.1852 128.298C95.1852 128.298 86.9834 137.505 90.7689 148.28" fill="#B65A18"/>
<path d="M211.85 144.705C209.988 147.033 208.033 149.374 206.007 151.632C201.045 149.431 183.626 140.66 172.427 121.68C172.743 121.124 173.102 120.545 173.462 119.95C186.96 135.139 207.692 143.198 211.85 144.705Z" fill="#B65A18"/>
<path d="M170.699 116.277C185.355 135.505 212.588 144.645 212.588 144.645L219.506 135.6" stroke="white" stroke-width="6" stroke-miterlimit="10" stroke-linecap="round"/>
<path d="M278.073 70.9807C262.751 62.8297 261.373 38.5899 261.373 38.5899L228.042 51.8992L236.758 72.3482C236.758 72.3482 242.408 76.4157 260.859 76.1073C279.309 75.7988 278.073 70.9807 278.073 70.9807Z" fill="#C36F0B"/>
<path d="M248.297 43.8119C246.66 48.0162 244.755 48.1402 244.755 48.1402C244.755 48.1402 243.994 63.8347 234.383 66.4712C234.348 66.4826 234.312 66.4912 234.275 66.4966L228.042 51.8993L248.297 43.8119Z" fill="#B65A18"/>
<path d="M236.43 73.3373C236.43 73.3373 242.405 77.0931 260.859 77.0931C278.089 77.0931 277.745 71.9666 277.745 71.9666" stroke="white" stroke-width="6" stroke-miterlimit="10" stroke-linecap="round"/>
<path d="M247.663 46.1176C247.663 46.1176 241.793 55.3403 235.922 57.4965C229.449 59.8849 218.493 59.2234 215.635 51.1583C213.247 44.4289 222.395 34.9867 224.477 15.9911C226.105 1.18709 250.193 18.8247 248.928 32.468L247.663 46.1176Z" fill="#C36F0B"/>
<path d="M228.389 4.5899C228.389 4.5899 221.225 2.77398 217.831 7.31855C214.676 11.5515 215.241 22.959 230.329 25.1279C239.575 26.4541 233.654 37.3941 236.263 38.5994C238.871 39.8047 242.714 29.3068 245.168 37.6231C246.994 43.8087 246.979 47.8698 254.143 50.1215C261.307 52.3731 263.124 48.7444 263.124 48.7444C263.124 48.7444 260.732 40.7938 267.89 27.3032C271.401 20.6756 266.411 10.343 258.155 9.2903C249.9 8.23764 249.322 3.75031 243.408 3.15561C235.935 2.40507 231.827 11.8536 228.02 10.9249C224.212 9.99631 226.269 6.4726 228.389 4.5899Z" fill="#070613"/>
<path d="M215.373 8.57158C212.219 12.8045 213.828 23.2802 231.556 24.8226" stroke="#070613" stroke-width="3" stroke-miterlimit="10"/>
<path d="M227.01 10.3907C227.01 10.3907 237.767 41.6048 268.937 35.874C268.937 35.874 275.562 18.2078 269.177 10.9155C262.023 2.72315 248.833 -2.30482 239.304 1.0567C229.774 4.41822 227.01 10.3907 227.01 10.3907Z" fill="#DAF3F9"/>
<path d="M268.609 36.2016C268.609 36.2016 276.682 13.4247 263.631 11.5738C258.53 10.8487 249.303 16.6972 248.553 33.8609" stroke="#3CBFD4" stroke-width="3" stroke-miterlimit="10"/>
<path d="M248.228 33.8609C248.228 33.8609 259.417 50.0579 278.196 50.9897C296.975 51.9215 268.944 35.874 268.944 35.874C268.944 35.874 261.265 37.1525 248.228 33.8609Z" fill="#3CBFD4"/>
<defs>
<linearGradient id="paint0_linear" x1="101.04" y1="44.3526" x2="101.04" y2="61.192" gradientUnits="userSpaceOnUse">
<stop stop-color="#00E2D6"/>
<stop offset="1" stop-color="#055DC0" stop-opacity="0.5"/>
</linearGradient>
<linearGradient id="paint1_linear" x1="53.9427" y1="83.9435" x2="53.9427" y2="86.2555" gradientUnits="userSpaceOnUse">
<stop stop-color="#00E2D6"/>
<stop offset="1" stop-color="#055DC0" stop-opacity="0.5"/>
</linearGradient>
<linearGradient id="paint2_linear" x1="81.9613" y1="83.3011" x2="81.9613" y2="87.1301" gradientUnits="userSpaceOnUse">
<stop stop-color="#00E2D6"/>
<stop offset="1" stop-color="#055DC0" stop-opacity="0.5"/>
</linearGradient>
<linearGradient id="paint3_linear" x1="99.3475" y1="90.8636" x2="99.3475" y2="96.7757" gradientUnits="userSpaceOnUse">
<stop stop-color="#00E2D6"/>
<stop offset="1" stop-color="#055DC0" stop-opacity="0.5"/>
</linearGradient>
<linearGradient id="paint4_linear" x1="102.474" y1="90.8636" x2="102.474" y2="96.7757" gradientUnits="userSpaceOnUse">
<stop stop-color="#00E2D6"/>
<stop offset="1" stop-color="#055DC0" stop-opacity="0.5"/>
</linearGradient>
<linearGradient id="paint5_linear" x1="109.346" y1="90.8968" x2="109.346" y2="96.7432" gradientUnits="userSpaceOnUse">
<stop stop-color="#00E2D6"/>
<stop offset="1" stop-color="#055DC0" stop-opacity="0.5"/>
</linearGradient>
<linearGradient id="paint6_linear" x1="89.7877" y1="91.3757" x2="89.7877" y2="96.5309" gradientUnits="userSpaceOnUse">
<stop stop-color="#00E2D6"/>
<stop offset="1" stop-color="#055DC0" stop-opacity="0.5"/>
</linearGradient>
<linearGradient id="paint7_linear" x1="93.059" y1="91.3757" x2="93.059" y2="93.1662" gradientUnits="userSpaceOnUse">
<stop stop-color="#00E2D6"/>
<stop offset="1" stop-color="#055DC0" stop-opacity="0.5"/>
</linearGradient>
<linearGradient id="paint8_linear" x1="97.551" y1="170.745" x2="97.551" y2="180.41" gradientUnits="userSpaceOnUse">
<stop stop-color="#00E2D6"/>
<stop offset="1" stop-color="#055DC0" stop-opacity="0.5"/>
</linearGradient>
<linearGradient id="paint9_linear" x1="76.8856" y1="153.4" x2="76.8856" y2="158.736" gradientUnits="userSpaceOnUse">
<stop stop-color="#00E2D6"/>
<stop offset="1" stop-color="#055DC0" stop-opacity="0.5"/>
</linearGradient>
<linearGradient id="paint10_linear" x1="58.0152" y1="138.695" x2="58.0152" y2="140.641" gradientUnits="userSpaceOnUse">
<stop stop-color="#00E2D6"/>
<stop offset="1" stop-color="#055DC0" stop-opacity="0.5"/>
</linearGradient>
<linearGradient id="paint11_linear" x1="49.5453" y1="133.873" x2="49.5453" y2="135.82" gradientUnits="userSpaceOnUse">
<stop stop-color="#00E2D6"/>
<stop offset="1" stop-color="#055DC0" stop-opacity="0.5"/>
</linearGradient>
<linearGradient id="paint12_linear" x1="41.763" y1="128.798" x2="41.763" y2="130.744" gradientUnits="userSpaceOnUse">
<stop stop-color="#00E2D6"/>
<stop offset="1" stop-color="#055DC0" stop-opacity="0.5"/>
</linearGradient>
<linearGradient id="paint13_linear" x1="76.1001" y1="138.695" x2="76.1001" y2="140.641" gradientUnits="userSpaceOnUse">
<stop stop-color="#00E2D6"/>
<stop offset="1" stop-color="#055DC0" stop-opacity="0.5"/>
</linearGradient>
<linearGradient id="paint14_linear" x1="67.6302" y1="133.873" x2="67.6302" y2="135.82" gradientUnits="userSpaceOnUse">
<stop stop-color="#00E2D6"/>
<stop offset="1" stop-color="#055DC0" stop-opacity="0.5"/>
</linearGradient>
<linearGradient id="paint15_linear" x1="59.848" y1="128.798" x2="59.848" y2="130.744" gradientUnits="userSpaceOnUse">
<stop stop-color="#00E2D6"/>
<stop offset="1" stop-color="#055DC0" stop-opacity="0.5"/>
</linearGradient>
<linearGradient id="paint16_linear" x1="92.5826" y1="138.695" x2="92.5826" y2="140.641" gradientUnits="userSpaceOnUse">
<stop stop-color="#00E2D6"/>
<stop offset="1" stop-color="#055DC0" stop-opacity="0.5"/>
</linearGradient>
<linearGradient id="paint17_linear" x1="84.1127" y1="133.873" x2="84.1127" y2="135.82" gradientUnits="userSpaceOnUse">
<stop stop-color="#00E2D6"/>
<stop offset="1" stop-color="#055DC0" stop-opacity="0.5"/>
</linearGradient>
<linearGradient id="paint18_linear" x1="76.3304" y1="128.798" x2="76.3304" y2="130.744" gradientUnits="userSpaceOnUse">
<stop stop-color="#00E2D6"/>
<stop offset="1" stop-color="#055DC0" stop-opacity="0.5"/>
</linearGradient>
<linearGradient id="paint19_linear" x1="109.292" y1="138.695" x2="109.292" y2="140.641" gradientUnits="userSpaceOnUse">
<stop stop-color="#00E2D6"/>
<stop offset="1" stop-color="#055DC0" stop-opacity="0.5"/>
</linearGradient>
<linearGradient id="paint20_linear" x1="100.822" y1="133.873" x2="100.822" y2="135.82" gradientUnits="userSpaceOnUse">
<stop stop-color="#00E2D6"/>
<stop offset="1" stop-color="#055DC0" stop-opacity="0.5"/>
</linearGradient>
<linearGradient id="paint21_linear" x1="93.0401" y1="128.798" x2="93.0401" y2="130.744" gradientUnits="userSpaceOnUse">
<stop stop-color="#00E2D6"/>
<stop offset="1" stop-color="#055DC0" stop-opacity="0.5"/>
</linearGradient>
<linearGradient id="paint22_linear" x1="125.314" y1="138.695" x2="125.314" y2="140.641" gradientUnits="userSpaceOnUse">
<stop stop-color="#00E2D6"/>
<stop offset="1" stop-color="#055DC0" stop-opacity="0.5"/>
</linearGradient>
<linearGradient id="paint23_linear" x1="116.847" y1="133.873" x2="116.847" y2="135.82" gradientUnits="userSpaceOnUse">
<stop stop-color="#00E2D6"/>
<stop offset="1" stop-color="#055DC0" stop-opacity="0.5"/>
</linearGradient>
<linearGradient id="paint24_linear" x1="109.062" y1="128.798" x2="109.062" y2="130.744" gradientUnits="userSpaceOnUse">
<stop stop-color="#00E2D6"/>
<stop offset="1" stop-color="#055DC0" stop-opacity="0.5"/>
</linearGradient>
<linearGradient id="paint25_linear" x1="141.402" y1="138.695" x2="141.402" y2="140.641" gradientUnits="userSpaceOnUse">
<stop stop-color="#00E2D6"/>
<stop offset="1" stop-color="#055DC0" stop-opacity="0.5"/>
</linearGradient>
<linearGradient id="paint26_linear" x1="132.936" y1="133.873" x2="132.936" y2="135.82" gradientUnits="userSpaceOnUse">
<stop stop-color="#00E2D6"/>
<stop offset="1" stop-color="#055DC0" stop-opacity="0.5"/>
</linearGradient>
<linearGradient id="paint27_linear" x1="125.15" y1="128.798" x2="125.15" y2="130.744" gradientUnits="userSpaceOnUse">
<stop stop-color="#00E2D6"/>
<stop offset="1" stop-color="#055DC0" stop-opacity="0.5"/>
</linearGradient>
<linearGradient id="paint28_linear" x1="87.201" y1="149.46" x2="87.201" y2="153.928" gradientUnits="userSpaceOnUse">
<stop stop-color="#00E2D6"/>
<stop offset="1" stop-color="#055DC0" stop-opacity="0.5"/>
</linearGradient>
<linearGradient id="paint29_linear" x1="110.078" y1="153.397" x2="110.078" y2="157.865" gradientUnits="userSpaceOnUse">
<stop stop-color="#00E2D6"/>
<stop offset="1" stop-color="#055DC0" stop-opacity="0.5"/>
</linearGradient>
<linearGradient id="paint30_linear" x1="126.33" y1="153.397" x2="126.33" y2="157.865" gradientUnits="userSpaceOnUse">
<stop stop-color="#00E2D6"/>
<stop offset="1" stop-color="#055DC0" stop-opacity="0.5"/>
</linearGradient>
<linearGradient id="paint31_linear" x1="143.27" y1="153.397" x2="143.27" y2="157.865" gradientUnits="userSpaceOnUse">
<stop stop-color="#00E2D6"/>
<stop offset="1" stop-color="#055DC0" stop-opacity="0.5"/>
</linearGradient>
<linearGradient id="paint32_linear" x1="159.358" y1="153.397" x2="159.358" y2="157.865" gradientUnits="userSpaceOnUse">
<stop stop-color="#00E2D6"/>
<stop offset="1" stop-color="#055DC0" stop-opacity="0.5"/>
</linearGradient>
<linearGradient id="paint33_linear" x1="235.357" y1="69.0283" x2="235.357" y2="232.127" gradientUnits="userSpaceOnUse">
<stop stop-color="#00E2D6"/>
<stop offset="1" stop-color="#055DC0" stop-opacity="0.5"/>
</linearGradient>
</defs>
</svg>
