<svg width="25" height="26" viewBox="0 0 25 26" fill="none" xmlns="http://www.w3.org/2000/svg">
<path d="M1.63074 2.21695C-0.328197 4.25131 0.0727316 6.41237 0.0727316 12.9776C0.0727316 18.4295 -0.878694 23.895 4.10071 25.1817C5.6556 25.5815 19.4326 25.5815 20.9854 25.1796C23.0586 24.6448 24.7454 22.9635 24.976 20.0319C25.0082 19.6227 25.0082 6.33967 24.9749 5.92221C24.7298 2.79953 22.8072 0.999861 20.2739 0.635358C19.6933 0.551242 19.577 0.526319 16.598 0.521126C6.0316 0.526319 3.71536 0.0558918 1.63074 2.21695V2.21695Z" fill="url(#paint0_linear)"/>
<path d="M12.5349 3.78067C8.76351 3.78067 5.18216 3.44525 3.81423 6.95526C3.24919 8.40496 3.33124 10.2877 3.33124 12.9836C3.33124 15.3492 3.25542 17.5726 3.81423 19.0108C5.17905 22.5229 8.78948 22.1865 12.5329 22.1865C16.1443 22.1865 19.868 22.5624 21.2525 19.0108C21.8186 17.5466 21.7355 15.6919 21.7355 12.9836C21.7355 9.38839 21.9339 7.06742 20.19 5.32487C18.4242 3.55948 16.0363 3.78067 12.5308 3.78067H12.5349ZM11.7102 5.4391C19.5771 5.42664 20.5784 4.55225 20.0259 16.6992C19.8295 20.9953 16.5577 20.5239 12.536 20.5239C5.20293 20.5239 4.99208 20.3141 4.99208 12.9794C4.99208 5.55956 5.57374 5.44326 11.7102 5.43703V5.4391ZM17.4479 6.96669C16.8382 6.96669 16.3438 7.461 16.3438 8.07058C16.3438 8.68016 16.8382 9.17447 17.4479 9.17447C18.0576 9.17447 18.552 8.68016 18.552 8.07058C18.552 7.461 18.0576 6.96669 17.4479 6.96669V6.96669ZM12.5349 8.2575C9.92475 8.2575 7.80897 10.3739 7.80897 12.9836C7.80897 15.5932 9.92475 17.7086 12.5349 17.7086C15.1451 17.7086 17.2599 15.5932 17.2599 12.9836C17.2599 10.3739 15.1451 8.2575 12.5349 8.2575V8.2575ZM12.5349 9.91593C16.591 9.91593 16.5962 16.0512 12.5349 16.0512C8.47995 16.0512 8.47372 9.91593 12.5349 9.91593Z" fill="#110F2F"/>
<defs>
<linearGradient id="paint0_linear" x1="1.67854" y1="23.8525" x2="24.8427" y2="3.80024" gradientUnits="userSpaceOnUse">
<stop stop-color="#00E2D6"/>
<stop offset="1" stop-color="#055DC0"/>
</linearGradient>
</defs>
</svg>
