<svg width="32" height="48" viewBox="0 0 32 48" fill="none" xmlns="http://www.w3.org/2000/svg">
<path d="M0.22381 23.2612L16.9843 0.30473C17.1274 0.109078 17.3215 -0.000487272 17.5237 1.8582e-06L31.2368 1.8582e-06C31.6575 -0.00107423 31.9992 0.46536 32 1.04165C32.0004 1.31948 31.9198 1.58606 31.7762 1.78229L15.5536 24.0001L31.7762 46.2177C32.0741 46.6247 32.0746 47.2854 31.7775 47.6934C31.6342 47.8901 31.4396 48.0005 31.2368 48H17.5237C17.3215 48.0005 17.1274 47.8909 16.9843 47.6953L0.22381 24.7387C-0.0740927 24.3318 -0.0746651 23.6711 0.222452 23.263L0.22381 23.2612Z" fill="#DDDDDD" fill-opacity="0.75"/>
</svg>
