<svg width="30" height="25" viewBox="0 0 30 25" fill="none" xmlns="http://www.w3.org/2000/svg">
<g clip-path="url(#clip0)">
<path d="M14.5833 15.0043C16.0191 15.0043 17.183 13.883 17.183 12.4999C17.183 11.1167 16.0191 9.99536 14.5833 9.99536C13.1476 9.99536 11.9836 11.1167 11.9836 12.4999C11.9836 13.883 13.1476 15.0043 14.5833 15.0043Z" fill="#61DAFB"/>
<path d="M14.5833 17.6311C22.2873 17.6311 28.5326 15.3339 28.5326 12.5C28.5326 9.66619 22.2873 7.3689 14.5833 7.3689C6.87934 7.3689 0.634033 9.66619 0.634033 12.5C0.634033 15.3339 6.87934 17.6311 14.5833 17.6311Z" stroke="#61DAFB"/>
<path d="M9.97081 15.0655C13.8228 21.493 19.0106 25.555 21.558 24.1381C24.1054 22.7212 23.0478 16.3619 19.1958 9.93436C15.3438 3.50682 10.1561 -0.55512 7.60868 0.861791C5.06124 2.27871 6.1188 8.63794 9.97081 15.0655Z" stroke="#61DAFB"/>
<path d="M9.97081 9.93438C6.1188 16.362 5.06124 22.7212 7.60868 24.1381C10.1561 25.555 15.3439 21.493 19.1958 15.0655C23.0478 8.63788 24.1054 2.2787 21.558 0.861792C19.0106 -0.555121 13.8228 3.50682 9.97081 9.93438Z" stroke="#61DAFB"/>
</g>
<defs>
<clipPath id="clip0">
<rect width="29.1667" height="25" fill="white"/>
</clipPath>
</defs>
</svg>
