<svg width="32" height="48" viewBox="0 0 32 48" fill="none" xmlns="http://www.w3.org/2000/svg">
<path d="M31.7762 23.2612L15.0157 0.30473C14.8726 0.109078 14.6785 -0.000487272 14.4763 1.8582e-06H0.763221C0.342472 -0.00107423 0.000786829 0.46536 1.18216e-06 1.04165C-0.00035593 1.31948 0.0802086 1.58606 0.223839 1.78229L16.4464 24L0.223839 46.2177C-0.0740638 46.6247 -0.0746351 47.2854 0.222482 47.6934C0.365755 47.8901 0.560381 48.0005 0.763221 48H14.4763C14.6785 48.0005 14.8726 47.8909 15.0157 47.6953L31.7762 24.7387C32.0741 24.3318 32.0747 23.6711 31.7775 23.263C31.777 23.2624 31.7766 23.2619 31.7762 23.2612Z" fill="#DDDDDD" fill-opacity="0.75"/>
</svg>
