<svg width="30" height="26" viewBox="0 0 30 26" fill="none" xmlns="http://www.w3.org/2000/svg">
<path d="M9.43474 25.4797C20.7561 25.4797 26.9472 15.8624 26.9472 7.52299C26.9472 7.24982 26.9417 6.97781 26.9298 6.70722C28.1314 5.81634 29.176 4.70462 30 3.43917C28.8972 3.94188 27.7103 4.28006 26.4654 4.43285C27.7361 3.65133 28.7119 2.41546 29.1719 0.942083C27.9826 1.66492 26.6656 2.19016 25.2635 2.4739C24.1404 1.24718 22.5412 0.47998 20.7706 0.47998C17.3717 0.47998 14.6152 3.30634 14.6152 6.7903C14.6152 7.28572 14.6693 7.76731 14.7748 8.22941C9.65927 7.96538 5.12306 5.45421 2.08763 1.63535C1.55914 2.56801 1.25427 3.65157 1.25427 4.80764C1.25427 6.99706 2.341 8.93019 3.9933 10.0609C2.98347 10.029 2.03499 9.74479 1.20575 9.27166C1.20483 9.29818 1.20483 9.324 1.20483 9.35216C1.20483 12.4087 3.32634 14.9608 6.14296 15.539C5.62569 15.6834 5.08141 15.761 4.51996 15.761C4.12399 15.761 3.7381 15.7211 3.36296 15.6472C4.14665 18.1549 6.41899 19.9796 9.11293 20.0307C7.0063 21.7238 4.35242 22.7322 1.46828 22.7322C0.972061 22.7322 0.481796 22.7031 0 22.6449C2.72392 24.4351 5.95871 25.48 9.43497 25.48" fill="url(#paint0_linear)"/>
<defs>
<linearGradient id="paint0_linear" x1="15" y1="0.47998" x2="15" y2="25.48" gradientUnits="userSpaceOnUse">
<stop stop-color="#055DC0"/>
<stop offset="1" stop-color="#00E2D6"/>
</linearGradient>
</defs>
</svg>
