<?xml version="1.0" encoding="iso-8859-1"?>
<!-- Generator: Adobe Illustrator 19.0.0, SVG Export Plug-In . SVG Version: 6.00 Build 0)  -->
<svg version="1.1" id="Capa_1" xmlns="http://www.w3.org/2000/svg" xmlns:xlink="http://www.w3.org/1999/xlink" x="0px" y="0px"
	 viewBox="0 0 464 464" style="enable-background:new 0 0 464 464;" xml:space="preserve">
<path style="fill:#DEDEDE;" d="M432,464H32c-8.837,0-16-7.163-16-16V248h432v200C448,456.837,440.837,464,432,464z"/>
<path style="fill:#666666;" d="M128,200v48h320v-64H115.2L128,200z"/>
<g>
	<path style="fill:#DEDEDE;" d="M272,248h-64l48-64h64L272,248z"/>
	<path style="fill:#DEDEDE;" d="M400,248h-64l48-64h64L400,248z"/>
	<path style="fill:#DEDEDE;" d="M128,184l-6.192,8.256L128,200v48h16l48-64H128z"/>
</g>
<path style="fill:#666666;" d="M121.808,192.256L115.2,184l-11.808-14.76l-4.008-5.008L64,120H46.568H16v64v64h64h48v-48
	L121.808,192.256z"/>
<g>
	<path style="fill:#DEDEDE;" d="M40,208h16v16H40V208z"/>
	<path style="fill:#DEDEDE;" d="M40,144h16v16H40V144z"/>
	<path style="fill:#DEDEDE;" d="M88,208h16v16H88V208z"/>
</g>
<g>
	<path style="fill:#C7C7C7;" d="M56,304h352v16H56V304z"/>
	<path style="fill:#C7C7C7;" d="M408,368H56v16h104v48h16v-48h112v48h16v-48h104V368z"/>
</g>
<path style="fill:#DEDEDE;" d="M103.392,169.24L448,61.064L428.832,0L46.568,120H64L103.392,169.24z"/>
<g>
	<path style="fill:#666666;" d="M280.08,113.776l-61.064,19.168l26.632-75.44l61.056-19.168L280.08,113.776z"/>
	<path style="fill:#666666;" d="M402.2,75.44l-61.056,19.168l26.624-75.44L428.832,0L402.2,75.44z"/>
	<path style="fill:#666666;" d="M103.392,169.24l54.56-17.128l26.632-75.44L123.52,95.84l-24.136,68.392L103.392,169.24z"/>
</g>
<path style="fill:#C7C7C7;" d="M16,248h432v24H16V248z"/>
<g>
</g>
<g>
</g>
<g>
</g>
<g>
</g>
<g>
</g>
<g>
</g>
<g>
</g>
<g>
</g>
<g>
</g>
<g>
</g>
<g>
</g>
<g>
</g>
<g>
</g>
<g>
</g>
<g>
</g>
</svg>
