<svg xmlns="http://www.w3.org/2000/svg" width="1500" height="1027" fill="none" xmlns:v="https://vecta.io/nano"><mask id="A" maskUnits="userSpaceOnUse" x="0" y="0" width="1500" height="1027" mask-type="alpha"><path d="M483.566 185.255C305.876 4.493 87.151-10.635 0 4.396V1027h1500V296.291c-157.37-74.477-364.38-31.032-448.21 0-115.369 38.306-390.535 69.726-568.224-111.036z" fill="#c4c4c4"/></mask><g mask="url(#A)"><path d="M1831.67 973.285c-749.87 274.675-1754.013 114.445-2162.348 0V.033H1831.67v973.252z" fill="url(#B)"/><path opacity=".5" d="M1168.51 483.683c151.98 43.364 305.41-30.875 363.12-73.414l50.02 113.65c-56.19 36.274-196.94 114.228-310.49 135.859-113.56 21.63-313.194 2.118-398.816-10.342-52.778-2.071-178.138.358-257.351 26.652-99.018 32.868-154.551 50.232-301.625 142.711-117.658 73.983-263.539 83.039-321.772 78.32l-66.098-150.197c59.425-8.965 171.214-42.941 142.97-107.12s-162.654-81.606-226.329-82.297l-45.7-103.845 93.903-39.174c105.813 39.731 301.936 53.393 468.2 15.155s221.325-96.552 418.994-71.403 200.989 71.241 390.974 125.445zm327.64 542.257H784c85.491-20.04 277.49-86.114 361.55-190.072 84.07-103.957 268.76-144.17 350.6-151.281v109.097c-154.58 50.815-64.41 125.583 0 156.615v75.641z" fill="#fff" fill-opacity=".1"/></g><defs><linearGradient id="B" x1="-330.678" y1="815.566" x2="1732.79" y2="-30.984" gradientUnits="userSpaceOnUse"><stop offset=".004" stop-color="#380070"/><stop offset="1" stop-color="#691eb0"/></linearGradient></defs></svg>