<svg xmlns="http://www.w3.org/2000/svg" width="1500" height="772" fill="none" xmlns:v="https://vecta.io/nano"><path fill="#f8f9ff" d="M0 0h1500v256H0z"/><mask id="A" maskUnits="userSpaceOnUse" x="0" y="0" width="1500" height="776" mask-type="alpha"><path d="M488.5 118.906C268.822-1.249 87.151-8.988 0 5.237v769.8h1500V149.504c-157.37-70.482-364.38 46.046-448.21 75.413C936.421 261.168 797 287.644 488.5 118.906z" fill="#c4c4c4"/></mask><g mask="url(#A)"><path d="M1832 748.939c-750.1 214.522-1754.543 89.384-2163 0V-11.178h2163v760.117z" fill="url(#B)"/><path opacity=".5" d="M1168.51 260.859c151.98 41.038 305.41-29.219 363.12-69.477l50.02 107.555c-56.19 34.328-196.94 108.102-310.49 128.572-113.56 20.471-313.194 2.005-398.816-9.786-52.778-1.961-178.138.338-257.351 25.222-99.018 31.105-154.551 47.538-301.625 135.057C195.71 648.017 49.829 656.588-8.404 652.121L-74.502 509.98c59.425-8.485 171.214-40.638 142.97-101.375s-162.654-77.229-226.329-77.883l-45.7-98.276 93.903-37.073c105.813 37.6 301.936 50.529 468.2 14.342s221.325-91.374 418.994-67.573 200.989 67.42 390.974 118.717zm328.5 516.014H784.861c85.492-18.967 277.489-81.496 361.559-179.878 84.06-98.382 268.75-136.438 350.59-143.168v103.246c-154.58 48.09-64.41 118.848 0 148.216v71.584z" fill="#fff" fill-opacity=".1"/></g><defs><linearGradient id="B" x1="-331" y1="625.759" x2="1558.74" y2="-367.204" gradientUnits="userSpaceOnUse"><stop offset=".004" stop-color="#380070"/><stop offset="1" stop-color="#691eb0"/></linearGradient></defs></svg>