<svg xmlns="http://www.w3.org/2000/svg" xmlns:xlink="http://www.w3.org/1999/xlink" width="269" height="189" fill="none" xmlns:v="https://vecta.io/nano"><style><![CDATA[.B{opacity:.749}.C{fill:#ffc55a}.D{opacity:.302}.E{fill:#4a4a99}.F{fill:#ff8d8a}.G{fill:#ced4fe}.H{fill:#42428e}.I{fill:#2e2e59}.J{fill:#6a6ab3}.K{fill:#fe6259}.L{fill-rule:evenodd}.M{opacity:.902}.N{stroke:#6a6ab3}.O{stroke-width:.596}.P{fill:#6666ad}.Q{fill:#f3b18c}.R{stroke-width:.854}.S{stroke-linecap:round}.T{stroke-linejoin:round}]]></style><path d="M32.073 26.052c0 8.776-1.324 15.295-3.973 19.556C25.473 49.869 21.446 52 16.02 52c-5.254 0-9.237-2.2-11.951-6.599S0 34.552 0 26.052c0-8.914 1.313-15.479 3.94-19.694C6.589 2.119 10.616 0 16.02 0c5.275 0 9.27 2.211 11.983 6.634s4.07 10.895 4.07 19.418zm-24.386 0c0 6.887.657 11.805 1.97 14.754 1.335 2.948 3.456 4.423 6.363 4.423s5.028-1.497 6.363-4.492c1.357-2.994 2.035-7.889 2.035-14.684 0-6.772-.678-11.667-2.035-14.684-1.335-3.04-3.456-4.561-6.363-4.561s-5.028 1.486-6.363 4.457c-1.313 2.971-1.97 7.901-1.97 14.788zM70 51.309H37.992v-6.15l12.177-13.095c3.596-3.939 5.975-6.726 7.138-8.361 1.184-1.658 2.046-3.213 2.584-4.664s.807-3.006.807-4.664c0-2.28-.646-4.077-1.938-5.39-1.27-1.313-3.036-1.969-5.297-1.969-1.809 0-3.564.357-5.265 1.071-1.68.714-3.628 2.004-5.846 3.87L38.25 6.599c2.627-2.373 5.179-4.054 7.655-5.045S51.019.069 53.818.069c4.393 0 7.913 1.232 10.562 3.697 2.648 2.442 3.973 5.736 3.973 9.882 0 2.28-.388 4.446-1.163 6.496-.754 2.05-1.927 4.169-3.521 6.358-1.572 2.165-4.199 5.102-7.881 8.811l-8.204 8.5v.345H70v7.152z" fill="#febb9a"/><path d="M41.814 63.306c-27.168 3.616-29.768 24.108-27.672 33.902 0 53.519 59.536 75.036 89.304 79.104 34.939-3.917 110.77-15.369 134.585-29.834s9.922-49.421 0-65.091c-19.566-25.615-64.232-69.612-86.369-40.682C123.99 76.867 75.774 58.785 41.814 63.306z" fill="url(#A)"/><path d="M194.714 58.154l.182.135c.06.045.145.033.19-.027l.408-.502c.045-.054.042-.135-.013-.187l-.187-.181c-.06-.057-.157-.048-.208.018l-.405.551a.14.14 0 0 0 .033.193zm-2.057 2.961l.208.153c.027.021.06.015.079-.012l.305-.442c.042-.06.027-.145-.031-.187l-.151-.111c-.063-.045-.154-.03-.196.036l-.251.376c-.039.06-.024.144.037.187zm46.139-17.684l-.088.837a.14.14 0 0 0 .124.15l.737.111c.076.015.148-.033.16-.111l.148-.83c.012-.075-.036-.147-.111-.163-.269-.054-.544-.093-.819-.12-.075-.006-.145.051-.151.126zM191.521 64.16l1.631 7.799.505-.779-.64-9.292-1.496 2.272zM77.783 92.096l-.251.223c-.03.027-.076.024-.1-.009l-.441-.53c-.063-.072-.054-.18.018-.244l.175-.156a.18.18 0 0 1 .26.021l.362.451c.057.075.048.18-.024.244zm.554-13.243l-.251.22c-.03.027-.076.024-.103-.006l-.441-.53c-.06-.075-.054-.181.018-.247l.178-.157a.18.18 0 0 1 .257.021l.362.454c.06.072.048.181-.021.244zm1.812 3.761L78.98 92.785l-.74-.936-.275-11.964 2.184 2.729z" class="F"/><path d="M160.901 136.681v1.628c0 .559-.456 1.011-1.015 1.011H113.59a1.01 1.01 0 0 1-1.015-1.011v-1.628h48.326z" class="I"/><path d="M159.294 130.542l1.586 5.913c.163.608-.296 1.203-.924 1.203h-46.454c-.628 0-1.087-.595-.924-1.203l1.586-5.913c.112-.418.492-.707.924-.707h43.282c.432 0 .812.289.924.707z" fill="#55a"/><path d="M76.871 114.546V45.278c0-2.967 1.655-4.499 4.506-4.499h109.157c2.017 0 5.47 1.276 5.47 5.094v68.672c0 2.01-3.453 3.641-5.47 3.641H80.526a3.65 3.65 0 0 1-3.655-3.641z" class="I"/><path d="M153.186 132.447h-32.915v-18.124h32.915v18.124z" class="J"/><path opacity=".251" d="M153.186 132.447h-32.915l32.915-17.32v17.32z" class="E"/><path d="M77.473 114.549V45.314c0-2.01 1.634-3.641 3.655-3.641h111.204c2.021 0 3.655 1.631 3.655 3.641v69.235c0 2.013-1.634 3.641-3.655 3.641H81.127c-2.021 0-3.655-1.628-3.655-3.641z" fill="#f99746"/><path d="M184.997 112.557H88.46c-2.945 0-5.334-2.38-5.334-5.314v-54.62c0-2.937 2.389-5.317 5.334-5.317h96.537c2.945 0 5.334 2.38 5.334 5.317v54.62c0 2.934-2.389 5.314-5.334 5.314z" fill="#fff"/><g class="G"><path d="M81.622 48.019v63.825c0 1.294 1.051 2.344 2.35 2.344h105.514c1.298 0 2.349-1.05 2.349-2.344V48.019c0-1.294-1.051-2.344-2.349-2.344H83.972c-1.299 0-2.35 1.05-2.35 2.344z"/><path d="M191.835 48.037c0-1.306-1.051-2.362-2.349-2.362H83.969c-1.296 0-2.347 1.056-2.347 2.362v.686h110.213v-.686z" style="mix-blend-mode:screen" class="B"/><use xlink:href="#J" style="mix-blend-mode:multiply"/></g><path d="M187.359 47.324c0 .4-.326.725-.728.725a.73.73 0 0 1-.728-.725.73.73 0 0 1 .728-.725c.402 0 .728.325.728.725z" class="C"/><use xlink:href="#J" x="4.216" class="K"/><path opacity=".6" d="M81.622 48.723v2.522h110.213v-2.522H81.622z" class="E"/><path d="M170.526 82.232h-47.259V54.29h47.259v27.942z" style="mix-blend-mode:screen" class="B G"/><path d="M125.982 76.56h41.558" class="N O"/><path d="M150.054 59.481c1.036 1.682.544 4.101-1.024 5.305-.737.563-1.658.84-2.585.84-1.048 0-2.102-.352-2.897-1.038-.365-.31-.676-.68-.906-1.101-.498-.909-.565-2.04-.184-3.003.683-1.715 2.537-2.747 4.319-2.747 1.284 0 2.534.536 3.277 1.745zm-3.277-.647c-1.435 0-2.818.864-3.292 2.055a2.49 2.49 0 0 0 .127 2.073 2.83 2.83 0 0 0 .655.794c.568.487 1.362.77 2.178.77.719 0 1.398-.217 1.912-.611 1.135-.873 1.489-2.675.758-3.861-.655-1.062-1.746-1.222-2.338-1.222z" class="E L"/><g stroke="#4a4a99" stroke-width="3.65"><path d="M141.55 78.013l3.41-1.544 1.749-3.671v-7.393m-.001 7.394l3.821 7.02"/><path d="M146.751 68.706c2.087.117 4.207-.719 5.651-2.224m-5.631 2.224c-2.084.117-4.204-.719-5.651-2.224"/></g><path d="M140.698 57.741a5.63 5.63 0 0 0-.828.822 5.57 5.57 0 0 0-.824-.822c.329-.274.553-.493.824-.822a5.78 5.78 0 0 0 .828.822zm13.781 0c-.332.271-.552.494-.827.822a5.61 5.61 0 0 0-.825-.822 5.76 5.76 0 0 0 .825-.822 5.79 5.79 0 0 0 .827.822zm-6.891 0a5.56 5.56 0 0 0-.825.822c-.275-.328-.495-.551-.827-.822.332-.274.552-.493.827-.822a5.71 5.71 0 0 0 .825.822z" class="J"/><path d="M139.87 57.742h13.782" class="N O"/><path d="M141.93 66.302a5.59 5.59 0 0 0-.824.825 5.6 5.6 0 0 0-.828-.825 5.58 5.58 0 0 0 .828-.822c.272.328.495.551.824.822zm11.23 0a5.63 5.63 0 0 0-.825.825 5.61 5.61 0 0 0-.827-.825 5.54 5.54 0 0 0 .827-.822 5.61 5.61 0 0 0 .825.822zm-5.615 2.862a5.61 5.61 0 0 0-.825.822c-.275-.328-.495-.551-.827-.822a5.65 5.65 0 0 0 .827-.824 5.63 5.63 0 0 0 .825.824z" class="J"/><path d="M141.105 66.326c.417 1.673 4.051 2.699 5.63 2.699 1.568-.003 5.084-.981 5.6-2.699m-12.954 8.79c.791-.153 1.628-.153 2.247.027a12.76 12.76 0 0 1 3.887 1.902c1.332.966 2.552 2.227 4.165 2.573 1.453.31 2.945-.199 4.25-.942" class="N O"/><path d="M151.284 79.644a5.92 5.92 0 0 0-.825.822c-.272-.328-.495-.548-.824-.822a5.76 5.76 0 0 0 .824-.821 5.87 5.87 0 0 0 .825.821zm3.73-1.071a5.92 5.92 0 0 0-.824.822c-.275-.328-.496-.548-.825-.822a5.92 5.92 0 0 0 .825-.821 5.91 5.91 0 0 0 .824.821zm-9.336-2.058c-.332.274-.552.494-.827.825a5.58 5.58 0 0 0-.825-.825 5.57 5.57 0 0 0 .825-.821 5.58 5.58 0 0 0 .827.821zm-5.479-1.339a5.63 5.63 0 0 0-.825.824c-.274-.331-.495-.551-.827-.824a5.58 5.58 0 0 0 .827-.822c.272.328.496.551.825.822z" class="J"/><g class="E"><path d="M121.244 84.633h-1.39V54.29h1.39v30.343z" class="M"/><path opacity=".6" d="M119.863 85.849H84.739V54.29h35.124v31.559z"/><path opacity=".4" d="M84.739 65.43v-1.384h18.814v1.384H84.739z"/><path opacity=".6" d="M188.719 82.199h-16.223V54.257h16.223v27.942z"/></g><g stroke="#ced4fe" stroke-width=".808"><path d="M172.496 57.281h16.223m-16.223 3.127h16.223m-16.223 3.129h16.223m-16.223 3.126h16.223m-16.223 3.13h16.223m-16.223 9.385h16.223" style="mix-blend-mode:multiply"/><path d="M172.496 76.049h16.223m-16.223-3.127h16.223" style="mix-blend-mode:multiply"/></g><g class="G"><path d="M179.391 55.605h-6.364v-.617h6.364v.617z" style="mix-blend-mode:screen" class="B"/><use xlink:href="#K" style="mix-blend-mode:screen" class="B"/><path d="M184.472 58.716h-11.445v-.614h11.445v.614zm-2.018.963h-9.427v-.617h9.427v.617zm-3.063 2.152h-6.364v-.617h6.364v.617z" style="mix-blend-mode:screen" class="B"/><use xlink:href="#K" y="6.226" style="mix-blend-mode:screen" class="B"/><path d="M184.472 64.942h-11.445v-.614h11.445v.614zm-2.018.963h-9.427v-.617h9.427v.617zm-2.842 2.152h-6.585v-.617h6.585v.617z" style="mix-blend-mode:screen" class="B"/><use xlink:href="#K" y="12.451" style="mix-blend-mode:screen" class="B"/><path d="M179.391 77.394h-6.364v-.614h6.364v.614zm3.063.962h-9.427v-.617h9.427v.617zm2.018 2.152h-11.445v-.617h11.445v.617z" style="mix-blend-mode:screen" class="B"/><use xlink:href="#K" y="24.903" style="mix-blend-mode:screen" class="B"/><path d="M179.391 71.168h-6.364v-.614h6.364v.614zm3.063.963h-9.427v-.617h9.427v.617zm2.018 2.151h-11.445v-.617h11.445v.617z" style="mix-blend-mode:screen" class="B"/><use xlink:href="#K" y="18.677" style="mix-blend-mode:screen" class="B"/><path d="M188.719 111.823H84.739V85.849h103.98v25.974z" style="mix-blend-mode:multiply" opacity=".851"/></g><path opacity=".6" d="M104.949 84.633V54.29h-1.393v30.343H84.739v1.216h103.98v-1.216h-83.77z" class="E"/><g stroke="#ced4fe" stroke-width=".779"><path d="M84.739 90.179h103.974M84.739 107.493h103.974" style="mix-blend-mode:screen" opacity=".549"/><path d="M84.739 103.166h103.974m-103.974-4.33h103.974m-103.974-4.33h103.974" style="mix-blend-mode:screen" opacity=".549"/></g><path d="M177.927 88.846h-50.135v-1.751h50.135v1.751z" class="C"/><path d="M163.257 93.206h-33.11v-1.751h33.11v1.751z" class="F"/><path d="M177.407 97.566h-54.934v-1.751h54.934v1.751z" fill="#ffd28a"/><path d="M177.408 101.926h-19.983v-1.751h19.983v1.751z" class="K"/><path d="M163.257 106.286h-40.784v-1.751h40.784v1.751z" class="F"/><path d="M177.407 110.646h-54.934v-1.751h54.934v1.751z" class="C"/><g class="E"><use xlink:href="#L"/><use xlink:href="#L" y="4.36"/><use xlink:href="#L" y="8.72"/><use xlink:href="#L" y="13.08"/><use xlink:href="#L" y="17.44"/><use xlink:href="#L" y="21.8"/><use xlink:href="#M"/><use xlink:href="#M" y="4.36"/><use xlink:href="#M" y="8.72"/><use xlink:href="#M" y="13.08"/><use xlink:href="#M" y="17.44"/><use xlink:href="#M" y="21.8"/></g><use xlink:href="#N" class="C"/><use xlink:href="#N" y="4.36" class="F"/><use xlink:href="#N" y="8.72" fill="#ffd28a"/><use xlink:href="#N" y="13.08" class="K"/><use xlink:href="#N" y="17.44" class="F"/><use xlink:href="#N" y="21.8" class="C"/><path d="M121.244 111.823h-1.39V85.849h1.39v25.974z" class="G"/><path d="M121.244 111.823h-1.39V85.849h1.39v25.974z" class="E M"/><path d="M111.955 87.784H95.162v-.617h16.793v.617zm2.846.96H95.162v-.614h19.639v.614zm-5.504 3.418H95.162v-.614h14.135v.614zm-1.171.963H95.162v-.617h12.964v.617zm-7.563 3.418h-5.401v-.614h5.401v.614zm9.58.963H95.162v-.617h14.981v.617zm-3.516 3.418H95.162v-.617h11.465v.617zm2.843.96H95.162v-.614h14.308v.614zm6.131 3.421H95.162v-.617h20.439v.617zm-6.065.96H95.162v-.614h14.374v.614zm2.419 3.421H95.162v-.616h16.793v.616zm-5.047.96H95.162v-.616h11.746v.616zm-14.621-43.23h-6.316v-.617h6.316v.617zm1.625 2.623h-7.94v-.614h7.941v.614zm-2.543 5.254h-5.397v-.614h5.397v.614zm3.072 2.627h-8.469v-.617h8.469v.617zm1.492-5.254h-9.961v-.614h9.961v.614zm16.772-6.268h-6.315v.614h6.315v-.614zm1.625-2.626h-7.94v.617h7.94v-.617zm-2.54-5.254h-5.4v.617h5.4v-.617zm3.069-2.627h-8.469v.617h8.469v-.617zm1.492 5.254h-9.961v.617h9.961v-.617z" style="mix-blend-mode:screen" class="B G"/><path d="M127.683 114.188h16.539l35.758-68.513h-16.539l-35.758 68.513z" fill="url(#B)" class="D"/><path d="M111.141 114.188h9.973l35.758-68.513h-9.973l-35.758 68.513z" fill="url(#C)" class="D"/><g class="H"><path d="M228.46 133.831l.042.99-3.811 4.002-.043-.99" class="M"/><path d="M228.46 133.831l-3.811 4.002-23.266-1.318 3.733-4.002 23.344 1.318z"/><path d="M228.46 133.831l-3.811 4.002-23.296-1.3 3.781-4.008 23.326 1.306z" style="mix-blend-mode:multiply" opacity=".451"/><use xlink:href="#O"/><use xlink:href="#O"/></g><path d="M209.172 103.199l16.217.644-3.465 30.704-16.219-.641 3.467-30.707z" class="G"/><path d="M221.574 112.31c-.438 3.033-3.12 5.158-5.995 4.748s-4.851-3.201-4.413-6.234 3.12-5.161 5.996-4.748 4.847 3.201 4.412 6.234z" fill="#8c99ef"/><path d="M218.339 122.568c-.263 1.842-1.894 3.133-3.64 2.886s-2.945-1.947-2.679-3.788 1.894-3.133 3.64-2.883 2.945 1.944 2.679 3.785z" class="K"/><path d="M216.461 102.835c-.094-.003-.181.072-.194.172s.058.186.151.192l1.734.084c.094.006.181-.072.19-.171s-.054-.184-.148-.19l-1.733-.087z" fill="#c3c6e7"/><path d="M224.531 102.751c.538.027.925.517.858 1.092l-.018.165-16.198-.809.018-.165c.063-.578.556-1.021 1.093-.996l14.247.713zm-8.112.448l1.733.084c.094.006.182-.072.191-.171s-.055-.184-.148-.19l-1.734-.087c-.094-.003-.181.072-.193.171s.057.187.151.193z" class="L P"/><path d="M225.389 103.843l1.018.472.003-.024-1.018-.472-.003.024z" fill="#696c81"/><path d="M221.828 136.178l-1.018-.472-14.247-.71a.91.91 0 0 1-.329-.082l.048.021c-.018-.006-.042-.012-.06-.021l.199.094.441.204.375.175a1.17 1.17 0 0 0 .148.051l.051.009.09.015c.019 0 .028.003.034.003h.021l14.247.713z" fill="#35355a"/><path d="M220.81 135.706l1.017.472h.022l-1.018-.469-.021-.003z" fill="#676a7f"/><path d="M220.831 135.708l1.018.47c.525.027 1.006-.406 1.069-.969l-1.015-.472c-.063.562-.543.999-1.072.971z" fill="#6b6e84"/><path d="M205.723 133.738l-.018.168c-.063.572.32 1.062.858 1.09l14.247.71c.538.027 1.03-.419 1.093-.99l.021-.169-16.201-.809z" class="P"/><path d="M220.14 128.583l-11.348-.565.151-.668 11.332.565-.135.668zm-.064 1.273l-11.347-.566.148-.668 11.332.566-.133.668zm-2.543 1.306l-6.406-.322.166-.668 6.406.322-.166.668z" class="C"/><path d="M225.875 103.304l-1.015-.472c.356.165.58.562.528 1.011l-.018.165-3.446 30.539-.021.169c-.063.571-.556 1.017-1.093.99l1.017.472c.538.027 1.03-.418 1.094-.99l.018-.169 3.449-30.538.018-.166c.052-.451-.175-.845-.531-1.011z" class="I"/><path d="M215.437 103.512l3.896.202 1.794 30.794-3.893-.189-1.797-30.807z" fill="url(#D)" class="D"/><path d="M212.181 103.349l1.8.097 1.794 30.794-1.797-.087-1.797-30.804z" fill="url(#E)" class="D"/><g class="H"><path d="M224.652 137.833l-1.597-2.997c-.311-.584-.913-.963-1.577-.993l-16.633-.74c-.631-.027-1.239.265-1.61.776l-1.936 2.669 23.353 1.285z"/><path d="M201.299 136.548l.042.981 23.351 1.294-.04-.99-23.353-1.285z"/><path d="M26.897 147.29l-.006 1.592 6.37 6.187.006-1.592" class="M"/><path d="M26.917 147.351l3.126-7.18 31.656-3.864 3.555 6.524-38.338 4.52z"/><path d="M26.917 147.351l3.126-7.18 31.656-3.864 3.555 6.524-38.338 4.52z" style="mix-blend-mode:multiply" opacity=".149"/><path d="M26.897 147.29l6.37 6.187 7.101-4.724-7.904-2.275-5.567.812z"/><path d="M26.897 147.29l6.37 6.187 7.101-4.724-7.904-2.275-5.567.812z"/></g><path d="M67.302 147.335l-1.127.557a1.42 1.42 0 0 1-.52.142l1.127-.557a1.4 1.4 0 0 0 .52-.142z" fill="#262650"/><path d="M44.281 102.423l-1.127.556a.57.57 0 0 1-.221.061c-.356.027-.686-.259-.74-.638-.039-.298.1-.563.332-.677l1.127-.557c-.233.114-.372.379-.332.677.054.379.384.665.74.638.082-.006.154-.027.221-.06z" fill="#121237"/><path d="M50.751 147.757l-1.13.557a1.14 1.14 0 0 1-.408.111c-.673.048-1.302-.491-1.401-1.207-.076-.556.19-1.059.631-1.276l1.127-.556c-.441.216-.707.719-.631 1.276.1.716.728 1.254 1.401 1.206.148-.012.284-.051.411-.111z" fill="#17173c"/><path d="M26.014 102.534l-1.127.557c-.097-.707.239-1.339.794-1.616l1.127-.557c-.556.277-.891.909-.794 1.616z" class="I"/><path d="M65.418 143.075l-1.127.556-31.161 2.335 1.127-.556 31.161-2.335z" fill="#676a7f"/><path d="M34.257 145.41l-1.127.557-5.563-40.228 1.127-.557 5.564 40.228z" fill="#696c81"/><path d="M59.988 98.331c.849-.063 1.64.62 1.767 1.522l6.343 45.87c.127.906-.462 1.691-1.314 1.754l-32.656 2.449c-.852.064-1.643-.619-1.77-1.525l-6.343-45.867c-.124-.906.465-1.691 1.314-1.754l32.659-2.45zm5.431 44.744l-5.564-40.231-31.161 2.338 5.564 40.228 31.161-2.335zm-15.078 4.793c.673-.051 1.139-.674 1.039-1.39s-.725-1.255-1.399-1.204-1.139.674-1.042 1.388.728 1.254 1.401 1.206zm-6.467-46.76c-.359.027-.604.355-.553.737s.384.665.74.638.604-.355.553-.734-.383-.668-.74-.641z" class="L P"/><g class="I"><path d="M66.783 147.477l-1.127.557L33 150.483l1.127-.557 32.656-2.449zm-34.426.924l-1.127.556-6.343-45.866 1.127-.557 6.343 45.867z"/><path d="M34.127 149.926l-1.127.557c-.852.063-1.643-.62-1.77-1.526l1.127-.556c.127.905.918 1.588 1.77 1.525z"/></g><path d="M61.589 125.011l.71 5.14-7.922.593-.71-5.137 7.923-.596zm-18.894-15.243l7.201 4.237-5.893 5.217-1.308-9.454z" fill="#6062a7"/><path d="M49.981 145.274c.674-.051 1.299.491 1.398 1.204s-.365 1.339-1.039 1.39-1.302-.49-1.401-1.206.369-1.337 1.042-1.388z" fill="#2a2a70"/><path d="M34.202 135.958l19.811-1.486 1.066 7.727-19.808 1.484-1.069-7.725zm-1.217-8.801l19.811-1.487 1.066 7.728-19.807 1.486-1.069-7.727z" fill="#8d91c9"/><g class="L"><path d="M30.158 106.723l28.685-2.152 2.489 18.006-28.681 2.149-2.492-18.003zm13.845 12.499l5.893-5.218-7.2-4.236 1.308 9.454z" fill="#e9ebf6"/><path d="M28.693 105.182l31.161-2.338 5.564 40.231-31.161 2.335-5.564-40.228zm30.149-.611l-28.684 2.152 2.492 18.003.181 1.312 28.681-2.152-.181-1.309-2.489-18.006zm-3.763 37.628l-1.066-7.727-19.811 1.486 1.069 7.725 19.808-1.484zm-1.217-8.801l-1.066-7.727-19.811 1.486 1.069 7.727 19.808-1.486zm8.436-3.247l-.71-5.139-7.922.595.71 5.137 7.922-.593zm1.574 11.389l-.71-5.139-7.922.596.713 5.136 7.919-.593zm-.785-5.696l-.713-5.136-7.919.592.71 5.14 7.922-.596z" fill="#c7ccf5"/></g><path d="M32.65 124.726l.181 1.312 28.682-2.152-.181-1.309m1.042 8.131l.713 5.136-7.922.596-.71-5.14 7.919-.592zm.788 5.693l.71 5.139-7.919.593-.713-5.136 7.922-.596z" fill="#6062a7"/><path d="M43.874 101.108c.356-.027.686.259.74.641s-.193.707-.553.734-.686-.259-.74-.638.193-.71.553-.737z" fill="#222265"/><path d="M45.638 103.891l3.627-.28-7.059 41.194-3.528.274 6.959-41.188z" fill="url(#F)" class="D"/><path d="M50.579 103.524l5.107-.394-7.059 41.193-5.008.389 6.959-41.188z" fill="url(#G)" class="D"/><path d="M44.474 128.974l.054.386-9.65.725-.054-.388 9.65-.723zm2.632 3.133l.054.385-11.825.885-.054-.385 11.825-.885z" class="C"/><path d="M53.527 138.85l.054.385-17.258 1.294-.051-.385 17.255-1.294zm-11.142 2.501l.051.385-5.884.442-.054-.385 5.887-.442zm6.415-3.81l.051.388-12.755.954-.054-.385 12.758-.957z" class="F"/><path d="M46.93 127.518l-.051-.385-12.281.918.054.388 12.278-.921z" class="C"/><path d="M43.158 136.302l.054.385-7.343.547-.054-.382 7.343-.55z" class="F"/><path d="M48.609 130.329l.054.388-13.555 1.017-.054-.388 13.555-1.017z" class="C"/><g class="H"><path d="M33.263 153.477l2.374-4.908c.465-.963 1.405-1.606 2.474-1.697l26.655-2.22c1.015-.085 2.006.343 2.634 1.143l3.274 4.165-37.41 3.517z"/><path d="M70.673 149.959l-.003 1.577-37.41 3.533.003-1.592 37.41-3.518z"/></g><path d="M159.569 161.367H67.321c-.371 0-.586-.301-.474-.674l.794-2.681h93.777l-.936 2.681c-.13.373-.538.674-.913.674z" class="E"/><path d="M160.577 158.746H68.015c-.435 0-.592-.446-.299-.84l10.082-13.516c.323-.434.84-.711 1.317-.711h76.763c.398 0 .703.193.818.518l4.703 13.616c.133.394-.338.933-.822.933z" fill="#7878c1"/><g class="H"><path d="M83.906 147.429h-6.159l1.933-2.69h5.938l-1.713 2.69zm-2.172 3.418h-6.439l1.93-2.69h6.219l-1.71 2.69zm-2.169 3.418h-6.717l1.924-2.69h6.5l-1.707 2.69zm12.091-6.836h-6.162l1.655-2.69h5.938l-1.432 2.69zm-1.821 3.418h-6.439l1.652-2.69h6.219l-1.432 2.69zm-3.634 6.837h-6.995l1.646-2.69h6.778l-1.429 2.69zm1.815-3.419h-6.717l1.649-2.69h6.497l-1.429 2.69zm11.387-6.836h-6.162l1.377-2.69h5.942l-1.157 2.69zm-1.47 3.418h-6.439l1.377-2.69h6.219l-1.157 2.69zm-2.931 6.837h-6.998l1.371-2.69h6.778l-1.151 2.69zm1.465-3.419h-6.72l1.374-2.69h6.5l-1.154 2.69zm10.684-6.836h-6.162l1.1-2.69h5.941l-.879 2.69zm-1.118 3.418h-6.439l1.099-2.69h6.219l-.879 2.69zm-2.232 6.837h-6.995l1.096-2.69h6.778l-.879 2.69zm1.115-3.419h-6.718l1.1-2.69h6.496l-.878 2.69zm9.982-6.836h-6.162l.822-2.69h5.941l-.601 2.69zm-.764 3.418h-6.44l.822-2.69h6.219l-.601 2.69zm-1.535 6.837h-6.995l.821-2.69h6.778l-.604 2.69zm.768-3.419h-6.718l.822-2.69h6.5l-.604 2.69zm9.278-6.836h-6.162l.547-2.69h5.938l-.323 2.69zm-.414 3.418h-6.439l.547-2.69h6.219l-.327 2.69zm-.83 6.837h-6.999l.55-2.69h6.775l-.326 2.69zm.416-3.419H115.1l.543-2.69h6.5l-.326 2.69zm8.575-6.836h-6.159l.266-2.69h5.938l-.045 2.69zm-.06 3.418h-6.439l.268-2.69h6.219l-.048 2.69zm-.133 6.837h-6.995l.272-2.69h6.778l-.055 2.69zm.069-3.419h-6.72l.272-2.69h6.496l-.048 2.69zm17.612-6.836h-6.158l-.363-2.69h5.938l.583 2.69zm.734 3.418h-6.439l-.357-2.69h6.219l.577 2.69zm1.447 6.837h-6.995l-.347-2.69h6.777l.565 2.69zm-.719-3.419h-6.717l-.354-2.69h6.5l.571 2.69zm-9.209-6.836h-6.159l-.084-2.69h5.938l.305 2.69z"/><path d="M140.516 150.847h-6.439l-.082-2.69h6.219l.302 2.69zm.746 6.837h-6.995l-.076-2.69h6.778l.293 2.69zm-.372-3.419h-6.717l-.075-2.69h6.496l.296 2.69zm14.737-6.836h-6.159l-.64-2.69h5.938l.861 2.69zm1.087 3.418h-6.439l-.634-2.69h6.219l.854 2.69zm2.146 6.837h-6.996l-.622-2.69h6.778l.84 2.69zm-1.067-3.419h-6.72l-.629-2.69h6.5l.849 2.69zm-84.676-.893l-.269.893h6.717l1.707-2.69.272-.893-8.427 2.69zm4.899-6.837l-.269.894h6.159l1.713-2.69.275-.894-7.877 2.69z"/><path d="M75.564 149.954l-.269.893h6.439l1.71-2.69.272-.894-8.152 2.691zm-4.891 6.836l-.266.894h6.995l1.704-2.69.269-.894-8.702 2.69zm8.805 0l-.272.894h6.995l1.429-2.69.275-.894-8.427 2.69zm6.288-10.255l-.272.894h6.162l1.432-2.69.278-.894-7.599 2.69z"/><path d="M83.667 149.954l-.272.893h6.439l1.432-2.69.275-.894-7.874 2.691z"/><path d="M81.571 153.372l-.272.893h6.717l1.429-2.69.278-.893-8.152 2.69zm6.711 3.418l-.278.894h6.998l1.151-2.69.281-.894-8.152 2.69zm3.489-6.836l-.278.893h6.439l1.157-2.69.281-.894-7.599 2.691z"/><path d="M90.025 153.372l-.278.893h6.72l1.154-2.69.278-.893-7.874 2.69zm3.494-6.837l-.278.894h6.162l1.157-2.69.277-.894-7.318 2.69zm36.68 11.149l.296-.894-6.726-2.69-.293.894-.272 2.69h6.995zm.429-7.73l-.296.893h-6.439l.268-2.69.29-.894 6.177 2.691z"/><path d="M130.564 153.372l-.296.893h-6.72l.272-2.69.293-.893 6.451 2.69zm-5.775-9.527l-.29.894-.266 2.69h6.159l.296-.894-5.899-2.69zm9.397 0l-.296.894.084 2.69h6.159l.299-.894-6.246-2.69z"/><path d="M140.815 149.954l-.299.893h-6.439l-.082-2.69.296-.894 6.524 2.691zm.749 6.836l-.302.894h-6.995l-.076-2.69.299-.894 7.074 2.69zm8.805 0l-.308.894h-6.995l-.347-2.69.302-.894 7.348 2.69zm-1.45-6.836l-.305.893h-6.439l-.357-2.69.302-.894 6.799 2.691z"/><path d="M141.192 153.372l-.302.893h-6.717l-.075-2.69.296-.893 6.798 2.69zm6.993-6.837l-.305.894h-6.158l-.363-2.69.299-.894 6.527 2.69zm.948-2.69l-.305.894.64 2.69h6.159l.308-.894-6.802-2.69zm1.619 6.837l-.308.893.629 2.69h6.72l.308-.893-7.349-2.69z"/><path d="M159.171 156.79l-.311.894h-6.996l-.622-2.69.308-.894 7.621 2.69zm-2.149-6.836l-.308.893h-6.439l-.634-2.69.305-.894 7.076 2.691zm-7.375 3.418l-.305.893h-6.717l-.354-2.69.303-.893 7.073 2.69z"/></g><path d="M84.177 146.535h-6.162l1.933-2.69h5.944l-1.716 2.69zm-2.171 3.418h-6.442l1.93-2.69h6.222l-1.71 2.69zm-4.334 6.837h-6.998l1.921-2.69h6.781l-1.704 2.69zm2.166-3.418h-6.72l1.924-2.69h6.503l-1.706 2.69zm12.093-6.837h-6.165l1.658-2.69h5.941l-1.435 2.69zm-1.822 3.418h-6.442l1.652-2.69h6.222l-1.432 2.69zm-3.633 6.837h-6.998l1.646-2.69h6.781l-1.429 2.69zm1.816-3.418h-6.72l1.649-2.69h6.503l-1.432 2.69zm11.389-6.837H93.52l1.377-2.69h5.941l-1.157 2.69zm-1.468 3.418h-6.442l1.374-2.69h6.225l-1.157 2.69zm-2.933 6.837h-6.998l1.371-2.69h6.781l-1.154 2.69zm1.466-3.418h-6.72l1.374-2.69h6.5l-1.154 2.69zm10.688-6.837h-6.164l1.099-2.69h5.944l-.879 2.69zm-1.118 3.418h-6.442l1.099-2.69h6.222l-.879 2.69zm-2.231 6.837h-7.001l1.099-2.69h6.781l-.879 2.69zm1.114-3.418h-6.721l1.096-2.69h6.503l-.879 2.69zm9.986-6.837h-6.162l.822-2.69h5.941l-.601 2.69zm-.765 3.418h-6.442l.821-2.69h6.222l-.601 2.69zm-1.531 6.837h-7.001l.821-2.69h6.781l-.601 2.69zm.764-3.418h-6.72l.821-2.69h6.503l-.604 2.69zm9.282-6.837h-6.162l.544-2.69h5.941l-.323 2.69zm-.411 3.418h-6.442l.544-2.69h6.222l-.324 2.69zm-.833 6.837h-6.999l.547-2.69h6.781l-.329 2.69zm.419-3.418h-6.723l.546-2.69h6.503l-.326 2.69zm8.578-6.837h-6.165l.266-2.69h5.941l-.042 2.69zm-.06 3.418h-6.442l.265-2.69h6.225l-.048 2.69zm-.133 6.837h-6.998l.272-2.69h6.781l-.055 2.69zm.069-3.418h-6.723l.272-2.69h6.499l-.048 2.69zm17.621-6.837h-6.164l-.363-2.69h5.944l.583 2.69zm.734 3.418h-6.442l-.357-2.69h6.222l.577 2.69zm1.45 6.837h-7.001l-.347-2.69h6.78l.568 2.69zm-.722-3.418h-6.72l-.354-2.69h6.503l.571 2.69zm-9.215-6.837h-6.162l-.084-2.69h5.941l.305 2.69zm.383 3.418h-6.442l-.082-2.69h6.225l.299 2.69zm.75 6.837h-7.001l-.073-2.69h6.781l.293 2.69zm-.372-3.418h-6.72l-.078-2.69h6.502l.296 2.69zm14.743-6.837h-6.162l-.64-2.69h5.941l.861 2.69zm1.087 3.418h-6.442l-.635-2.69h6.222l.855 2.69zm2.147 6.837h-6.998l-.622-2.69h6.781l.839 2.69zm-1.069-3.418h-6.721l-.628-2.69h6.5l.849 2.69z" fill="#5050a3"/><path d="M217.521 160.398l-46.251-.054c-1.957 0-3.694-.53-3.881-1.183l-3.543-11.855c-.084-.404-.362-1.451-.018-2.065.438-.779 1.673-.929 2.093-.929h41.319c1.743 0 3.54.529 4.011 1.182l9.031 12.397-.033 1.375c-.115.614-.771 1.132-2.728 1.132z" class="H"/><path d="M217.521 158.984l-46.251-.052c-1.957-.003-3.694-.532-3.881-1.182l-3.543-12.304c-.19-.653 1.072-1.18 2.812-1.18h40.582c1.743 0 3.54.53 4.011 1.183l8.955 12.355c.474.653-.728 1.183-2.685 1.18z" fill="#7878c1"/><path opacity=".451" d="M216.319 157.386l-36.103-.039-4.431-11.486 32.496.006 8.038 11.519z" class="G"/><path d="M185.433 157.356l-3.223-.009 10.46-11.483h7.855l-15.092 11.492z" fill="url(#H)" class="D"/><path d="M191.929 157.362l-4.863-.003 14.954-11.495h4.44l-14.531 11.498z" fill="url(#I)" class="D"/><g class="H"><path opacity=".502" d="M176.29 151.602c.272.738-1.22 1.336-3.334 1.333s-4.021-.598-4.25-1.336 1.262-1.336 3.334-1.333 3.975.599 4.25 1.336z"/><path d="M174.393 151.602c.133.367-.616.665-1.667.665s-2.003-.298-2.123-.668.625-.668 1.667-.665 1.99.298 2.123.668zm-2.114-5.019h-2.999c-.538 0-1.027-.159-1.091-.358s.321-.358.855-.358h2.981c.535 0 1.03.163 1.1.358s-.305.358-.846.358z"/><path d="M172.644 147.619h-3.023c-.544 0-1.036-.16-1.1-.359s.324-.358.864-.358h3.006c.54 0 1.039.163 1.111.358s-.311.359-.858.359zm.368 1.034h-3.047c-.55 0-1.045-.159-1.112-.358s.33-.358.873-.358h3.033c.543 0 1.045.163 1.117.358s-.314.358-.864.358zm.37 1.036h-3.075c-.556 0-1.054-.163-1.118-.359s.33-.358.879-.358h3.057c.553 0 1.054.163 1.126.358s-.317.359-.869.359zm1.609 4.54h-3.186c-.574-.003-1.091-.162-1.154-.361s.347-.358.915-.355h3.172c.57 0 1.09.163 1.162.361s-.335.355-.909.355zm.365 1.035l-3.21-.003c-.58 0-1.1-.159-1.163-.358s.35-.358.924-.358l3.196.003c.577 0 1.099.163 1.172.358s-.339.358-.919.358zm.369 1.035l-3.238-.003c-.583 0-1.109-.159-1.172-.358s.356-.358.936-.358l3.22.003c.58 0 1.105.163 1.178.358s-.341.358-.924.358zm.366 1.036l-3.262-.003c-.589 0-1.115-.163-1.178-.358s.356-.359.942-.359l3.244.003c.586 0 1.118.163 1.187.359s-.344.358-.933.358z"/></g><path d="M84.694 162.134c2.824-6.379 5.576-11.458 8.255-15.241a7.42 7.42 0 0 1 2.039-1.944l9.581-6.111c.728-.644 1.697-.524 2.909.364 2.585-1.932 4.926-1.772 7.028.482 1.613-.885 3.069-.726 4.361.481 1.94 1.811 4.483 3.743 2.785 5.191-1.129.965-2.341.565-3.633-1.207l-3.392 1.33-3.857 7.568a.21.21 0 0 0 .272.286l5.158-2.606c3.716-3.337 6.301-4.123 7.757-2.353s-.366 4.306-5.455 7.606l-8.717 7.938c-1.667 1.517-3.727 2.546-5.947 2.97l-4.588.777-9.584 11.244H61.19l23.505-16.775z" class="Q"/><path d="M101.267 142.166l1.902-1.321c.381-.262.819-.424 1.275-.478l1.078-.121a2.28 2.28 0 0 0 1.085-.421l.869-.623m-1.516 3.449l2.419-1.297a2.82 2.82 0 0 1 1.145-.322l1.845-.115a2.34 2.34 0 0 0 .795-.192l2.341-1.041" stroke="#e59973" class="R S T"/><path d="M121.262 151.482c.404.385 1.042.388 1.444 0 .468-.454 1.005-.99 1.138-1.363.206-.572.151-1.276-.293-1.691-.38-.358-.966-.424-1.474-.301-.314.075-.885.4-1.377.704a1.03 1.03 0 0 0-.384 1.342c.248.494.553.933.946 1.309z" style="mix-blend-mode:multiply" class="D Q"/><path d="M188.912 140.604l7.37-4.57c1.428-.849 3.093-.641 4.998.625 1.184.786-2.383 3.187-10.701 7.201l-1.667-3.256zm2.132 16.162c-1.244.689-2.712.972-4.129.797-.658-.081-1.407-.355-1.586-.993-.181-.644.324-1.257.789-1.739-.641.226-1.414.06-1.876-.436s-.568-1.3-.22-1.881c.223-.379.601-.638.966-.884l1.405-.957c-.586.337-1.338.397-1.949.108s-1.048-.939-1.032-1.613c.024-1.014.948-1.748 1.788-2.329l.951-.659 4.893 10.586z" fill="#eaa07a"/><path d="M186.118 154.831c.722-.584 1.447-.903 2.175-.954m-2.631-2.837l1.867-.924" stroke="#d88866" class="R S T"/><path d="M211.652 128.586l2.876-1.646c.474-.27 1.078-.108 1.353.362s.109 1.077-.366 1.348l-2.872 1.645-.991-1.709zm-33.172 20.052c-.043-.072-.018-.168.057-.21l.997-.569c.075-.042.169-.015.211.057s.018.169-.057.211l-.997.569c-.075.042-.169.018-.211-.058z" class="H"/><path d="M182.621 148.007l-1.511-2.612 30.947-17.648 1.516 2.621-30.952 17.639z" class="J"/><path d="M212.054 127.744l.546-.316c.357-.205.81-.084 1.015.271l.783 1.351a.74.74 0 0 1-.272 1.008l-.55.319-1.522-2.633zm-29.428 20.272l-3.325.568-.36-.62 2.169-2.569 1.516 2.621z" fill="#5050a3"/><path d="M216.922 178.909h-17.176l-3.41-12.087-7.572-10.613c-.308-.433-.553-.909-.716-1.414l-.931-2.856-2.219-5.232-1.148-2.817-.949-2.506c-.507-1.469.106-2.378.9-2.925.955-.662 2.202-.713 3.238-.199l.411.208c.948.472 1.767 1.158 2.395 2.004a6.11 6.11 0 0 1 .483.737c.463.809 2.063 2.744 2.601 3.105.239.16.501.304.791.319.369.018 3.072-3.027 5.337-5.94l3.262-1.856 1.616.668c.813.334 1.459.978 1.791 1.793l.707 1.731c.112.273.302.508.544.68l2.791 1.931a1.41 1.41 0 0 1 .576 1.463l-.61 2.789c-.048.343.04.692.242.975l.559.779c.202.283.25.647.133.969l-.647 1.749-1.622 8.654 8.623 17.891z" class="Q"/><path d="M209.626 147.931c-.181.912-.616 2.435-1.299 4.562m-1.933-11.139c.024 1.552-.411 3.244-1.302 5.07" stroke="#e59973" class="R S T"/><defs><linearGradient id="A" x1="132.378" y1="31.205" x2="132.378" y2="176.312" xlink:href="#P"><stop stop-color="#feb997"/><stop offset="1" stop-color="#fff" stop-opacity="0"/></linearGradient><linearGradient id="B" x1="183.987" y1="47.98" x2="141.375" y2="122.064" xlink:href="#P"><stop stop-color="#fff"/><stop offset="1" stop-color="#fff" stop-opacity="0"/></linearGradient><linearGradient id="C" x1="160.879" y1="47.98" x2="119.9" y2="119.226" xlink:href="#P"><stop stop-color="#fff"/><stop offset="1" stop-color="#fff" stop-opacity="0"/></linearGradient><linearGradient id="D" x1="235.109" y1="112.788" x2="221.361" y2="136.69" xlink:href="#P"><stop stop-color="#fff"/><stop offset="1" stop-color="#fff" stop-opacity="0"/></linearGradient><linearGradient id="E" x1="229.756" y1="112.52" x2="216.483" y2="135.595" xlink:href="#P"><stop stop-color="#fff"/><stop offset="1" stop-color="#fff" stop-opacity="0"/></linearGradient><linearGradient id="F" x1="49.526" y1="101.655" x2="66.357" y2="130.916" xlink:href="#P"><stop stop-color="#fff"/><stop offset="1" stop-color="#fff" stop-opacity="0"/></linearGradient><linearGradient id="G" x1="55.629" y1="100.621" x2="72.777" y2="130.434" xlink:href="#P"><stop stop-color="#fff"/><stop offset="1" stop-color="#fff" stop-opacity="0"/></linearGradient><linearGradient id="H" x1="199.608" y1="141.872" x2="202.776" y2="147.38" xlink:href="#P"><stop offset=".004" stop-color="#fff" stop-opacity=".6"/><stop offset="1" stop-color="#fff" stop-opacity="0"/></linearGradient><linearGradient id="I" x1="206.396" y1="143.347" x2="208.857" y2="147.626" xlink:href="#P"><stop offset=".004" stop-color="#fff" stop-opacity=".6"/><stop offset="1" stop-color="#fff" stop-opacity="0"/></linearGradient><path id="J" d="M185.252 47.324a.73.73 0 0 1-.728.725c-.402 0-.728-.325-.728-.725s.326-.725.728-.725a.73.73 0 0 1 .728.725z"/><path id="K" d="M182.454 56.565h-9.427v-.614h9.427v.614z"/><path id="L" d="M87.608 88.846H85.73v-1.751h1.879v1.751z"/><path id="M" d="M90.744 88.846h-1.882v-1.751h1.882v1.751z"/><path id="N" d="M93.876 88.846h-1.879v-1.751h1.879v1.751z"/><path id="O" d="M228.458 133.831l-1.595-2.997a1.88 1.88 0 0 0-1.58-.993l-16.63-.74a1.89 1.89 0 0 0-1.61.776l-1.936 2.669 23.351 1.285z"/><linearGradient id="P" gradientUnits="userSpaceOnUse"/></defs></svg>