<svg xmlns="http://www.w3.org/2000/svg" xmlns:xlink="http://www.w3.org/1999/xlink" width="222" height="162" fill="none" xmlns:v="https://vecta.io/nano"><style><![CDATA[.B{opacity:.749}.C{fill:#ffc55a}.D{opacity:.302}.E{fill:#4a4a99}.F{fill:#ff8d8a}.G{fill:#ced4fe}.H{fill:#42428e}.I{fill:#2e2e59}.J{fill:#6a6ab3}.K{fill:#fe6259}.L{fill-rule:evenodd}.M{opacity:.902}.N{stroke:#6a6ab3}.O{stroke-width:.596}.P{fill:#6666ad}.Q{fill:#f3b18c}.R{stroke-width:.854}.S{stroke-linecap:round}.T{stroke-linejoin:round}]]></style><path d="M26.469 22.426c0 7.555-1.093 13.166-3.279 16.834-2.168 3.668-5.491 5.502-9.969 5.502-4.336 0-7.623-1.894-9.863-5.681S0 29.743 0 22.426C0 14.752 1.084 9.101 3.252 5.473 5.438 1.824 8.761 0 13.221 0c4.354 0 7.65 1.904 9.889 5.711s3.359 9.379 3.359 16.715zm-20.125 0c0 5.929.542 10.162 1.626 12.7 1.102 2.538 2.852 3.807 5.251 3.807s4.149-1.289 5.251-3.867c1.12-2.578 1.679-6.791 1.679-12.641 0-5.83-.56-10.043-1.679-12.641-1.102-2.617-2.852-3.926-5.251-3.926S9.072 7.138 7.97 9.696c-1.084 2.558-1.626 6.801-1.626 12.73zM57.77 44.168H31.354v-5.294l10.049-11.272 5.891-7.198c.977-1.428 1.688-2.766 2.132-4.015s.666-2.588.666-4.015c0-1.963-.533-3.51-1.599-4.64-1.049-1.13-2.506-1.695-4.372-1.695a10.72 10.72 0 0 0-4.345.922c-1.386.615-2.994 1.725-4.825 3.331l-3.385-4.61c2.168-2.042 4.274-3.49 6.317-4.342S42.105.059 44.415.059c3.625 0 6.531 1.061 8.716 3.182 2.186 2.102 3.279 4.937 3.279 8.506 0 1.963-.32 3.827-.96 5.592-.622 1.765-1.59 3.589-2.905 5.473-1.297 1.864-3.465 4.392-6.504 7.584l-6.77 7.317v.297H57.77v6.157z" fill="#febb9a"/><path d="M34.508 54.495C12.087 57.608 9.941 75.248 11.671 83.678c0 46.071 49.134 64.593 73.7 68.095 28.834-3.372 91.416-13.23 111.07-25.681s8.189-42.543 0-56.032c-16.148-22.05-53.009-59.924-71.279-35.02-22.837 31.129-62.628 15.565-90.655 19.456z" fill="url(#A)"/><path d="M160.693 50.06l.15.116c.05.039.12.029.157-.023l.337-.432c.037-.047.034-.117-.01-.161l-.155-.155c-.05-.049-.13-.041-.172.016l-.334.474c-.035.054-.025.127.027.166zm-1.697 2.549l.172.132c.023.018.05.013.065-.01l.252-.381c.035-.052.022-.124-.025-.161l-.125-.096c-.052-.039-.127-.026-.162.031l-.207.324c-.032.052-.02.124.03.161zm38.078-15.223l-.073.72a.12.12 0 0 0 .103.13l.608.096c.062.013.122-.029.132-.096l.122-.715c.01-.065-.03-.127-.092-.14a6.56 6.56 0 0 0-.676-.104c-.062-.005-.119.044-.124.109zM158.059 55.23l1.346 6.714.416-.671-.529-7.999-1.233 1.956zM64.193 79.278l-.207.192c-.025.023-.062.021-.082-.008l-.364-.456c-.052-.062-.045-.155.015-.21l.145-.135c.065-.06.162-.049.214.018l.299.389c.047.065.04.155-.02.21zm.456-11.4l-.207.189c-.025.023-.062.021-.085-.005l-.364-.456c-.05-.065-.045-.155.015-.212l.147-.135c.062-.057.159-.049.212.018l.299.391c.05.062.04.155-.017.21zm1.495 3.238l-.965 8.755-.611-.805-.227-10.299 1.802 2.349z" class="F"/><path d="M132.788 117.658v1.401c0 .482-.377.87-.838.87H93.743c-.464 0-.838-.388-.838-.87v-1.401h39.883z" class="I"/><path d="M131.462 112.374l1.309 5.089c.134.524-.245 1.037-.763 1.037H93.671c-.519 0-.897-.513-.763-1.037l1.309-5.089c.092-.36.406-.609.763-.609h35.719c.357 0 .671.249.763.609z" fill="#55a"/><path d="M63.44 98.604V38.976c0-2.554 1.366-3.872 3.719-3.872h90.084c1.665 0 4.514 1.098 4.514 4.385v59.115c0 1.73-2.849 3.134-4.514 3.134H66.456c-1.665 0-3.016-1.404-3.016-3.134z" class="I"/><path d="M126.422 114.013H99.257V98.412h27.165v15.601z" class="J"/><path opacity=".251" d="M126.422 114.013H99.257l27.165-14.909v14.909z" class="E"/><path d="M63.936 98.606V39.008c0-1.73 1.349-3.134 3.016-3.134h91.774c1.668 0 3.016 1.404 3.016 3.134v59.599c0 1.733-1.348 3.135-3.016 3.135H66.952c-1.668 0-3.016-1.402-3.016-3.135z" fill="#f99746"/><path d="M152.675 96.892h-79.67c-2.43 0-4.402-2.049-4.402-4.574V45.299c0-2.528 1.972-4.577 4.402-4.577h79.67c2.43 0 4.402 2.049 4.402 4.577v47.018c0 2.525-1.972 4.574-4.402 4.574z" fill="#fff"/><g class="G"><path d="M67.361 41.336v54.942c0 1.114.868 2.018 1.939 2.018h87.078c1.072 0 1.939-.904 1.939-2.018V41.336c0-1.114-.867-2.018-1.939-2.018H69.301c-1.072 0-1.939.904-1.939 2.018z"/><path d="M158.318 41.352c0-1.124-.867-2.033-1.939-2.033H69.298c-1.069 0-1.937.909-1.937 2.033v.591h90.957v-.591z" style="mix-blend-mode:screen" class="B"/><path d="M152.884 40.738c0 .344-.269.624-.601.624s-.6-.28-.6-.624.269-.624.6-.624.601.28.601.624z" style="mix-blend-mode:multiply"/></g><path d="M154.623 40.738c0 .344-.269.624-.6.624s-.601-.28-.601-.624.269-.624.601-.624.6.28.6.624z" class="C"/><path d="M156.364 40.738c0 .344-.27.624-.601.624s-.601-.28-.601-.624.269-.624.601-.624.601.28.601.624z" class="K"/><path opacity=".6" d="M67.361 41.942v2.171h90.957v-2.171H67.361z" class="E"/><path d="M140.732 70.787h-39.003V46.734h39.003v24.053z" style="mix-blend-mode:screen" class="B G"/><path d="M103.971 65.905h34.296" class="N O"/><path d="M123.837 51.202c.855 1.448.448 3.53-.845 4.567-.608.484-1.369.723-2.134.723-.865 0-1.735-.303-2.39-.894a3.31 3.31 0 0 1-.748-.948 3.21 3.21 0 0 1-.152-2.585c.563-1.476 2.094-2.365 3.564-2.365 1.06 0 2.092.461 2.705 1.502zm-2.705-.557c-1.184 0-2.325.743-2.717 1.769-.217.565-.177 1.249.105 1.785.13.249.311.479.541.684.468.42 1.124.663 1.797.663.593 0 1.154-.187 1.578-.526.937-.751 1.229-2.303.626-3.323-.541-.914-1.441-1.052-1.93-1.052z" class="E L"/><g stroke="#4a4a99" stroke-width="3.65"><path d="M116.817 67.156l2.815-1.329 1.443-3.16v-6.364m0 6.364l3.153 6.043"/><path d="M121.109 59.144c1.723.101 3.473-.619 4.664-1.914m-4.645 1.914c-1.72.101-3.47-.619-4.664-1.914"/></g><g class="J"><use xlink:href="#J"/><use xlink:href="#J" x="11.374"/><path d="M121.8 49.705a4.68 4.68 0 0 0-.68.707 4.75 4.75 0 0 0-.683-.707c.274-.236.456-.425.683-.707.224.282.408.471.68.707z"/></g><path d="M115.432 49.705h11.374" class="N O"/><path d="M117.131 57.075a4.7 4.7 0 0 0-.68.71 4.77 4.77 0 0 0-.683-.71 4.75 4.75 0 0 0 .683-.707 4.69 4.69 0 0 0 .68.707zm9.269 0a4.72 4.72 0 0 0-.681.71 4.77 4.77 0 0 0-.683-.71 4.75 4.75 0 0 0 .683-.707 4.69 4.69 0 0 0 .681.707zm-4.634 2.463a4.74 4.74 0 0 0-.681.707 4.66 4.66 0 0 0-.683-.707 4.67 4.67 0 0 0 .683-.71 4.77 4.77 0 0 0 .681.71z" class="J"/><path d="M116.451 57.095c.344 1.44 3.343 2.324 4.646 2.324 1.294-.003 4.196-.845 4.622-2.324m-10.691 7.566c.653-.132 1.344-.132 1.855.023a10.36 10.36 0 0 1 3.208 1.637c1.099.831 2.106 1.917 3.437 2.215 1.199.267 2.431-.171 3.507-.811" class="N O"/><path d="M124.851 68.56c-.271.236-.453.425-.68.707-.225-.282-.409-.471-.681-.707a4.86 4.86 0 0 0 .681-.707 5.02 5.02 0 0 0 .68.707zm3.078-.922c-.271.236-.453.425-.68.707-.227-.282-.409-.471-.681-.707.272-.236.454-.425.681-.707.227.282.409.471.68.707zm-7.704-1.772a4.77 4.77 0 0 0-.683.71 4.77 4.77 0 0 0-.681-.71 4.74 4.74 0 0 0 .681-.707 4.75 4.75 0 0 0 .683.707zm-4.522-1.153a4.75 4.75 0 0 0-.68.71 4.77 4.77 0 0 0-.683-.71 4.75 4.75 0 0 0 .683-.707 4.73 4.73 0 0 0 .68.707z" class="J"/><g class="E"><path d="M100.06 72.854h-1.147v-26.12h1.147v26.12z" class="M"/><path opacity=".6" d="M98.921 73.901H69.934V46.734h28.987v27.167z"/><path opacity=".4" d="M69.934 56.323v-1.192H85.46v1.192H69.934z"/><path opacity=".6" d="M155.745 70.759h-13.388V46.706h13.388v24.053z"/></g><g stroke="#ced4fe" stroke-width=".808"><path d="M142.357 49.309h13.388M142.357 52h13.388m-13.388 2.694h13.388m-13.388 2.691h13.388m-13.388 2.694h13.388m-13.388 8.079h13.388" style="mix-blend-mode:multiply"/><path d="M142.357 65.464h13.388m-13.388-2.691h13.388" style="mix-blend-mode:multiply"/></g><g class="G"><path d="M148.048 47.866h-5.252v-.531h5.252v.531z" style="mix-blend-mode:screen" class="B"/><use xlink:href="#K" style="mix-blend-mode:screen" class="B"/><path d="M152.241 50.545h-9.445v-.528h9.445v.528zm-1.666.828h-7.779v-.531h7.779v.531zm-2.527 1.852h-5.252v-.531h5.252v.531z" style="mix-blend-mode:screen" class="B"/><use xlink:href="#K" y="5.359" style="mix-blend-mode:screen" class="B"/><path d="M152.241 55.904h-9.445v-.529h9.445v.529zm-1.666.829h-7.779v-.531h7.779v.531zm-2.345 1.852h-5.434v-.531h5.434v.531z" style="mix-blend-mode:screen" class="B"/><use xlink:href="#K" y="10.718" style="mix-blend-mode:screen" class="B"/><path d="M148.048 66.622h-5.252v-.528h5.252v.528zm2.527.829h-7.779v-.531h7.779v.531zm1.666 1.852h-9.445v-.531h9.445v.531z" style="mix-blend-mode:screen" class="B"/><use xlink:href="#K" y="21.436" style="mix-blend-mode:screen" class="B"/><path d="M148.048 61.263h-5.252v-.528h5.252v.528zm2.527.829h-7.779v-.531h7.779v.531zm1.666 1.852h-9.445v-.531h9.445v.531z" style="mix-blend-mode:screen" class="B"/><use xlink:href="#K" y="16.077" style="mix-blend-mode:screen" class="B"/><path d="M155.745 96.26H69.934V73.901h85.811V96.26z" style="mix-blend-mode:multiply" opacity=".851"/></g><path opacity=".6" d="M86.612 72.854v-26.12h-1.149v26.12H69.934v1.046h85.811v-1.046H86.612z" class="E"/><g stroke="#ced4fe" stroke-width=".779"><path d="M69.934 77.628h85.807M69.934 92.532h85.807" style="mix-blend-mode:screen" opacity=".549"/><path d="M69.934 88.808h85.807M69.934 85.08h85.807m-85.807-3.727h85.807" style="mix-blend-mode:screen" opacity=".549"/></g><path d="M146.839 76.481h-41.375v-1.508h41.375v1.508z" class="C"/><path d="M134.733 80.234h-27.325v-1.508h27.325v1.508z" class="F"/><path d="M146.41 83.987h-45.336V82.48h45.336v1.507z" fill="#ffd28a"/><path d="M146.41 87.74h-16.491v-1.507h16.491v1.507z" class="K"/><path d="M134.732 91.494h-33.658v-1.508h33.658v1.508z" class="F"/><path d="M146.41 95.247h-45.336v-1.507h45.336v1.507z" class="C"/><g class="E"><use xlink:href="#L"/><use xlink:href="#L" y="3.753"/><path d="M72.301 83.987h-1.55V82.48h1.55v1.507zm0 3.753h-1.55v-1.507h1.55v1.507z"/><use xlink:href="#L" y="15.013"/><path d="M72.301 95.247h-1.55V93.74h1.55v1.507zm2.588-18.766h-1.553v-1.508h1.553v1.508zm0 3.753h-1.553v-1.508h1.553v1.508zm0 3.753h-1.553V82.48h1.553v1.507zm0 3.753h-1.553v-1.507h1.553v1.507zm0 3.754h-1.553v-1.508h1.553v1.508zm0 3.753h-1.553V93.74h1.553v1.507z"/></g><use xlink:href="#L" x="5.172" class="C"/><use xlink:href="#L" x="5.172" y="3.753" class="F"/><path d="M77.473 83.987h-1.55V82.48h1.55v1.507z" fill="#ffd28a"/><path d="M77.473 87.74h-1.55v-1.507h1.55v1.507z" class="K"/><use xlink:href="#L" x="5.172" y="15.013" class="F"/><path d="M77.473 95.247h-1.55v-1.507h1.55v1.507z" class="C"/><path d="M100.06 96.26h-1.147V73.901h1.147V96.26z" class="G"/><path d="M100.06 96.26h-1.147V73.901h1.147V96.26z" class="E M"/><path d="M92.394 75.566H78.535v-.531h13.859v.531zm2.348.826H78.535v-.528h16.207v.528zm-4.541 2.943H78.535v-.528H90.2v.528zm-.967.829H78.535v-.531h10.698v.531zm-6.242 2.943h-4.457v-.528h4.457v.528zm7.907.828H78.535v-.531h12.364v.531zm-2.902 2.943h-9.462v-.531h9.462v.531zm2.346.826H78.535v-.528h11.808v.528zm5.06 2.945H78.535v-.531h16.868v.531zm-5.005.826H78.535v-.528h11.862v.528zm1.996 2.946H78.535v-.531h13.859v.531zm-4.165.826h-9.694v-.531h9.694v.531zM76.162 58.033H70.95v-.531h5.212v.531zm1.341 2.259H70.95v-.528h6.553v.528zm-2.098 4.522H70.95v-.528h4.454v.528zm2.535 2.261h-6.99v-.531h6.989v.531zm1.231-4.522H70.95v-.528h8.221v.528zm13.842-5.395h-5.212v.528h5.212v-.528zm1.341-2.262h-6.553v.531h6.553v-.531zm-2.096-4.522h-4.457v.531h4.457v-.531zm2.532-2.262h-6.989v.531h6.989v-.531zm1.232 4.523h-8.221v.531h8.221v-.531z" style="mix-blend-mode:screen" class="B G"/><path d="M105.374 98.296h13.65l29.51-58.977h-13.65l-29.51 58.977z" fill="url(#B)" class="D"/><path d="M91.722 98.296h8.231l29.511-58.977h-8.231l-29.51 58.977z" fill="url(#C)" class="D"/><g class="H"><path d="M188.543 115.205l.035.852-3.146 3.445-.035-.852" class="M"/><path d="M188.544 115.205l-3.146 3.445-19.201-1.135 3.081-3.445 19.266 1.135z"/><path d="M188.543 115.205l-3.145 3.445-19.226-1.119 3.121-3.45 19.25 1.124z" style="mix-blend-mode:multiply" opacity=".451"/><use xlink:href="#M"/><use xlink:href="#M"/></g><path d="M172.625 88.836l13.383.554-2.859 26.431-13.385-.552 2.861-26.433z" class="G"/><path d="M182.86 96.679c-.361 2.611-2.574 4.44-4.947 4.088s-4.004-2.756-3.642-5.367 2.575-4.442 4.948-4.087 4 2.756 3.641 5.367z" fill="#8c99ef"/><path d="M180.19 105.509c-.217 1.586-1.563 2.697-3.003 2.484s-2.431-1.676-2.211-3.261 1.563-2.696 3.003-2.481 2.431 1.673 2.211 3.258z" class="K"/><path d="M178.64 88.523c-.078-.003-.15.062-.16.148s.048.161.125.166l1.431.072c.077.005.149-.062.157-.148s-.045-.158-.123-.163l-1.43-.075z" fill="#c3c6e7"/><path d="M185.3 88.45c.444.023.763.446.708.94l-.015.142-13.368-.697.015-.142c.052-.497.459-.878.902-.857l11.758.614zm-6.695.386l1.431.073c.077.005.149-.062.157-.148s-.045-.158-.122-.163l-1.431-.075c-.078-.003-.15.062-.16.148s.048.161.125.166z" class="L P"/><path d="M186.009 89.39l.84.407.002-.021-.84-.407-.002.021z" fill="#696c81"/><path d="M183.07 117.225l-.84-.407-11.758-.611a.73.73 0 0 1-.272-.07l.04.018c-.015-.005-.035-.01-.05-.018l.165.081.364.176.309.15c.04.018.08.031.122.044l.042.008.075.013c.015 0 .023.002.028.002h.017l11.758.614z" fill="#35355a"/><path d="M182.229 116.818l.841.407h.017l-.84-.404-.018-.003z" fill="#676a7f"/><path d="M182.247 116.821l.84.404c.434.023.83-.35.882-.834l-.837-.407c-.052.485-.449.86-.885.837z" fill="#6b6e84"/><path d="M169.778 115.125l-.015.145c-.052.492.265.914.708.937l11.758.612c.444.023.85-.361.903-.853l.017-.145-13.371-.696z" class="P"/><path d="M181.676 110.687l-9.364-.487.124-.575 9.353.487-.113.575zm-.052 1.096l-9.365-.487.122-.575 9.352.487-.109.575zm-2.099 1.124l-5.287-.277.137-.575 5.287.277-.137.575z" class="C"/><path d="M186.41 88.927l-.838-.407c.294.142.479.484.436.87l-.015.142-2.844 26.288-.017.145c-.053.492-.459.876-.903.852l.841.407c.443.023.85-.36.902-.852l.015-.145 2.846-26.288.015-.142c.043-.388-.144-.728-.438-.87z" class="I"/><path d="M177.795 89.106l3.215.173 1.481 26.509-3.213-.164-1.483-26.518z" fill="url(#D)" class="D"/><path d="M175.108 88.966l1.486.083 1.481 26.508-1.483-.075-1.484-26.516z" fill="url(#E)" class="D"/><g class="H"><path d="M185.4 118.65l-1.318-2.58c-.257-.503-.753-.829-1.302-.855l-13.727-.637a1.54 1.54 0 0 0-1.328.668l-1.598 2.298 19.273 1.106z"/><path d="M166.127 117.544l.035.844 19.271 1.114-.033-.852-19.273-1.106z"/><path d="M22.196 126.791l-.005 1.37 5.257 5.326.005-1.371" class="M"/><path d="M22.214 126.843l2.58-6.181 26.125-3.326 2.934 5.616-31.639 3.891z"/><path d="M22.214 126.843l2.58-6.181 26.125-3.326 2.934 5.616-31.639 3.891z" style="mix-blend-mode:multiply" opacity=".149"/><path d="M22.196 126.791l5.257 5.325 5.86-4.066-6.523-1.958-4.594.699z"/><path d="M22.196 126.791l5.257 5.325 5.86-4.066-6.523-1.958-4.594.699z"/></g><path d="M55.543 126.83l-.93.479a1.14 1.14 0 0 1-.429.122l.93-.479a1.14 1.14 0 0 0 .429-.122z" fill="#262650"/><path d="M36.544 88.168l-.93.479c-.055.028-.115.047-.182.052-.294.023-.566-.223-.611-.549-.032-.256.082-.484.274-.583l.93-.479c-.192.099-.307.326-.274.583.045.326.317.573.611.549.067-.005.127-.023.182-.052z" fill="#121237"/><path d="M41.883 127.192l-.932.48c-.102.051-.214.085-.336.095-.556.042-1.074-.422-1.157-1.038-.062-.479.157-.912.521-1.098l.93-.48c-.364.187-.583.619-.521 1.099.082.616.601 1.08 1.157 1.038.122-.01.234-.044.339-.096z" fill="#17173c"/><path d="M21.469 88.264l-.93.479c-.08-.609.197-1.153.656-1.391l.93-.479c-.459.238-.735.782-.656 1.391z" class="I"/><path d="M53.988 123.162l-.93.479-25.717 2.01.93-.479 25.717-2.01z" fill="#676a7f"/><path d="M28.271 125.172l-.93.479-4.591-34.629.93-.479 4.591 34.629z" fill="#696c81"/><path d="M49.506 84.645c.7-.054 1.353.534 1.458 1.311l5.235 39.485c.105.78-.381 1.456-1.084 1.511l-26.95 2.108c-.703.054-1.356-.534-1.461-1.313l-5.235-39.483c-.102-.78.384-1.456 1.084-1.51l26.953-2.109zm4.482 38.517l-4.591-34.631-25.717 2.013 4.592 34.629 25.717-2.01zm-12.443 4.126c.556-.044.94-.58.857-1.196s-.598-1.081-1.154-1.036-.94.58-.86 1.194.601 1.08 1.157 1.038zm-5.337-40.252c-.297.023-.499.306-.456.635s.317.572.611.549.498-.306.456-.632-.317-.575-.611-.552z" class="L P"/><g class="I"><path d="M55.115 126.951l-.93.48-26.95 2.108.93-.479 26.951-2.109zm-28.412.796l-.93.479-5.234-39.483.93-.479 5.235 39.483z"/><path d="M28.164 129.06l-.93.479c-.703.054-1.356-.534-1.461-1.313l.93-.479c.105.779.758 1.367 1.461 1.313z"/></g><path d="M50.827 107.613l.586 4.424-6.538.51-.586-4.421 6.538-.513zM35.235 94.491l5.942 3.647-4.863 4.492-1.079-8.139z" fill="#6062a7"/><path d="M41.248 125.055c.556-.044 1.072.423 1.154 1.036s-.302 1.153-.858 1.197-1.074-.422-1.157-1.039.304-1.15.86-1.194z" fill="#2a2a70"/><path d="M28.227 117.036l16.349-1.28.88 6.652-16.347 1.277-.882-6.649zm-1.005-7.576l16.349-1.28.88 6.652-16.347 1.279-.882-6.651z" fill="#8d91c9"/><g class="L"><path d="M24.889 91.869l23.673-1.852 2.054 15.5-23.67 1.85-2.056-15.498zm11.426 10.76l4.863-4.492-5.943-3.647 1.079 8.139z" fill="#e9ebf6"/><path d="M23.68 90.543l25.717-2.013 4.592 34.632-25.717 2.01-4.591-34.629zm24.882-.526l-23.673 1.852 2.057 15.498.149 1.129 23.67-1.852-.15-1.127-2.054-15.5zm-3.106 32.391l-.88-6.651-16.349 1.279.882 6.649 16.347-1.277zm-1.005-7.576l-.88-6.652-16.349 1.28.882 6.651 16.347-1.279zm6.962-2.795l-.586-4.424-6.538.513.586 4.421 6.538-.51zm1.299 9.804l-.586-4.424-6.538.513.588 4.421 6.536-.51zm-.648-4.903l-.588-4.422-6.536.51.586 4.425 6.538-.513z" fill="#c7ccf5"/></g><path d="M26.945 107.367l.15 1.129 23.67-1.852-.15-1.127m.86 6.999l.588 4.422-6.538.513-.586-4.425 6.536-.51zm.651 4.901l.586 4.424-6.536.51-.588-4.421 6.538-.513z" fill="#6062a7"/><path d="M36.208 87.036c.294-.023.566.223.611.552s-.16.609-.456.632-.566-.223-.611-.549.16-.611.456-.635z" fill="#222265"/><path d="M37.663 89.432l2.994-.241-5.825 35.46-2.911.236 5.743-35.455z" fill="url(#F)" class="D"/><path d="M41.741 89.116l4.215-.339-5.825 35.461-4.133.334 5.743-35.455z" fill="url(#G)" class="D"/><path d="M36.704 111.024l.045.332-7.964.624-.045-.334 7.964-.622zm2.171 2.696l.045.332-9.759.762-.045-.332 9.759-.762z" class="C"/><path d="M44.174 119.525l.045.332-14.243 1.113-.042-.331 14.241-1.114zm-9.195 2.153l.042.331-4.856.381-.045-.331 4.858-.381zm5.294-3.28l.042.335-10.526.821-.045-.332 10.529-.824z" class="F"/><path d="M38.73 109.771l-.042-.332-10.135.79.045.334 10.133-.792z" class="C"/><path d="M35.617 117.331l.045.332-6.06.471-.045-.329 6.06-.474z" class="F"/><path d="M40.117 112.19l.045.334-11.187.875-.045-.334 11.187-.875z" class="C"/><g class="H"><path d="M27.451 132.116l1.959-4.224c.384-.829 1.159-1.383 2.041-1.461l21.998-1.912c.837-.072 1.655.296 2.174.985l2.702 3.584-30.874 3.028z"/><path d="M58.325 129.088l-.002 1.358-30.874 3.041.003-1.371 30.874-3.028z"/></g><path d="M131.689 138.908H55.558c-.307 0-.484-.259-.391-.58l.656-2.308h77.391l-.772 2.308c-.108.321-.444.58-.753.58z" class="E"/><path d="M132.522 136.652h-76.39c-.359 0-.489-.383-.247-.723l8.32-11.635c.267-.373.693-.611 1.087-.611h63.351c.329 0 .581.165.676.445l3.881 11.721c.109.339-.28.803-.678.803z" fill="#7878c1"/><g class="H"><path d="M69.246 126.91h-5.082l1.595-2.316h4.901l-1.413 2.316zm-1.793 2.943h-5.314l1.593-2.316h5.132l-1.411 2.316zm-1.789 2.942H60.12l1.588-2.316h5.364l-1.408 2.316zm9.978-5.885h-5.085l1.366-2.316h4.901l-1.181 2.316zm-1.503 2.943h-5.314l1.364-2.316h5.132l-1.182 2.316zm-2.999 5.885h-5.773l1.359-2.316h5.593l-1.179 2.316zm1.497-2.943h-5.544l1.361-2.316h5.362l-1.179 2.316zm9.398-5.885H76.95l1.137-2.316h4.903l-.955 2.316zm-1.214 2.943h-5.314l1.137-2.316h5.132l-.955 2.316zm-2.418 5.885h-5.776l1.132-2.316h5.593l-.95 2.316zm1.21-2.943h-5.546l1.134-2.316h5.364l-.952 2.316zm8.816-5.885h-5.085l.907-2.316h4.903l-.725 2.316zm-.922 2.943h-5.314l.907-2.316h5.132l-.725 2.316zm-1.842 5.885h-5.773l.905-2.316h5.593l-.725 2.316zm.919-2.943H81.04l.907-2.316h5.362l-.725 2.316zm8.238-5.885h-5.085l.678-2.316h4.903l-.496 2.316zm-.631 2.943h-5.314l.678-2.316h5.132l-.496 2.316zm-1.266 5.885h-5.773l.678-2.316h5.594l-.499 2.316zm.633-2.943h-5.544l.678-2.316h5.364l-.498 2.316zm7.658-5.885h-5.085l.451-2.316h4.901l-.267 2.316zm-.341 2.943h-5.314l.451-2.316h5.132l-.269 2.316zm-.685 5.885h-5.776l.454-2.316h5.591l-.269 2.316zm.343-2.943h-5.544l.449-2.316h5.364l-.269 2.316zm7.077-5.885h-5.083l.22-2.316h4.9l-.037 2.316zm-.051 2.943h-5.314l.222-2.316h5.132l-.04 2.316zm-.109 5.885h-5.773l.224-2.316h5.594l-.045 2.316zm.057-2.943h-5.546l.224-2.316h5.362l-.04 2.316zm14.535-5.885h-5.083l-.299-2.316h4.901l.481 2.316zm.606 2.943h-5.315l-.294-2.316h5.132l.477 2.316zm1.194 5.885h-5.773l-.287-2.316h5.594l.466 2.316zm-.594-2.943h-5.543l-.292-2.316h5.364l.471 2.316zm-7.6-5.885h-5.082l-.07-2.316h4.901l.251 2.316z"/><path d="M115.965 129.853h-5.315l-.067-2.316h5.132l.25 2.316zm.615 5.885h-5.773l-.062-2.316h5.594l.241 2.316zm-.306-2.943h-5.544l-.062-2.316h5.362l.244 2.316zm12.162-5.885h-5.082l-.529-2.316h4.901l.71 2.316zm.897 2.943h-5.314l-.524-2.316h5.132l.706 2.316zm1.77 5.885h-5.773l-.514-2.316h5.594l.693 2.316zm-.88-2.943h-5.546l-.519-2.316h5.364l.701 2.316zm-69.881-.769l-.222.769h5.544l1.408-2.315.224-.77-6.954 2.316zm4.043-5.885l-.222.769h5.082l1.413-2.316.227-.769-6.501 2.316z"/><path d="M62.361 129.083l-.222.77h5.314l1.411-2.316.224-.769-6.728 2.315zm-4.036 5.885l-.219.77h5.773l1.406-2.316.222-.769-7.181 2.315zm7.267 0l-.224.77h5.773l1.179-2.316.227-.769-6.955 2.315zm5.189-8.827l-.224.769h5.085l1.182-2.316.229-.769-6.271 2.316z"/><path d="M69.049 129.083l-.224.77h5.314l1.181-2.316.227-.769-6.498 2.315z"/><path d="M67.318 132.026l-.224.769h5.544l1.179-2.315.229-.77-6.728 2.316zm5.539 2.942l-.229.77h5.776l.95-2.316.232-.769-6.728 2.315zm2.879-5.885l-.229.77h5.314l.955-2.316.232-.769-6.272 2.315z"/><path d="M74.296 132.026l-.229.769h5.546l.952-2.315.229-.77-6.498 2.316zm2.884-5.885l-.229.769h5.085l.955-2.316.229-.769-6.04 2.316zm30.27 9.597l.244-.77-5.551-2.315-.242.769-.224 2.316h5.773zm.354-6.655l-.245.77h-5.314l.222-2.316.239-.769 5.098 2.315z"/><path d="M107.751 132.026l-.244.769h-5.546l.224-2.315.242-.77 5.324 2.316zm-4.765-8.201l-.239.769-.22 2.316h5.083l.244-.769-4.868-2.316zm7.754 0l-.244.769.07 2.316h5.082l.247-.769-5.155-2.316z"/><path d="M116.211 129.083l-.246.77h-5.315l-.067-2.316.244-.769 5.384 2.315zm.619 5.885l-.25.77h-5.773l-.062-2.316.247-.769 5.838 2.315zm7.266 0l-.254.77h-5.773l-.287-2.316.249-.769 6.065 2.315zm-1.197-5.885l-.251.77h-5.315l-.294-2.316.249-.769 5.611 2.315z"/><path d="M116.523 132.026l-.249.769h-5.544l-.062-2.315.244-.77 5.611 2.316zm5.771-5.885l-.252.769h-5.083l-.299-2.316.247-.769 5.387 2.316zm.783-2.316l-.252.769.529 2.316h5.082l.254-.769-5.613-2.316zm1.335 5.885l-.254.77.519 2.315h5.546l.254-.769-6.065-2.316z"/><path d="M131.36 134.968l-.257.77h-5.773l-.514-2.316.255-.769 6.289 2.315zm-1.773-5.885l-.254.77h-5.314l-.524-2.316.252-.769 5.84 2.315zm-6.087 2.943l-.252.769h-5.543l-.292-2.315.249-.77 5.838 2.316z"/></g><path d="M69.47 126.141h-5.085l1.595-2.316h4.906l-1.416 2.316zm-1.793 2.942H62.36l1.593-2.315h5.135l-1.411 2.315zm-3.576 5.885h-5.775l1.585-2.315h5.596l-1.406 2.315zm1.787-2.942h-5.546l1.588-2.316h5.367l-1.408 2.316zm9.981-5.885h-5.088l1.368-2.316h4.903l-1.184 2.316zm-1.503 2.942h-5.317l1.364-2.315h5.135l-1.182 2.315zm-3 5.885h-5.775l1.358-2.315h5.596l-1.179 2.315zm1.499-2.942h-5.546l1.361-2.316h5.367l-1.181 2.316zm9.4-5.885H77.18l1.137-2.316h4.903l-.955 2.316zm-1.212 2.942h-5.317l1.134-2.315h5.137l-.955 2.315zm-2.42 5.885h-5.776l1.132-2.315h5.596l-.952 2.315zm1.208-2.942h-5.546l1.134-2.316h5.364l-.952 2.316zm8.822-5.885h-5.088l.907-2.316h4.906l-.725 2.316zm-.922 2.942h-5.317l.907-2.315h5.135l-.725 2.315zm-1.842 5.885h-5.778l.907-2.315h5.596l-.725 2.315zm.92-2.942h-5.546l.905-2.316h5.367l-.725 2.316zm8.24-5.885h-5.085l.678-2.316h4.903l-.496 2.316zm-.631 2.942h-5.317l.678-2.315h5.135l-.496 2.315zm-1.263 5.885h-5.778l.678-2.315h5.596l-.496 2.315zm.63-2.942h-5.546l.678-2.316h5.367l-.499 2.316zm7.66-5.885H96.37l.449-2.316h4.903l-.267 2.316zm-.338 2.942H95.8l.449-2.315h5.134l-.266 2.315zm-.688 5.885h-5.776l.451-2.315h5.596l-.271 2.315zm.346-2.942h-5.548l.451-2.316h5.366l-.269 2.316zm7.079-5.885h-5.087l.219-2.316h4.903l-.035 2.316zm-.05 2.942h-5.317l.22-2.315h5.137l-.04 2.315zm-.11 5.885h-5.775l.224-2.315h5.596l-.045 2.315zm.058-2.942h-5.549l.224-2.316h5.365l-.04 2.316zm14.542-5.885h-5.088l-.299-2.316h4.906l.481 2.316zm.606 2.942h-5.317l-.294-2.315h5.135l.476 2.315zm1.196 5.885h-5.778l-.287-2.315h5.596l.469 2.315zm-.596-2.942h-5.546l-.292-2.316h5.367l.471 2.316zm-7.605-5.885h-5.085l-.07-2.316h4.903l.252 2.316zm.317 2.942h-5.317l-.067-2.315h5.137l.247 2.315zm.618 5.885h-5.778l-.06-2.315h5.596l.242 2.315zm-.307-2.942h-5.546l-.065-2.316h5.367l.244 2.316zm12.167-5.885h-5.085l-.529-2.316h4.903l.711 2.316zm.897 2.942h-5.316l-.524-2.315h5.135l.705 2.315zm1.772 5.885h-5.775l-.514-2.315h5.596l.693 2.315zm-.881-2.942h-5.546l-.519-2.316h5.364l.701 2.316z" fill="#5050a3"/><path d="M179.515 138.074l-38.17-.047c-1.615 0-3.049-.455-3.203-1.018l-2.924-10.205c-.07-.347-.299-1.249-.015-1.777.362-.671 1.381-.8 1.728-.8h34.099c1.438 0 2.921.455 3.31 1.018l7.453 10.671-.027 1.184c-.095.528-.636.974-2.251.974z" class="H"/><path d="M179.515 136.857l-38.17-.044c-1.615-.003-3.049-.459-3.203-1.018l-2.924-10.592c-.157-.562.885-1.015 2.32-1.015h33.492c1.438 0 2.921.456 3.31 1.018l7.391 10.635c.391.562-.601 1.018-2.216 1.016z" fill="#7878c1"/><path opacity=".451" d="M178.524 135.481l-29.795-.033-3.657-9.887 26.819.005 6.633 9.915z" class="G"/><path d="M153.033 135.455l-2.66-.008 8.632-9.884h6.483l-12.455 9.892z" fill="url(#H)" class="D"/><path d="M158.395 135.46l-4.013-.002 12.341-9.895h3.664l-11.992 9.897z" fill="url(#I)" class="D"/><g class="H"><path opacity=".502" d="M145.488 130.503c.225.634-1.007 1.15-2.752 1.147s-3.317-.515-3.507-1.15 1.042-1.15 2.752-1.147 3.28.515 3.507 1.15z"/><path d="M143.922 130.503c.11.316-.508.572-1.376.572s-1.653-.256-1.752-.575.516-.575 1.376-.572 1.642.256 1.752.575zm-1.744-4.321h-2.476c-.443 0-.847-.137-.899-.308s.264-.308.705-.308h2.46c.441 0 .85.14.908.308s-.252.308-.698.308z"/><path d="M142.479 127.073h-2.495c-.448 0-.855-.137-.907-.308s.267-.308.713-.308h2.48c.446 0 .857.14.917.308s-.256.308-.708.308zm.305.891h-2.515c-.454 0-.863-.137-.918-.308s.272-.308.721-.308h2.502c.449 0 .863.14.922.308s-.259.308-.712.308zm.303.891h-2.537c-.459 0-.87-.14-.922-.308s.271-.308.725-.308h2.523c.456 0 .869.14.929.308s-.261.308-.718.308zm1.329 3.909h-2.629c-.474-.003-.9-.14-.953-.311s.287-.308.756-.306h2.617c.471 0 .9.14.96.311s-.277.306-.751.306zm.302.891l-2.65-.002c-.478 0-.907-.138-.959-.309s.289-.308.763-.308l2.637.003c.476 0 .907.14.967.308s-.279.308-.758.308zm.303.891l-2.672-.003c-.481 0-.914-.137-.967-.308s.294-.308.773-.308l2.657.003c.479 0 .912.139.972.308s-.281.308-.763.308zm.303.891l-2.692-.002c-.486 0-.92-.14-.972-.309s.294-.308.777-.308l2.677.003c.484 0 .923.14.98.308s-.284.308-.77.308z"/></g><path d="M69.896 139.569c2.331-5.492 4.602-9.864 6.812-13.12a6.23 6.23 0 0 1 1.683-1.673l7.907-5.261c.601-.554 1.401-.451 2.4.313 2.134-1.663 4.066-1.525 5.8.415 1.331-.762 2.532-.624 3.599.414 1.6 1.56 3.699 3.222 2.298 4.468-.932.832-1.932.487-2.999-1.038l-2.799 1.145-3.183 6.514c-.072.15.075.313.224.246l4.257-2.243c3.066-2.873 5.199-3.549 6.401-2.026s-.302 3.707-4.502 6.549l-7.194 6.833a9.97 9.97 0 0 1-4.908 2.556l-3.786.668-7.909 9.68H50.498l19.398-14.44z" class="Q"/><path d="M83.573 122.38l1.57-1.137a2.27 2.27 0 0 1 1.052-.412l.89-.104a1.84 1.84 0 0 0 .895-.362l.718-.537m-1.252 2.969l1.997-1.117a2.27 2.27 0 0 1 .945-.277l1.523-.098c.227-.016.449-.07.656-.166l1.932-.896" stroke="#e59973" class="R S T"/><path d="M100.074 130.399c.334.332.86.334 1.192 0 .386-.391.83-.852.939-1.173.17-.492.125-1.098-.241-1.456-.314-.308-.798-.365-1.217-.259-.259.065-.73.345-1.136.606-.376.241-.519.746-.317 1.155.204.425.456.803.78 1.127z" style="mix-blend-mode:multiply" class="D Q"/><path d="M155.904 121.035l6.082-3.934c1.179-.731 2.553-.552 4.126.539.977.676-1.967 2.743-8.832 6.198l-1.376-2.803zm1.76 13.913c-1.027.593-2.238.836-3.407.686-.543-.07-1.162-.306-1.309-.855s.267-1.082.651-1.497c-.528.194-1.167.052-1.548-.375s-.469-1.119-.182-1.619c.185-.327.496-.549.798-.762l1.159-.824c-.484.291-1.104.342-1.608.094a1.56 1.56 0 0 1-.852-1.389c.019-.873.782-1.505 1.475-2.005l.785-.567 4.038 9.113z" fill="#eaa07a"/><path d="M153.599 133.282c.595-.502 1.194-.777 1.794-.821m-2.17-2.443l1.54-.795" stroke="#d88866" class="R S T"/><path d="M174.672 110.69l2.373-1.417c.391-.233.89-.093 1.117.311a.87.87 0 0 1-.302 1.16l-2.371 1.417-.817-1.471zm-27.377 17.261c-.034-.062-.015-.145.048-.181l.822-.49c.063-.036.14-.013.175.05s.015.145-.048.181l-.822.489c-.062.037-.14.016-.175-.049z" class="H"/><path d="M150.712 127.407l-1.246-2.248 25.54-15.192 1.251 2.256-25.545 15.184z" class="J"/><path d="M175.003 109.965l.451-.272a.6.6 0 0 1 .838.233l.645 1.163c.167.303.068.691-.224.868l-.454.274-1.256-2.266zm-24.285 17.45l-2.745.49-.296-.534 1.789-2.212 1.252 2.256z" fill="#5050a3"/><path d="M179.021 154.009h-14.175l-2.815-10.405-6.249-9.136c-.254-.372-.456-.782-.59-1.217l-.768-2.458-1.832-4.505-.948-2.424-.782-2.158c-.419-1.264.087-2.046.743-2.517.787-.57 1.817-.614 2.672-.171l.339.178a5.6 5.6 0 0 1 1.976 1.726c.147.199.28.411.399.634.382.697 1.703 2.362 2.146 2.673.197.138.414.262.653.275.305.015 2.535-2.606 4.405-5.113l2.692-1.599 1.334.576c.67.287 1.204.841 1.478 1.543l.583 1.49c.092.235.249.437.449.585l2.303 1.663a1.24 1.24 0 0 1 .476 1.259l-.504 2.401c-.039.295.033.596.2.839l.461.671c.167.244.207.557.11.834l-.534 1.505-1.338 7.45 7.116 15.401z" class="Q"/><path d="M173 127.343c-.15.785-.509 2.095-1.072 3.927m-1.596-9.59c.02 1.337-.339 2.793-1.074 4.365" stroke="#e59973" class="R S T"/><defs><linearGradient id="A" x1="109.249" y1="26.862" x2="109.249" y2="151.773" xlink:href="#N"><stop stop-color="#feb997"/><stop offset="1" stop-color="#fff" stop-opacity="0"/></linearGradient><linearGradient id="B" x1="151.841" y1="41.302" x2="114.399" y2="103.711" xlink:href="#N"><stop stop-color="#fff"/><stop offset="1" stop-color="#fff" stop-opacity="0"/></linearGradient><linearGradient id="C" x1="132.77" y1="41.302" x2="96.762" y2="101.319" xlink:href="#N"><stop stop-color="#fff"/><stop offset="1" stop-color="#fff" stop-opacity="0"/></linearGradient><linearGradient id="D" x1="194.03" y1="97.09" x2="181.95" y2="117.226" xlink:href="#N"><stop stop-color="#fff"/><stop offset="1" stop-color="#fff" stop-opacity="0"/></linearGradient><linearGradient id="E" x1="189.613" y1="96.86" x2="177.951" y2="116.298" xlink:href="#N"><stop stop-color="#fff"/><stop offset="1" stop-color="#fff" stop-opacity="0"/></linearGradient><linearGradient id="F" x1="40.872" y1="87.507" x2="55.661" y2="112.156" xlink:href="#N"><stop stop-color="#fff"/><stop offset="1" stop-color="#fff" stop-opacity="0"/></linearGradient><linearGradient id="G" x1="45.908" y1="86.617" x2="60.976" y2="111.731" xlink:href="#N"><stop stop-color="#fff"/><stop offset="1" stop-color="#fff" stop-opacity="0"/></linearGradient><linearGradient id="H" x1="164.731" y1="122.127" x2="167.515" y2="126.766" xlink:href="#N"><stop offset=".004" stop-color="#fff" stop-opacity=".6"/><stop offset="1" stop-color="#fff" stop-opacity="0"/></linearGradient><linearGradient id="I" x1="170.335" y1="123.396" x2="172.497" y2="127.001" xlink:href="#N"><stop offset=".004" stop-color="#fff" stop-opacity=".6"/><stop offset="1" stop-color="#fff" stop-opacity="0"/></linearGradient><path id="J" d="M116.114 49.705a4.75 4.75 0 0 0-.683.707 4.68 4.68 0 0 0-.68-.707c.272-.236.456-.425.68-.707.227.282.409.471.683.707z"/><path id="K" d="M150.575 48.693h-7.779v-.528h7.779v.528z"/><path id="L" d="M72.301 76.481h-1.55v-1.508h1.55v1.508z"/><path id="M" d="M188.541 115.205l-1.316-2.58c-.257-.505-.753-.829-1.304-.855l-13.724-.637c-.524-.023-1.022.228-1.329.668l-1.597 2.298 19.27 1.106z"/><linearGradient id="N" gradientUnits="userSpaceOnUse"/></defs></svg>