<svg xmlns="http://www.w3.org/2000/svg" xmlns:xlink="http://www.w3.org/1999/xlink" width="222" height="163" fill="none" xmlns:v="https://vecta.io/nano"><style><![CDATA[.B{fill:#9db0f4}.C{fill:#f99746}.D{fill:#d36d1a}.E{fill:#aec3ff}.F{fill:#ffa255}.G{fill:#ed7d2b}.H{fill:#131375}.I{fill:#ffb27d}]]></style><path d="M30.869 22.545c0 7.595-1.274 13.236-3.824 16.924C24.517 43.156 20.642 45 15.419 45c-5.057 0-8.891-1.904-11.502-5.711S0 29.9 0 22.545C0 14.831 1.264 9.15 3.793 5.502 6.342 1.834 10.217 0 15.419 0c5.078 0 8.922 1.914 11.533 5.741s3.917 9.429 3.917 16.804zm-23.47 0c0 5.96.632 10.216 1.896 12.767 1.285 2.551 3.326 3.827 6.124 3.827s4.839-1.296 6.124-3.887c1.306-2.591 1.959-6.827 1.959-12.708 0-5.86-.653-10.096-1.959-12.708-1.285-2.631-3.326-3.947-6.124-3.947S10.58 7.176 9.295 9.748c-1.264 2.571-1.896 6.837-1.896 12.797zm58.264-11.811c0 2.771-.839 5.083-2.518 6.937-1.679 1.834-4.041 3.07-7.088 3.708v.239c3.648.439 6.383 1.535 8.207 3.289C66.088 26.641 67 28.954 67 31.844c0 4.206-1.544 7.455-4.632 9.747C59.28 43.864 54.887 45 49.187 45c-5.036 0-9.285-.787-12.746-2.362v-6.249a29.87 29.87 0 0 0 6.124 2.123c2.155.498 4.228.747 6.217.747 3.523 0 6.155-.628 7.896-1.884s2.611-3.199 2.611-5.831c0-2.332-.964-4.047-2.891-5.143s-4.953-1.645-9.077-1.645h-3.948v-5.711h4.01c7.254 0 10.88-2.412 10.88-7.236 0-1.874-.632-3.319-1.896-4.336S53.239 5.95 50.773 5.95a17.21 17.21 0 0 0-4.974.718c-1.596.458-3.482 1.365-5.658 2.721l-3.575-4.904C40.732 1.535 45.571.06 51.084.06c4.58 0 8.155.947 10.725 2.841s3.855 4.505 3.855 7.834z" fill="#febb9a"/><path d="M26.282 48.201C-.443 51.765 1.012 80 1.011 90.049c0 52.746 46.769 68.273 76.051 72.282 34.369-3.861 108.963-15.147 132.389-29.403s8.671-48.484-1.089-63.928C189.115 43.755 146.267.171 124.491 28.683c-27.22 35.64-64.803 15.063-98.209 19.518z" fill="url(#A)"/><path d="M191.816 140.616a5 5 0 0 1-5 5H40.061a5 5 0 0 1-5-5V57.749a5 5 0 0 1 5-5h146.756a5 5 0 0 1 5 5v82.867z" class="C"/><path d="M191.816 125.78a5 5 0 0 1-5 5H40.061a5 5 0 0 1-5-5V57.749a5 5 0 0 1 5-5h146.756a5 5 0 0 1 5 5v68.031z" fill="#283689"/><path d="M132.832 160.641c.612.113 1.122.607 1.122 1.231h0a1.13 1.13 0 0 1-1.128 1.128H89.055a1.13 1.13 0 0 1-1.128-1.128h0c0-.624.51-1.118 1.122-1.231a6.22 6.22 0 0 0 5.04-5.647l.018-.488v-3.891a5 5 0 0 1 5-5h23.666a5 5 0 0 1 5 5v3.891l.019.488c.117 1.527.779 2.901 1.791 3.923a6.15 6.15 0 0 0 3.249 1.724z" class="C"/><path opacity=".493" d="M127.773 146.544a.93.93 0 0 1-.929.929H95.036a.93.93 0 0 1-.929-.929h0a.93.93 0 0 1 .929-.929h31.808a.93.93 0 0 1 .929.929h0zm6.181 14.2H87.927a6.13 6.13 0 0 0 4.207-1.667c1.906-1.788 3.974-4.083 6.588-4.083h24.667c2.485 0 4.447 2.158 6.195 3.924h0c1.12 1.129 2.665 1.826 4.371 1.826z" fill="#d86713"/><path d="M189.477 122.837a5 5 0 0 1-5 5H42.094a5 5 0 0 1-5-5V59.804a5 5 0 0 1 5-5h142.383a5 5 0 0 1 5 5v63.033z" fill="#505aba"/><path opacity=".01" d="M185.828 120.855a3.83 3.83 0 0 1-3.828 3.828H44.562a3.83 3.83 0 0 1-3.828-3.828h0a3.83 3.83 0 0 1 3.828-3.827H182a3.83 3.83 0 0 1 3.828 3.827h0z" fill="#dde7fe"/><path d="M177.557 58.173a5 5 0 0 1 5 5v43.573a5 5 0 0 1-5 5H47.697a5 5 0 0 1-5-5V63.173a5 5 0 0 1 5-5h129.86z" fill="#ebf2f9"/><path d="M182.128 68.616c.098.022.167.113.167.213v33.032a5 5 0 0 1-5 5H47.435a5 5 0 0 1-5-5V80.945a2.61 2.61 0 0 1 2.611-2.611h1.726c.489 0 .885.396.885.885h0c0 .489.396.885.885.885h2.893c.284 0 .514-.23.514-.514h0c0-.284.23-.514.514-.514h1.474a1.99 1.99 0 0 0 1.989-1.989v-1.099a.99.99 0 0 1 .991-.991h.04a.95.95 0 0 0 .951-.951v-.801a.15.15 0 0 1 .15-.15h0a.15.15 0 0 1 .15.15v.801a.95.95 0 0 0 .951.951h2.022c.985 0 1.783-.798 1.783-1.783v-1.549c0-.129.105-.234.234-.234h0c.129 0 .234.105.234.234v1.76a1.57 1.57 0 0 0 1.572 1.572h1.547c.014 0 .025-.011.025-.025v-.023l-.003-.003-.003-.449.003-.003.003-.425-.003-.003-.003-.712.003-.003.003-.453-.003-.003-.003-.71.003-.003.003-.452-.003-.003-.003-.71.003-.003.003-.49-.003-.003-.003-.712.003-.003.003-.622-.003-.003-.003-.712.003-.003.003-.236c0-.13.106-.236.236-.236h.434c.147 0 .267-.119.267-.267v-.191c0-.042.034-.075.075-.075h0c.042 0 .075.034.075.075v.191c0 .147.119.267.267.267h6.412c.147 0 .267-.119.267-.267v-.194c0-.04.033-.073.073-.073h0c.041 0 .073.033.073.073v.194c0 .147.119.267.267.267h.368c.351 0 .635.284.635.635v2.65c0 .245.199.445.444.445h.445.001l-.003-.001-.003-.71.003-.003.003-.49-.003-.003-.003-.712.003-.003.003-.486-.003-.003-.003-.709.003-.003.002-.002 8.418-.002.002.002 1.421.002c.019 0 .038.002.057.007h0c.114.028.196.131.196.249v1.607c0 1.25 1.013 2.262 2.263 2.262h1.22c1.476 0 2.672 1.197 2.672 2.672v.186c0 1.373 1.113 2.486 2.486 2.486h0c1.373 0 2.486-1.113 2.486-2.486v-6.856a.54.54 0 0 1 .542-.542h.196c.191 0 .346-.155.346-.346v-.249c0-.053.043-.097.097-.097h0c.053 0 .097.043.097.097v.249c0 .191.155.346.346.346h3.234c.191 0 .346-.155.346-.346v-.249c0-.053.043-.097.097-.097h0c.053 0 .096.043.096.097v.249c0 .191.155.346.346.346h4.87c.191 0 .346-.155.346-.346v-.249c0-.053.044-.097.097-.097h0c.053 0 .097.043.097.097v.249c0 .191.155.346.346.346h2.808c.191 0 .346-.155.346-.346v-.249c0-.054.043-.097.097-.097h0c.054 0 .098.044.098.097v.249c0 .191.154.346.345.346h.373a.72.72 0 0 1 .719.719v5.758a2.75 2.75 0 0 0 2.748 2.748h2.004c.411 0 .745-.333.745-.745h0c0-.412.334-.745.746-.745l4.525.008a1.21 1.21 0 0 0 1.21-1.208v-.555c0-.361.292-.653.653-.653h.415c.131 0 .238-.106.238-.238v-.152c0-.047.038-.086.086-.086h0c.047 0 .085.038.085.086v.152c0 .131.107.238.238.238h4.765l.002.001.763.001a.24.24 0 0 0 .239-.239v-.153c0-.047.038-.086.085-.086h0c.048 0 .086.038.086.086v.153a.24.24 0 0 0 .239.239h.365c.333 0 .604.27.604.604v1.8c0 1.327 1.076 2.404 2.403 2.404h4.429c.489 0 .886.396.886.885h0c0 .489.396.885.885.885h2.89c.284 0 .515-.23.515-.514h0c0-.284.23-.514.514-.514h1.474a1.99 1.99 0 0 0 1.989-1.989V75.99a.99.99 0 0 1 .992-.992h.041a.95.95 0 0 0 .952-.951v-.802c0-.082.066-.149.149-.149h0c.082 0 .149.067.149.149v.802a.95.95 0 0 0 .951.951h2.022c.984 0 1.783-.798 1.783-1.783v-1.549c0-.129.104-.234.233-.234h0c.129 0 .234.105.234.234v1.76c0 .868.704 1.573 1.572 1.573h1.548c.014 0 .025-.011.025-.025v-.022l-.003-.003-.004-.448.004-.003.003-.424-.003-.003-.004-.711.004-.003.003-.452-.003-.003-.004-.71.004-.003.003-.451-.003-.003-.004-.71.004-.003.003-.489-.003-.003-.004-.711.004-.003.003-.621-.003-.003-.004-.711.004-.003.003-.236c0-.13.105-.236.236-.236h.437c.147 0 .266-.119.266-.267v-.192c0-.041.034-.075.075-.075h0c.041 0 .074.033.074.075v.192c0 .147.12.267.267.267h6.41c.147 0 .267-.119.267-.267v-.191c0-.042.033-.075.075-.075h0c.042 0 .075.034.075.075v.191c0 .147.12.267.267.267h.366c.35 0 .634.284.634.633v2.217a.88.88 0 0 0 .879.88h0 .012.001l-.004-.001-.004-.709.004-.004.004-.489-.004-.004-.004-.71.004-.004.004-.485-.004-.004-.004-.708.006-.004.002-.002 8.418-.002.002.002 1.425.002a.2.2 0 0 1 .044.005h0z" fill="#d5e5fb"/><g fill="#e2eefd"><path d="M112.661 68.536c0 .305-.247.553-.553.553h-4.586a.55.55 0 0 1-.552-.553h0a.55.55 0 0 1 .552-.552h4.586c.306 0 .553.247.553.552h0z"/><use xlink:href="#B"/><use xlink:href="#B" y="1.034"/><use xlink:href="#B" y="2.089"/><use xlink:href="#B" y="3.161"/><use xlink:href="#B" y="4.195"/><use xlink:href="#B" y="5.333"/><use xlink:href="#B" y="6.366"/><use xlink:href="#B" y="7.422"/><path d="M137.07 76.673c0 .186-.151.336-.336.336h-1.983c-.186 0-.336-.15-.336-.336h0c0-.186.15-.336.336-.336h1.983c.185 0 .336.15.336.336h0z"/><use xlink:href="#B" y="9.527"/><use xlink:href="#C"/><use xlink:href="#C" x="0.001" y="1.033"/><use xlink:href="#C" x="0.001" y="2.088"/><use xlink:href="#C" x="0.001" y="3.16"/><use xlink:href="#C" x="0.001" y="4.194"/><use xlink:href="#C" y="5.332"/><use xlink:href="#C" y="6.365"/><use xlink:href="#C" y="7.421"/><path d="M93.564 76.673c0 .186-.151.336-.336.336h-2.174c-.186 0-.336-.15-.336-.336h0c0-.186.15-.336.336-.336h2.174c.186 0 .336.15.336.336h0z"/><use xlink:href="#C" y="9.526"/><use xlink:href="#D"/><use xlink:href="#D" y="1.034"/><path d="M98.771 70.709c0 .185-.15.336-.336.336h-2.562c-.186 0-.336-.151-.336-.336h0c0-.186.15-.336.336-.336h2.562c.186 0 .336.15.336.336h0z"/><use xlink:href="#D" y="3.161"/><use xlink:href="#D" y="4.195"/><use xlink:href="#E"/><use xlink:href="#E" y="1.034"/><use xlink:href="#E" y="2.089"/><use xlink:href="#D" y="8.433"/><use xlink:href="#E" y="4.195"/></g><path d="M163.933 67.622c.018.136-.087.257-.225.257h-.229c-.016 0-.028-.014-.026-.029h0l.157-.981c.005-.032.043-.055.087-.055s.074.012.094.025.041.038.045.063l.097.72z" class="B"/><path d="M163.499 67.655h0c-.01 0-.017-.009-.016-.018l.127-.769c.005-.032.043-.055.087-.055.012 0 .022.003.03.009h0c.024.017.037.041.038.066l.007.567c.002.108-.12.198-.273.201z" fill="#afcdfb"/><path d="M163.798 72.245a.5.5 0 0 1 .501.501v30.326a.5.5 0 0 1-.501.501h0a.5.5 0 0 1-.501-.501V72.746a.5.5 0 0 1 .501-.501h0z" class="B"/><path d="M163.528 72.245a.23.23 0 0 1 .231.231v30.866c0 .127-.103.231-.231.231h0c-.128 0-.231-.104-.231-.231V72.476a.23.23 0 0 1 .231-.231h0z" class="E"/><path d="M163.798 98.574c.882 0 1.596.715 1.596 1.596v5.095c0 .882-.714 1.596-1.596 1.596h0c-.881 0-1.596-.714-1.596-1.596v-5.095c0-.882.715-1.596 1.596-1.596h0z" class="B"/><path d="M163.153 98.574a.95.95 0 0 1 .951.951v6.385a.95.95 0 0 1-.951.951h0a.95.95 0 0 1-.951-.951v-6.385a.95.95 0 0 1 .951-.951h0z" class="E"/><path d="M165.542 68.351c0 .387-.82.701-1.833.701-.078 0-.154-.003-.229-.005-.905-.044-1.605-.338-1.605-.696s.7-.652 1.605-.696l.229-.005c1.013 0 1.833.314 1.833.701z" class="B"/><g class="E"><path d="M164.594 68.351c0 .215-.22.41-.572.548s-.732.152-1.1.085c-.619-.113-1.047-.354-1.047-.633s.428-.521 1.047-.633c.368-.067.752-.051 1.1.085s.572.333.572.548z"/><path d="M165.753 71.407c-.212.855-.98 1.456-1.861 1.456h-.256a1.92 1.92 0 0 1-1.84-1.377h0a1.92 1.92 0 0 1 1.84-2.458h.256a1.92 1.92 0 0 1 1.861 2.38h0z"/></g><path d="M166.445 68.738c.102 0 .184.082.184.184h0c0 .102-.082.184-.184.184h-5.471c-.102 0-.184-.082-.184-.184h0c0-.102.082-.184.184-.184h5.471z" class="B"/><path d="M164.276 68.738c.101 0 .184.082.184.184h0c0 .102-.083.184-.184.184h-3.302c-.102 0-.184-.082-.184-.184h0c0-.102.082-.184.184-.184h3.302z" class="E"/><path d="M163.089 97.95c-.161.277.039.624.359.624h.61a.45.45 0 0 0 .409-.642h0c-.028-.057-.102-.095-.187-.095h-.955c-.104 0-.196.045-.236.112h0z" fill="#819dea"/><path d="M162.119 71.439c-.33-1.097.485-2.224 1.631-2.224h0a1.71 1.71 0 0 1 1.657 2.133l-.009.035a1.7 1.7 0 0 1-1.647 1.28h0c-.751 0-1.416-.504-1.632-1.223h0z" fill="#c5d7ff"/><path d="M165.921 68.383a.21.21 0 0 1-.153.355h-4.101a.21.21 0 0 1-.149-.359h0c.039-.04.093-.062.149-.062h4.101c.058 0 .114.024.153.066h0z" class="B"/><path d="M164.667 68.383c.126.134.031.355-.154.355h-2.846a.21.21 0 0 1-.149-.359h0c.039-.04.093-.062.149-.062h2.846c.058 0 .114.024.154.066h0z" class="E"/><path d="M71.859 105.005c2.049-.004 1.164 1.892-.885 1.891l-25.962-.006c-1.279-.001-2.315-1.037-2.315-2.316v-2.918c0-.161.16-.277.311-.222h0c4.391 1.583 3.815 3.691 9.25 2.917s9.918-1.095 12.352 0 4.221.662 7.248.654h0z" fill="#a8d29f"/><path d="M80.607 97.266c.471 1.631-.753 3.258-2.451 3.258H52.828a2.55 2.55 0 0 1-2.458-1.868h0a2.55 2.55 0 0 1 2.458-3.233h25.329a2.55 2.55 0 0 1 2.451 1.843h0z" class="D"/><path d="M81.131 97.266c.471 1.631-.753 3.258-2.451 3.258H53.353a2.55 2.55 0 0 1-2.458-1.868h0a2.55 2.55 0 0 1 2.458-3.233H78.68a2.55 2.55 0 0 1 2.451 1.843h0z" fill="#f49540"/><path d="M59.939 100.836c0 .173-.14.313-.312.313h-8.066c-.371 0-.671-.213-.671-.476h0a.15.15 0 0 1 .149-.149h8.588c.172 0 .312.14.312.312h0z" class="D"/><path d="M87.714 100.836c0 .173-.14.313-.312.313h-27.22c-.172 0-.312-.14-.312-.313h0c0-.172.14-.312.312-.312h27.219c.172 0 .312.14.312.312h0zm-35.608.312a.43.43 0 0 1 .406.577l-.318.884v.001l-1.554 4.331c-.021.056-.093.096-.174.096-.157 0-.277-.103-.246-.211l1.386-5.05.085-.311a.43.43 0 0 1 .415-.317h0z" class="F"/><path d="M52.531 101.675c-.055.152-.607.188-.761.137h0c-.08-.026-.144-.109-.121-.19l.061-.223c.041-.148.175-.251.329-.251h.422c.126 0 .214.125.171.244l-.102.283z" class="D"/><path d="M58.758 101.148a.43.43 0 0 1 .405.576l-.318.885v.001l-1.554 4.331c-.021.056-.092.096-.173.096-.158 0-.277-.103-.247-.211l1.387-5.05.086-.312a.43.43 0 0 1 .415-.316h0z" class="F"/><path d="M59.18 101.674c-.054.152-.609.188-.761.138h0c-.08-.026-.142-.108-.12-.189l.062-.224c.041-.148.175-.251.329-.251h.423c.125 0 .212.124.17.242l-.102.284z" class="D"/><path d="M85.786 101.148a.43.43 0 0 0-.405.577l.318.884v.001l1.553 4.331c.021.056.093.096.174.096.158 0 .277-.103.246-.211l-1.386-5.05-.086-.311a.43.43 0 0 0-.415-.317h0z" class="F"/><path d="M85.363 101.675c.055.151.609.187.761.137h0c.08-.026.143-.108.12-.189l-.061-.224c-.041-.148-.176-.251-.329-.251h-.423c-.125 0-.213.125-.17.243l.102.284z" class="D"/><path d="M79.136 101.148a.43.43 0 0 0-.406.577l.317.884v.001l1.554 4.331c.021.056.093.096.174.096.157 0 .277-.103.246-.211l-1.386-5.05-.085-.311a.43.43 0 0 0-.415-.317h0z" class="F"/><path d="M78.713 101.675c.055.152.607.188.76.137h0c.08-.026.144-.109.121-.19l-.061-.223c-.041-.148-.175-.251-.329-.251h-.422c-.126 0-.214.125-.171.244l.102.283z" class="D"/><path d="M61.811 71.118c-.79.323-1.722.529-2.733.577-4.439.198-5.979 1.367-9.569 3.841-.546.375-1.15.667-1.786.894-2.639.941-5.025-1.537-5.025-4.339v-9.557c0-.985 1.035-1.616 1.927-1.198h0c2.441 1.159 5.091 2.101 7.987 1.602 2.914-.503 5.163-.471 6.922-.07 2.248.5 3.72 1.591 4.773 2.927 1.456 1.837.195 4.233-2.496 5.323z" fill="#a8d29f"/><g fill="#f8fcff"><path d="M98.064 65.176c0-.778.89-1.409 1.989-1.409s1.99.631 1.99 1.409-.891 1.407-1.99 1.407-1.989-.63-1.989-1.407zm38.354-1.219c-2.191-.014-2.849-1.787-.658-1.805h0c.474-.004 1.134-.104 1.56-.312 3.41-1.67 6.916-1.87 10.516-.597.824.291 1.696.441 2.567.374 3.981-.303 7.485-.06 10.511.728h0c1.573.41 1.248 1.774-.377 1.764l-24.119-.152z"/><path opacity=".252" d="M155.129 68.999c-1.433-.009-1.864-1.169-.431-1.181h0c.311-.003.743-.068 1.022-.205a8.52 8.52 0 0 1 6.442-.534c.835.254 1.703.41 2.574.357 2.415-.147 4.553.022 6.415.508h0c1.028.267.816 1.16-.246 1.154l-15.776-.1zm-84.421-.892c-1.434-.009-1.864-1.169-.43-1.181h0c.31-.003.742-.068 1.02-.204 2.091-1.024 4.238-1.202 6.439-.534.836.254 1.705.41 2.577.357 2.415-.147 4.553.023 6.415.509h0c1.03.269.818 1.16-.246 1.154l-15.775-.1z"/></g><path d="M182.557 109.106c0-1.24-1.004-2.245-2.244-2.245H44.942c-1.24 0-2.245 1.005-2.245 2.245h0c0 1.239 1.005 2.244 2.245 2.244h135.371c1.24 0 2.244-1.005 2.244-2.244h0z" class="B"/><path d="M122.526 106.972c-.179.35-.543-.039-.549-.432-.01-.598.209-1.188.657-1.774s1.021-.897 1.709-.923c.459-.018.897.414.506.657h0c-.414.256-1.838-.244-2.237 2.179a1.19 1.19 0 0 1-.086.293h0z" class="C"/><path d="M110.66 89.782c0-.302.242-.547.542-.547s.541.244.541.547-.242.547-.541.547-.542-.244-.542-.547z" class="G"/><path d="M123.783 106.43c0-.424.342-.769.762-.769s.76.345.76.769-.34.767-.76.767-.762-.343-.762-.767zm-16.858-.586a1.17 1.17 0 0 1 1.164-1.176 1.175 1.175 0 1 1 0 2.351 1.17 1.17 0 0 1-1.164-1.175z" class="B"/><path d="M108.555 103.721c-.017.127-.134.216-.262.199h0c-.127-.018-.216-.135-.198-.262l1.783-13.138c.017-.127.135-.217.262-.199h0c.127.017.216.134.199.261l-1.784 13.139z" class="H"/><path d="M109.089 90.684c-.159.038-.313-.083-.313-.247h0c0-.119.083-.222.199-.248l1.966-.434c.116-.026.233.039.273.152h0c.046.132-.032.274-.167.307l-1.958.47z" class="G"/><path d="M108.127 108.073c-1.195 0-2.168-.981-2.168-2.187s.973-2.188 2.168-2.188a2.188 2.188 0 1 1 0 4.375zm0-3.933a1.745 1.745 0 1 0 0 3.491 1.745 1.745 0 1 0 0-3.491zm16.416 3.889c-.874 0-1.584-.717-1.584-1.599s.71-1.599 1.584-1.599 1.585.717 1.585 1.599-.712 1.599-1.585 1.599zm0-2.847c-.681 0-1.236.56-1.236 1.248s.555 1.246 1.236 1.246a1.24 1.24 0 0 0 1.235-1.246c0-.688-.553-1.248-1.235-1.248z" fill-rule="evenodd" fill="#060633"/><g class="H"><path d="M122.205 107.346h-10.761c-.192 0-.349-.158-.349-.353v-.169a.35.35 0 0 1 .349-.352h10.761c.191 0 .349.158.349.352v.169c0 .195-.158.353-.349.353z"/><path d="M122.33 107.351c-.072 0-.14-.047-.165-.121-.03-.091.018-.192.11-.222l2.214-.745c.09-.031.189.019.22.111s-.019.192-.11.222l-2.214.746c-.017.005-.037.009-.055.009zm-13.578-6.991a.38.38 0 0 0 .051.266l3.515 5.676c.072.117.2.188.338.188h0a.4.4 0 0 0 .338-.61l-3.548-5.655a.38.38 0 0 0-.694.135h0z"/></g><path d="M108.887 104.134c.028-.094-.025-.193-.119-.221h0c-.094-.029-.194.024-.222.119l-.303 1.005c-.118.389-.489.643-.892.608l-.947-.08a.18.18 0 0 0-.194.164h0a.18.18 0 0 0 .164.194l.95.082c.469.039.891.297 1.144.695l.502.793c.053.083.164.108.247.054h0c.082-.053.106-.162.054-.245l-.483-.763a1.74 1.74 0 0 1-.195-1.432l.294-.973zm16.134 1.181c.018-.061-.016-.126-.077-.144h0c-.061-.019-.126.016-.144.077l-.198.653c-.076.253-.318.418-.579.396l-.615-.053c-.065-.005-.121.043-.126.107h0c-.005.064.042.12.106.125l.617.054c.305.025.58.193.743.451l.326.516c.035.054.107.07.161.035h0c.054-.034.069-.105.035-.159l-.314-.496c-.175-.276-.221-.616-.127-.931l.192-.631z" fill="#060633"/><path d="M124.337 106.4c0-.096.078-.175.175-.175s.174.079.174.175-.079.176-.174.176-.175-.078-.175-.176zm-16.421-.557c0-.096.078-.175.174-.175s.173.079.173.175-.077.176-.173.176-.174-.078-.174-.176zm-.84-1.889c-.388-.054-.143-.527.223-.665.555-.21 1.18-.199 1.875.031.704.233 1.184.674 1.438 1.324.167.427-.091.982-.446.692h0c-.38-.307-.389-1.827-2.781-1.398-.087.016-.222.028-.309.016h0z" class="C"/><path d="M117.473 78.291c-.492-.738-1.587-.72-2.011.059-.531.974-.796 1.634-.796 1.982h0c0 .939 1.2 1.124 1.92.521l.165-.138c.165-.138.302-.305.406-.493l.369-.669a1.22 1.22 0 0 0-.053-1.263h0z" fill="#829ce8"/><path d="M117.099 79.763c.224.743.46 1.805-.292 1.997h0c-.416.106-.813-.179-.964-.581a1.72 1.72 0 0 1-.076-.262l-.029-.135-.149-.663v-.002l1.391-.871c.031.185.071.357.119.516z" fill="#ed975d"/><path d="M115.127 80.184c1.085.367 1.735.207 1.952-.478.323-1.028.751-1.65-.275-2.044s-1.351-.067-1.542.248-.551 2.105-.135 2.273z" class="I"/><path d="M113.709 106.151c-.292.049-.145.338.152.338h2.044c.039 0 .079 0 .115-.016h0c.179-.091.123-.783.102-.997h0c-.004-.04-.025-.076-.057-.101-.598-.472-.94-.518-1.024-.14l-.013.054c-.163.545-.896.793-1.319.862h0zm5.25 0c-.294.049-.145.338.153.338h2.042c.039 0 .081.001.117-.016h0c.179-.091.123-.783.101-.997h0c-.004-.039-.025-.076-.056-.101-.599-.472-.94-.518-1.024-.14l-.014.054c-.164.545-.896.793-1.319.862h0z" fill="#a9453d"/><path d="M115.724 90.761c-1.045.065-1.834.974-1.752 2.019l.162 2.072.531 7.248c.029.734.135 1.699.318 2.896.03.194.015.335.191.423h0c.475.236 1.051-.309 1.205-.817.466-1.532.763-3.112.892-4.74l.012-.141.427-6.989a1.87 1.87 0 0 0-1.986-1.971h0z" class="C"/><path d="M115.724 90.761c-1.045.065-1.834.974-1.752 2.019l.127 1.625c.023.293.116.577.272.826l2.825 4.511c.024.038.083.024.087-.021h0l.427-6.989a1.87 1.87 0 0 0-1.986-1.971h0z" class="G"/><path d="M116.711 90.454c-1.243.355-1.98 1.639-1.627 2.883.964 3.391 1.914 5.933 2.849 7.625l1.96 3.703c.225.461.819.98 1.319.864h0c.245-.057.139-.245.108-.494-.574-4.649-1.084-7.526-1.533-8.636-.356-.886-.523-3.604-.559-4.461l-.012-.174c-.117-1.133-1.409-1.623-2.505-1.31h0z" class="C"/><path d="M113.897 93.743c3.264 1.629 6.837 1.102 6.83.99a393.6 393.6 0 0 0-1.829-9.511c-.437-1.974-1.027-3.703-1.574-4.098-.072-.049-.501.174-.896.38a1.6 1.6 0 0 1-.513.169c-.347.051-.721.157-.853.482h0c-.218.54-1.366 4.233-1.38 4.871l-.003.115-.01.555c-.003.21.191 6.03.228 6.048z" class="B"/><path d="M113.665 88.975c.005.901 1.07 1.431 1.665.755a5.15 5.15 0 0 0 .91-1.476c.513-1.259-1.039-1.951-2.045-1.037l-.062.057c-.296.268-.466.647-.469 1.047h0l.003.461v.02c-.004.057-.003.118-.002.174h0z" fill="#7a96e5"/><path d="M110.536 89.723c-.106-.185-.117-.318-.034-.4l2.86-2.165c.14-.133.556-1.287 1.251-3.462.242-.881.618-1.363 1.125-1.444.664-.107 1.109.235 1.394.63.341.47.357 1.105.047 1.596l-2.498 3.662c-.549.505-1.66 1.058-3.334 1.658-.287.103-.659.19-.811-.075h0z" class="I"/><path d="M116.996 79.987c.021.016.369.161 1.172-1.139a1.2 1.2 0 0 0 .03-1.092c-.21-.433-1.061-.836-1.779-1.044s-.932.19-1.142.591h0c-.231.443-.225.959.268.877.271-.045.499-.108.615-.06.255.108.31.536.318.672s.027.249.369.161c.136-.035.181.035.181.14-.001.318-.282.697-.032.894h0z" fill="#233862"/><path d="M118.617 77.568c-.787-.716-1.319.291-1.272 1.354h0c.01.224-.158.571-.504 1.04-.6.814-.118 2.196.805 1.781h0c.153-.069.205-.154.302-.291 1.006-1.426 1.509-2.274 1.509-2.545 0-.226-.274-.823-.84-1.338z" class="B"/><path d="M114.834 91.805c0-.518.465-.908.981-.861l.573.035c.532.016 1.005.434.997.966h0c-.004.353-.223.667-.552.794l-.198.077a1.18 1.18 0 0 1-1.001-.071l-.37-.207a.84.84 0 0 1-.43-.733h0z" fill="#7a96e5"/><path d="M110.639 89.515c-.089-.12-.232-.188-.381-.177-.535.041-.862.117-.981.229-.096.092-.238.223-.327.342-.143.192.147.254.381.203h0c.246-.054.503-.054.732.052.141.065.246.106.388.031l.042-.023c.24-.129.308-.439.146-.657h0z" class="I"/><g class="C"><path d="M108.063 90.424c0-.302.244-.547.543-.547s.542.244.542.547-.243.547-.542.547-.543-.244-.543-.547zm14.691-3.85a1.13 1.13 0 0 1-.03.207c-.214.821-2.966 1.442-3.275 1.145-.058-.056-.118-.137-.179-.238-.497-.826-1.079-3.033-1.338-4.465-.154-.846.428-1.499 1.284-1.581h0l.106-.008h.004c.19-.012.361-.001.481.044.232.087.446.35.646.79.19.42.616.68 1.074.738h0l.136.021c.115.025.219.062.298.119.32.231.848 2.338.793 3.228z"/><path d="M117.962 82.023c.134-.081.155-.267.03-.361-.589-.439-1.337-.57-2.245-.393-.028.006-.055.02-.075.041h0c-.096.103.002.277.142.259.759-.101 1.378.041 1.855.427.084.067.201.082.293.027h0zm-2.723 4.697c.103-.218.417-.23.58-.054.628.678 1.59.837 2.888.475a.35.35 0 0 1 .418.197h0c.077.186-.025.398-.22.446-1.762.433-2.978.17-3.647-.787-.057-.082-.062-.188-.019-.278h0z"/></g><path d="M115.824 81.992c-.436-.05-.734.129-.895.54-.172.44-.557 2.505-1.427 4.01-.24.416-.946 1.106-1.543 1.634-.404.358-.645 1.038-.192 1.331h0a.62.62 0 0 0 .322.088c1.315.086 2.411-.374 3.289-1.382.392-.449 2.734-4.299 2.252-5.094-.322-.529-.924-.906-1.806-1.128z" class="B"/><path d="M119.23 81.641c.032-.002.052.038.032.064-.093.123-.201.352-.152.722.068.522.219.919.266 1.033.008.018-.001.04-.019.049h0c-.019.009-.043 0-.051-.02a4.46 4.46 0 0 1-.271-1.052c-.052-.399.067-.649.171-.784.006-.008.015-.012.024-.013h0zm2.749 4.916c.006.02-.005.04-.025.047h0c-.02.007-.041-.003-.047-.024-.097-.317-.749-2.471-.702-2.886.031-.271.188-.413.312-.484.006-.003.013-.005.02-.004h0c.034.004.039.054.01.072-.108.063-.24.188-.268.425-.045.395.607 2.551.7 2.854zm-2.412-1.119c-.369.097-.731.477-.605.838l.178.511c.13.373.481.645.87.577l.181-.038c.391-.099.535-.536.414-.921l-.155-.496c-.117-.373-.505-.57-.883-.47h0zm3.001 1.236c.08-.042.178.02.155.107h0c-.214.821-2.966 1.442-3.275 1.145h0c-.097-.094-.016-.248.117-.264.52-.064 1.667-.278 3.003-.987z" class="G"/><path d="M119.032 85.432c-.183.057-.276.256-.212.438h0c.047.134.169.227.311.237l.352.024c.177.012.353-.041.493-.15l.207-.16a.35.35 0 0 0 .12-.381h0c-.054-.171-.229-.274-.404-.235l-.867.226z" fill="#ef873a"/><path d="M119.627 85.985c0-.031.024-.055.054-.055s.055.024.055.055-.025.056-.055.056-.054-.025-.054-.056z" class="H"/><path d="M179.155 120.636a.39.39 0 0 1-.389.389H58.954a.39.39 0 0 1-.389-.389h0a.39.39 0 0 1 .389-.388h119.812a.39.39 0 0 1 .389.388h0zm-132.289-3.485l4.474 3.439-4.474 2.635v-6.074z" class="B"/><defs><linearGradient id="A" x1="105.521" y1="19.32" x2="105.521" y2="162.331" gradientUnits="userSpaceOnUse"><stop stop-color="#ffcaaf"/><stop offset="1" stop-color="#fff" stop-opacity="0"/></linearGradient><path id="B" d="M137.07 68.18c0 .185-.151.335-.336.335h-1.984c-.185 0-.335-.15-.335-.335h0c0-.185.15-.335.335-.335h1.984c.185 0 .336.15.336.335h0z"/><path id="C" d="M93.564 68.181c0 .185-.15.335-.335.335h-2.175c-.185 0-.335-.15-.335-.335h0c0-.185.15-.335.335-.335h2.175c.185 0 .335.15.335.335h0z"/><path id="D" d="M98.771 68.62c0 .186-.15.336-.336.336h-2.562c-.186 0-.336-.15-.336-.336h0c0-.186.15-.336.336-.336h2.562c.186 0 .336.15.336.336h0z"/><path id="E" d="M98.771 73.893c0 .185-.15.335-.335.335h-2.563c-.185 0-.335-.15-.335-.335h0c0-.185.15-.335.335-.335h2.563c.185 0 .335.15.335.335h0z"/></defs></svg>
