<svg xmlns="http://www.w3.org/2000/svg" xmlns:xlink="http://www.w3.org/1999/xlink" width="212" height="162" fill="none" xmlns:v="https://vecta.io/nano"><path d="M25.664 54.117C1.484 57.569-.83 77.132 1.036 86.482c0 51.093 52.987 71.634 79.481 75.518 31.095-3.74 98.586-14.672 119.781-28.481s8.831-47.181 0-62.141c-17.414-24.454-57.167-66.456-76.869-38.838-24.628 34.523-67.54 17.261-97.765 21.577z" fill="url(#A)"/><path d="M101.532 117.493L80.58 95.79l58.923-56.866 20.952 21.704-58.923 56.866z" fill="url(#B)"/><path d="M145.055 69.658l-15.803-16.37 9.913-9.568 15.803 16.371-9.913 9.567z" fill="url(#C)"/><path d="M133.452 80.855l-15.803-16.37 9.913-9.567 15.804 16.37-9.914 9.567z" fill="url(#D)"/><path d="M121.85 92.052l-15.803-16.37 9.913-9.567 15.803 16.37-9.913 9.567z" fill="url(#E)"/><path d="M110.248 103.249l-15.803-16.37 9.913-9.567 15.804 16.37-9.914 9.567z" fill="url(#F)"/><path style="mix-blend-mode:multiply" opacity=".091" d="M160.454 60.627l-11.137-11.537c-.714 3.208-2.056 6.56-4.493 9.513-4.639 5.619-9.962 5.817-18.011 10.778-8.4 5.179-10.742 9.981-17.194 16.831-4.707 4.997-11.643 11.126-21.915 16.959l13.827 14.323 58.923-56.866z" fill="url(#G)"/><path d="M91.285 116.748l-7.88-29.117 79.051-21.387 7.88 29.117-79.051 21.386z" fill="url(#H)"/><path d="M152.489 95.843l-5.943-21.962 13.3-3.598 5.943 21.962-13.3 3.598z" fill="url(#I)"/><path d="M136.924 100.053l-5.944-21.962 13.3-3.598 5.943 21.962-13.299 3.598z" fill="url(#J)"/><path d="M121.359 104.265l-5.944-21.962 13.3-3.598 5.943 21.962-13.299 3.598z" fill="url(#K)"/><path d="M105.793 108.476L99.85 86.514l13.299-3.599 5.943 21.963-13.299 3.598z" fill="url(#L)"/><path style="mix-blend-mode:multiply" opacity=".091" d="M170.336 95.361l-5.189-19.177c-3.29 4.224-6.598 6.128-9.246 7.068-7.441 2.644-11.887-1.518-21.653.248-9.158 1.656-12.967 6.711-19.149 10.444-5.882 3.552-14.782 6.43-28.674 4.843l4.861 17.961 79.051-21.387z" fill="url(#M)"/><path d="M84.657 113.301l7.147-29.306 79.563 19.4-7.148 29.305-79.562-19.399z" fill="url(#N)"/><use xlink:href="#d" fill="url(#O)"/><path d="M132.688 120.693l5.392-22.104 13.386 3.264-5.392 22.104-13.386-3.264z" fill="url(#P)"/><use xlink:href="#d" x="-31.333" y="-7.64" fill="url(#Q)"/><use xlink:href="#d" x="-46.999" y="-11.459" fill="url(#R)"/><path style="mix-blend-mode:multiply" opacity=".091" d="M164.219 132.7l4.588-18.808c-6.412 3.68-11.248 3.948-14.588 3.441-7.807-1.184-9.759-6.952-19.202-10.009-8.854-2.865-14.599-.209-21.811.161-6.395.328-14.824-1.098-25.244-7.736L84.657 113.3l79.562 19.4z" fill="url(#S)"/><path d="M96.551 102.442a3.21 3.21 0 0 1-4.536-.08 3.21 3.21 0 0 1 .08-4.537 3.21 3.21 0 0 1 4.537.081 3.21 3.21 0 0 1-.081 4.536z" fill="url(#T)"/><g fill="#26264f"><path d="M176.35 139.075l-139.077-1.186v3.507c0 .952.606 1.762 1.428 1.906l39.327 6.906c.467.082.94.104 1.411.065l95.399-7.874c.852-.07 1.511-.882 1.511-1.86v-1.464z"/><path d="M125.88 133.454l-87.168 6.417c-1.56.114-2.828-1.106-2.828-2.726V72.242c0-1.62 1.268-2.933 2.828-2.933h87.168c1.285 0 2.324 1.187 2.324 2.652v58.671c0 1.464-1.039 2.728-2.324 2.822z"/></g><path d="M127.27 133.454l-87.168 6.416c-1.56.115-2.828-1.105-2.828-2.725V72.242c0-1.62 1.268-2.933 2.828-2.933h87.169c1.285 0 2.324 1.187 2.324 2.652v58.672c0 1.464-1.039 2.728-2.324 2.822z" fill="url(#U)"/><path d="M124.555 129.318l-81.188 5.573c-1.269.087-2.301-.914-2.301-2.236V75.832c0-1.322 1.032-2.399 2.301-2.404l81.189-.35c1.06-.004 1.917.968 1.917 2.173v51.755c0 1.205-.857 2.24-1.917 2.313z" fill="url(#V)"/><g fill="#fff"><path d="M86.764 71.084c0 .603-.448 1.093-1.003 1.096s-1.005-.487-1.005-1.092.45-1.095 1.005-1.095 1.003.488 1.003 1.091z"/><path d="M40.101 139.87l86.728-6.384.441-.032c.589-.043 1.126-.335 1.535-.777-6.241-.341-10.117-2.556-12.618-4.844-5.021-4.595-4.15-9.126-9.566-12.148-6.754-3.768-12.065 1.007-17.19-3.704-3.107-2.857-1.582-4.987-5.405-9.255-4.235-4.728-6.992-3.139-11.248-7.394-5.381-5.38-2.69-9.565-7.325-13.428-5.624-4.686-11.688-.349-17.041-4.843-2.309-1.938-3.575-4.756-4.237-7.753h-4.073c-1.56 0-2.828 1.314-2.828 2.933v64.903c0 1.62 1.268 2.84 2.828 2.725z" style="mix-blend-mode:soft-light" opacity=".478"/></g><path d="M130.744 133.099l-93.471 6.753 40.755 7.157c.467.082.94.104 1.411.065l96.91-7.999-44.119-5.93a7.18 7.18 0 0 0-1.487-.046z" fill="url(#W)"/><path d="M50.912 139.91l77.817-5.706 24.084 3.211-77.147 6.099-24.754-3.604z" fill="#26264f"/><path d="M138.093 116.013c0 7.18-5.858 13.373-13.186 13.838l-81.626 5.182c8.631-.548 15.523-7.297 15.523-15.084V30.378l79.289 3.033v82.603z" fill="url(#X)"/><path d="M100.487 53.578c0 8.112-6.888 14.68-15.52 14.67-8.784-.01-16.021-6.806-16.021-15.179s7.236-14.935 16.021-14.662c8.632.269 15.52 7.06 15.52 15.171z" fill="url(#Y)"/><path d="M132.964 53.213l-28.513-.488v-4.957l28.513.632v4.812zm0 3.972l-28.513-.367V54.34l28.513.44v2.406zm0 3.971l-28.513-.247V58.43l28.513.32v2.406zm-.002 21.294l-61.342.85v-2.462l61.342-.7v2.311z" fill="#d8dee8"/><path d="M66.616 83.37l2.778-.038v-2.467l-2.778.032v2.474z" fill="url(#Z)"/><path d="M132.962 86.267L71.62 87.365v-2.462l61.342-.948v2.311z" fill="#d8dee8"/><path d="M66.616 87.454l2.778-.05v-2.467l-2.778.043v2.474z" fill="url(#a)"/><path d="M132.963 90.082l-61.342 1.346v-2.462l61.342-1.196v2.311z" fill="#d8dee8"/><path d="M66.616 91.538l2.778-.061V89.01l-2.778.054v2.474z" fill="url(#b)"/><path d="M132.962 93.898L71.62 95.492V93.03l61.342-1.443v2.311z" fill="#d8dee8"/><path d="M66.616 95.621l2.778-.072v-2.467l-2.778.065v2.474z" fill="url(#c)"/><path d="M132.964 101.531l-66.347 2.259v-2.473l66.347-2.097v2.312zm0 3.816l-66.347 2.527V105.4l66.347-2.365v2.312zm0 3.816l-66.347 2.795v-2.474l66.347-2.633v2.312zm0 3.816l-66.347 3.063v-2.474l66.347-2.901v2.312z" fill="#d8dee8"/><path fill-rule="evenodd" d="M89.838 62.034l-1.413-4.619-7.172-.035-1.439 4.653H75.25l7.031-19.609 5.1.104 6.884 19.505h-4.427zm-2.403-8.078l-2.22-7.143-.357-1.311-2.55 8.411 5.127.043z" fill="#fff"/><path d="M31.796 22.545c0 7.595-1.23 13.236-3.691 16.924C25.665 43.156 21.924 45 16.883 45c-4.881 0-8.582-1.904-11.102-5.711S2 29.9 2 22.545C2 14.831 3.22 9.15 5.661 5.502 8.121 1.834 11.862 0 16.883 0c4.901 0 8.612 1.914 11.132 5.741s3.781 9.429 3.781 16.804zm-22.655 0c0 5.96.61 10.216 1.83 12.768 1.24 2.551 3.211 3.827 5.911 3.827s4.671-1.296 5.911-3.887c1.26-2.591 1.89-6.827 1.89-12.708 0-5.86-.63-10.096-1.89-12.708-1.24-2.631-3.211-3.947-5.911-3.947s-4.671 1.286-5.911 3.857c-1.22 2.571-1.83 6.837-1.83 12.797zM58 44.402h-7.051V16.176l.24-8.013a23.6 23.6 0 0 1-1.71 1.585l-6.721 5.502-3.541-4.455L52.119.688H58v43.714z" fill="#febb9a"/><defs><linearGradient id="A" x1="106.267" y1="23.471" x2="106.267" y2="162" xlink:href="#e"><stop stop-color="#feb997"/><stop offset="1" stop-color="#fff" stop-opacity="0"/></linearGradient><linearGradient id="B" x1="160.311" y1="67.282" x2="159.251" y2="96.4" xlink:href="#e"><stop offset=".004" stop-color="#fff"/><stop offset="1" stop-color="#f4f7fa"/></linearGradient><linearGradient id="C" x1="161.337" y1="51.088" x2="122.602" y2="106.911" xlink:href="#e"><stop stop-color="#ffc444"/><stop offset=".996" stop-color="#f36f56"/></linearGradient><linearGradient id="D" x1="161.908" y1="44.747" x2="123.172" y2="100.569" xlink:href="#e"><stop stop-color="#ffc444"/><stop offset=".996" stop-color="#f36f56"/></linearGradient><linearGradient id="E" x1="159.395" y1="42.848" x2="120.659" y2="98.671" xlink:href="#e"><stop stop-color="#ffc444"/><stop offset=".996" stop-color="#f36f56"/></linearGradient><linearGradient id="F" x1="154.191" y1="44.827" x2="115.456" y2="100.65" xlink:href="#e"><stop stop-color="#ffc444"/><stop offset=".996" stop-color="#f36f56"/></linearGradient><linearGradient id="G" x1="169.576" y1="73.526" x2="128.531" y2="100.126" xlink:href="#e"><stop stop-color="#ffc444"/><stop offset=".996" stop-color="#f36f56"/></linearGradient><linearGradient id="H" x1="171.673" y1="94.811" x2="128.511" y2="116.13" xlink:href="#e"><stop offset=".004" stop-color="#fff"/><stop offset="1" stop-color="#f4f7fa"/></linearGradient><linearGradient id="I" x1="172.788" y1="88.988" x2="121.364" y2="113.732" xlink:href="#e"><stop offset=".004" stop-color="#e38ddd"/><stop offset="1" stop-color="#9571f6"/></linearGradient><linearGradient id="J" x1="171.507" y1="86.326" x2="120.084" y2="111.07" xlink:href="#e"><stop offset=".004" stop-color="#e38ddd"/><stop offset="1" stop-color="#9571f6"/></linearGradient><linearGradient id="K" x1="170.228" y1="83.666" x2="118.804" y2="108.41" xlink:href="#e"><stop offset=".004" stop-color="#e38ddd"/><stop offset="1" stop-color="#9571f6"/></linearGradient><linearGradient id="L" x1="178.37" y1="76.472" x2="126.946" y2="101.216" xlink:href="#e"><stop offset=".004" stop-color="#e38ddd"/><stop offset="1" stop-color="#9571f6"/></linearGradient><linearGradient id="M" x1="171.673" y1="94.811" x2="128.511" y2="116.13" xlink:href="#e"><stop offset=".004" stop-color="#e38ddd"/><stop offset="1" stop-color="#9571f6"/></linearGradient><linearGradient id="N" x1="171.629" y1="112.253" x2="162.304" y2="138.363" xlink:href="#e"><stop offset=".004" stop-color="#fff"/><stop offset="1" stop-color="#f4f7fa"/></linearGradient><linearGradient id="O" x1="159.322" y1="127.743" x2="102.339" y2="124.604" xlink:href="#e"><stop stop-color="#ff9085"/><stop offset="1" stop-color="#fb6fbb"/></linearGradient><linearGradient id="P" x1="162.975" y1="124.987" x2="105.993" y2="121.848" xlink:href="#e"><stop stop-color="#ff9085"/><stop offset="1" stop-color="#fb6fbb"/></linearGradient><linearGradient id="Q" x1="196.511" y1="129.791" x2="139.529" y2="126.652" xlink:href="#e"><stop stop-color="#ff9085"/><stop offset="1" stop-color="#fb6fbb"/></linearGradient><linearGradient id="R" x1="215.799" y1="130.853" x2="158.817" y2="127.714" xlink:href="#e"><stop stop-color="#ff9085"/><stop offset="1" stop-color="#fb6fbb"/></linearGradient><linearGradient id="S" x1="180.195" y1="126.07" x2="143.112" y2="141.714" xlink:href="#e"><stop stop-color="#ff9085"/><stop offset="1" stop-color="#fb6fbb"/></linearGradient><linearGradient id="T" x1="94.461" y1="95.959" x2="98.5" y2="100.144" xlink:href="#e"><stop offset=".004" stop-color="#e38ddd"/><stop offset="1" stop-color="#9571f6"/></linearGradient><linearGradient id="U" x1="37.274" y1="69.21" x2="129.594" y2="69.21" xlink:href="#e"><stop stop-color="#444b8c"/><stop offset=".996" stop-color="#26264f"/></linearGradient><linearGradient id="V" x1="41.066" y1="72.979" x2="126.472" y2="72.979" xlink:href="#e"><stop stop-color="#aa80f9"/><stop offset=".996" stop-color="#6165d7"/></linearGradient><linearGradient id="W" x1="37.274" y1="132.981" x2="176.351" y2="132.981" xlink:href="#e"><stop stop-color="#444b8c"/><stop offset=".996" stop-color="#26264f"/></linearGradient><linearGradient id="X" x1="163.357" y1="71.18" x2="111.428" y2="178.587" xlink:href="#e"><stop stop-color="#fff"/><stop offset=".996" stop-color="#ebeff2"/></linearGradient><linearGradient id="Y" x1="108.728" y1="39.784" x2="86.676" y2="99.121" xlink:href="#e"><stop stop-color="#ff9085"/><stop offset="1" stop-color="#fb6fbb"/></linearGradient><linearGradient id="Z" x1="68.927" y1="79.313" x2="73.912" y2="92.818" xlink:href="#e"><stop stop-color="#ff9085"/><stop offset="1" stop-color="#fb6fbb"/></linearGradient><linearGradient id="a" x1="67.597" y1="79.782" x2="72.566" y2="93.244" xlink:href="#e"><stop stop-color="#ff9085"/><stop offset="1" stop-color="#fb6fbb"/></linearGradient><linearGradient id="b" x1="68.936" y1="87.483" x2="73.889" y2="100.9" xlink:href="#e"><stop stop-color="#ff9085"/><stop offset="1" stop-color="#fb6fbb"/></linearGradient><linearGradient id="c" x1="67.614" y1="87.975" x2="72.551" y2="101.348" xlink:href="#e"><stop stop-color="#ff9085"/><stop offset="1" stop-color="#fb6fbb"/></linearGradient><path id="d" d="M148.355 124.513l5.391-22.104 13.386 3.264-5.391 22.104-13.386-3.264z"/><linearGradient id="e" gradientUnits="userSpaceOnUse"/></defs></svg>