<svg width="60" height="60" viewBox="0 0 60 60" fill="none" xmlns="http://www.w3.org/2000/svg">
<circle cx="30" cy="30" r="30" fill="#6A00D1"/>
<g clip-path="url(#clip0_200:38)">
<path d="M14.0776 46.73L16.3783 38.3252C14.9586 35.865 14.2126 33.0761 14.214 30.2164C14.2181 21.2756 21.4937 14 30.4331 14C34.7712 14.0014 38.8433 15.691 41.9063 18.7568C44.9679 21.8225 46.6535 25.8974 46.6522 30.2314C46.6481 39.1735 39.3725 46.4491 30.4331 46.4491C27.7192 46.4477 25.0449 45.7672 22.6761 44.4744L14.0776 46.73V46.73ZM23.0743 41.5382C25.3599 42.8951 27.5419 43.7079 30.4276 43.7093C37.8573 43.7093 43.9097 37.6624 43.9138 30.2286C43.9165 22.7798 37.8928 16.7411 30.4385 16.7384C23.0034 16.7384 16.9551 22.7853 16.9524 30.2177C16.9511 33.2521 17.8402 35.5241 19.3335 37.9011L17.9711 42.876L23.0743 41.5382V41.5382ZM38.6033 34.0867C38.5024 33.9176 38.2324 33.8167 37.826 33.6135C37.421 33.4103 35.4285 32.4297 35.0562 32.2947C34.6853 32.1597 34.4152 32.0915 34.1439 32.4979C33.8738 32.9029 33.0965 33.8167 32.8606 34.0867C32.6246 34.3567 32.3873 34.3908 31.9823 34.1876C31.5773 33.9844 30.2708 33.5575 28.7229 32.1761C27.5188 31.1014 26.7046 29.7745 26.4687 29.3681C26.2327 28.9631 26.4441 28.7435 26.646 28.5417C26.8287 28.3603 27.051 28.0684 27.2542 27.8312C27.4601 27.5966 27.5269 27.4275 27.6633 27.1561C27.7983 26.8861 27.7315 26.6488 27.6292 26.4456C27.5269 26.2437 26.7169 24.2486 26.38 23.4371C26.05 22.6475 25.7159 22.7539 25.4677 22.7416L24.6903 22.728C24.4203 22.728 23.9812 22.8289 23.6103 23.2353C23.2393 23.6417 22.192 24.6209 22.192 26.6161C22.192 28.6112 23.6443 30.5382 23.8462 30.8082C24.0494 31.0782 26.7032 35.1722 30.7686 36.9274C31.7355 37.3447 32.491 37.5942 33.0788 37.7811C34.0498 38.0893 34.9335 38.0456 35.6317 37.942C36.4104 37.8261 38.0292 36.9615 38.3674 36.015C38.7056 35.0672 38.7056 34.2558 38.6033 34.0867V34.0867Z" fill="white"/>
</g>
<defs>
<clipPath id="clip0_200:38">
<rect width="32.73" height="32.73" fill="white" transform="translate(14 14)"/>
</clipPath>
</defs>
</svg>
