<svg xmlns="http://www.w3.org/2000/svg" xmlns:xlink="http://www.w3.org/1999/xlink" width="1196" height="829" fill="none" xmlns:v="https://vecta.io/nano"><rect width="1193" height="829" rx="20" fill="url(#A)"/><path opacity=".5" d="M1175.15 0H655.283c-23.75 0-31.176 45.951-9.425 55.488 75.154 32.954 152.924 78.504 198.696 135.33 77.306 95.976 239.716 137.832 328.976 149.494 11.63 1.519 21.62-7.708 21.62-19.439v-73.245c0-8.63-5.57-16.227-13.65-19.26-127.46-47.843-58.14-113.954 2.5-146.721 6.75-3.646 11.15-10.582 11.15-18.252V20a20 20 0 0 0-20-20z" fill="#fff" fill-opacity=".1"/><g opacity=".7"><path d="M804.76 600.277c0 76.33 61.871 138.185 138.185 138.185s138.185-61.855 138.185-138.185c0-76.314-61.87-138.169-138.185-138.169S804.76 523.963 804.76 600.277z" fill="url(#B)"/><path d="M838.123 575.857c-.967 5.951-1.377 11.853-1.262 17.673.213 14.131 3.442 27.738 9.115 40.067 2.36 5.065 5.065 9.885 8.197 14.475 14.951 21.985 38.591 38.002 66.904 42.559 20.246 3.263 40.001.23 57.346-7.688 20.099-9.132 36.887-24.805 47.317-44.691a100.41 100.41 0 0 0 10.11-30.542c.38-2.327.66-4.655.89-6.983.24-2.919.41-5.82.41-8.722 0-6.853-.66-13.558-2-20.099-3.02-15.05-9.5-29.05-18.64-41.018-15-19.607-37.268-33.739-63.58-37.985-25.673-4.131-50.625 1.902-70.806 15.083-3.524 2.344-6.918 4.902-10.164 7.656a99.04 99.04 0 0 0-11.213 11.197c-11.509 13.509-19.591 30.23-22.624 49.018z" fill="url(#C)"/><path d="M871.961 515.642c16.443 5.344 37.936 12.64 57.428 20.23 22.821 8.886 70.609 24.64 105.761 36.034-3.02-15.05-9.5-29.05-18.64-41.018-15.35-4.934-32.529-8.443-48.857-7.557-26.493 1.459-61.002-7.492-85.528-15.345-3.525 2.344-6.918 4.902-10.164 7.656zm165.189 76.363c-6.36-3.115-61.203-13.345-93.548-24.591-23.87-8.328-61.92-28.853-82.855-40.575-11.509 13.509-19.591 30.23-22.624 49.018-.967 5.951-1.377 11.853-1.262 17.673 29.361-1.345 68.936-3.623 98.413-7.001 41.395-4.77 84.546 8.263 101.466 14.198l.41-8.722zm-191.174 41.592c2.361 5.065 5.066 9.885 8.197 14.476l71.724 11.147 52.526 23.723c20.099-9.132 36.887-24.805 47.317-44.69-8.68-3.984-22.76-7.165-45.727-6.525l-122.578 2.442-11.459-.573z" style="mix-blend-mode:overlay" opacity=".38" fill="#fff"/><path d="M849.599 542.839c-2.475 4.41-4.607 9.034-6.41 13.87-22.279-.295-36.214 1.787-36.968 6.443-.722 4.524 11.148 10.672 31.312 17.164 24.017 7.705 59.756 15.87 100.02 22.362 37.87 6.098 72.417 9.541 97.347 10.115 23.9.524 39-1.541 39.79-6.394.79-4.951-13.64-11.918-37.63-19.115-.24-5.148-.86-10.263-1.86-15.23 46.18 13.836 75.72 29.869 73.7 42.394-1.96 12.23-33.57 18.165-80 17.149-27.38-.574-59.904-3.607-94.528-9.181-36.673-5.902-70.199-13.82-97.2-22.394-41.706-13.263-67.854-28.198-65.969-39.985 1.951-12.083 32.886-18.05 78.396-17.198z" fill="url(#D)"/></g><g opacity=".7"><path d="M650 394.12c0 39.84 32.3 72.13 72.13 72.13 39.84 0 72.13-32.29 72.13-72.13 0-39.83-32.29-72.12-72.13-72.12-39.83 0-72.13 32.29-72.13 72.12z" fill="url(#E)"/><path d="M663.85 395.31c0 19.8 10.21 37.22 25.65 47.25a55.29 55.29 0 0 0 18.23 7.71c4.02.93 8.2 1.41 12.49 1.41 14.85 0 28.36-5.74 38.43-15.15 3.48-3.23 6.55-6.9 9.11-10.94 2.49-3.89 4.52-8.1 5.99-12.57 1.85-5.57 2.84-11.52 2.84-17.71 0-5.8-.87-11.4-2.49-16.66-5.8-18.75-21.11-33.31-40.29-38.06a56.89 56.89 0 0 0-13.59-1.65c-11.6 0-22.4 3.52-31.34 9.55-1.08.7-2.14 1.47-3.15 2.25-13.16 10.16-21.67 26.02-21.86 43.88-.02.23-.02.46-.02.69z" fill="url(#F)"/><path d="M663.85 395.31c0 19.8 10.21 37.22 25.65 47.25 10.46-7.56 14.87-23.76 1.8-34.45-19.25-15.77-1.16-18.67 19.24-44.33 13.45-16.91-6.48-17.12-21.66-15.29-1.08.7-2.14 1.47-3.15 2.25-13.16 10.16-21.67 26.02-21.86 43.88-.02.23-.02.46-.02.69zm74.12-40.3c19.25 16.35 21.3 9.35 13.41 29.75-4.73 12.31 4.06 30.75 16.38 40.83 2.49-3.89 4.52-8.1 5.99-12.57 1.85-5.57 2.84-11.52 2.84-17.71 0-5.8-.87-11.4-2.49-16.66-5.8-18.75-21.11-33.31-40.29-38.06-2.82 3.73-2.8 8.52 4.16 14.42zm-30.24 95.26c4.02.93 8.2 1.41 12.49 1.41 14.85 0 28.36-5.74 38.43-15.15-1.53-.87-3.44-1.7-5.8-2.46-24.51-7.9-12.56-60.39-25.96-44.63-7.5 8.81-21.28 40.98-19.16 60.83zm12.73-85.61c2.98-6.28 11.31-8.24 16.25-3.34 2.43 2.4 3.3 5.87-1.07 10.62-8.14 8.83-19.8 2.47-15.18-7.28z" style="mix-blend-mode:overlay" opacity=".302" fill="#fff"/></g><g opacity=".7"><path d="M791 238.778c0 82.726 67.066 149.792 149.792 149.792s149.778-67.066 149.778-149.792S1023.52 89 940.792 89 791 156.052 791 238.778z" fill="url(#G)"/><path d="M820.938 237.269c0 5.965.427 11.887 1.253 17.624v.029c.812 5.751 2.036 11.374 3.63 16.841 2.591 9.097 6.25 17.738 10.763 25.824a123.02 123.02 0 0 0 11.104 16.628c22.721 28.714 57.855 47.121 97.318 47.121 6.947 0 13.78-.583 20.414-1.694 4.997-.811 9.88-1.922 14.621-3.345A122.42 122.42 0 0 0 1015.99 339c1.89-1.31 3.76-2.705 5.56-4.129 7.96-6.206 15.09-13.41 21.31-21.354.65-.811 1.26-1.651 1.87-2.477 4.27-5.751 8.06-11.915 11.3-18.379 5.1-10.207 8.86-21.226 10.98-32.799a127.89 127.89 0 0 0 1.88-16.059 142.44 142.44 0 0 0 .15-6.534c0-5.211-.32-10.35-.93-15.361-.37-2.876-.82-5.694-1.37-8.513v-.029c-2.91-14.89-8.49-28.828-16.2-41.327-1.77-2.833-3.63-5.595-5.61-8.271-7.59-10.293-16.73-19.39-27.08-26.921-20.441-14.862-45.625-23.646-72.844-23.646-12.386 0-24.372 1.808-35.633 5.211-12.129 3.63-23.49 9.04-33.725 16.015-2.164 1.452-4.314 2.976-6.378 4.57-7.559 5.837-14.421 12.499-20.386 19.888-1.481 1.779-2.904 3.602-4.243 5.467a120.56 120.56 0 0 0-11.901 20.129c-1.651 3.403-3.103 6.919-4.413 10.492a126.78 126.78 0 0 0-4.257 14.493v.028c-1.01 4.385-1.765 8.841-2.292 13.382a125.89 125.89 0 0 0-.811 12.556c-.029.613-.029 1.225-.029 1.837z" fill="url(#H)"/><path style="mix-blend-mode:overlay" d="M848.883 158.885c19.86 8.356 45.143 15.304 71.508 12.969 46.011-4.1 108.079 7.887 146.349 41.512-2.91-14.891-8.49-28.828-16.2-41.327-1.77-2.833-3.63-5.595-5.61-8.271-25.36-4.243-55.864-8.456-82.656-9.738-34.409-1.651-63.749-10.065-86.627-19.603-2.164 1.452-4.313 2.976-6.377 4.57-7.56 5.837-14.422 12.499-20.387 19.888z" fill="url(#I)"/><path style="mix-blend-mode:overlay" d="M824.071 209.466v.028c8.826 5.14 19.816 10.549 33.511 15.845 21.867 8.471 61.799 16.087 91.083 24.6 12.3 3.559 41.384-6.008 52.345-2.705 21.27 6.321 40.99 25.824 55.02 45.428 5.1-10.208 8.86-21.226 10.98-32.8a127.89 127.89 0 0 0 1.88-16.059c-15.82-20.329-44.32-42.281-91.952-36.43-51.065 6.278-107.412-9.424-144.198-22.891-1.651 3.402-3.103 6.918-4.413 10.492-1.694 4.712-3.117 9.538-4.256 14.492z" fill="url(#J)"/><path style="mix-blend-mode:overlay" d="M820.967 235.432l1.224 19.461v.028a845.83 845.83 0 0 0 33.241 17.539c28.202 14.094 55.806 56.304 95.325 53.272 23.063-1.794 46.851 5.495 65.233 13.268 1.89-1.31 3.76-2.705 5.56-4.129 7.96-6.207 15.09-13.41 21.31-21.354.65-.811 1.26-1.651 1.87-2.477-31.76-19.589-80.648-44.459-118.046-46.025-32.544-1.367-60.674-9.595-82.014-18.379-9.225-3.787-17.197-7.687-23.703-11.204z" fill="url(#K)"/><path style="mix-blend-mode:overlay" d="M909.373 118.412c34.779 19.304 80.562 20.201 108.477 18.435-20.441-14.862-45.625-23.646-72.844-23.646-12.385 0-24.372 1.808-35.633 5.211z" fill="url(#L)"/><path style="mix-blend-mode:overlay" d="M847.688 314.215c22.721 28.714 57.855 47.121 97.318 47.121 6.947 0 13.78-.583 20.414-1.694-9.709-6.975-32.657-21.468-60.204-25.013-19.603-2.519-41.441-12.072-57.528-20.414z" fill="url(#M)"/></g><defs><linearGradient id="A" x1="596.5" y1="0" x2="596.5" y2="829" xlink:href="#N"><stop stop-color="#4a0b87"/><stop offset="1" stop-color="#6019a4"/></linearGradient><radialGradient id="B" cx="0" cy="0" r="1" gradientTransform="translate(942.946 600.285) scale(138.183)" xlink:href="#N"><stop stop-color="#fbb53f"/><stop offset="1" stop-color="#fbb53f" stop-opacity="0"/></radialGradient><linearGradient id="C" x1="908.732" y1="744.992" x2="1076.98" y2="623.444" xlink:href="#N"><stop stop-color="#fbb53f"/><stop offset="1" stop-color="#fd5e0f"/></linearGradient><linearGradient id="D" x1="1116.91" y1="640.503" x2="1114.49" y2="574.059" xlink:href="#N"><stop stop-color="#fbb53f"/><stop offset="1" stop-color="#f7d3a1"/></linearGradient><radialGradient id="E" cx="0" cy="0" r="1" gradientTransform="translate(722.132 394.124) scale(72.128)" xlink:href="#N"><stop stop-color="#fee7ca"/><stop offset="1" stop-color="#fee7ca" stop-opacity="0"/></radialGradient><linearGradient id="F" x1="727.138" y1="484.846" x2="797.34" y2="394.987" xlink:href="#N"><stop offset=".137" stop-color="#2dc2c2"/><stop offset="1" stop-color="#f7d3a1"/></linearGradient><radialGradient id="G" cx="0" cy="0" r="1" gradientTransform="translate(940.789 238.782) rotate(180) scale(149.785)" xlink:href="#N"><stop stop-color="#fee7ca"/><stop offset="1" stop-color="#fee7ca" stop-opacity="0"/></radialGradient><linearGradient id="H" x1="895.375" y1="441.523" x2="1094.81" y2="284.486" xlink:href="#N"><stop offset=".137" stop-color="#a8658f"/><stop offset="1" stop-color="#f7d3a1"/></linearGradient><linearGradient id="I" x1="1066.74" y1="128.731" x2="848.882" y2="128.731" xlink:href="#N"><stop stop-color="#fff" stop-opacity=".78"/><stop offset="1" stop-color="#fff" stop-opacity="0"/></linearGradient><linearGradient id="J" x1="1068.88" y1="178.789" x2="824.064" y2="178.789" xlink:href="#N"><stop stop-color="#fff" stop-opacity=".78"/><stop offset="1" stop-color="#fff" stop-opacity="0"/></linearGradient><linearGradient id="K" x1="1044.73" y1="229.738" x2="820.968" y2="229.738" xlink:href="#N"><stop stop-color="#fff" stop-opacity=".78"/><stop offset="1" stop-color="#fff" stop-opacity="0"/></linearGradient><linearGradient id="L" x1="1017.85" y1="107.766" x2="909.37" y2="107.766" xlink:href="#N"><stop stop-color="#fff" stop-opacity=".78"/><stop offset="1" stop-color="#fff" stop-opacity="0"/></linearGradient><linearGradient id="M" x1="965.422" y1="308.518" x2="847.684" y2="308.518" xlink:href="#N"><stop stop-color="#fff" stop-opacity=".78"/><stop offset="1" stop-color="#fff" stop-opacity="0"/></linearGradient><linearGradient id="N" gradientUnits="userSpaceOnUse"/></defs></svg>