<svg xmlns="http://www.w3.org/2000/svg" xmlns:xlink="http://www.w3.org/1999/xlink" width="265" height="169" fill="none" xmlns:v="https://vecta.io/nano"><style><![CDATA[.B{fill:#9db0f4}.C{fill:#f99746}.D{fill:#d36d1a}.E{fill:#aec3ff}.F{fill:#ffa255}.G{fill:#ed7d2b}.H{fill:#131375}.I{fill:#ffb27d}]]></style><path d="M34.094 25.551c0 8.607-1.408 15.001-4.223 19.18C27.079 48.91 22.798 51 17.03 51c-5.585 0-9.82-2.157-12.704-6.472S0 33.887 0 25.551C0 16.808 1.396 10.37 4.189 6.235 7.004 2.078 11.285 0 17.03 0c5.608 0 9.854 2.169 12.738 6.506s4.326 10.686 4.326 19.044zm-25.923 0c0 6.755.698 11.578 2.094 14.47 1.419 2.892 3.674 4.337 6.764 4.337s5.345-1.468 6.764-4.405c1.442-2.937 2.163-7.738 2.163-14.402 0-6.642-.721-11.442-2.163-14.402-1.419-2.982-3.674-4.473-6.764-4.473s-5.345 1.457-6.764 4.371c-1.396 2.914-2.094 7.749-2.094 14.504zm64.353-13.386c0 3.14-.927 5.761-2.781 7.862-1.854 2.078-4.464 3.479-7.828 4.202v.271c4.029.497 7.05 1.74 9.064 3.728C72.993 30.193 74 32.814 74 36.09c0 4.767-1.705 8.449-5.116 11.047C65.474 49.712 60.621 51 54.326 51c-5.562 0-10.254-.892-14.077-2.677v-7.082a32.43 32.43 0 0 0 6.764 2.406c2.38.565 4.669.847 6.867.847 3.891 0 6.798-.712 8.721-2.135s2.884-3.626 2.884-6.608c0-2.643-1.064-4.586-3.193-5.828s-5.471-1.864-10.026-1.864h-4.361v-6.472h4.429c8.011 0 12.017-2.733 12.017-8.201 0-2.124-.698-3.761-2.094-4.914s-3.456-1.728-6.18-1.728c-1.9 0-3.731.271-5.493.813-1.763.52-3.846 1.548-6.249 3.084l-3.949-5.557C44.987 1.74 50.332.068 56.421.068c5.059 0 9.007 1.073 11.845 3.219s4.258 5.106 4.258 8.878z" fill="#febb9a"/><path d="M238.493 145.596a5 5 0 0 1-5 5H80.95a5 5 0 0 1-5-5V60.174a5 5 0 0 1 5-5h152.543a5 5 0 0 1 5 5v85.422z" class="C"/><path d="M238.493 130.352a5 5 0 0 1-5 5H80.95a5 5 0 0 1-5-5V60.174a5 5 0 0 1 5-5h152.543a5 5 0 0 1 5 5v70.178z" fill="#283689"/><path d="M177.34 166.037c.63.114 1.153.622 1.153 1.263a1.16 1.16 0 0 1-1.159 1.159h-45.408a1.16 1.16 0 0 1-1.159-1.159c0-.641.524-1.149 1.153-1.263a6.41 6.41 0 0 0 5.237-5.805l.019-.5v-4.136a5 5 0 0 1 5-5h24.909a5 5 0 0 1 5 5v4.136l.019.5c.122 1.57.808 2.982 1.857 4.032.903.902 2.072 1.536 3.379 1.773z" class="C"/><path opacity=".493" d="M172.085 151.551c0 .527-.428.954-.955.954h-33c-.527 0-.954-.427-.954-.954s.427-.955.954-.955h33c.527 0 .955.427.955.955zm6.408 14.59h-47.726a6.39 6.39 0 0 0 4.464-1.81c1.874-1.819 3.943-4.098 6.555-4.098h25.785c2.558 0 4.582 2.221 6.39 4.032 1.161 1.159 2.763 1.876 4.532 1.876z" fill="#d86713"/><path d="M237.561 33.863c26.439 3.662 28.926 43.361 26.886 53.279 0 54.199-44.659 74.51-73.627 78.63-34-3.967-107.794-15.564-130.969-30.212s-9.656-50.048 0-65.917C78.892 43.703 122.357-.852 143.9 28.445c26.928 36.621 60.613.841 93.661 5.418z" fill="url(#A)"/><path d="M236.067 127.328a5 5 0 0 1-5 5H83.057a5 5 0 0 1-5-5V62.285a5 5 0 0 1 5-5h148.01a5 5 0 0 1 5 5v65.043z" fill="#505aba"/><path opacity=".01" d="M232.282 125.154c0 2.172-1.761 3.933-3.933 3.933H85.765c-2.172 0-3.933-1.761-3.933-3.933s1.761-3.933 3.933-3.933h142.584c2.172 0 3.933 1.761 3.933 3.933z" fill="#dde7fe"/><path d="M223.89 60.747a5 5 0 0 1 5 5v45.048a5 5 0 0 1-5 5H88.867a5 5 0 0 1-5-5V65.747a5 5 0 0 1 5-5H223.89z" fill="#ebf2f9"/><path d="M228.446 71.477c.102.023.173.117.173.221v34.077a5 5 0 0 1-5 5H88.596a5 5 0 0 1-5-5V84.17a2.71 2.71 0 0 1 2.708-2.708h1.798a.91.91 0 0 1 .91.91.91.91 0 0 0 .91.91h3.013a.53.53 0 0 0 .528-.528.53.53 0 0 1 .528-.528h1.534c1.139 0 2.062-.923 2.062-2.062v-1.101a1.03 1.03 0 0 1 1.028-1.028h.05a.98.98 0 0 0 .977-.978v-.822c0-.086.07-.155.155-.155s.155.07.155.155v.822a.98.98 0 0 0 .977.978h2.122a1.83 1.83 0 0 0 1.832-1.832v-1.589c0-.134.109-.243.243-.243s.243.109.243.243v1.791a1.63 1.63 0 0 0 1.63 1.63h1.604c.014 0 .026-.012.026-.026v-.023l-.006-.464.006-.44-.006-.734.006-.468-.006-.733.006-.467-.006-.733.006-.506-.006-.734.006-.642-.006-.734.006-.245c0-.134.108-.242.242-.242h.455c.151 0 .274-.123.274-.274v-.196c0-.043.035-.078.078-.078s.078.035.078.078v.196c0 .151.123.274.274.274h6.654c.152 0 .274-.123.274-.274v-.198c0-.042.034-.076.076-.076s.076.034.076.076v.198c0 .151.123.274.274.274h.385a.66.66 0 0 1 .659.659v2.713a.46.46 0 0 0 .46.461l.461.001-.002-.001-.002-.73.005-.506-.005-.734.005-.502-.005-.731.003-.003 8.731-.004 1.476.004a.25.25 0 0 1 .058.007c.119.028.203.136.203.258v1.651c0 1.283 1.04 2.323 2.323 2.323h1.313c1.517 0 2.746 1.229 2.746 2.746v.168a2.58 2.58 0 0 0 2.578 2.578 2.58 2.58 0 0 0 2.577-2.578v-7.016a.56.56 0 0 1 .562-.562h.206c.196 0 .356-.159.356-.356v-.255a.1.1 0 1 1 .2 0v.255c0 .196.159.356.356.356h3.36c.196 0 .356-.159.356-.356v-.255a.1.1 0 1 1 .2 0v.255c0 .196.159.356.356.356h5.056c.196 0 .355-.159.355-.356v-.255c0-.056.045-.1.101-.1a.1.1 0 0 1 .1.1v.255c0 .196.159.356.356.356h2.918c.196 0 .355-.159.355-.356v-.254c0-.056.045-.101.101-.101s.101.045.101.101v.254c0 .196.159.356.356.356h.39c.411 0 .745.334.745.745v5.884a2.85 2.85 0 0 0 2.85 2.85h2.084c.423 0 .765-.343.765-.765s.344-.766.767-.765l4.71.009a1.24 1.24 0 0 0 1.244-1.242v-.565c0-.374.303-.677.677-.677h.433c.135 0 .244-.109.244-.244v-.155c0-.049.04-.089.089-.089s.089.04.089.089v.155c0 .135.109.244.244.244h4.944l.795.003c.135 0 .245-.11.245-.246v-.157c0-.049.04-.089.089-.089s.089.04.089.089v.157c0 .136.11.246.245.246h.381c.346 0 .626.28.626.626v1.844a2.47 2.47 0 0 0 2.47 2.47h4.623a.91.91 0 0 1 .91.91.91.91 0 0 0 .909.91h3.011a.53.53 0 0 0 .528-.528.53.53 0 0 1 .529-.528h1.533a2.06 2.06 0 0 0 2.062-2.062v-1.099a1.03 1.03 0 0 1 1.029-1.029h.052c.54 0 .977-.438.977-.978v-.823c0-.085.069-.155.155-.155s.155.069.155.155v.823c0 .54.437.978.977.978h2.122a1.83 1.83 0 0 0 1.832-1.832v-1.59c0-.134.108-.242.242-.242s.242.108.242.242v1.791a1.63 1.63 0 0 0 1.631 1.631h1.605c.014 0 .026-.012.026-.026v-.022l-.007-.464.007-.439-.007-.734.007-.468-.007-.733.007-.467-.007-.733.007-.506-.007-.734.007-.642-.007-.734.007-.245c0-.134.108-.242.242-.242h.458c.151 0 .274-.123.274-.274v-.197c0-.043.034-.077.077-.077s.077.035.077.077v.197c0 .151.123.274.274.274h6.652c.151 0 .274-.123.274-.274v-.196c0-.043.035-.078.078-.078s.078.035.078.078v.196c0 .151.123.274.274.274h.383c.362 0 .656.294.656.657v2.264c0 .504.408.912.912.913h.013l-.004-.001-.004-.728.008-.506-.008-.734.008-.502-.008-.731.006-.004 8.732-.004 1.479.004c.015 0 .03.001.045.005z" fill="#d5e5fb"/><g fill="#e2eefd"><path d="M156.415 71.395c0 .314-.254.568-.567.568h-4.766a.57.57 0 0 1-.568-.568.57.57 0 0 1 .568-.568h4.766a.57.57 0 0 1 .567.568z"/><use xlink:href="#B"/><use xlink:href="#C"/><use xlink:href="#B" y="2.146"/><use xlink:href="#B" y="3.248"/><use xlink:href="#C" y="3.248"/><path d="M181.725 76.509c0 .19-.155.345-.345.345h-2.063c-.191 0-.345-.154-.345-.345s.154-.344.345-.344h2.063c.19 0 .345.154.345.344z"/><use xlink:href="#B" y="6.542"/><use xlink:href="#C" y="6.564"/><path d="M181.725 79.756c0 .191-.155.345-.346.345h-2.062c-.19 0-.345-.155-.345-.345s.155-.345.345-.345h2.062c.191 0 .346.155.346.345z"/><use xlink:href="#B" y="9.79"/><path d="M136.612 71.03c0 .19-.154.345-.344.345h-2.262c-.19 0-.344-.154-.344-.345s.154-.344.344-.344h2.262c.19 0 .344.154.344.344z"/><use xlink:href="#D"/><use xlink:href="#D" y="1.084"/><use xlink:href="#E"/><use xlink:href="#D" y="3.248"/><path d="M136.613 76.509c0 .19-.154.345-.345.345h-2.261c-.191 0-.345-.154-.345-.345s.154-.344.345-.344h2.261c.191 0 .345.154.345.344z"/><use xlink:href="#E" y="3.294"/><use xlink:href="#D" y="6.564"/><path d="M136.613 79.756c0 .191-.155.345-.345.345h-2.261c-.19 0-.345-.155-.345-.345s.155-.345.345-.345h2.261c.19 0 .345.155.345.345z"/><use xlink:href="#E" y="6.542"/><use xlink:href="#F"/><use xlink:href="#F" y="1.062"/><path d="M142.013 73.628c0 .191-.155.345-.345.345h-2.664c-.19 0-.345-.155-.345-.345s.155-.345.345-.345h2.664c.19 0 .345.154.345.345z"/><use xlink:href="#F" y="3.247"/><use xlink:href="#F" y="4.31"/><use xlink:href="#G"/><use xlink:href="#G" y="1.062"/><path d="M142.013 79.045c0 .19-.155.344-.345.344h-2.664c-.191 0-.345-.154-.345-.344s.154-.345.345-.345h2.664c.19 0 .345.154.345.345z"/><use xlink:href="#F" y="8.664"/><use xlink:href="#G" y="4.31"/></g><path d="M209.58 70.453c.019.141-.091.267-.233.267h-.239c-.016 0-.028-.014-.026-.03l.163-1.008c.005-.033.044-.057.09-.057s.076.012.098.026.042.039.046.065l.101.737z" class="B"/><path d="M209.129 70.49c-.01 0-.018-.009-.016-.019l.131-.79c.006-.033.045-.057.091-.057.012 0 .022.004.031.01.025.018.038.042.04.068l.006.582c.003.111-.124.204-.283.206z" fill="#afcdfb"/><path d="M209.44 75.206a.52.52 0 0 1 .519.52v31.151a.52.52 0 0 1-.519.52.52.52 0 0 1-.52-.52V75.725a.52.52 0 0 1 .52-.52z" class="B"/><path d="M209.16 75.206a.24.24 0 0 1 .24.24v31.71a.24.24 0 1 1-.48 0v-31.71a.24.24 0 0 1 .24-.24z" class="E"/><path d="M209.44 102.259c.914 0 1.655.741 1.655 1.655v5.206c0 .914-.741 1.655-1.655 1.655s-1.655-.741-1.655-1.655v-5.206c0-.914.741-1.655 1.655-1.655z" class="B"/><path d="M208.771 102.259c.545 0 .986.442.986.987v6.543c0 .544-.441.986-.986.986s-.986-.442-.986-.986v-6.543c0-.545.441-.987.986-.987z" class="E"/><path d="M211.248 71.205c0 .397-.85.72-1.9.72-.082 0-.16-.003-.238-.005-.938-.045-1.664-.347-1.664-.715s.726-.67 1.664-.715l.238-.005c1.05 0 1.9.323 1.9.72z" class="B"/><g class="E"><path d="M210.265 71.205c0 .226-.238.43-.617.573-.346.13-.727.146-1.091.083-.656-.114-1.111-.364-1.111-.655s.455-.541 1.111-.655c.364-.063.745-.047 1.091.083.379.142.617.346.617.572z"/><path d="M211.465 74.349a1.97 1.97 0 0 1-1.911 1.492h-.3a1.97 1.97 0 1 1 0-3.941h.3a1.97 1.97 0 0 1 1.911 2.45z"/></g><path d="M212.185 71.603a.19.19 0 0 1 .189.189.19.19 0 0 1-.189.189h-5.676a.19.19 0 0 1-.19-.189.19.19 0 0 1 .19-.189h5.676z" class="B"/><path d="M209.935 71.603a.19.19 0 0 1 .19.189.19.19 0 0 1-.19.189h-3.426a.19.19 0 0 1-.19-.189.19.19 0 0 1 .19-.189h3.426z" class="E"/><path d="M208.704 101.618c-.167.284.038.642.367.642h.643c.339 0 .563-.353.419-.66-.029-.058-.106-.097-.194-.097h-.991c-.107 0-.203.046-.244.115z" fill="#819dea"/><path d="M207.699 74.378c-.344-1.136.505-2.286 1.692-2.286 1.156 0 2 1.094 1.712 2.213a1.77 1.77 0 0 1-3.404.073z" fill="#c5d7ff"/><path d="M211.64 71.237c.131.138.033.365-.157.365h-4.255c-.193 0-.289-.233-.153-.369.041-.041.096-.063.153-.063h4.255c.059 0 .116.024.157.067z" class="B"/><path d="M210.339 71.237c.131.138.033.365-.157.365h-2.954c-.193 0-.289-.233-.153-.369.041-.041.096-.063.153-.063h2.954c.059 0 .116.024.157.067z" class="E"/><path d="M114.105 108.868c2.117-.005 1.212 1.943-.905 1.943l-26.951-.007c-1.316 0-2.383-1.067-2.383-2.383v-2.992c0-.167.165-.287.323-.231 4.553 1.627 3.956 3.793 9.591 2.998s10.285-1.126 12.808 0 4.376.68 7.516.672z" fill="#a8d29f"/><path d="M123.176 100.909c.488 1.677-.77 3.354-2.517 3.354h-26.31a2.62 2.62 0 0 1-2.524-1.913c-.469-1.672.788-3.329 2.524-3.329h26.31a2.62 2.62 0 0 1 2.517 1.888z" class="D"/><path d="M123.718 100.909a2.62 2.62 0 0 1-2.516 3.354H94.893a2.62 2.62 0 0 1-2.524-1.913c-.469-1.672.788-3.329 2.524-3.329h26.309a2.62 2.62 0 0 1 2.516 1.888z" fill="#f49540"/><path d="M101.746 104.584a.32.32 0 0 1-.321.321h-8.367c-.385 0-.696-.218-.696-.488 0-.085.069-.154.153-.154h8.91a.32.32 0 0 1 .321.321z" class="D"/><path d="M130.547 104.584a.32.32 0 0 1-.321.321h-28.23a.321.321 0 1 1 0-.642h28.23a.32.32 0 0 1 .321.321zm-36.924.321c.309 0 .525.307.419.598l-.327.903-1.612 4.45c-.022.059-.096.099-.181.099-.163 0-.288-.105-.255-.217l1.437-5.189.088-.317c.054-.194.23-.327.43-.327z" class="F"/><path d="M94.064 105.445c-.057.158-.628.195-.787.142-.084-.027-.15-.113-.127-.198l.063-.227a.35.35 0 0 1 .338-.257h.44c.131 0 .221.129.177.252l-.104.288z" class="D"/><path d="M100.52 104.905c.309 0 .524.307.419.597l-.327.904-1.612 4.45c-.022.059-.095.099-.179.099-.164 0-.288-.105-.256-.217l1.438-5.189.089-.318c.053-.193.229-.326.429-.326z" class="F"/><path d="M100.96 105.444c-.057.157-.63.195-.788.143-.083-.027-.149-.113-.125-.197l.063-.228a.35.35 0 0 1 .338-.257h.441c.13 0 .22.128.176.25l-.105.289z" class="D"/><path d="M128.549 104.905c-.309 0-.525.307-.419.598l.328.903 1.61 4.45c.022.059.097.099.181.099.164 0 .287-.105.255-.217l-1.437-5.189-.088-.318c-.054-.193-.23-.326-.43-.326z" class="F"/><path d="M128.109 105.445c.057.157.629.194.788.142.083-.027.149-.113.126-.197l-.064-.228a.35.35 0 0 0-.338-.257h-.441c-.13 0-.221.129-.176.251l.105.289z" class="D"/><path d="M121.652 104.905c-.309 0-.525.307-.419.598l.327.903 1.612 4.45c.022.059.096.099.18.099.163 0 .288-.105.255-.217l-1.436-5.189-.089-.317c-.053-.194-.229-.327-.43-.327z" class="F"/><path d="M121.212 105.445c.057.158.628.195.787.142.084-.027.151-.113.127-.198l-.063-.227a.35.35 0 0 0-.338-.257h-.44c-.131 0-.222.129-.177.252l.104.288z" class="D"/><path d="M103.686 74.048c-.82.332-1.786.544-2.834.593-4.603.203-6.2 1.404-9.923 3.947-.616.419-1.305.738-2.029.979-2.659.884-5.033-1.576-5.033-4.378v-9.945c0-1.022 1.072-1.678 1.998-1.247 2.532 1.191 5.279 2.158 8.282 1.646 3.021-.517 5.353-.484 7.178-.072 2.331.514 3.857 1.635 4.949 3.008 1.51 1.887.202 4.349-2.588 5.47z" fill="#a8d29f"/><g fill="#f8fcff"><path d="M141.278 67.942c0-.799.922-1.448 2.062-1.448s2.063.648 2.063 1.448-.924 1.446-2.063 1.446-2.062-.647-2.062-1.446zm39.772-1.252c-2.265-.014-2.938-1.838-.673-1.855.485-.003 1.162-.105 1.598-.317 3.556-1.728 7.212-1.928 10.968-.598.817.289 1.682.436 2.546.37 4.153-.319 7.806-.071 10.959.744 1.622.419 1.291 1.823-.384 1.812l-25.014-.156z"/><path opacity=".252" d="M200.452 71.87c-1.482-.009-1.923-1.203-.441-1.213.317-.002.761-.069 1.047-.207 2.189-1.064 4.435-1.242 6.741-.534.827.254 1.688.407 2.552.353 2.529-.157 4.766.015 6.713.518 1.059.273.843 1.192-.251 1.185l-16.361-.102zm-87.538-.917c-1.481-.009-1.922-1.202-.44-1.213.317-.002.76-.069 1.045-.207 2.188-1.063 4.435-1.241 6.739-.534.828.254 1.691.407 2.555.353 2.529-.157 4.767.016 6.713.519 1.062.274.846 1.192-.251 1.185l-16.361-.103z"/></g><path d="M228.89 113.081c0-1.273-1.032-2.306-2.306-2.306H86.173c-1.274 0-2.306 1.033-2.306 2.306s1.033 2.307 2.306 2.307h140.411c1.274 0 2.306-1.033 2.306-2.307z" class="B"/><path d="M166.643 110.889c-.186.36-.563-.042-.569-.447-.01-.613.218-1.219.682-1.82.469-.607 1.061-.923 1.776-.949.474-.017.924.426.52.675-.429.264-1.905-.25-2.319 2.238a1.23 1.23 0 0 1-.09.303z" class="C"/><path d="M154.34 93.226a.56.56 0 1 1 1.123 0 .56.56 0 1 1-1.123 0z" class="G"/><path d="M167.947 110.332a.79.79 0 0 1 .789-.79.79.79 0 0 1 .789.79.79.79 0 0 1-.789.788.79.79 0 0 1-.789-.788zm-17.48-.603a1.21 1.21 0 0 1 1.207-1.207 1.21 1.21 0 0 1 1.208 1.207c0 .668-.54 1.208-1.208 1.208a1.21 1.21 0 0 1-1.207-1.208z" class="B"/><path d="M152.157 107.546a.24.24 0 0 1-.477-.065l1.848-13.496c.019-.132.14-.224.272-.206a.24.24 0 0 1 .206.272l-1.849 13.495z" class="H"/><path d="M152.708 94.153a.26.26 0 1 1-.116-.508l2.042-.447c.119-.026.239.041.28.155.048.135-.032.283-.172.316l-2.034.484z" class="G"/><path d="M151.713 112.021a2.25 2.25 0 0 1-2.248-2.248 2.25 2.25 0 0 1 2.248-2.248 2.25 2.25 0 0 1 2.248 2.248 2.25 2.25 0 0 1-2.248 2.248zm0-4.042c-.989 0-1.793.805-1.793 1.794s.804 1.793 1.793 1.793 1.794-.804 1.794-1.793-.805-1.794-1.794-1.794zm17.024 3.995c-.907 0-1.643-.736-1.643-1.642s.736-1.643 1.643-1.643 1.643.736 1.643 1.643-.739 1.642-1.643 1.642zm0-2.924c-.707 0-1.282.575-1.282 1.282a1.28 1.28 0 1 0 2.562 0c0-.707-.574-1.282-1.28-1.282z" fill-rule="evenodd" fill="#060633"/><g class="H"><path d="M166.312 111.273h-11.158c-.2 0-.362-.163-.362-.362v-.174c0-.199.162-.362.362-.362h11.158c.198 0 .362.163.362.362v.174c0 .199-.164.362-.362.362z"/><path d="M166.44 111.279c-.074 0-.145-.049-.17-.125-.032-.094.018-.197.113-.228l2.296-.765c.093-.033.197.019.228.114a.18.18 0 0 1-.114.228l-2.296.766c-.017.005-.038.01-.057.01zm-14.078-7.186c-.017.096.002.194.053.277l3.644 5.83a.41.41 0 0 0 .35.194c.324 0 .521-.358.348-.633l-3.678-5.809c-.191-.303-.654-.212-.717.141z"/></g><path d="M152.501 107.975c.029-.097-.026-.2-.123-.23s-.2.025-.23.123l-.314 1.032a.89.89 0 0 1-.925.626l-.983-.083c-.102-.008-.191.067-.199.169s.066.191.168.199l.987.084c.485.04.924.305 1.185.715l.521.814c.055.086.169.111.255.057s.111-.169.056-.255l-.499-.782a1.77 1.77 0 0 1-.202-1.472l.303-.997zm16.73 1.212a.12.12 0 0 0-.08-.149c-.064-.019-.13.016-.149.079l-.206.672a.58.58 0 0 1-.599.407l-.64-.055a.12.12 0 0 0-.13.11.12.12 0 0 0 .11.128l.641.055a1.01 1.01 0 0 1 .77.464l.339.53a.12.12 0 0 0 .165.037c.056-.036.072-.11.037-.166l-.325-.508c-.182-.283-.229-.633-.132-.956l.199-.648z" fill="#060633"/><path d="M168.522 110.302c0-.1.082-.181.182-.181s.181.081.181.181-.082.18-.181.18-.182-.08-.182-.18zm-17.028-.573a.18.18 0 1 1 .361 0 .18.18 0 1 1-.361 0zm-.869-1.941c-.401-.055-.149-.542.23-.684.575-.215 1.223-.204 1.944.033.729.238 1.225.69 1.489 1.355.175.441-.092 1.014-.461.716-.393-.316-.403-1.879-2.885-1.436a1.25 1.25 0 0 1-.317.016z" class="C"/><path d="M161.397 81.41c-.509-.758-1.635-.739-2.075.061-.553 1.005-.83 1.686-.83 2.044 0 .969 1.239 1.159 1.985.54l.175-.145a1.81 1.81 0 0 0 .425-.512l.376-.674a1.26 1.26 0 0 0-.056-1.315z" fill="#829ce8"/><path d="M161.014 82.921c.232.769.475 1.869-.305 2.063-.427.106-.838-.184-.994-.596a1.75 1.75 0 0 1-.08-.271l-.03-.138-.154-.682c.059-.041 1.434-.947 1.442-.896.032.186.072.359.121.52z" fill="#ed975d"/><path d="M158.973 83.363c1.125.377 1.799.213 2.024-.491.335-1.057.779-1.696-.285-2.1s-1.401-.069-1.599.255-.571 2.162-.14 2.336z" class="I"/><path d="M157.502 110.045c-.302.05-.151.348.155.348h2.122c.04 0 .082 0 .119-.017.186-.093.127-.804.106-1.024-.004-.041-.026-.078-.059-.104-.62-.485-.975-.533-1.062-.144l-.013.055c-.17.561-.93.816-1.368.886zm5.444 0c-.303.051-.152.348.156.348h2.12c.041 0 .084 0 .121-.017.186-.093.128-.804.105-1.024-.004-.041-.025-.078-.058-.104-.621-.485-.974-.533-1.062-.144l-.014.055c-.17.561-.93.816-1.368.886z" fill="#a9453d"/><path d="M159.593 94.231c-1.084.067-1.903 1.01-1.817 2.093l.166 2.11.551 7.448c.03.753.14 1.744.329 2.971.031.202.016.35.2.439.493.242 1.089-.319 1.25-.844.482-1.573.79-3.195.923-4.866l.012-.145.443-7.163a1.94 1.94 0 0 0-2.057-2.043z" class="C"/><path d="M159.593 94.231c-1.084.067-1.903 1.01-1.817 2.093l.129 1.643c.024.306.123.602.287.862l2.925 4.63c.025.04.087.025.09-.022l.443-7.163a1.94 1.94 0 0 0-2.057-2.043z" class="G"/><path d="M160.626 93.913c-1.294.367-2.062 1.703-1.691 2.995.997 3.47 1.979 6.072 2.946 7.805l2.031 3.803c.234.475.85 1.007 1.367.89.256-.057.145-.254.113-.514-.595-4.773-1.124-7.727-1.589-8.867-.369-.91-.542-3.704-.579-4.584l-.013-.175c-.12-1.169-1.455-1.673-2.585-1.352z" class="C"/><path d="M157.696 97.296c3.385 1.674 7.09 1.133 7.083 1.017-.007-.126-1.411-7.594-1.897-9.773-.453-2.028-1.065-3.805-1.632-4.211-.074-.05-.519.179-.929.391a1.67 1.67 0 0 1-.536.174c-.358.051-.744.16-.88.495-.227.555-1.417 4.349-1.431 5.005l-.003.118-.011.57c-.003.216.198 6.196.236 6.215z" class="B"/><path d="M157.456 92.397c.005.928 1.101 1.477 1.718.784a5.3 5.3 0 0 0 .949-1.517c.536-1.299-1.067-2.019-2.112-1.079l-.073.066c-.305.274-.481.663-.483 1.073l.002.473v.02c-.004.058-.002.121-.001.179z" fill="#7a96e5"/><path d="M154.213 93.165c-.11-.19-.123-.327-.036-.411l2.966-2.225c.145-.137.576-1.323 1.297-3.557.251-.905.64-1.4 1.167-1.484.687-.11 1.149.242 1.444.647.354.483.371 1.135.049 1.64l-2.59 3.763c-.569.519-1.721 1.087-3.458 1.703-.296.105-.682.196-.839-.077z" class="I"/><path d="M160.91 83.161c.022.016.382.165 1.215-1.171.131-.209.25-.678.032-1.122s-1.101-.859-1.845-1.073-.966.195-1.185.608c-.239.455-.233.985.274.902.283-.046.522-.112.642-.062.265.111.321.551.33.691s.028.256.382.165c.142-.036.188.036.188.144 0 .327-.291.717-.033.918z" fill="#233862"/><path d="M162.58 80.665c-.815-.728-1.357.31-1.308 1.401.01.229-.161.582-.515 1.058-.622.839-.126 2.266.828 1.84.157-.07.211-.158.311-.298 1.044-1.465 1.566-2.337 1.566-2.616 0-.233-.287-.854-.882-1.385z" class="B"/><path d="M158.669 95.302c0-.532.476-.932 1.006-.884l.617.038c.545.016 1.03.444 1.023.99a.89.89 0 0 1-.57.816l-.213.081c-.337.129-.715.103-1.031-.073l-.388-.215a.86.86 0 0 1-.444-.754z" fill="#7a96e5"/><path d="M154.317 92.949c-.092-.122-.238-.191-.39-.18-.557.042-.897.12-1.021.236-.1.094-.246.228-.338.35-.15.198.152.263.394.21.255-.056.521-.055.759.053.146.066.255.109.402.032l.044-.023c.247-.132.318-.453.15-.677z" class="I"/><g class="C"><path d="M151.647 93.885a.56.56 0 0 1 .563-.562c.309 0 .562.251.562.562s-.253.562-.562.562a.56.56 0 0 1-.563-.562zm15.232-3.956a1.1 1.1 0 0 1-.031.213c-.221.844-3.075 1.481-3.396 1.176-.059-.057-.122-.141-.185-.244-.515-.846-1.116-3.105-1.386-4.577-.161-.878.442-1.551 1.33-1.635l.11-.008h.004c.197-.012.374-.001.499.045.239.089.461.357.667.805.2.434.641.705 1.116.764l.141.022c.119.026.228.064.309.122.333.237.879 2.403.822 3.317z"/><path d="M161.91 85.254c.139-.083.161-.277.03-.373-.61-.45-1.385-.584-2.325-.402a.14.14 0 0 0-.077.042c-.1.105.001.285.145.266.788-.104 1.431.042 1.926.439.086.069.206.084.301.028zm-2.822 4.823c.107-.224.429-.237.598-.055.652.7 1.652.863 3.001.49.174-.048.359.036.428.202.081.192-.024.411-.226.46-1.826.445-3.087.175-3.781-.807-.06-.085-.065-.196-.02-.289z"/></g><path d="M159.693 85.221c-.451-.052-.761.133-.928.555-.179.452-.578 2.573-1.48 4.12-.248.428-.98 1.136-1.599 1.678-.418.367-.667 1.07-.198 1.37.104.066.206.081.329.089a3.98 3.98 0 0 0 3.414-1.42c.407-.461 2.835-4.417 2.334-5.234-.333-.544-.957-.931-1.872-1.159z" class="B"/><path d="M163.226 84.861c.034-.002.054.04.033.067-.096.126-.208.361-.158.742a4.4 4.4 0 0 0 .277 1.061c.008.019-.001.042-.02.051s-.045 0-.053-.02c-.05-.123-.208-.537-.281-1.081-.054-.41.07-.667.177-.806.006-.008.016-.013.025-.013zm2.85 5.051c.006.02-.005.042-.026.048s-.043-.004-.049-.024c-.101-.326-.777-2.539-.728-2.965.033-.278.196-.424.324-.497.006-.003.013-.005.02-.004.035.004.041.056.01.074a.56.56 0 0 0-.277.436c-.047.405.629 2.62.726 2.932zm-2.497-1.151c-.385.101-.761.497-.629.872l.183.518c.134.382.493.659.892.592l.194-.04c.407-.102.556-.555.43-.954l-.159-.501c-.122-.385-.52-.589-.911-.486zm3.11 1.271c.082-.043.183.021.159.111-.222.844-3.076 1.481-3.396 1.176-.1-.096-.017-.255.12-.272.538-.065 1.729-.285 3.117-1.015z" class="G"/><path d="M163.018 88.756c-.189.058-.284.264-.218.45.048.137.174.233.319.243l.372.025a.75.75 0 0 0 .506-.153l.216-.166a.36.36 0 0 0 .124-.393c-.056-.175-.235-.281-.414-.24l-.905.234z" fill="#ef873a"/><path d="M163.638 89.324c0-.031.024-.056.056-.056s.057.025.057.056-.026.057-.057.057-.056-.026-.056-.057z" class="H"/><path d="M225.364 124.929a.4.4 0 0 1-.4.4H100.721a.4.4 0 0 1-.399-.4.4.4 0 0 1 .399-.399h124.243a.4.4 0 0 1 .4.399zM88.19 121.348l4.64 3.534-4.64 2.707v-6.241z" class="B"/><defs><linearGradient id="A" x1="162.665" y1="18.825" x2="162.665" y2="165.772" gradientUnits="userSpaceOnUse"><stop stop-color="#ffcaaf"/><stop offset="1" stop-color="#fff" stop-opacity="0"/></linearGradient><path id="B" d="M181.725 71.029c0 .19-.155.344-.345.344h-2.063c-.191 0-.345-.154-.345-.344s.154-.345.345-.345h2.063c.19 0 .345.154.345.345z"/><path id="C" d="M181.725 72.091c0 .19-.155.345-.345.345h-2.063c-.191 0-.345-.154-.345-.345s.154-.345.345-.345h2.063c.19 0 .345.154.345.345z"/><path id="D" d="M136.613 72.091c0 .19-.154.345-.345.345h-2.261c-.191 0-.345-.154-.345-.345s.154-.345.345-.345h2.261c.191 0 .345.154.345.345z"/><path id="E" d="M136.613 74.277c0 .19-.154.344-.345.344h-2.261c-.191 0-.345-.154-.345-.344s.154-.345.345-.345h2.261c.191 0 .345.154.345.345z"/><path id="F" d="M142.013 71.482c0 .191-.155.345-.345.345h-2.664c-.19 0-.345-.155-.345-.345s.155-.345.345-.345h2.664c.19 0 .345.155.345.345z"/><path id="G" d="M142.013 76.899c0 .19-.155.345-.345.345h-2.664c-.191 0-.345-.154-.345-.345s.154-.345.345-.345h2.664c.19 0 .345.154.345.345z"/></defs></svg>