<svg width="60" height="60" viewBox="0 0 60 60" fill="none" xmlns="http://www.w3.org/2000/svg">
<circle cx="30" cy="30" r="30" fill="white"/>
<g clip-path="url(#clip0_168:3824)">
<path d="M30.365 16.9498C34.7345 16.9498 35.2527 16.9662 36.9792 17.0453C41.4141 17.2471 43.4856 19.3514 43.6875 23.7535C43.7666 25.4787 43.7816 25.9969 43.7816 30.3664C43.7816 34.7372 43.7652 35.254 43.6875 36.9792C43.4843 41.3773 41.4182 43.4856 36.9792 43.6875C35.2527 43.7666 34.7372 43.7829 30.365 43.7829C25.9955 43.7829 25.4773 43.7666 23.7522 43.6875C19.3064 43.4843 17.2457 41.3705 17.0439 36.9778C16.9648 35.2527 16.9484 34.7358 16.9484 30.365C16.9484 25.9955 16.9662 25.4787 17.0439 23.7522C17.2471 19.3514 19.3132 17.2457 23.7522 17.0439C25.4787 16.9662 25.9955 16.9498 30.365 16.9498ZM30.365 14C25.9205 14 25.3641 14.0191 23.6185 14.0982C17.6753 14.3709 14.3723 17.6685 14.0996 23.6172C14.0191 25.3641 14 25.9205 14 30.365C14 34.8095 14.0191 35.3672 14.0982 37.1128C14.3709 43.0561 17.6685 46.3591 23.6172 46.6318C25.3641 46.7109 25.9205 46.73 30.365 46.73C34.8095 46.73 35.3672 46.7109 37.1128 46.6318C43.0506 46.3591 46.3618 43.0615 46.6304 37.1128C46.7109 35.3672 46.73 34.8095 46.73 30.365C46.73 25.9205 46.7109 25.3641 46.6318 23.6185C46.3645 17.6808 43.0629 14.3723 37.1142 14.0996C35.3672 14.0191 34.8095 14 30.365 14V14ZM30.365 21.9616C25.7242 21.9616 21.9616 25.7242 21.9616 30.365C21.9616 35.0058 25.7242 38.7698 30.365 38.7698C35.0058 38.7698 38.7684 35.0072 38.7684 30.365C38.7684 25.7242 35.0058 21.9616 30.365 21.9616ZM30.365 35.82C27.3525 35.82 24.91 33.3789 24.91 30.365C24.91 27.3525 27.3525 24.91 30.365 24.91C33.3775 24.91 35.82 27.3525 35.82 30.365C35.82 33.3789 33.3775 35.82 30.365 35.82ZM39.1012 19.6664C38.0156 19.6664 37.136 20.546 37.136 21.6302C37.136 22.7144 38.0156 23.594 39.1012 23.594C40.1854 23.594 41.0636 22.7144 41.0636 21.6302C41.0636 20.546 40.1854 19.6664 39.1012 19.6664Z" fill="#561991"/>
</g>
<defs>
<clipPath id="clip0_168:3824">
<rect width="32.73" height="32.73" fill="white" transform="translate(14 14)"/>
</clipPath>
</defs>
</svg>
