<svg width="60" height="60" viewBox="0 0 60 60" fill="none" xmlns="http://www.w3.org/2000/svg">
<circle cx="30" cy="30" r="30" fill="#6A00D1"/>
<g clip-path="url(#clip0_200:64)">
<path d="M30.365 18.0913C33.2712 18.0913 35.82 20.4506 35.82 23.1399C35.82 25.9356 33.4825 29.8782 30.365 34.8149C27.2475 29.8782 24.91 25.9356 24.91 23.1399C24.91 20.4506 27.4588 18.0913 30.365 18.0913ZM30.365 15.3638C26.0719 15.3638 22.1825 18.8454 22.1825 23.1399C22.1825 27.433 25.731 32.5593 30.365 39.9113C34.999 32.5593 38.5475 27.433 38.5475 23.1399C38.5475 18.8454 34.6594 15.3638 30.365 15.3638ZM30.365 26.2738C28.8581 26.2738 27.6375 25.0532 27.6375 23.5463C27.6375 22.0393 28.8581 20.8188 30.365 20.8188C31.8719 20.8188 33.0925 22.0393 33.0925 23.5463C33.0925 25.0532 31.8719 26.2738 30.365 26.2738ZM41.275 34.4563H36.9996C36.4746 35.3304 35.9114 36.2414 35.3195 37.1838H39.5894L40.2713 38.5475H34.4562L33.9871 39.2894L33.593 39.9113H34.354L35.5241 42.6388H25.3123L26.4824 39.9113H27.1356L26.7415 39.2894L26.2737 38.5475H23.489L22.1102 37.1838H25.4105C24.8173 36.2414 24.254 35.3304 23.7304 34.4563H19.455L14 45.3663H46.73L41.275 34.4563V34.4563ZM23.8272 42.6388H18.4131L20.8187 37.8275L22.8862 39.9113H24.9986L23.8272 42.6388ZM35.8391 39.9113H40.9532L42.3169 42.6388H37.0092L35.8391 39.9113Z" fill="white"/>
</g>
<defs>
<clipPath id="clip0_200:64">
<rect width="32.73" height="32.73" fill="white" transform="translate(14 14)"/>
</clipPath>
</defs>
</svg>
