<svg xmlns="http://www.w3.org/2000/svg" xmlns:xlink="http://www.w3.org/1999/xlink" width="222" height="163" fill="none" xmlns:v="https://vecta.io/nano"><path d="M35.664 54.124C11.484 57.577 9.17 77.143 11.036 86.494c0 51.1 52.987 71.644 79.481 75.528 31.095-3.74 98.586-14.674 119.781-28.485s8.831-47.187 0-62.149c-17.414-24.457-57.167-66.465-76.869-38.843-24.628 34.527-67.54 17.264-97.765 21.58z" fill="url(#A)"/><path d="M111.532 117.509L90.58 95.803l58.923-56.874 20.952 21.706-58.923 56.874z" fill="url(#B)"/><path d="M155.055 69.667l-15.803-16.372 9.913-9.569 15.803 16.373-9.913 9.568z" fill="url(#C)"/><path d="M143.452 80.866l-15.803-16.372 9.913-9.568 15.804 16.372-9.914 9.568z" fill="url(#D)"/><path d="M131.85 92.064l-15.803-16.372 9.913-9.568 15.803 16.372-9.913 9.568z" fill="url(#E)"/><path d="M120.248 103.263l-15.803-16.372 9.913-9.568 15.804 16.372-9.914 9.569z" fill="url(#F)"/><path style="mix-blend-mode:multiply" opacity=".091" d="M170.454 60.635l-11.137-11.539c-.714 3.209-2.056 6.561-4.493 9.514-4.639 5.62-9.962 5.818-18.011 10.78-8.4 5.18-10.742 9.983-17.194 16.833-4.707 4.998-11.643 11.128-21.915 16.961l13.827 14.325 58.923-56.874z" fill="url(#G)"/><path d="M101.285 116.764l-7.88-29.121 79.051-21.39 7.88 29.121-79.051 21.39z" fill="url(#H)"/><path d="M162.489 95.856l-5.943-21.965 13.3-3.599 5.943 21.965-13.3 3.599z" fill="url(#I)"/><path d="M146.924 100.067l-5.944-21.965 13.3-3.599 5.943 21.965-13.299 3.598z" fill="url(#J)"/><path d="M131.359 104.279l-5.944-21.965 13.3-3.599 5.943 21.965-13.299 3.598z" fill="url(#K)"/><path d="M115.793 108.49l-5.943-21.964 13.299-3.599 5.943 21.965-13.299 3.598z" fill="url(#L)"/><path style="mix-blend-mode:multiply" opacity=".091" d="M180.336 95.374l-5.189-19.18c-3.29 4.225-6.598 6.128-9.246 7.069-7.441 2.644-11.887-1.518-21.653.248-9.158 1.656-12.967 6.712-19.149 10.445-5.882 3.552-14.782 6.432-28.674 4.843l4.86 17.964 79.051-21.39z" fill="url(#M)"/><path d="M94.657 113.316l7.147-29.31 79.563 19.403-7.148 29.309-79.562-19.402z" fill="url(#N)"/><path d="M158.355 124.53l5.391-22.107 13.386 3.264-5.391 22.107-13.386-3.264z" fill="url(#O)"/><path d="M142.688 120.71l5.392-22.107 13.386 3.264-5.392 22.107-13.386-3.264z" fill="url(#P)"/><path d="M127.022 116.889l5.391-22.107 13.386 3.264-5.391 22.107-13.386-3.264z" fill="url(#Q)"/><path d="M111.356 113.069l5.391-22.108 13.386 3.265-5.391 22.107-13.386-3.264z" fill="url(#R)"/><path style="mix-blend-mode:multiply" opacity=".091" d="M174.219 132.718l4.588-18.81c-6.412 3.68-11.248 3.948-14.588 3.441-7.807-1.184-9.759-6.953-19.202-10.01-8.854-2.866-14.599-.209-21.811.161-6.395.328-14.824-1.098-25.244-7.737l-3.305 13.553 79.562 19.402z" fill="url(#S)"/><path d="M106.551 102.456a3.21 3.21 0 0 1-4.536-.081 3.21 3.21 0 0 1 .08-4.536 3.21 3.21 0 0 1 4.537.081 3.21 3.21 0 0 1-.081 4.537z" fill="url(#T)"/><g fill="#26264f"><path d="M186.35 139.094l-139.077-1.186v3.508c0 .952.606 1.761 1.428 1.906l39.327 6.907c.467.082.94.103 1.411.064l95.399-7.875c.852-.07 1.511-.882 1.511-1.86v-1.464z"/><path d="M135.88 133.472l-87.168 6.418c-1.56.114-2.828-1.106-2.828-2.726V72.252c0-1.62 1.268-2.934 2.828-2.934h87.168c1.285 0 2.324 1.187 2.324 2.652v58.679c0 1.464-1.039 2.728-2.324 2.822z"/></g><path d="M137.27 133.472l-87.169 6.417c-1.56.115-2.828-1.105-2.828-2.725V72.252c0-1.62 1.268-2.934 2.828-2.934h87.169c1.285 0 2.324 1.187 2.324 2.652v58.68c0 1.464-1.039 2.728-2.324 2.822z" fill="url(#U)"/><path d="M134.555 129.335l-81.188 5.574c-1.269.087-2.301-.914-2.301-2.237v-56.83c0-1.323 1.032-2.399 2.301-2.405l81.189-.35c1.06-.004 1.917.968 1.917 2.173v51.762c0 1.205-.857 2.241-1.917 2.313z" fill="url(#V)"/><g fill="#fff"><path d="M96.764 71.094c0 .603-.448 1.094-1.003 1.095s-1.005-.487-1.005-1.092.45-1.095 1.005-1.096 1.003.489 1.003 1.092z"/><path d="M50.101 139.889l86.728-6.384.441-.033c.589-.043 1.126-.335 1.535-.777-6.241-.341-10.117-2.556-12.618-4.844-5.021-4.596-4.15-9.128-9.566-12.15-6.754-3.769-12.065 1.007-17.19-3.705-3.107-2.857-1.582-4.987-5.405-9.256-4.235-4.728-6.992-3.139-11.248-7.394-5.381-5.38-2.69-9.567-7.325-13.43-5.624-4.687-11.688-.349-17.041-4.843-2.309-1.939-3.575-4.757-4.237-7.754h-4.073c-1.56 0-2.828 1.314-2.828 2.934v64.912c0 1.62 1.268 2.84 2.828 2.725z" style="mix-blend-mode:soft-light" opacity=".478"/></g><path d="M140.744 133.117l-93.471 6.754 40.755 7.158a5.47 5.47 0 0 0 1.411.064l96.91-7.999-44.119-5.931a7.18 7.18 0 0 0-1.487-.046z" fill="url(#W)"/><path d="M60.912 139.929l77.817-5.707 24.084 3.212-77.147 6.1-24.754-3.605z" fill="#26264f"/><path d="M148.093 116.027c0 7.182-5.858 13.376-13.186 13.841l-81.626 5.182c8.631-.547 15.523-7.298 15.523-15.086V30.381l79.288 3.033v82.613z" fill="url(#X)"/><path d="M110.487 53.586c0 8.113-6.888 14.682-15.52 14.672-8.784-.01-16.021-6.807-16.021-15.182s7.236-14.937 16.021-14.664c8.632.269 15.52 7.061 15.52 15.173z" fill="url(#Y)"/><path d="M142.964 53.219l-28.513-.488v-4.957l28.513.632v4.812zm0 3.973l-28.513-.367v-2.478l28.513.44v2.406zm0 3.972l-28.513-.247v-2.478l28.513.32v2.406zm-.002 21.297l-61.342.85V80.85l61.342-.7v2.311z" fill="#d8dee8"/><path d="M76.616 83.381l2.778-.038v-2.467l-2.778.032v2.474z" fill="url(#Z)"/><path d="M142.962 86.278L81.62 87.376v-2.462l61.342-.948v2.311z" fill="#d8dee8"/><path d="M76.616 87.465l2.778-.05v-2.467l-2.778.043v2.474z" fill="url(#a)"/><path d="M142.963 90.094L81.621 91.44v-2.462l61.342-1.196v2.311z" fill="#d8dee8"/><path d="M76.616 91.55l2.778-.061v-2.467l-2.778.054v2.474z" fill="url(#b)"/><path d="M142.962 93.911L81.62 95.504v-2.462l61.342-1.443v2.311z" fill="#d8dee8"/><path d="M76.616 95.634l2.778-.072v-2.467l-2.778.065v2.474z" fill="url(#c)"/><path d="M142.964 101.544l-66.347 2.259v-2.473l66.347-2.097v2.311zm0 3.817l-66.347 2.527v-2.474l66.347-2.365v2.312zm0 3.816l-66.347 2.796v-2.474l66.347-2.633v2.311zm0 3.817l-66.347 3.063v-2.473l66.347-2.902v2.312z" fill="#d8dee8"/><path fill-rule="evenodd" d="M99.838 62.042l-1.413-4.62-7.172-.035-1.439 4.654H85.25l7.031-19.612 5.1.104 6.884 19.508h-4.427zm-2.403-8.079l-2.22-7.144-.357-1.311-2.55 8.413 5.127.043z" fill="#fff"/><path d="M32.989 25.05c0 8.439-1.362 14.707-4.086 18.804C26.201 47.951 22.059 50 16.478 50c-5.404 0-9.501-2.115-12.292-6.346S0 33.223 0 25.05c0-8.571 1.351-14.884 4.053-18.937C6.777 2.038 10.919 0 16.478 0c5.426 0 9.535 2.126 12.325 6.379s4.186 10.476 4.186 18.671zm-25.082 0c0 6.622.676 11.351 2.027 14.186 1.373 2.835 3.555 4.252 6.545 4.252s5.172-1.44 6.545-4.319c1.395-2.879 2.093-7.586 2.093-14.12 0-6.512-.698-11.218-2.093-14.12-1.373-2.924-3.555-4.385-6.545-4.385s-5.171 1.429-6.545 4.286c-1.351 2.857-2.027 7.597-2.027 14.219zM62 49.336h-7.807V17.973l.266-8.904a26.16 26.16 0 0 1-1.894 1.761l-7.442 6.113-3.92-4.95L55.489.764H62v48.571z" fill="#febb9a"/><defs><linearGradient id="A" x1="116.267" y1="23.475" x2="116.267" y2="162.022" xlink:href="#d"><stop stop-color="#feb997"/><stop offset="1" stop-color="#fff" stop-opacity="0"/></linearGradient><linearGradient id="B" x1="170.311" y1="67.292" x2="169.25" y2="96.414" xlink:href="#d"><stop offset=".004" stop-color="#fff"/><stop offset="1" stop-color="#f4f7fa"/></linearGradient><linearGradient id="C" x1="171.337" y1="51.095" x2="132.595" y2="106.92" xlink:href="#d"><stop stop-color="#ffc444"/><stop offset=".996" stop-color="#f36f56"/></linearGradient><linearGradient id="D" x1="171.908" y1="44.753" x2="133.165" y2="100.578" xlink:href="#d"><stop stop-color="#ffc444"/><stop offset=".996" stop-color="#f36f56"/></linearGradient><linearGradient id="E" x1="169.395" y1="42.854" x2="130.652" y2="98.679" xlink:href="#d"><stop stop-color="#ffc444"/><stop offset=".996" stop-color="#f36f56"/></linearGradient><linearGradient id="F" x1="164.191" y1="44.833" x2="125.449" y2="100.658" xlink:href="#d"><stop stop-color="#ffc444"/><stop offset=".996" stop-color="#f36f56"/></linearGradient><linearGradient id="G" x1="179.576" y1="73.536" x2="138.528" y2="100.134" xlink:href="#d"><stop stop-color="#ffc444"/><stop offset=".996" stop-color="#f36f56"/></linearGradient><linearGradient id="H" x1="181.673" y1="94.824" x2="138.508" y2="116.141" xlink:href="#d"><stop offset=".004" stop-color="#fff"/><stop offset="1" stop-color="#f4f7fa"/></linearGradient><linearGradient id="I" x1="182.788" y1="88.999" x2="131.361" y2="113.741" xlink:href="#d"><stop offset=".004" stop-color="#e38ddd"/><stop offset="1" stop-color="#9571f6"/></linearGradient><linearGradient id="J" x1="181.507" y1="86.338" x2="130.081" y2="111.08" xlink:href="#d"><stop offset=".004" stop-color="#e38ddd"/><stop offset="1" stop-color="#9571f6"/></linearGradient><linearGradient id="K" x1="180.228" y1="83.677" x2="128.801" y2="108.419" xlink:href="#d"><stop offset=".004" stop-color="#e38ddd"/><stop offset="1" stop-color="#9571f6"/></linearGradient><linearGradient id="L" x1="188.37" y1="76.482" x2="136.944" y2="101.224" xlink:href="#d"><stop offset=".004" stop-color="#e38ddd"/><stop offset="1" stop-color="#9571f6"/></linearGradient><linearGradient id="M" x1="181.673" y1="94.824" x2="138.509" y2="116.141" xlink:href="#d"><stop offset=".004" stop-color="#e38ddd"/><stop offset="1" stop-color="#9571f6"/></linearGradient><linearGradient id="N" x1="181.629" y1="112.268" x2="172.302" y2="138.381" xlink:href="#d"><stop offset=".004" stop-color="#fff"/><stop offset="1" stop-color="#f4f7fa"/></linearGradient><linearGradient id="O" x1="169.322" y1="127.76" x2="112.339" y2="124.622" xlink:href="#d"><stop stop-color="#ff9085"/><stop offset="1" stop-color="#fb6fbb"/></linearGradient><linearGradient id="P" x1="172.975" y1="125.004" x2="115.992" y2="121.866" xlink:href="#d"><stop stop-color="#ff9085"/><stop offset="1" stop-color="#fb6fbb"/></linearGradient><linearGradient id="Q" x1="175.178" y1="122.167" x2="118.196" y2="119.029" xlink:href="#d"><stop stop-color="#ff9085"/><stop offset="1" stop-color="#fb6fbb"/></linearGradient><linearGradient id="R" x1="178.8" y1="119.409" x2="121.817" y2="116.271" xlink:href="#d"><stop stop-color="#ff9085"/><stop offset="1" stop-color="#fb6fbb"/></linearGradient><linearGradient id="S" x1="190.195" y1="126.087" x2="153.11" y2="141.73" xlink:href="#d"><stop stop-color="#ff9085"/><stop offset="1" stop-color="#fb6fbb"/></linearGradient><linearGradient id="T" x1="104.461" y1="95.972" x2="108.5" y2="100.158" xlink:href="#d"><stop offset=".004" stop-color="#e38ddd"/><stop offset="1" stop-color="#9571f6"/></linearGradient><linearGradient id="U" x1="47.274" y1="69.22" x2="139.594" y2="69.22" xlink:href="#d"><stop stop-color="#444b8c"/><stop offset=".996" stop-color="#26264f"/></linearGradient><linearGradient id="V" x1="51.066" y1="72.988" x2="136.472" y2="72.988" xlink:href="#d"><stop stop-color="#aa80f9"/><stop offset=".996" stop-color="#6165d7"/></linearGradient><linearGradient id="W" x1="47.274" y1="132.999" x2="186.351" y2="132.999" xlink:href="#d"><stop stop-color="#444b8c"/><stop offset=".996" stop-color="#26264f"/></linearGradient><linearGradient id="X" x1="173.357" y1="71.189" x2="121.416" y2="178.604" xlink:href="#d"><stop stop-color="#fff"/><stop offset=".996" stop-color="#ebeff2"/></linearGradient><linearGradient id="Y" x1="118.728" y1="39.789" x2="96.671" y2="99.132" xlink:href="#d"><stop stop-color="#ff9085"/><stop offset="1" stop-color="#fb6fbb"/></linearGradient><linearGradient id="Z" x1="78.927" y1="79.324" x2="83.912" y2="92.829" xlink:href="#d"><stop stop-color="#ff9085"/><stop offset="1" stop-color="#fb6fbb"/></linearGradient><linearGradient id="a" x1="77.597" y1="79.794" x2="82.566" y2="93.255" xlink:href="#d"><stop stop-color="#ff9085"/><stop offset="1" stop-color="#fb6fbb"/></linearGradient><linearGradient id="b" x1="78.936" y1="87.495" x2="83.889" y2="100.912" xlink:href="#d"><stop stop-color="#ff9085"/><stop offset="1" stop-color="#fb6fbb"/></linearGradient><linearGradient id="c" x1="77.614" y1="87.987" x2="82.551" y2="101.361" xlink:href="#d"><stop stop-color="#ff9085"/><stop offset="1" stop-color="#fb6fbb"/></linearGradient><linearGradient id="d" gradientUnits="userSpaceOnUse"/></defs></svg>