<svg width="30" height="30" viewBox="0 0 30 30" fill="none" xmlns="http://www.w3.org/2000/svg">
<path d="M15 0H0V15L16.1719 16.1719L15 0Z" fill="#FF7C48"/>
<path d="M30 15V0H15V16.1719L30 15Z" fill="#FFB655"/>
<path d="M0 15V30H15L16.1719 22.5L15 15H0Z" fill="#FFB655"/>
<path d="M15 15H30V30H15V15Z" fill="#FF7C48"/>
<path d="M17.8009 21.6211H27.1992V23.3789H17.8009V21.6211Z" fill="#E1EBF0"/>
<path d="M17.8009 6.62115H27.1992V8.37897H17.8009V6.62115Z" fill="#E1EBF0"/>
<path d="M21.5664 17.832H23.4336V19.6992H21.5664V17.832Z" fill="#E1EBF0"/>
<path d="M21.5664 25.3008H23.4336V27.1681H21.5664V25.3008Z" fill="#E1EBF0"/>
<path d="M12.1992 6.62115H8.37891V2.8009H6.6211V6.62115H2.8009V8.37896H6.6211V12.1992H8.37891V8.37896H12.1992V6.62115Z" fill="#FFF5F5"/>
<path d="M11.4443 19.7986L10.2014 18.5558L7.50002 21.257L4.79874 18.5558L3.55579 19.7986L6.25708 22.5L3.55579 25.2013L4.79874 26.4442L7.50002 23.7429L10.2014 26.4442L11.4443 25.2013L8.74297 22.5L11.4443 19.7986Z" fill="#FFF5F5"/>
</svg>
