<svg width="30" height="30" viewBox="0 0 30 30" fill="none" xmlns="http://www.w3.org/2000/svg">
<path d="M24.1158 15C24.1158 20.0347 20.0347 24.1158 15 24.1158L14.2757 26.9276L15 30C23.2845 30 30 23.2845 30 15L26.929 14.2757L24.1158 15Z" fill="#FB3A82"/>
<path d="M15 0C6.71549 0 0 6.71549 0 15L2.74541 15.3622L5.88416 15C5.88416 9.96527 9.96527 5.88416 15 5.88416L15.3622 2.86008L15 0Z" fill="#27D1B3"/>
<path d="M0 15C0 23.2845 6.71549 30 15 30V24.1158C9.96527 24.1158 5.88416 20.0347 5.88416 15H0Z" fill="#31A7FB"/>
<path d="M30 15C30 6.71549 23.2845 0 15 0V5.88416C20.0347 5.88416 24.1158 9.96527 24.1158 15H30Z" fill="#FC9744"/>
<path d="M30 15H27.5632C27.5632 7.54465 22.1258 1.36055 15 0.196758V0C23.2847 0 30 6.71531 30 15Z" fill="#FB8627"/>
<path d="M26.8823 7.48314C27.6018 8.33967 27.5589 9.62299 26.7537 10.4282C26.3415 10.8399 25.7934 11.0669 25.2109 11.0669C24.8264 11.0669 24.457 10.9678 24.1322 10.782L23.4182 11.4961C22.9516 10.3763 22.2683 9.36951 21.4202 8.52863L25.5955 4.38177C26.3319 5.11701 26.9922 5.92765 27.5633 6.80228L26.8823 7.48314Z" fill="#FB8627"/>
<path d="M30 15C30 23.2847 23.2847 30 15 30V29.8032C22.1258 28.6395 27.5632 22.4554 27.5632 15H30Z" fill="#FB1466"/>
<path d="M21.2675 5.51931L13.477 13.3098C13.0171 13.7697 13.0171 14.5153 13.477 14.9752L12.2418 16.2104C11.823 16.6291 11.7919 17.3115 12.1956 17.7449C12.6193 18.1999 13.332 18.2094 13.7679 17.7735L15.0216 16.5198C15.4815 16.9797 16.2271 16.9797 16.687 16.5198L24.4775 8.72931L21.2675 5.51931Z" fill="#CBE5E7"/>
<path d="M23.0672 10.1397L24.4775 8.72931L21.2675 5.51931L19.8572 6.92966C20.9272 7.99964 21.9971 9.06968 23.0672 10.1397Z" fill="#A9D3D8"/>
<path d="M24.4775 8.72958L16.6871 16.5199C16.4572 16.7499 16.1559 16.8652 15.8548 16.8652C15.553 16.8652 15.2517 16.7499 15.0218 16.5199L13.7681 17.7737C13.3322 18.2095 12.6194 18.1998 12.1956 17.7446C12.0085 17.5443 11.915 17.2901 11.9101 17.0342C12.1986 17.0415 12.489 16.9352 12.7093 16.7149L13.721 15.7032C13.8469 15.5774 14.0423 15.551 14.1953 15.6419C14.3798 15.7516 14.5877 15.8065 14.796 15.8065C15.0973 15.8065 15.3984 15.6912 15.6284 15.4612L23.4187 7.67085L24.4775 8.72958Z" fill="#A9D3D8"/>
<path d="M25.8998 8.19621C25.5029 7.7993 25.5029 7.1557 25.8998 6.75879L27.5306 5.12795C28.2656 4.39295 28.2656 3.20121 27.5306 2.46615C26.7956 1.73115 25.6039 1.73115 24.8689 2.46615L23.2381 4.09699C22.8411 4.49391 22.1975 4.49391 21.8006 4.09699C21.4201 3.71643 20.803 3.71643 20.4224 4.09699C20.0419 4.47756 20.0419 5.09461 20.4224 5.47518L24.5217 9.57439C24.9022 9.95496 25.5193 9.95496 25.8999 9.57439C26.2804 9.19383 26.2804 8.57678 25.8998 8.19621Z" fill="#3F5959"/>
<path d="M25.8996 6.75874C25.503 7.15595 25.503 7.79937 25.8996 8.19599C26.0897 8.38671 26.1851 8.63603 26.1851 8.88534C26.1851 9.13466 26.0897 9.38392 25.8996 9.5747C25.5193 9.95497 24.9024 9.95497 24.5215 9.5747L23.2932 8.34634C23.674 8.72661 24.291 8.72661 24.6712 8.34634C24.862 8.1562 24.9568 7.9063 24.9568 7.65698C24.9568 7.40767 24.862 7.15776 24.6712 6.96763C24.2747 6.57107 24.2747 5.92759 24.6712 5.53038L26.3023 3.89937C26.816 3.38626 26.9705 2.64985 26.7664 2.00216C27.0459 2.0897 27.3091 2.2448 27.5306 2.46634C28.2659 3.20093 28.2659 4.39308 27.5306 5.12773L25.8996 6.75874Z" fill="#384848"/>
</svg>
