<svg width="24" height="24" viewBox="0 0 24 24" fill="none" xmlns="http://www.w3.org/2000/svg">
<path d="M17 3H3.5C2.4531 3 2.00001 3.9531 2.00001 5L2 22C2 23.0469 2.4531 23.7118 3.5 23.7118H17C18.0469 23.7118 18.5 22.9267 18.5 21.8798V5C18.4951 3.9531 18.042 3 17 3ZM16.5107 21.3097C16.5107 21.6242 16.2551 21.8798 15.9405 21.8798H4.78347C4.46891 21.8798 4.21332 21.6242 4.21332 21.3097V5.3064C4.21332 4.99184 4.46891 4.73626 4.78347 4.73626H15.9405C16.2551 4.73626 16.5107 4.99184 16.5107 5.3064V21.3097Z" fill="#E2D783"/>
<path d="M19.7117 0H8.5546C7.50771 0 6.65741 0.850297 6.65741 1.89719C6.65741 2.26582 6.95231 2.56072 7.32094 2.56072C7.68956 2.56072 7.98446 2.26582 7.98446 1.89719C7.98446 1.58263 8.24004 1.32705 8.5546 1.32705H19.7117C20.0262 1.32705 20.2818 1.58263 20.2818 1.89719V17.9054C20.2818 18.2199 20.0262 18.4755 19.7117 18.4755C19.3431 18.4755 19.0482 18.7704 19.0482 19.1391C19.0482 19.5077 19.3431 19.8026 19.7117 19.8026C20.7586 19.8026 22 18.9523 22 17.9054V1.89719C22 0.850297 20.7586 0 19.7117 0Z" fill="#E2D783"/>
</svg>
