<svg width="30" height="30" viewBox="0 0 30 30" fill="none" xmlns="http://www.w3.org/2000/svg">
<g clip-path="url(#clip0)">
<path d="M24.0375 6.88123H20.9437V12.2812H24.0375V6.88123Z" fill="#F05540"/>
<path d="M25.2188 4.125H19.7625V7.05002H25.2188V4.125Z" fill="#F3705A"/>
<path d="M3.11252 17.5688V30.0001H25.1625V17.5688C20.8313 13.2376 18.4125 10.8188 14.1375 6.54382C9.86252 10.8751 7.44375 13.2938 3.11252 17.5688Z" fill="#FFD15C"/>
<path d="M25.2188 17.5688C20.8875 13.2376 18.4688 10.8188 14.1937 6.54382C12 8.68131 10.3125 10.3688 8.625 12.0563C6.9375 13.7438 5.25 15.4313 3.11252 17.5688V20.1C7.44375 15.7688 9.86252 13.35 14.1375 9.07502C18.4688 13.4063 20.8875 15.825 25.1626 20.1V20.4375V17.5688H25.2188V17.5688Z" fill="#F7B64C"/>
<path d="M12.1688 30.0001H5.53128V23.4751C5.53128 21.6189 7.05003 20.1564 8.85002 20.1564C10.7063 20.1564 12.1688 21.6751 12.1688 23.4751V30.0001Z" fill="#415A6B"/>
<path d="M22.8 20.1562H14.1375V27.75H22.8V20.1562Z" fill="#344A5E"/>
<path d="M18.0187 21.0563H15.0375V26.85H18.0187V21.0563Z" fill="#8AD7F8"/>
<path d="M21.9 21.0563H18.9187V26.85H21.9V21.0563Z" fill="#8AD7F8"/>
<path d="M27.2437 15.2625L15.4875 3.50625C14.8125 2.83125 13.6313 2.83125 12.9563 3.50625L1.25625 15.2625C0.58125 15.9375 0.58125 17.1187 1.25625 17.7937C1.93125 18.4687 3.1125 18.4687 3.7875 17.7937L14.25 7.33123L24.7125 17.7937C25.3875 18.4687 26.5687 18.4687 27.2437 17.7937C27.9187 17.0625 27.9187 15.9375 27.2437 15.2625Z" fill="#F3705A"/>
</g>
<defs>
<clipPath id="clip0">
<rect width="27" height="27" fill="white" transform="translate(0.75 3)"/>
</clipPath>
</defs>
</svg>
