<svg width="30" height="31" viewBox="0 0 30 31" fill="none" xmlns="http://www.w3.org/2000/svg">
<path d="M1.95689 2.56407C-0.393836 5.00531 0.0872779 7.59857 0.0872779 15.4768C0.0872779 22.0192 -1.05443 28.5777 4.92085 30.1217C6.78672 30.6015 23.3191 30.6015 25.1825 30.1193C27.6703 29.4775 29.6945 27.4599 29.9712 23.942C30.0098 23.451 30.0098 7.51134 29.9699 7.01039C29.6758 3.26317 27.3687 1.10357 24.3287 0.666164C23.6319 0.565224 23.4923 0.535316 19.9176 0.529086C7.23792 0.535316 4.45843 -0.029196 1.95689 2.56407V2.56407Z" fill="url(#paint0_linear)"/>
<path d="M15.0419 4.44053C10.5162 4.44053 6.2186 4.03802 4.57708 8.25004C3.89903 9.98968 3.9975 12.249 3.9975 15.484C3.9975 18.3228 3.90651 20.9908 4.57708 22.7167C6.21486 26.9312 10.5474 26.5275 15.0394 26.5275C19.3732 26.5275 23.8416 26.9786 25.503 22.7167C26.1823 20.9596 26.0826 18.734 26.0826 15.484C26.0826 11.1698 26.3207 8.38463 24.228 6.29357C22.1091 4.1751 19.2436 4.44053 15.0369 4.44053H15.0419ZM14.0523 6.43065C23.4926 6.41569 24.6941 5.36643 24.031 19.9428C23.7955 25.0981 19.8693 24.5324 15.0432 24.5324C6.24352 24.5324 5.9905 24.2806 5.9905 15.479C5.9905 6.5752 6.68849 6.43563 14.0523 6.42815V6.43065ZM20.9374 8.26375C20.2058 8.26375 19.6125 8.85692 19.6125 9.58842C19.6125 10.3199 20.2058 10.9131 20.9374 10.9131C21.6691 10.9131 22.2624 10.3199 22.2624 9.58842C22.2624 8.85692 21.6691 8.26375 20.9374 8.26375V8.26375ZM15.0419 9.81272C11.9097 9.81272 9.37076 12.3524 9.37076 15.484C9.37076 18.6156 11.9097 21.154 15.0419 21.154C18.1742 21.154 20.7118 18.6156 20.7118 15.484C20.7118 12.3524 18.1742 9.81272 15.0419 9.81272V9.81272ZM15.0419 11.8028C19.9092 11.8028 19.9154 19.1652 15.0419 19.1652C10.1759 19.1652 10.1685 11.8028 15.0419 11.8028Z" fill="#110F2F"/>
<defs>
<linearGradient id="paint0_linear" x1="2.01425" y1="28.5268" x2="29.8113" y2="4.46402" gradientUnits="userSpaceOnUse">
<stop stop-color="#00E2D6"/>
<stop offset="1" stop-color="#055DC0"/>
</linearGradient>
</defs>
</svg>
