<svg width="30" height="30" viewBox="0 0 30 30" fill="none" xmlns="http://www.w3.org/2000/svg">
<g clip-path="url(#clip0)">
<path fill-rule="evenodd" clip-rule="evenodd" d="M29.4886 14.4635C29.4886 20.4044 22.9883 25.2206 14.9698 25.2206C6.9514 25.2206 0.451111 20.4044 0.451111 14.4635C0.451111 8.52236 6.9514 3.70613 14.9698 3.70613C22.9883 3.70613 29.4886 8.52236 29.4886 14.4635Z" fill="#D33833"/>
<path d="M1.04276 17.1276C1.04276 17.1276 -0.0082933 5.90972 14.2617 5.58916L13.2662 4.38724L5.52286 6.27029L3.31042 8.1132L1.37462 10.7976L0.268341 13.9226L0.600199 16.0059" fill="#EF3D3A"/>
<path d="M5.02571 7.12509C2.47837 9.01307 0.902046 11.6198 0.902046 14.5036C0.902046 17.3868 2.47837 19.9938 5.02571 21.8814C7.57429 23.7691 11.0866 24.9339 14.9696 24.9339C18.8527 24.9339 22.3653 23.7691 24.9136 21.8814C27.4608 19.9938 29.0374 17.3868 29.0374 14.5036C29.0374 11.6198 27.4608 9.01307 24.9136 7.12509C22.3653 5.23783 18.8527 4.07305 14.9696 4.07281C11.0866 4.07305 7.57429 5.23783 5.02571 7.12509ZM4.38091 22.3381C1.67368 20.3326 0 17.5609 0 14.5036C0 11.4458 1.67368 8.67437 4.38091 6.66872C7.08752 4.66271 10.8341 3.41932 14.9696 3.41968C19.1051 3.41932 22.8521 4.66271 25.5582 6.66872C28.2657 8.67437 29.9396 11.446 29.9393 14.5036C29.9396 17.5609 28.2657 20.3326 25.5582 22.3381C22.8521 24.344 19.1051 25.5872 14.9696 25.5872C10.8341 25.5872 7.08752 24.344 4.38091 22.3381Z" fill="#231F20"/>
<path fill-rule="evenodd" clip-rule="evenodd" d="M21.0815 14.5231L18.869 14.7635L15.8822 15.0039L13.9463 15.0439L12.0658 15.0039L10.6277 14.6833L9.35555 13.6817L8.35997 11.6385L8.13875 11.1977L6.81132 10.8773L6.03696 9.95578L5.48389 8.63367L6.09238 7.47177L7.53033 7.11119L8.69183 7.51191L9.24504 8.39328L9.90875 8.31312L10.1299 8.11288L9.90875 7.19136L9.85333 6.02946L10.1852 4.42694L10.1722 3.51155L11.1808 2.34365L12.9507 1.42213L16.0481 0.460591L19.4773 0.821168L22.464 2.38367L23.8468 3.98619L24.7317 5.14809L24.9529 8.03271L24.2892 10.5167L23.0724 12.7202L21.9109 13.8821" fill="#F0D6B7"/>
<path fill-rule="evenodd" clip-rule="evenodd" d="M19.2008 21.454L11.2914 21.6944V22.656L11.9551 26.0214L11.6233 26.3019L6.09239 24.9396L5.70511 24.4589L5.15204 19.9317L3.88009 17.2073L3.60345 16.5663L8.02812 14.3628L9.41098 13.9621L10.6277 15.0438L11.6786 15.725L12.8955 16.0054L13.4485 16.1256L14.1122 18.2089L14.61 18.6496L15.8822 18.329L14.9972 19.5711L19.8091 21.2137L19.2008 21.454Z" fill="#335061"/>
<path fill-rule="evenodd" clip-rule="evenodd" d="M6.09238 7.47174L7.53033 7.11116L8.69183 7.51188L9.24504 8.39325L9.90875 8.31308L10.0747 7.83231L9.74283 6.91092L10.0747 4.70731L9.79805 3.50539L10.7936 2.66404L12.9507 1.4221L12.3423 0.821135L9.30026 1.90286L8.02811 2.62402L7.30911 3.74577L6.20289 4.82751L5.87103 6.1096L6.09238 7.47174Z" fill="#6D6B6D"/>
<path fill-rule="evenodd" clip-rule="evenodd" d="M8.35996 3.70572C8.35996 3.70572 9.18961 2.22339 12.5082 1.50223C15.8268 0.781081 12.6741 0.981322 12.6741 0.981322L9.0791 1.983L7.69625 2.98457L7.08795 3.78589L8.35996 3.70572Z" fill="#DCD9D8"/>
<path fill-rule="evenodd" clip-rule="evenodd" d="M6.70068 7.19133C6.70068 7.19133 5.53917 4.38676 9.96397 3.98616L9.79805 3.50539L6.7561 4.02631L5.87103 6.1096L6.09238 7.47174L6.70068 7.19133Z" fill="#DCD9D8"/>
<path fill-rule="evenodd" clip-rule="evenodd" d="M8.47061 10.9173L9.19481 10.409C9.19481 10.409 9.52167 10.4365 9.57689 10.7169C9.63212 10.9975 9.79804 13.5215 12.1763 14.8838C12.3933 15.0081 10.4065 14.6833 10.4065 14.6833L8.63654 12.6802" fill="#F7E4CD"/>
<path fill-rule="evenodd" clip-rule="evenodd" d="M18.6479 10.1561C18.6479 10.1561 18.7769 8.94164 19.2284 9.03503C19.6799 9.12842 19.6799 9.45547 19.6799 9.45547C19.6799 9.45547 18.5834 9.96929 18.6479 10.1561Z" fill="#F7E4CD"/>
<path d="M23.2384 5.70899C23.2384 5.70899 22.3268 5.84841 22.2428 6.43014C22.1588 7.012 23.2384 6.55034 23.4043 6.51031" fill="#F7E4CD"/>
<path d="M16.5459 5.74909C16.5459 5.74909 15.329 5.86928 15.329 6.4301C15.329 6.99104 16.7119 6.95101 17.099 6.71063" fill="#F7E4CD"/>
<path fill-rule="evenodd" clip-rule="evenodd" d="M9.02371 8.35317C9.02371 8.35317 6.92185 7.43166 6.7007 8.31315C6.47948 9.19452 5.98156 9.83562 7.03255 10.757L6.31355 10.5968L5.64983 9.35486L5.42868 8.15293L6.7007 7.19127L8.13877 7.27144L8.96842 7.75221L9.02371 8.35317Z" fill="#F7E4CD"/>
<path fill-rule="evenodd" clip-rule="evenodd" d="M10.0193 5.82916C10.0193 5.82916 10.9596 2.30356 15.7163 1.62243C19.6324 1.06173 21.6896 1.74262 22.464 2.38361C22.464 2.38361 18.9795 -0.621078 15.6609 0.300317C12.3423 1.22183 9.90877 2.90452 9.96399 3.98613C10.0582 5.82844 10.0193 5.82916 10.0193 5.82916Z" fill="#F7E4CD"/>
<path fill-rule="evenodd" clip-rule="evenodd" d="M22.8513 2.78421C22.8513 2.78421 21.2474 2.74418 21.192 3.78589C21.192 3.78589 21.1918 3.94611 21.3025 4.10632C21.3025 4.10632 22.5748 3.06462 23.3491 3.62555" fill="#F7E4CD"/>
<path fill-rule="evenodd" clip-rule="evenodd" d="M15.8278 4.21493C15.8278 4.21493 15.5516 2.61602 13.6697 3.54558C12.4529 4.14654 12.5636 4.98789 12.7848 5.14811C13.006 5.30844 12.9458 5.63116 13.1142 5.40965C13.2826 5.18813 13.2271 4.46698 13.8356 4.26674C14.4441 4.06638 15.4414 3.84258 15.8278 4.21493Z" fill="#F7E4CD"/>
<path fill-rule="evenodd" clip-rule="evenodd" d="M10.6277 15.0439L5.42868 16.7266C5.42868 16.7266 7.58576 22.9365 6.47947 24.8596L5.70511 24.6594L5.64983 22.2955L4.21195 17.8084L3.60345 16.5663L9.0237 13.9222L10.6277 15.0439Z" fill="#49728B"/>
<path fill-rule="evenodd" clip-rule="evenodd" d="M11.1623 18.4786L11.8999 19.1305V21.5344H11.0148C11.0148 21.5344 10.9043 19.8517 10.9043 19.6513C10.9043 19.451 11.0148 18.7298 11.0148 18.7298" fill="#49728B"/>
<path fill-rule="evenodd" clip-rule="evenodd" d="M11.1808 21.8949L8.69183 21.975L9.41097 22.3356L11.1808 22.5359" fill="#49728B"/>
<path fill-rule="evenodd" clip-rule="evenodd" d="M19.6986 21.4942L21.745 21.4542L22.2428 25.1402L20.141 25.3404L19.6986 21.4942Z" fill="#335061"/>
<path fill-rule="evenodd" clip-rule="evenodd" d="M20.2516 21.4942L23.349 21.374C23.349 21.374 24.6211 19.0503 24.6211 18.9301C24.6211 18.8099 25.7273 15.5648 25.7273 15.5648L23.2384 13.6818L22.7406 13.3613L21.4132 14.3228V18.0488L20.2516 21.4942Z" fill="#335061"/>
<path fill-rule="evenodd" clip-rule="evenodd" d="M21.6343 21.2138L19.6986 21.4942L19.975 22.6161C20.694 22.8565 21.9109 22.2154 21.9109 22.2154" fill="#49728B"/>
<path fill-rule="evenodd" clip-rule="evenodd" d="M21.6898 14.2026L25.5614 16.2859L25.6721 15.3244L22.7406 13.3612L21.6898 14.2026Z" fill="#49728B"/>
<path fill-rule="evenodd" clip-rule="evenodd" d="M13.1002 29.3872L11.9551 26.0213L11.3856 23.5378L11.2914 21.6944L16.4742 21.4946L19.6986 21.4942L19.4054 25.7013L19.9032 28.9465L19.848 29.5475L15.6445 29.7878L13.1002 29.3872Z" fill="white"/>
<path fill-rule="evenodd" clip-rule="evenodd" d="M18.9795 21.4542C18.9795 21.4542 18.703 25.6209 19.5327 28.5856C19.5327 28.5856 17.8734 29.3469 15.4396 29.5471L20.0857 29.4269L20.6388 29.1865L19.9751 22.6161L19.8091 21.2137" fill="#DCD9D8"/>
<path fill-rule="evenodd" clip-rule="evenodd" d="M22.3371 24.8199L24.4941 24.3792L28.5869 24.219L29.1954 22.8569L28.0892 20.493L26.8171 20.3728L25.0472 20.7735L23.3491 21.374L22.4476 21.2542L21.745 21.4542" fill="white"/>
<path fill-rule="evenodd" clip-rule="evenodd" d="M22.2981 24.0183C22.2981 24.0183 23.736 23.5376 23.9574 23.5776L23.3491 21.374L24.068 21.1738C24.068 21.1738 24.5658 23.2571 24.5658 23.4975C24.5658 23.4975 27.6631 23.6176 27.9397 23.6176C27.9397 23.6176 28.6034 22.6962 28.4374 21.7346L29.0459 23.0167L29.1012 23.7378L28.2163 24.6994L27.2207 24.8596L25.5614 24.8196L25.0084 24.2988L23.0725 24.499L22.464 24.6594" fill="#DCD9D8"/>
<path d="M20.1246 21.1741L18.9078 18.9305L17.6356 17.6084C17.6356 17.6084 17.9121 17.0474 18.2993 17.0474C18.6866 17.0474 19.5715 17.0474 19.5715 17.0474L20.7883 17.368L20.6778 18.8503L20.1246 21.1741Z" fill="white"/>
<path fill-rule="evenodd" clip-rule="evenodd" d="M20.3623 20.4124C20.3623 20.4124 18.8135 18.2491 18.8135 17.9285C18.8135 17.9285 19.09 17.4478 19.4773 17.568C19.8645 17.6882 20.6942 18.0086 20.6942 18.0086V17.2474L18.8135 16.9669L17.5415 17.0871L19.6986 20.773L20.141 20.8132" fill="#DCD9D8"/>
<path d="M13.5981 15.1245L12.0658 15.0038L10.6277 14.6833V15.0438L11.3304 15.6051L13.5427 16.3263" fill="white"/>
<path fill-rule="evenodd" clip-rule="evenodd" d="M11.1257 15.2446C11.1257 15.2446 12.8404 15.7655 13.3935 15.6453L13.4485 16.1256L11.9001 15.8857L10.9597 15.4049L11.1257 15.2446Z" fill="#DCD9D8"/>
<path fill-rule="evenodd" clip-rule="evenodd" d="M22.3311 17.1839C21.3926 17.1639 20.5447 17.0832 19.8023 16.9315C19.8528 16.7111 19.7583 16.4947 19.8342 16.3359C20.0411 16.228 20.3879 16.2297 20.7007 16.2043C20.4302 16.1081 20.0502 16.0699 19.7381 16.1256C19.7308 15.9726 19.6361 15.8778 19.5786 15.758C20.1063 15.6216 21.3519 14.7273 22.0526 15.0234C22.3865 15.1643 22.5284 15.9689 22.5542 16.3601C22.5758 16.6846 22.5136 17.012 22.3311 17.1839Z" fill="#D33833"/>
<path d="M22.3311 17.1839C21.3926 17.1639 20.5447 17.0832 19.8023 16.9315C19.8528 16.7111 19.7583 16.4947 19.8342 16.3359C20.0411 16.228 20.3879 16.2297 20.7007 16.2043C20.4302 16.1081 20.0502 16.0699 19.7381 16.1256C19.7308 15.9726 19.6361 15.8778 19.5786 15.758C20.1063 15.6216 21.3519 14.7273 22.0526 15.0234C22.3865 15.1643 22.5284 15.9689 22.5542 16.3601C22.5758 16.6846 22.5136 17.012 22.3311 17.1839Z" stroke="#D33833" stroke-width="2.5"/>
<path fill-rule="evenodd" clip-rule="evenodd" d="M17.8432 16.0726C17.8407 16.124 17.8377 16.1758 17.8349 16.2278C17.5419 16.3672 17.0688 16.3655 16.7472 16.4827C17.2213 16.4977 17.5945 16.5804 17.9174 16.697C17.9102 16.8266 17.9034 16.956 17.8965 17.0856C17.3594 17.3519 16.8687 17.7485 16.2363 17.9983C15.9373 18.1164 14.8879 18.4204 14.5698 18.3667C14.3898 18.3364 14.3736 18.1746 14.3017 18.0221C14.1484 17.6955 13.7955 17.1757 13.7647 16.6841C13.7255 16.0632 13.6389 15.0226 14.5627 15.1505C15.308 15.2535 16.1747 15.5022 16.7517 15.7305C17.1043 15.8702 17.3082 16.0428 17.8432 16.0726Z" fill="#D33833"/>
<path d="M17.8432 16.0726C17.8407 16.124 17.8377 16.1758 17.8349 16.2278C17.5419 16.3672 17.0688 16.3655 16.7472 16.4827C17.2213 16.4977 17.5945 16.5804 17.9174 16.697C17.9102 16.8266 17.9034 16.956 17.8965 17.0856C17.3594 17.3519 16.8687 17.7485 16.2363 17.9983C15.9373 18.1164 14.8879 18.4204 14.5698 18.3667C14.3898 18.3364 14.3736 18.1746 14.3017 18.0221C14.1484 17.6955 13.7955 17.1757 13.7647 16.6841C13.7255 16.0632 13.6389 15.0226 14.5627 15.1505C15.308 15.2535 16.1747 15.5022 16.7517 15.7305C17.1043 15.8702 17.3082 16.0428 17.8432 16.0726V16.0726Z" stroke="#D33833" stroke-width="2.5"/>
<path fill-rule="evenodd" clip-rule="evenodd" d="M18.3767 16.8134C18.2947 16.4752 18.2 16.3787 18.2366 16.0836C19.4819 15.4822 19.7157 17.1167 18.3767 16.8134Z" fill="#D33833"/>
<path d="M18.3767 16.8134C18.2947 16.4752 18.2 16.3787 18.2366 16.0836C19.4819 15.4822 19.7157 17.1167 18.3767 16.8134Z" stroke="#D33833" stroke-width="2.5"/>
<path fill-rule="evenodd" clip-rule="evenodd" d="M20.1798 17.0876C20.1798 17.0876 19.7925 16.6869 20.0691 16.5667C20.3457 16.4465 20.6224 16.5668 20.7883 16.3664C20.9542 16.1661 20.7883 16.0459 20.8435 15.8055C20.8988 15.5651 21.1756 15.525 21.452 15.4849C21.7284 15.4449 22.503 15.3647 22.6135 15.5651L22.2816 14.8439L21.6179 14.6837L19.5161 15.5651L19.4054 16.0058V16.8872" fill="#EF3D3A"/>
<path fill-rule="evenodd" clip-rule="evenodd" d="M14.3723 18.4097C14.3059 17.7845 14.2356 17.1601 14.1573 16.5354C14.0403 15.6028 14.4666 15.7655 15.5828 15.7655C15.7532 15.7655 16.6324 15.9127 16.6953 16.0059C16.997 16.4522 16.1909 16.353 17.0428 16.6895C17.7619 16.9735 19.0322 16.5171 18.7417 15.8857C18.5791 15.7453 17.8945 15.8419 17.6491 15.7498C17.217 15.5875 16.7849 15.4252 16.3528 15.263C15.803 15.0564 14.5324 14.7552 13.9463 15.0439C12.4612 15.7755 14.04 17.6035 14.5698 18.3667" fill="#EF3D3A"/>
<path fill-rule="evenodd" clip-rule="evenodd" d="M15.8278 4.21489C14.3203 3.96057 13.5712 4.67187 13.1143 5.40961C12.7062 5.33797 12.8686 4.93605 12.9717 4.73124C13.2415 4.19374 14.3289 3.47824 15.2174 3.57523C15.5998 3.61694 16.1172 3.87018 15.8278 4.21489Z" fill="#231F20"/>
<path fill-rule="evenodd" clip-rule="evenodd" d="M23.1728 5.45841C23.1966 5.45913 23.2206 5.45973 23.2444 5.46045C23.585 5.97307 23.8799 6.5161 24.3096 6.96862C24.0217 7.45432 22.1296 7.88413 22.1588 7.01202C22.568 6.88245 23.2744 6.98557 23.6371 6.82007C23.4274 6.40312 23.1247 6.04819 23.1728 5.45841Z" fill="#231F20"/>
<path fill-rule="evenodd" clip-rule="evenodd" d="M16.5996 5.4717C16.9228 5.9009 17.028 6.35187 17.4875 6.67627C17.6944 6.8223 18.0967 7.0003 17.8973 7.40644C17.8507 7.50223 17.51 7.71581 17.3134 7.75776C16.5951 7.91136 14.9213 7.78949 15.4881 7.14081C16.0822 7.16088 16.8806 7.42026 17.3247 7.10788C16.9837 6.71304 16.3758 5.93191 16.5996 5.4717Z" fill="#231F20"/>
<path fill-rule="evenodd" clip-rule="evenodd" d="M22.9032 9.83399C21.8217 10.3372 20.6157 10.8845 18.8436 10.7576C18.4649 10.5191 18.3206 9.98844 18.6884 9.63796C18.8799 9.87642 18.7596 10.315 19.2932 10.381C20.2988 10.5056 21.4691 9.93544 22.1924 9.73616C22.6409 9.18844 22.1537 8.987 21.7497 8.63447C20.9225 7.91224 19.8129 7.01705 19.8533 5.9358C20.1876 5.7602 20.2165 6.20383 20.2644 6.2846C20.6963 7.01681 21.7833 7.95323 22.5766 8.57991C22.7715 8.73424 23.0922 8.88231 23.1279 8.98435C23.2307 9.28111 22.8602 9.63664 22.9032 9.83399Z" fill="#231F20"/>
<path fill-rule="evenodd" clip-rule="evenodd" d="M8.64517 9.30421C8.30617 9.16407 8.22548 8.54676 7.8275 8.52921C7.25875 8.50421 7.36245 9.33006 7.36472 9.81299C6.97323 9.55554 6.90439 8.76287 7.19199 8.35578C6.86422 8.23919 6.71785 8.48438 6.53604 8.5708C6.7697 7.34123 9.01916 8.00049 8.64517 9.30421Z" fill="#231F20"/>
<path fill-rule="evenodd" clip-rule="evenodd" d="M23.5918 10.346C23.0884 11.0401 22.3762 11.8045 20.8989 11.8268C20.8689 11.6026 20.8459 11.2615 20.9006 11.1265C22.0299 11.0479 22.7271 10.6316 23.5918 10.346Z" fill="#231F20"/>
<path fill-rule="evenodd" clip-rule="evenodd" d="M16.5144 10.796C17.4566 11.1549 19.1882 11.1935 20.4689 11.1663C20.5376 11.3696 20.5359 11.6206 20.5386 11.8685C18.8924 11.928 16.946 11.6329 16.5144 10.796Z" fill="#231F20"/>
<path fill-rule="evenodd" clip-rule="evenodd" d="M16.3353 11.4653C16.9868 12.6502 19.2262 12.5138 21.1146 12.4811C21.0315 12.635 20.8513 12.8167 20.6273 12.8825C20.0222 13.0608 18.3531 13.1962 17.513 12.873C16.9802 12.6678 16.6379 12.2042 16.3459 11.9325C16.205 11.8012 15.503 11.466 16.3353 11.4653Z" fill="#231F20"/>
<path fill-rule="evenodd" clip-rule="evenodd" d="M22.8245 18.0016C22.0599 18.9502 21.3284 19.9245 20.4212 20.7612C20.8015 19.9512 20.9643 18.5955 21.0217 17.562C21.8174 17.2923 22.4987 17.6227 22.8245 18.0016Z" fill="#81B0C4"/>
<path fill-rule="evenodd" clip-rule="evenodd" d="M26.9389 21.4109C26.0829 21.5351 25.4814 22.1377 24.6463 22.099C25.1053 21.6304 25.9095 21.4328 26.9389 21.4109Z" fill="#231F20"/>
<path fill-rule="evenodd" clip-rule="evenodd" d="M27.3166 22.3814C26.6189 22.4348 25.7993 22.5166 25.0916 22.4744C25.4267 22.1038 26.7174 22.2317 27.3166 22.3814Z" fill="#231F20"/>
<path fill-rule="evenodd" clip-rule="evenodd" d="M27.5583 23.218C26.7742 23.2303 25.7995 23.2189 25.0541 23.1736C25.495 22.8306 27.0498 23.0464 27.5583 23.218Z" fill="#231F20"/>
<path fill-rule="evenodd" clip-rule="evenodd" d="M21.3491 25.5076C21.4616 26.2209 21.852 26.9437 21.8031 27.725C21.3695 27.8309 21.1205 27.9235 20.5395 27.923C20.4986 27.259 20.3759 26.244 20.4126 25.6111C20.6983 25.6248 21.1196 25.4632 21.3491 25.5076Z" fill="#DCD9D8"/>
<path fill-rule="evenodd" clip-rule="evenodd" d="M20.0849 14.9941C19.6911 15.1803 19.3558 15.4127 18.9776 15.6115C18.139 15.6416 17.6814 15.5695 17.0653 15.2206C17.0754 15.1926 17.1373 15.2051 17.1396 15.1708C18.0373 15.4606 19.1784 15.0527 20.0849 14.9941Z" fill="#F0D6B7"/>
<path fill-rule="evenodd" clip-rule="evenodd" d="M15.3724 19.4265C15.6191 18.6523 16.5855 18.2514 17.4631 17.8251C18.3689 18.6578 18.9198 19.7287 19.5264 20.7621C18.0931 20.4491 16.6286 19.9413 15.3724 19.4265Z" fill="#81B0C4"/>
<path fill-rule="evenodd" clip-rule="evenodd" d="M20.4126 25.611C20.3759 26.244 20.4986 27.259 20.5396 27.9229C21.1205 27.9235 21.3695 27.8309 21.8031 27.725C21.8521 26.9437 21.4616 26.2209 21.3491 25.5076C21.1196 25.4632 20.6983 25.6247 20.4126 25.611ZM11.3671 22.0114C11.7502 24.5623 12.305 26.7066 13.3226 28.9654C15.5811 29.4621 18.3038 29.5054 20.3001 29.0572C19.9336 27.7823 20.0937 26.2302 19.8795 24.8697C19.718 23.8471 19.8003 22.8182 19.579 21.775C17.1601 21.4105 13.741 21.6898 11.3671 22.0114ZM20.1509 21.791C20.1305 22.8865 20.2186 23.9672 20.3341 25.0641C20.9149 25.0009 21.309 24.9588 21.8486 24.8731C21.6733 23.8171 21.6949 22.6288 21.338 21.6947C20.9255 21.6976 20.5623 21.6912 20.1509 21.791ZM23.097 21.6144C22.8214 21.5686 22.5005 21.6126 22.2372 21.6163C22.361 22.5094 22.6613 23.4948 22.767 24.4322C23.1813 24.4416 23.4027 24.3 23.7435 24.2524C23.7617 23.4295 23.6443 22.2959 23.097 21.6144ZM27.5579 24.5667C28.4215 24.4148 28.9646 23.6485 28.723 22.8616C28.5609 22.3328 28.2722 21.337 27.9632 20.9987C27.7349 20.7484 27.1158 20.4208 26.6215 20.6501C25.8174 21.0231 24.4009 21.1313 23.8145 21.5828C24.1085 22.2919 24.1998 23.266 24.3211 24.1645C25.3256 24.2099 26.5616 23.9643 27.3971 24.2249C26.8138 24.3617 26.057 24.3628 25.5531 24.5623C25.9649 24.7064 26.9292 24.6772 27.5579 24.5667ZM19.5264 20.7621C18.9198 19.7287 18.3689 18.6578 17.4631 17.8251C16.5855 18.2514 15.6191 18.6524 15.3724 19.4265C16.6286 19.9413 18.0931 20.4492 19.5264 20.7621ZM21.0217 17.562C20.9643 18.5955 20.8016 19.9512 20.4212 20.7612C21.3284 19.9245 22.06 18.9502 22.8246 18.0016C22.4987 17.6227 21.8174 17.2923 21.0217 17.562ZM19.3266 17.1257C18.983 17.0989 18.6913 17.4119 18.2444 17.2765C18.142 17.3585 18.049 17.4473 17.9446 17.5274C18.9315 18.3889 19.38 19.6113 20.1423 20.6238C20.5513 19.6512 20.5042 18.5857 20.5943 17.5241C20.0323 17.55 19.7205 17.156 19.3266 17.1257ZM18.2366 16.0836C18.2 16.3787 18.2947 16.4752 18.3767 16.8134C19.7157 17.1167 19.4819 15.4822 18.2366 16.0836ZM16.7517 15.7305C16.1747 15.5021 15.308 15.2535 14.5627 15.1505C13.6389 15.0225 13.7255 16.0632 13.7647 16.6841C13.7955 17.1757 14.1484 17.6955 14.3017 18.0221C14.3736 18.1746 14.3898 18.3364 14.5698 18.3667C14.8879 18.4204 15.9373 18.1164 16.2363 17.9983C16.8687 17.7485 17.3594 17.3519 17.8965 17.0856C17.9034 16.956 17.9102 16.8265 17.9174 16.697C17.5945 16.5804 17.2213 16.4977 16.7472 16.4827C17.0688 16.3655 17.5419 16.3672 17.8349 16.2277C17.8377 16.1758 17.8407 16.124 17.8432 16.0726C17.3083 16.0428 17.1043 15.8702 16.7517 15.7305ZM11.2406 15.0054C10.7617 15.3576 12.5837 15.8376 13.1638 15.8634C13.1606 15.6406 13.3392 15.4305 13.3032 15.2707C12.6142 15.183 11.7087 15.2408 11.2406 15.0054ZM17.1397 15.1708C17.1373 15.2051 17.0755 15.1926 17.0653 15.2207C17.6814 15.5695 18.1391 15.6416 18.9777 15.6115C19.3558 15.4127 19.6912 15.1803 20.0849 14.9941C19.1784 15.0527 18.0373 15.4606 17.1397 15.1708ZM22.5543 16.3601C22.5284 15.9689 22.3865 15.1643 22.0527 15.0234C21.3519 14.7271 20.1063 15.6216 19.5787 15.758C19.6361 15.8777 19.7308 15.9726 19.7381 16.1256C20.0502 16.0699 20.4302 16.108 20.7007 16.2043C20.3879 16.2297 20.0411 16.228 19.8342 16.3359C19.7584 16.4947 19.8528 16.711 19.8023 16.9315C20.5447 17.0832 21.3926 17.1639 22.3311 17.1839C22.5136 17.012 22.5758 16.6846 22.5543 16.3601ZM10.4344 15.346C10.2841 15.2684 9.26677 14.3096 9.12741 14.3494C7.28664 14.8752 5.56544 15.7845 4.02736 16.6445C5.49382 18.9238 6.08579 21.7163 6.19039 24.4079C7.8703 24.977 9.34584 25.7975 11.6254 25.8832C11.3616 24.5312 11.1208 23.3251 10.9711 22.0523C10.3983 21.8774 9.57658 22.0602 9.04056 21.998C9.03601 21.5301 9.85919 21.7931 9.92775 21.4785C9.97942 21.2405 9.47483 21.2225 9.63913 20.8477C10.0582 20.958 10.2782 21.2018 10.7251 21.2933C11.1335 20.6462 10.7194 19.5012 10.7783 18.9603C10.7894 18.8588 10.8483 18.3977 11.1623 18.4786C11.4402 18.5502 11.1464 19.7048 11.1769 20.2167C11.2046 20.6883 11.0983 21.1447 11.3619 21.4407C13.5647 21.2235 15.8031 21.0832 18.1865 21.0358C17.6622 20.8728 17.0393 20.7186 16.3563 20.4398C15.9861 20.2886 14.8191 19.974 14.7123 19.7193C14.5418 19.3134 15.1595 19.0972 15.2652 18.7493C14.1533 19.1885 13.9363 18.3282 13.6733 17.7187C13.435 17.1667 13.2993 16.7543 13.2408 16.4359C12.283 16.1051 11.2589 15.7702 10.4344 15.346ZM21.5814 14.4654C23.1151 13.9267 23.3915 16.4787 22.7904 17.3008C22.8833 17.546 23.2029 17.6399 23.3333 17.8603C22.4774 18.9709 21.5268 20.0075 20.6535 21.105C21.3032 20.8121 22.231 21.0526 22.9955 20.8334C23.2749 20.7533 23.4772 20.29 23.6887 19.9193C24.2706 18.8995 24.8816 17.6138 25.1534 16.6406C25.2148 16.4188 25.382 15.9357 25.3445 15.7383C25.2777 15.385 24.6158 15.1229 24.2791 14.9044C23.6589 14.5008 23.2683 14.1457 22.6213 13.7682C22.359 14.0488 21.796 14.2372 21.5814 14.4654ZM6.92691 4.61344C6.1961 5.19589 6.34907 6.28724 6.43755 7.06368C7.75849 6.46176 9.51177 7.11128 9.49524 8.13508C10.1259 8.12294 9.73084 7.56452 9.61677 7.20479C9.24396 6.02979 10.2448 4.75323 9.66215 3.67871C8.53078 3.74085 7.60131 4.07558 6.92691 4.61344ZM12.1559 1.23291C10.5015 1.57258 8.38118 2.44337 7.70133 3.51993C8.22776 3.46453 8.5932 3.27222 9.11251 3.24842C9.30877 3.23916 9.56589 3.30803 9.79146 3.26741C10.241 3.18664 10.6203 2.45659 10.9594 2.18496C11.29 1.91969 11.6873 1.80635 11.9592 1.56453C12.1339 1.50347 12.3922 1.50767 12.4021 1.31765C12.3264 1.259 12.2467 1.21428 12.1559 1.23291ZM20.7682 1.55238C19.051 0.85058 16.1444 0.322697 14.3178 0.982311C12.8438 1.51464 10.8515 2.39541 10.1722 3.51152C10.8068 4.58856 9.98428 5.57546 9.93178 6.66897C9.90391 7.25082 10.31 7.75875 10.3411 8.39217C10.124 8.65166 9.46056 8.68363 9.00134 8.66585C8.84676 8.10551 8.57614 7.4757 7.77957 7.41248C6.65241 7.32318 5.82827 7.9989 5.77707 8.70503C5.71647 9.53544 6.65759 10.9118 7.99151 10.8162C8.5068 10.7793 8.63339 10.4051 9.19483 10.409C9.49912 10.8488 8.72543 10.9869 8.64583 11.3014C8.62509 11.3827 8.71 11.7002 8.75938 11.8491C9.00167 12.5743 9.54178 13.5127 10.0734 14.0648C10.7481 14.765 12.0738 14.8705 13.4999 14.9392C13.7546 14.5417 14.693 14.5744 15.3044 14.6783C14.5716 14.4681 13.8904 13.9585 13.3259 13.5074C12.6774 12.9899 12.0205 12.4347 11.9873 11.7583C13.2128 12.9898 14.2252 14.0652 16.4536 14.607C18.1397 15.0166 20.109 14.4192 21.4045 13.7602C21.9422 13.4863 22.2631 13.0517 22.6452 12.6538C24.075 11.164 24.7422 9.0376 24.5955 6.97654C24.5351 6.12654 24.5378 5.27943 24.144 4.70755C23.7325 4.1096 22.3407 3.57462 21.526 4.11549C21.375 3.534 22.2035 3.17438 23.1767 3.38363C22.4828 2.73496 21.7545 1.95551 20.7682 1.55238ZM23.9675 20.7311C25.3094 20.2479 27.8165 19.4305 28.6578 20.7329C28.9683 21.213 29.3325 22.0245 29.4933 22.5201C29.7204 23.2192 29.247 24.6887 28.2549 24.9233C27.3787 25.1305 26.3562 25.1179 25.3007 24.9643C25.1764 24.8894 25.0381 24.7589 24.9413 24.6228C24.1877 24.6017 23.482 24.6521 22.8866 24.8765C22.943 25.2803 22.566 25.3451 22.2126 25.4282C21.9506 26.1807 22.7368 27.1634 22.5486 27.8496C22.4144 28.3385 21.5841 28.4141 20.9738 28.5055C20.9539 28.7772 21.0005 29.0039 21.0422 29.2338C20.9026 29.6062 20.2767 29.8182 19.6837 29.8702C17.7325 30.0401 14.77 30.1165 12.8932 29.6276C12.3695 28.6971 11.9569 27.5654 11.5207 26.5029C9.69034 26.6445 8.20994 25.9308 6.81432 25.4632C6.33112 25.3009 5.66267 25.2115 5.48216 24.9329C5.30715 24.6632 5.37877 24.1462 5.33535 23.6579C5.22484 22.4107 5.13021 21.2077 4.67551 19.9306C4.47135 19.3576 4.1155 18.8519 3.86725 18.2997C3.63781 17.788 3.23692 17.1555 3.13237 16.6452C2.97734 15.8888 3.96059 15.8467 4.58931 15.519C5.56122 15.0121 6.32412 14.7318 7.37672 14.2744C7.68849 14.1389 8.62866 13.796 8.7356 13.6381C8.94819 13.325 8.37069 12.8835 8.21629 12.6381C7.97206 12.25 7.84469 11.9203 7.8097 11.5374C6.92671 11.4363 6.25735 11.0556 5.85303 10.6264C5.1842 9.91609 4.72036 8.6019 5.29904 7.60226C5.34442 7.52354 5.57075 7.36873 5.60413 7.24782C5.66999 7.00972 5.4802 6.69313 5.4684 6.43988C5.40761 5.14061 5.77189 4.02113 6.9794 3.62931C7.46961 2.21476 9.22411 1.74445 10.8771 1.04145C11.495 0.778708 12.1762 0.610798 12.8796 0.423298C15.4031 -0.249418 19.2748 -0.122736 21.3692 1.02462C22.2573 1.51116 23.6768 2.53844 24.1845 3.28219C25.5256 5.24577 25.4303 8.52738 24.4923 10.916C24.3662 11.2366 24.1834 11.708 23.928 12.0933C23.75 12.3622 23.1966 12.9005 23.2638 13.138C23.333 13.3835 24.5255 14.0394 24.7812 14.218C25.2417 14.5398 26.1164 14.9668 26.1873 15.3728C26.2634 15.8049 25.9245 16.396 25.7527 16.813C25.1786 18.2044 24.6184 19.4906 23.9675 20.7311Z" fill="#231F20"/>
<path fill-rule="evenodd" clip-rule="evenodd" d="M15.0151 11.0991C15.0879 11.029 15.4881 10.9223 16.0481 11.1177C16.0481 11.1177 15.3844 11.1978 15.4396 11.9994L15.1631 11.9592C15.1631 11.9592 14.8772 11.2324 15.0151 11.0991Z" fill="#F7E4CD"/>
<path fill-rule="evenodd" clip-rule="evenodd" d="M19.8646 17.9886C19.8646 18.1103 19.7283 18.2089 19.5602 18.2089C19.3923 18.2089 19.2561 18.1103 19.2561 17.9886C19.2561 17.867 19.3923 17.7682 19.5602 17.7682C19.7283 17.7682 19.8646 17.867 19.8646 17.9886Z" fill="#1D1919"/>
<path fill-rule="evenodd" clip-rule="evenodd" d="M20.1687 19.0103C20.1687 19.1319 20.0325 19.2306 19.8644 19.2306C19.6965 19.2306 19.5602 19.1319 19.5602 19.0103C19.5602 18.8887 19.6965 18.7899 19.8644 18.7899C20.0325 18.7899 20.1687 18.8887 20.1687 19.0103Z" fill="#1D1919"/>
</g>
<defs>
<clipPath id="clip0">
<rect width="30" height="30" fill="white"/>
</clipPath>
</defs>
</svg>
