<svg width="30" height="30" viewBox="0 0 30 30" fill="none" xmlns="http://www.w3.org/2000/svg">
<path d="M29.8778 16.9106C30.2557 13.9679 29.7525 10.9793 28.4318 8.3227C27.1111 5.66607 25.0323 3.46073 22.4582 1.98559C19.8841 0.510457 16.9304 -0.168227 13.9706 0.0353698C11.0108 0.238967 8.17786 1.3157 5.83001 3.1294C3.48216 4.94311 1.72488 7.41232 0.7804 10.2248C-0.16408 13.0372 -0.253338 16.0666 0.523914 18.9298C1.30117 21.7929 2.91002 24.3613 5.147 26.3101C7.38399 28.2589 10.1486 29.5006 13.0913 29.8781C17.0369 30.3843 21.022 29.3025 24.17 26.8706C27.318 24.4388 29.3712 20.8561 29.8778 16.9106Z" fill="#FF6C37"/>
<path d="M20.454 12.6401L14.13 18.9641L12.3375 17.1731C18.564 10.9496 19.182 11.4971 20.454 12.6401Z" fill="white"/>
<path d="M14.13 19.1156C14.1101 19.1155 14.0905 19.1115 14.0722 19.1037C14.0539 19.096 14.0374 19.0847 14.0235 19.0706L12.2235 17.2706C12.1956 17.2424 12.1799 17.2044 12.1799 17.1648C12.1799 17.1252 12.1956 17.0872 12.2235 17.0591C18.5535 10.7291 19.2195 11.3276 20.547 12.5201C20.5622 12.5337 20.5744 12.5504 20.5829 12.5689C20.5914 12.5875 20.596 12.6076 20.5965 12.6281C20.5972 12.6485 20.5937 12.669 20.5862 12.6881C20.5788 12.7072 20.5674 12.7245 20.553 12.7391L14.235 19.0706C14.2073 19.0988 14.1696 19.115 14.13 19.1156ZM12.5505 17.1656L14.13 18.7496L20.2365 12.6431C19.128 11.6636 18.375 11.3591 12.5505 17.1731V17.1656Z" fill="#FF6C37"/>
<path d="M15.942 20.7776L14.214 19.0496L20.5395 12.7241C22.242 14.4281 19.7175 17.2061 15.942 20.7776Z" fill="white"/>
<path d="M15.942 20.9276H15.9345C15.8965 20.9245 15.8609 20.908 15.834 20.8811L14.1075 19.1561C14.0801 19.1273 14.0646 19.0893 14.064 19.0496C14.0639 19.0298 14.0677 19.0102 14.0751 18.992C14.0826 18.9737 14.0936 18.9571 14.1075 18.9431L20.433 12.6191C20.4611 12.5911 20.4991 12.5754 20.5388 12.5754C20.5784 12.5754 20.6164 12.5911 20.6445 12.6191C20.8339 12.799 20.9838 13.0163 21.0848 13.2572C21.1857 13.4981 21.2355 13.7574 21.231 14.0186C21.207 15.6821 19.3125 17.7956 16.0455 20.8856C16.0177 20.9124 15.9806 20.9274 15.942 20.9276ZM14.427 19.0496C15.3945 20.0186 15.786 20.4086 15.945 20.5676C18.471 18.1676 20.907 15.7091 20.931 14.0156C20.9412 13.6196 20.7995 13.2349 20.535 12.9401L14.427 19.0496Z" fill="#FF6C37"/>
<path d="M12.381 17.2166L13.6575 18.4916C13.6653 18.4995 13.6708 18.5093 13.6734 18.5201C13.6761 18.5308 13.6758 18.5421 13.6726 18.5527C13.6693 18.5633 13.6633 18.5729 13.6551 18.5803C13.6469 18.5878 13.6368 18.5929 13.626 18.5951L10.9935 19.1621C10.9412 19.1736 10.8865 19.1679 10.8377 19.1457C10.789 19.1235 10.7487 19.0861 10.723 19.0391C10.6973 18.9921 10.6876 18.938 10.6952 18.885C10.7029 18.832 10.7275 18.7829 10.7655 18.7451L12.3 17.2166C12.3112 17.2068 12.3256 17.2014 12.3405 17.2014C12.3554 17.2014 12.3698 17.2068 12.381 17.2166Z" fill="white"/>
<path d="M10.9395 19.3181C10.8609 19.3178 10.7841 19.2943 10.7188 19.2504C10.6536 19.2065 10.6028 19.1443 10.5729 19.0715C10.5431 18.9988 10.5355 18.9188 10.551 18.8418C10.5666 18.7647 10.6047 18.694 10.6605 18.6386L12.1875 17.1101C12.2274 17.0705 12.2813 17.0483 12.3375 17.0483C12.3937 17.0483 12.4476 17.0705 12.4875 17.1101L13.7625 18.3866C13.7897 18.4132 13.8091 18.4468 13.8186 18.4837C13.8282 18.5205 13.8275 18.5593 13.8167 18.5958C13.8059 18.6323 13.7854 18.6652 13.7574 18.691C13.7293 18.7168 13.6948 18.7344 13.6575 18.7421L11.025 19.3091C10.9969 19.315 10.9682 19.318 10.9395 19.3181ZM12.3375 17.3846L10.872 18.8501C10.8564 18.8648 10.8462 18.8844 10.8432 18.9057C10.8402 18.9269 10.8446 18.9486 10.8555 18.9671C10.8649 18.9862 10.8807 19.0015 10.9001 19.0103C10.9195 19.019 10.9414 19.0207 10.962 19.0151L13.4355 18.4826L12.3375 17.3846Z" fill="#FF6C37"/>
<path d="M23.808 9.12858C23.4814 8.81477 23.0735 8.59861 22.6304 8.50456C22.1874 8.41051 21.7268 8.44232 21.3009 8.59638C20.875 8.75045 20.5007 9.02062 20.2203 9.37635C19.94 9.73208 19.7647 10.1592 19.7145 10.6093C19.6642 11.0594 19.7409 11.5146 19.9359 11.9235C20.1308 12.3323 20.4363 12.6784 20.8178 12.9226C21.1992 13.1668 21.6414 13.2994 22.0943 13.3054C22.5472 13.3115 22.9927 13.1906 23.3805 12.9566L21.6795 11.2571L23.808 9.12858Z" fill="white"/>
<path d="M22.125 13.4576C21.7031 13.4577 21.2875 13.3543 20.9149 13.1564C20.5422 12.9586 20.2238 12.6722 19.9876 12.3226C19.7514 11.973 19.6046 11.5707 19.56 11.1511C19.5155 10.7315 19.5747 10.3074 19.7323 9.91603C19.8899 9.52462 20.1411 9.17787 20.4639 8.90619C20.7868 8.63452 21.1714 8.44622 21.5839 8.35782C21.9965 8.26942 22.4245 8.28362 22.8303 8.39918C23.2361 8.51474 23.6074 8.72812 23.9115 9.0206C23.926 9.03436 23.9375 9.05088 23.9455 9.06916C23.9535 9.08745 23.9577 9.10715 23.958 9.1271C23.9583 9.14709 23.9546 9.16694 23.9472 9.18549C23.9397 9.20404 23.9286 9.2209 23.9145 9.2351L21.9 11.2571L23.4945 12.8501C23.5105 12.8663 23.5226 12.8859 23.5299 12.9075C23.5371 12.9291 23.5394 12.952 23.5365 12.9746C23.5338 12.9974 23.5259 13.0192 23.5134 13.0385C23.5009 13.0577 23.4842 13.0738 23.4645 13.0856C23.0604 13.3298 22.5971 13.4584 22.125 13.4576ZM22.125 8.6066C21.7826 8.60687 21.4447 8.68445 21.1365 8.83356C20.8282 8.98267 20.5577 9.19946 20.3449 9.46776C20.1322 9.73605 19.9828 10.0489 19.9079 10.383C19.833 10.7171 19.8345 11.0638 19.9123 11.3973C19.9901 11.7307 20.1421 12.0423 20.3572 12.3087C20.5722 12.5752 20.8446 12.7896 21.1541 12.9361C21.4636 13.0825 21.8022 13.1572 22.1446 13.1545C22.487 13.1518 22.8243 13.0719 23.1315 12.9206L21.5745 11.3621C21.5462 11.3344 21.5301 11.2967 21.5295 11.2571C21.5296 11.2373 21.5336 11.2176 21.5413 11.1993C21.5491 11.1811 21.5603 11.1645 21.5745 11.1506L23.5905 9.1346C23.1796 8.79223 22.6614 8.60532 22.1265 8.6066H22.125Z" fill="#FF6C37"/>
<path d="M23.85 9.1616L23.8125 9.1286L21.6795 11.2571L23.3805 12.9566C23.5511 12.8574 23.7088 12.7375 23.85 12.5996C24.0759 12.3739 24.255 12.106 24.3773 11.811C24.4995 11.516 24.5625 11.1999 24.5625 10.8806C24.5625 10.5613 24.4995 10.2452 24.3773 9.9502C24.255 9.65525 24.0759 9.38727 23.85 9.1616Z" fill="white"/>
<path d="M23.3805 13.1066C23.3608 13.1067 23.3412 13.1029 23.3229 13.0954C23.3047 13.088 23.288 13.077 23.274 13.0631L21.5745 11.3621C21.5462 11.3344 21.5301 11.2966 21.5295 11.2571C21.5296 11.2372 21.5336 11.2176 21.5413 11.1993C21.5491 11.181 21.5603 11.1645 21.5745 11.1506L23.7 9.02207C23.7281 8.99458 23.7658 8.97919 23.805 8.97919C23.8443 8.97919 23.882 8.99458 23.91 9.02207L23.949 9.05657C24.2266 9.33287 24.4374 9.66891 24.5654 10.0391C24.6935 10.4092 24.7352 10.8037 24.6876 11.1925C24.64 11.5812 24.5043 11.954 24.2908 12.2823C24.0772 12.6107 23.7916 12.8859 23.4555 13.0871C23.4327 13.1 23.4068 13.1067 23.3805 13.1066ZM21.9 11.2571L23.4 12.7661C23.5208 12.6846 23.6337 12.5922 23.7375 12.4901C24.1525 12.075 24.3914 11.5157 24.4042 10.9289C24.4171 10.3421 24.203 9.77292 23.8065 9.34007L21.9 11.2571Z" fill="#FF6C37"/>
<path d="M20.715 12.8996C20.5416 12.7268 20.3067 12.6297 20.0618 12.6297C19.8169 12.6297 19.582 12.7268 19.4085 12.8996L13.752 18.5576L14.7 19.4996L20.679 14.2496C20.7738 14.1656 20.8504 14.0631 20.9039 13.9483C20.9574 13.8336 20.9868 13.709 20.9902 13.5824C20.9936 13.4558 20.9709 13.3299 20.9235 13.2124C20.8762 13.095 20.8052 12.9885 20.715 12.8996Z" fill="white"/>
<path d="M14.7 19.6496C14.6803 19.6497 14.6607 19.6459 14.6424 19.6385C14.6242 19.631 14.6075 19.62 14.5935 19.6061L13.65 18.6641C13.636 18.6502 13.6248 18.6336 13.6172 18.6153C13.6096 18.597 13.6057 18.5774 13.6057 18.5576C13.6057 18.5378 13.6096 18.5182 13.6172 18.4999C13.6248 18.4816 13.636 18.4651 13.65 18.4511L19.302 12.7946C19.5039 12.5937 19.777 12.481 20.0618 12.481C20.3465 12.481 20.6197 12.5937 20.8215 12.7946C20.9253 12.8984 21.0066 13.0223 21.0606 13.1587C21.1145 13.2952 21.1399 13.4413 21.1351 13.5879C21.1303 13.7346 21.0955 13.8787 21.0328 14.0113C20.9701 14.144 20.8808 14.2623 20.7705 14.3591L14.7915 19.6091C14.7666 19.6327 14.7343 19.647 14.7 19.6496ZM13.971 18.5591L14.706 19.2941L20.58 14.1356C20.6599 14.0677 20.7251 13.9843 20.7717 13.8905C20.8184 13.7966 20.8455 13.6943 20.8514 13.5897C20.8573 13.485 20.8419 13.3803 20.8061 13.2818C20.7703 13.1833 20.7149 13.0931 20.6433 13.0166C20.5716 12.9402 20.4851 12.8791 20.3891 12.837C20.2932 12.795 20.1896 12.7728 20.0848 12.772C19.98 12.7712 19.8762 12.7916 19.7795 12.8321C19.6828 12.8726 19.5954 12.9323 19.5225 13.0076L13.971 18.5591Z" fill="#FF6C37"/>
<path d="M9.414 24.9866C9.38742 25.0004 9.36612 25.0225 9.35338 25.0496C9.34064 25.0767 9.33716 25.1073 9.3435 25.1366L9.597 26.2196C9.61947 26.2861 9.61791 26.3583 9.59259 26.4238C9.56727 26.4893 9.51979 26.5438 9.45842 26.5779C9.39704 26.612 9.32566 26.6234 9.2567 26.6103C9.18774 26.5972 9.12556 26.5603 9.081 26.5061L7.4415 24.8666L12.825 19.4846L14.6775 19.5131L15.942 20.7761C15.6285 21.0386 13.815 22.7801 9.414 24.9866Z" fill="white"/>
<path d="M9.30001 26.7491C9.24021 26.749 9.18103 26.737 9.12592 26.7139C9.0708 26.6907 9.02086 26.6567 8.97901 26.614L7.33501 24.9731C7.30729 24.9451 7.29167 24.9074 7.29151 24.868C7.29139 24.8483 7.29518 24.8287 7.30264 24.8105C7.31011 24.7922 7.3211 24.7756 7.33501 24.7616L12.7185 19.3781C12.7327 19.364 12.7496 19.3529 12.7681 19.3454C12.7867 19.3379 12.8065 19.3342 12.8265 19.3346L14.6805 19.3631C14.7193 19.3636 14.7564 19.3792 14.784 19.4066L16.047 20.6711C16.0619 20.6856 16.0736 20.7032 16.0814 20.7226C16.0891 20.7419 16.0927 20.7627 16.092 20.7836C16.091 20.8043 16.0856 20.8246 16.0763 20.8432C16.0671 20.8618 16.054 20.8783 16.038 20.8916L15.9315 20.9846C14.3445 22.3781 12.1815 23.767 9.49201 25.114L9.74401 26.1866C9.76792 26.2834 9.75894 26.3855 9.71848 26.4768C9.67802 26.568 9.60838 26.6432 9.52051 26.6906C9.45308 26.7282 9.37725 26.7484 9.30001 26.7491ZM7.65001 24.868L9.18751 26.3995C9.2074 26.4346 9.24038 26.4602 9.2792 26.4709C9.31802 26.4816 9.3595 26.4764 9.39451 26.4566C9.42951 26.4367 9.45519 26.4037 9.46588 26.3649C9.47657 26.326 9.4714 26.2846 9.45151 26.2495L9.19801 25.1666C9.18348 25.1042 9.19038 25.0387 9.21759 24.9808C9.24481 24.9228 9.29075 24.8757 9.34801 24.847C12.009 23.512 14.148 22.1381 15.723 20.7626L14.616 19.6556L12.8865 19.6286L7.65001 24.868Z" fill="#FF6C37"/>
<path d="M6.15002 26.1565L7.43852 24.868L9.35402 26.7835L6.29402 26.5735C6.24817 26.5683 6.20475 26.5502 6.16875 26.5214C6.13275 26.4925 6.10566 26.454 6.0906 26.4104C6.07554 26.3668 6.07313 26.3198 6.08364 26.2749C6.09416 26.23 6.11717 26.1889 6.15002 26.1565Z" fill="white"/>
<path d="M9.35702 26.9336H9.34802L6.28651 26.7236C6.21209 26.716 6.14135 26.6874 6.08249 26.6412C6.02363 26.595 5.97906 26.5331 5.95395 26.4626C5.92883 26.3921 5.9242 26.316 5.94058 26.243C5.95696 26.17 5.99369 26.1031 6.04651 26.0501L7.33501 24.7616C7.34896 24.7475 7.36555 24.7364 7.38383 24.7288C7.40211 24.7211 7.42171 24.7172 7.44151 24.7172C7.46132 24.7172 7.48092 24.7211 7.4992 24.7288C7.51748 24.7364 7.53407 24.7475 7.54801 24.7616L9.46352 26.6771C9.48556 26.6987 9.50041 26.7265 9.50605 26.7569C9.51169 26.7872 9.50783 26.8185 9.49502 26.8466C9.48286 26.8729 9.46336 26.8951 9.43888 26.9105C9.41439 26.9259 9.38596 26.934 9.35702 26.9336ZM7.44151 25.0796L6.25951 26.2616C6.24632 26.274 6.23702 26.2899 6.23275 26.3075C6.22849 26.3251 6.22945 26.3435 6.23551 26.3606C6.24117 26.3778 6.25167 26.3931 6.26577 26.4045C6.27987 26.416 6.29697 26.4231 6.31501 26.4251L8.96852 26.6066L7.44151 25.0796Z" fill="#FF6C37"/>
<path d="M12.279 20.1791C12.2495 20.1789 12.2207 20.1701 12.1962 20.1537C12.1717 20.1373 12.1526 20.1141 12.1412 20.0869C12.1299 20.0597 12.1268 20.0297 12.1323 20.0008C12.1379 19.9718 12.1519 19.9451 12.1725 19.9241L13.6305 18.4661C13.6445 18.452 13.6611 18.4408 13.6793 18.4332C13.6976 18.4256 13.7172 18.4217 13.737 18.4217C13.7568 18.4217 13.7764 18.4256 13.7947 18.4332C13.813 18.4408 13.8296 18.452 13.8435 18.4661L14.7825 19.4066C14.8021 19.4256 14.816 19.4497 14.8229 19.4761C14.8298 19.5026 14.8293 19.5304 14.8215 19.5566C14.8138 19.5823 14.7992 19.6055 14.7794 19.6237C14.7597 19.6419 14.7353 19.6545 14.709 19.6601L12.309 20.1776C12.2991 20.1794 12.289 20.1799 12.279 20.1791ZM13.737 18.7841L12.75 19.7756L14.3805 19.4231L13.737 18.7841Z" fill="#FF6C37"/>
<path d="M14.6775 19.5131L13.0275 19.8671C12.9795 19.8779 12.9292 19.8727 12.8843 19.8524C12.8395 19.8321 12.8025 19.7977 12.7789 19.7545C12.7553 19.7113 12.7465 19.6615 12.7537 19.6128C12.761 19.5641 12.7839 19.5191 12.819 19.4846L13.731 18.5726L14.6775 19.5131Z" fill="white"/>
<path d="M12.984 20.0216C12.9094 20.0216 12.8366 19.9994 12.7746 19.958C12.7126 19.9165 12.6644 19.8576 12.6359 19.7887C12.6075 19.7197 12.6001 19.6439 12.6148 19.5708C12.6295 19.4977 12.6656 19.4306 12.7185 19.3781L13.6305 18.4661C13.6444 18.452 13.661 18.4408 13.6793 18.4332C13.6976 18.4256 13.7172 18.4217 13.737 18.4217C13.7568 18.4217 13.7764 18.4256 13.7947 18.4332C13.813 18.4408 13.8296 18.452 13.8435 18.4661L14.7825 19.4066C14.802 19.4256 14.816 19.4497 14.8229 19.4761C14.8298 19.5026 14.8293 19.5304 14.8215 19.5566C14.8138 19.5823 14.7992 19.6055 14.7794 19.6237C14.7596 19.6419 14.7353 19.6545 14.709 19.6601L13.059 20.0156C13.0343 20.0201 13.0091 20.0221 12.984 20.0216ZM13.734 18.7841L12.927 19.5896C12.9149 19.6011 12.907 19.6165 12.9049 19.6332C12.9027 19.6498 12.9063 19.6667 12.915 19.6811C12.9217 19.6968 12.934 19.7095 12.9495 19.7167C12.965 19.7239 12.9827 19.7251 12.999 19.7201L14.373 19.4201L13.734 18.7841Z" fill="#FF6C37"/>
<path d="M23.8605 10.6031C23.8528 10.5795 23.8401 10.5578 23.8234 10.5395C23.8066 10.5211 23.7861 10.5066 23.7633 10.4969C23.7404 10.4872 23.7158 10.4824 23.6909 10.483C23.6661 10.4836 23.6417 10.4895 23.6194 10.5003C23.597 10.5111 23.5772 10.5266 23.5613 10.5456C23.5454 10.5647 23.5338 10.587 23.5273 10.6109C23.5207 10.6349 23.5193 10.6599 23.5232 10.6844C23.5272 10.709 23.5363 10.7324 23.55 10.7531C23.5946 10.8433 23.6123 10.9445 23.6008 11.0446C23.5894 11.1446 23.5493 11.2392 23.4855 11.3171C23.4561 11.3525 23.442 11.3981 23.4463 11.444C23.4505 11.4898 23.4727 11.5321 23.508 11.5616C23.5438 11.5903 23.5894 11.604 23.6351 11.5995C23.6808 11.595 23.723 11.5728 23.7525 11.5376C23.8583 11.4086 23.9248 11.2519 23.944 11.0862C23.9631 10.9205 23.9341 10.7527 23.8605 10.6031Z" fill="#FF6C37"/>
</svg>
