<svg width="35" height="30" viewBox="0 0 35 30" fill="none" xmlns="http://www.w3.org/2000/svg">
<g clip-path="url(#clip0)">
<path d="M17.5 18.0053C19.2229 18.0053 20.6196 16.6598 20.6196 15C20.6196 13.3402 19.2229 11.9946 17.5 11.9946C15.7771 11.9946 14.3804 13.3402 14.3804 15C14.3804 16.6598 15.7771 18.0053 17.5 18.0053Z" fill="#61DAFB"/>
<path d="M17.5 21.1573C26.7448 21.1573 34.2391 18.4006 34.2391 15C34.2391 11.5994 26.7448 8.84265 17.5 8.84265C8.25523 8.84265 0.760864 11.5994 0.760864 15C0.760864 18.4006 8.25523 21.1573 17.5 21.1573Z" stroke="#61DAFB"/>
<path d="M11.965 18.0787C16.5874 25.7917 22.8127 30.6661 25.8696 28.9658C28.9265 27.2655 27.6574 19.6344 23.035 11.9213C18.4126 4.20826 12.1873 -0.666073 9.13044 1.03422C6.07352 2.73452 7.34259 10.3656 11.965 18.0787Z" stroke="#61DAFB"/>
<path d="M11.965 11.9213C7.34259 19.6344 6.07352 27.2655 9.13044 28.9658C12.1874 30.666 18.4127 25.7917 23.035 18.0786C27.6574 10.3655 28.9265 2.73449 25.8696 1.0342C22.8127 -0.666096 16.5874 4.20823 11.965 11.9213Z" stroke="#61DAFB"/>
</g>
<defs>
<clipPath id="clip0">
<rect width="35" height="30" fill="white"/>
</clipPath>
</defs>
</svg>
