<svg width="30" height="30" viewBox="0 0 30 30" fill="none" xmlns="http://www.w3.org/2000/svg">
<path d="M20.2734 26.4844H19.3945V24.7266H10.6055V26.4844H9.72656C8.27033 26.4844 7.08984 27.6649 7.08984 29.1211C7.08984 29.6065 7.48336 30 7.96875 30H22.0312C22.5166 30 22.9102 29.6065 22.9102 29.1211C22.9102 27.6649 21.7297 26.4844 20.2734 26.4844Z" fill="#070613"/>
<path d="M0 19.4531V20.332C0 21.786 1.18277 22.9688 2.63672 22.9688H27.3633C28.8172 22.9688 30 21.786 30 20.332V19.4531H0Z" fill="#070613"/>
<path d="M19.4074 5.40408L16.7014 7.03457L19.3945 8.66202L22.0918 7.03211L19.4074 5.40408Z" fill="#070613"/>
<path d="M20.2734 10.1845V13.4422L22.9102 11.8483V8.59113L20.2734 10.1845Z" fill="#070613"/>
<path d="M27.3633 0H2.63672C1.18277 0 0 1.18277 0 2.63672V17.6953H30V2.63672C30 1.18277 28.8172 0 27.3633 0ZM9.72656 14.1211H6.15234C5.66654 14.1211 5.27344 13.728 5.27344 13.2422C5.27344 12.7564 5.66654 12.3633 6.15234 12.3633H9.72656C10.2124 12.3633 10.6055 12.7564 10.6055 13.2422C10.6055 13.728 10.2124 14.1211 9.72656 14.1211ZM9.72656 10.6055H6.15234C5.66654 10.6055 5.27344 10.2124 5.27344 9.72656C5.27344 9.24076 5.66654 8.84766 6.15234 8.84766H9.72656C10.2124 8.84766 10.6055 9.24076 10.6055 9.72656C10.6055 10.2124 10.2124 10.6055 9.72656 10.6055ZM9.72656 7.08984H6.15234C5.66654 7.08984 5.27344 6.69674 5.27344 6.21094C5.27344 5.72514 5.66654 5.33203 6.15234 5.33203H9.72656C10.2124 5.33203 10.6055 5.72514 10.6055 6.21094C10.6055 6.69674 10.2124 7.08984 9.72656 7.08984ZM24.668 12.3444H24.668C24.668 12.6526 24.5066 12.9375 24.244 13.0963L19.8495 15.7519C19.6731 15.8255 19.5714 15.8789 19.3945 15.8789C19.2187 15.8789 19.116 15.8255 18.9396 15.7519L14.5451 13.0963C14.2825 12.9375 14.1211 12.6526 14.1211 12.3444V7.03318C14.1798 6.6992 14.2141 6.50256 14.5277 6.30006C14.7047 6.18568 19.1333 3.50713 18.956 3.62484C19.2349 3.45662 19.586 3.45574 19.8649 3.62572C19.8828 3.63656 19.8955 3.64436 19.9055 3.65045C19.7895 3.57996 19.5875 3.4575 24.2657 6.30275C24.5079 6.46025 24.6393 6.68719 24.6553 6.98467C24.6562 7.00184 24.668 7.0159 24.668 7.03318V12.3444Z" fill="#070613"/>
<path d="M15.8789 8.59125V11.8483L18.5156 13.4422V10.1849L15.8789 8.59125Z" fill="#070613"/>
</svg>
