<svg width="30" height="30" viewBox="0 0 30 30" fill="none" xmlns="http://www.w3.org/2000/svg">
<g clip-path="url(#clip0)">
<path d="M6.78004 11.028C6.7796 10.9033 6.80375 10.7798 6.85111 10.6645C6.89847 10.5492 6.96811 10.4443 7.05604 10.356L14.736 2.62796C15.5239 1.83988 16.4593 1.21472 17.4888 0.788202C18.5183 0.361681 19.6217 0.142151 20.736 0.142151C21.8504 0.142151 22.9538 0.361681 23.9833 0.788202C25.0128 1.21472 25.9482 1.83988 26.736 2.62796L27.228 3.13196C28.314 4.20568 29.0867 5.55513 29.4631 7.03519C29.8395 8.51525 29.8052 10.0699 29.364 11.532C29.3302 11.6525 29.2729 11.7652 29.1954 11.8636C29.118 11.962 29.0219 12.0442 28.9127 12.1055C28.8035 12.1668 28.6833 12.206 28.559 12.2208C28.4346 12.2356 28.3086 12.2258 28.188 12.192C28.0675 12.1581 27.9548 12.1008 27.8564 12.0234C27.758 11.9459 27.6758 11.8499 27.6145 11.7407C27.5532 11.6315 27.514 11.5112 27.4992 11.3869C27.4844 11.2626 27.4942 11.1365 27.528 11.016C27.8727 9.88015 27.903 8.67213 27.6156 7.52048C27.3282 6.36883 26.734 5.31666 25.896 4.47596L25.404 3.97196C24.1733 2.74308 22.5052 2.05286 20.766 2.05286C19.0268 2.05286 17.3587 2.74308 16.128 3.97196L8.40004 11.7C8.26744 11.8332 8.09823 11.924 7.9139 11.9609C7.72956 11.9978 7.53843 11.979 7.3648 11.9069C7.19116 11.8349 7.04286 11.7129 6.93874 11.5564C6.83461 11.3999 6.77937 11.2159 6.78004 11.028Z" fill="#05A2D8"/>
<path d="M-1.15892e-05 20.916C-0.00277573 20.1041 0.110365 19.2959 0.335988 18.516C0.407597 18.2741 0.572358 18.0706 0.794026 17.9502C1.01569 17.8298 1.27611 17.8024 1.51799 17.874C1.75987 17.9456 1.96339 18.1103 2.08379 18.332C2.20419 18.5537 2.2316 18.8141 2.15999 19.056C1.82526 20.1888 1.80242 21.3909 2.09388 22.5356C2.38534 23.6803 2.98029 24.7252 3.81599 25.56L4.30799 26.052C4.91658 26.6619 5.6395 27.1458 6.43535 27.4759C7.23121 27.8061 8.08437 27.976 8.94599 27.976C9.80761 27.976 10.6608 27.8061 11.4566 27.4759C12.2525 27.1458 12.9754 26.6619 13.584 26.052L21.312 18.324C21.4001 18.2354 21.5048 18.1652 21.6201 18.1173C21.7354 18.0693 21.8591 18.0446 21.984 18.0446C22.1089 18.0446 22.2325 18.0693 22.3479 18.1173C22.4632 18.1652 22.5679 18.2354 22.656 18.324C22.8355 18.5039 22.9363 18.7478 22.9363 19.002C22.9363 19.2562 22.8355 19.5 22.656 19.68L14.94 27.396C14.1529 28.1855 13.2178 28.8119 12.1882 29.2393C11.1586 29.6668 10.0548 29.8868 8.93999 29.8868C7.82519 29.8868 6.72136 29.6668 5.69175 29.2393C4.66215 28.8119 3.72703 28.1855 2.93999 27.396L2.47199 26.916C0.886555 25.3218 -0.00236201 23.1643 -1.15892e-05 20.916Z" fill="#923B95"/>
<path d="M17.484 28.428C17.484 28.1755 17.5835 27.9331 17.7609 27.7534C17.9384 27.5737 18.1795 27.4712 18.432 27.468C18.5237 27.4566 18.6164 27.4566 18.708 27.468C19.8408 27.8027 21.043 27.8256 22.1877 27.5341C23.3324 27.2427 24.3772 26.6477 25.212 25.812L25.704 25.32C26.3156 24.711 26.801 23.9873 27.1325 23.1904C27.464 22.3935 27.6351 21.5391 27.636 20.676C27.6153 18.9638 26.9263 17.3274 25.716 16.116L17.976 8.36401C17.8279 8.17895 17.7535 7.94566 17.7672 7.70905C17.7808 7.47243 17.8814 7.24921 18.0498 7.08237C18.2181 6.91552 18.4422 6.81685 18.6789 6.80533C18.9157 6.79382 19.1483 6.87029 19.332 7.02001L27.048 14.748C27.8395 15.5332 28.4668 16.4681 28.8933 17.4983C29.3198 18.5284 29.5369 19.6331 29.532 20.748C29.5369 21.8629 29.3198 22.9676 28.8933 23.9978C28.4668 25.0279 27.8395 25.9628 27.048 26.748L26.556 27.24C25.4772 28.3183 24.1276 29.0857 22.6494 29.4616C21.1711 29.8375 19.6189 29.8079 18.156 29.376C17.9558 29.3132 17.7817 29.1864 17.6603 29.0152C17.5389 28.844 17.477 28.6378 17.484 28.428Z" fill="#F8A266"/>
<path d="M0.203979 9.3C0.20857 8.18575 0.434802 7.08355 0.869499 6.05758C1.3042 5.03161 1.93867 4.10238 2.73598 3.324L3.22798 2.82C4.30296 1.73609 5.653 0.965618 7.133 0.59139C8.61299 0.217162 10.167 0.253327 11.628 0.695997C11.8699 0.777153 12.0696 0.951071 12.1832 1.17949C12.2969 1.40791 12.3151 1.67212 12.234 1.914C12.1528 2.15587 11.9789 2.35561 11.7505 2.46925C11.5221 2.5829 11.2579 2.60115 11.016 2.52C9.88317 2.18527 8.68103 2.16243 7.53633 2.45389C6.39163 2.74535 5.34678 3.34029 4.51198 4.176L4.01998 4.668C2.7911 5.8987 2.10087 7.56681 2.10087 9.306C2.10087 11.0452 2.7911 12.7133 4.01998 13.944L11.736 21.672C11.8274 21.7571 11.9011 21.8594 11.953 21.973C12.0049 22.0866 12.0339 22.2093 12.0383 22.3341C12.0428 22.4589 12.0226 22.5833 11.979 22.7003C11.9353 22.8173 11.8691 22.9246 11.784 23.016C11.6989 23.1074 11.5966 23.1811 11.483 23.233C11.3694 23.2849 11.2467 23.3139 11.1219 23.3183C10.9971 23.3228 10.8727 23.3026 10.7557 23.259C10.6386 23.2154 10.5314 23.1491 10.44 23.064L2.73598 15.288C1.93724 14.5082 1.30193 13.577 0.867182 12.5489C0.432438 11.5207 0.206979 10.4163 0.203979 9.3Z" fill="#EF516F"/>
<path d="M12.612 23.7C12.2638 24.0444 11.7938 24.2376 11.304 24.2376C10.8142 24.2376 10.3442 24.0444 9.99602 23.7C9.6921 23.3447 9.53315 22.888 9.5508 22.4208C9.56844 21.9536 9.7614 21.5101 10.0912 21.1788C10.4211 20.8474 10.8636 20.6524 11.3308 20.6326C11.7979 20.6129 12.2553 20.7697 12.612 21.072C12.9601 21.4207 13.1556 21.8933 13.1556 22.386C13.1556 22.8787 12.9601 23.3513 12.612 23.7Z" fill="#EF516F"/>
<path d="M19.536 8.64001C19.276 8.90048 18.9446 9.07797 18.5837 9.15001C18.2228 9.22206 17.8487 9.18543 17.5086 9.04475C17.1685 8.90407 16.8778 8.66567 16.6733 8.35972C16.4688 8.05377 16.3596 7.69403 16.3596 7.32601C16.3596 6.95799 16.4688 6.59824 16.6733 6.29229C16.8778 5.98634 17.1685 5.74794 17.5086 5.60726C17.8487 5.46658 18.2228 5.42995 18.5837 5.502C18.9446 5.57404 19.276 5.75153 19.536 6.012C19.8812 6.36225 20.0747 6.83426 20.0747 7.32601C20.0747 7.81775 19.8812 8.28976 19.536 8.64001Z" fill="#F8A266"/>
<path d="M23.568 19.992C23.2127 20.2959 22.756 20.4548 22.2888 20.4372C21.8215 20.4195 21.3781 20.2266 21.0468 19.8967C20.7154 19.5669 20.5204 19.1243 20.5006 18.6572C20.4808 18.1901 20.6377 17.7326 20.94 17.376C21.1119 17.2022 21.3165 17.0642 21.542 16.97C21.7676 16.8759 22.0096 16.8274 22.254 16.8274C22.4984 16.8274 22.7404 16.8759 22.9659 16.97C23.1915 17.0642 23.3961 17.2022 23.568 17.376C23.9124 17.7242 24.1056 18.1942 24.1056 18.684C24.1056 19.1737 23.9124 19.6437 23.568 19.992Z" fill="#923B95"/>
<path d="M9.02398 12.336C8.76467 12.5982 8.43329 12.7774 8.07194 12.8508C7.71058 12.9242 7.33555 12.8886 6.9945 12.7484C6.65344 12.6082 6.36175 12.3698 6.15647 12.0635C5.95118 11.7572 5.84158 11.3968 5.84158 11.028C5.84158 10.6593 5.95118 10.2989 6.15647 9.99255C6.36175 9.68624 6.65344 9.44785 6.9945 9.30767C7.33555 9.16749 7.71058 9.13185 8.07194 9.20528C8.43329 9.2787 8.76467 9.45787 9.02398 9.72003C9.3684 10.0682 9.56158 10.5383 9.56158 11.028C9.56158 11.5178 9.3684 11.9878 9.02398 12.336Z" fill="#05A2D8"/>
</g>
<defs>
<clipPath id="clip0">
<rect width="30" height="30" fill="white"/>
</clipPath>
</defs>
</svg>
