<svg width="36" height="31" viewBox="0 0 36 31" fill="none" xmlns="http://www.w3.org/2000/svg">
<path d="M11.3217 30.4797C24.9074 30.4797 32.3366 18.9389 32.3366 8.9316C32.3366 8.60378 32.33 8.27738 32.3157 7.95266C33.7577 6.88361 35.0112 5.54954 36 4.03101C34.6767 4.63426 33.2523 5.04008 31.7585 5.22342C33.2834 4.2856 34.4542 2.80256 35.0063 1.0345C33.5792 1.90191 31.9988 2.53219 30.3162 2.87268C28.9685 1.40062 27.0494 0.47998 24.9247 0.47998C20.846 0.47998 17.5383 3.87161 17.5383 8.05236C17.5383 8.64687 17.6031 9.22477 17.7297 9.77929C11.5911 9.46246 6.14767 6.44906 2.50516 1.86643C1.87097 2.98561 1.50513 4.28588 1.50513 5.67318C1.50513 8.30047 2.8092 10.6202 4.79196 11.9771C3.58017 11.9388 2.44199 11.5978 1.4469 11.03C1.4458 11.0618 1.4458 11.0928 1.4458 11.1266C1.4458 14.7945 3.99161 17.8569 7.37155 18.5508C6.75082 18.724 6.09769 18.8173 5.42395 18.8173C4.94879 18.8173 4.48572 18.7694 4.03555 18.6807C4.97598 21.6898 7.70279 23.8795 10.9355 23.9409C8.40756 25.9725 5.2229 27.1827 1.76193 27.1827C1.16647 27.1827 0.578156 27.1478 0 27.0779C3.26871 29.2262 7.15045 30.48 11.322 30.48" fill="url(#paint0_linear)"/>
<defs>
<linearGradient id="paint0_linear" x1="18" y1="0.47998" x2="18" y2="30.48" gradientUnits="userSpaceOnUse">
<stop stop-color="#055DC0"/>
<stop offset="1" stop-color="#00E2D6"/>
</linearGradient>
</defs>
</svg>
